<?xml version="1.0" encoding="UTF-8" standalone="no"?>
<!-- Created with Inkscape (http://www.inkscape.org/) -->

<svg
   xmlns:dc="http://purl.org/dc/elements/1.1/"
   xmlns:cc="http://creativecommons.org/ns#"
   xmlns:rdf="http://www.w3.org/1999/02/22-rdf-syntax-ns#"
   xmlns:svg="http://www.w3.org/2000/svg"
   xmlns="http://www.w3.org/2000/svg"
   xmlns:sodipodi="http://sodipodi.sourceforge.net/DTD/sodipodi-0.dtd"
   xmlns:inkscape="http://www.inkscape.org/namespaces/inkscape"
   width="1000mm"
   height="1000mm"
   viewBox="0 0 1000 1000"
   version="1.1"
   id="svg5262"
   inkscape:version="0.92.1 r15371"
   sodipodi:docname="circle3.svg">
  <defs
     id="defs5256" />
  <sodipodi:namedview
     id="base"
     pagecolor="#ffffff"
     bordercolor="#666666"
     borderopacity="1.0"
     inkscape:pageopacity="0.0"
     inkscape:pageshadow="2"
     inkscape:zoom="0.35"
     inkscape:cx="1910.4867"
     inkscape:cy="331.42857"
     inkscape:document-units="mm"
     inkscape:current-layer="layer1"
     showgrid="false"
     objecttolerance="1"
     inkscape:window-width="1366"
     inkscape:window-height="706"
     inkscape:window-x="-8"
     inkscape:window-y="-8"
     inkscape:window-maximized="1" />
  <metadata
     id="metadata5259">
    <rdf:RDF>
      <cc:Work
         rdf:about="">
        <dc:format>image/svg+xml</dc:format>
        <dc:type
           rdf:resource="http://purl.org/dc/dcmitype/StillImage" />
        <dc:title></dc:title>
      </cc:Work>
    </rdf:RDF>
  </metadata>
  <g
     inkscape:label="Layer 1"
     inkscape:groupmode="layer"
     id="layer1"
     transform="translate(0,703)">
    <path
       style="fill:none;stroke:#000000;stroke-width:0.26458332px;stroke-linecap:butt;stroke-linejoin:miter;stroke-opacity:1"
       d="m 127,-647.18452 c 1.87793,1.20631 5.56338,-0.99807 7.55952,0 4.45366,2.22683 9.76468,4.50437 14.3631,6.80358 3.1607,1.58035 7.03946,4.7716 9.07143,6.80357 0.35636,0.35635 1.06114,-0.22538 1.5119,0 1.44339,0.72169 1.16755,2.19857 2.26786,3.0238 0.90152,0.67615 2.22696,0.71506 3.02381,1.51191 0.35636,0.35636 -0.35636,1.15554 0,1.5119 0.70874,0.70874 2.35326,1.26203 3.02381,2.26786 0.98614,1.47921 0.85663,3.22517 1.5119,4.53572 1.57305,3.14609 -0.0522,-0.80814 1.51191,0.75595 0.35771,0.35771 1.39782,20.63888 0.75595,21.92262 -1.73891,3.4778 -2.04078,7.33244 -4.53572,9.82738 -1.11572,1.11572 -1.21286,4.99262 -2.26785,6.04762 -2.34525,2.34524 -5.36526,6.19481 -6.80357,9.07143 -1.67319,3.34637 -6.63823,5.88227 -9.07143,8.31547 -1.17421,1.17421 -2.1956,2.82926 -3.77976,3.77976 -6.3597,3.81582 -13.04842,5.39028 -18.89881,8.31548 -1.01359,0.50679 -3.51428,-0.20429 -4.53572,0 -10.61493,2.12299 -28.264652,1.81628 -38.55357,-0.75595 -10.119892,-2.52998 -19.892698,-6.92254 -28.726188,-11.33929 -1.13773,-0.56886 -2.471293,-3.88148 -3.779763,-4.53571 -9.378318,-4.68916 -9.071428,-18.52097 -9.071428,-28.72619 0,-1.52912 -0.744762,-6.07 0,-7.55953 2.012813,-4.02562 3.068574,-9.20572 4.535713,-13.60714 0.276148,-0.82844 1.777698,-1.53262 2.267857,-2.26786 1.219435,-1.82915 -0.06655,-2.13474 0.755954,-3.77976 1.025369,-2.05074 3.661336,-5.86998 5.291667,-8.31547 0.669102,-1.00366 2.647579,-1.89513 3.023809,-3.02381 0.239054,-0.71716 -0.53454,-1.73332 0,-2.26786 1.300514,-1.30052 5.086824,-5.43017 6.80357,-6.80357 2.937356,-2.34989 7.619714,-4.59591 9.827381,-6.80357 0.349449,-0.34945 1.811433,0.22821 2.267858,0 1.754428,-0.87722 3.567202,-2.16158 5.291666,-3.02381 2.596642,-1.29832 15.877472,0 19.654764,0"
       id="path5807"
       inkscape:connector-curvature="0" />
    <path
       style="fill:none;stroke:#000000;stroke-width:0.26458332px;stroke-linecap:butt;stroke-linejoin:miter;stroke-opacity:1"
       d="m 94.494047,-503.55357 c 3.179233,2.50431 9.509323,2.70576 12.095233,5.29167 2.55695,2.55695 5.56658,7.35338 7.55953,11.33929 0.50397,1.00793 -0.50397,2.77182 0,3.77976 1.49611,2.99221 4.11845,18.97739 2.26786,22.67857 -1.70588,3.41175 -3.62192,7.24382 -5.29167,10.58333 -0.31765,0.63529 -0.31662,2.58447 -0.75595,3.02381 -1.34619,1.34619 -3.97293,2.46102 -5.29167,3.77976 -0.25137,0.25137 0.25137,1.26054 0,1.51191 -1.88082,1.88082 -4.45809,0.92553 -6.803572,1.5119 -9.641353,2.41033 -20.706143,3.32793 -30.994048,0.75596 -1.483424,-0.37086 -3.968694,-0.0945 -5.291667,-0.75596 -0.22538,-0.11269 0.231611,-0.65669 0,-0.75595 -3.37571,-1.44673 -7.540445,-1.50237 -10.583333,-3.02381 -0.22538,-0.11269 0,-0.50397 0,-0.75595 -0.251984,-0.25199 -0.41788,-0.64326 -0.755951,-0.75595 -5.351201,-1.78374 -9.690312,-4.39865 -13.607143,-8.31548 -0.378732,-0.37873 -0.260366,-2.52822 -0.755951,-3.02381 -0.689767,-0.68977 -2.319666,-2.37147 -3.02381,-3.77976 -0.387532,-0.77506 0.212643,-2.17324 0,-3.02381 -0.547258,-2.18903 -1.849231,-15.95631 -0.755954,-18.14286 4.572754,-9.1455 10.710706,-17.07261 20.410715,-21.92262 3.608591,-1.80429 21.834827,-4.95758 25.702381,-3.02381 2.318118,1.15906 6.059297,1.51191 8.315476,1.51191"
       id="path5809"
       inkscape:connector-curvature="0" />
    <path
       style="fill:none;stroke:#000000;stroke-width:0.26458332px;stroke-linecap:butt;stroke-linejoin:miter;stroke-opacity:1"
       d="m 107.34524,-400.74405 c 3.81689,2.66745 11.18106,8.86047 13.60714,12.09524 0.81418,1.08559 0.55238,2.82025 1.5119,3.77976 0.17818,0.17819 0.67627,-0.23905 0.75596,0 0.31873,0.95623 -0.45077,2.1223 0,3.02381 0.98966,1.97933 2.26785,4.31914 2.26785,6.80358 0,8.86116 1.3712,9.49354 -1.5119,18.14285 -0.72228,2.16686 -0.4154,3.85461 -1.51191,6.04763 -2.67902,5.35805 0.83424,-2.37225 -1.5119,0.75594 -0.81419,1.08559 -0.55238,2.82025 -1.51191,3.77976 -0.95625,0.95626 -5.9465,6.37503 -6.80357,6.80358 -1.55283,0.77642 -2.99851,2.2552 -4.53571,3.02381 -2.10077,1.05037 -1.50357,-0.76096 -5.29167,1.51191 -0.76978,0.46186 -2.25081,1.96205 -3.77976,2.26785 -0.724438,0.14489 -3.431982,-0.3679 -4.535713,0 -11.451439,3.81715 -27.028105,2.45404 -35.529763,-6.04763 -0.550915,-0.55092 -3.034149,-0.0103 -3.779761,-0.75594 -0.356359,-0.35637 0.35636,-1.15554 0,-1.51191 -0.50606,-0.50607 -2.57671,-1.37366 -3.023809,-2.26785 -2.660904,-5.3218 -4.186607,-11.39703 -6.803572,-16.63097 -1.224322,-2.44864 0,-8.43446 0,-11.33927 0,-1.48836 -0.642221,-4.00722 0,-5.29167 0.64843,-1.29685 1.753822,-2.23766 2.267857,-3.77976 0.131033,-0.39309 0.535554,-2.80342 0.755952,-3.02381 7.170793,-7.17079 9.464569,-10.02395 19.654763,-15.11904 2.110716,-1.05537 3.739129,-2.85638 6.047618,-3.77978 3.553902,-1.42155 8.025244,-1.36679 11.339285,-3.02379 2.013463,-1.00674 8.031075,-2.78805 10.583333,-1.51191 3.535082,1.76755 4.45744,3.2236 7.55952,5.29167 0.20967,0.13978 0.50397,0 0.75596,0 1.00793,0.25199 2.28915,0.0214 3.02381,0.75594 1.19526,1.19528 1.4292,3.06808 2.26785,4.53572 0.8665,1.51636 3.02381,2.20046 3.02381,3.77976"
       id="path5811"
       inkscape:connector-curvature="0" />
    <path
       style="fill:none;stroke:#000000;stroke-width:0.26458332px;stroke-linecap:butt;stroke-linejoin:miter;stroke-opacity:1"
       d="m 113.39286,-282.05951 c 8.33808,5.64814 13.9807,8.71709 20.41071,16.63094 2.93541,3.61281 9.93769,20.94603 7.55952,25.70239 -2.00971,4.01942 -3.63287,7.71716 -6.04762,11.33928 -2.30494,0.53514 -0.29131,2.09454 -0.75595,3.02381 -1.88661,3.77323 -12.02835,12.0618 -15.11905,13.60713 -6.24762,3.12383 -19.888055,5.61133 -27.21428,3.77978 -3.350885,-0.83772 -6.223828,-2.30312 -9.827382,-3.02382 -0.988362,-0.19767 -2.122284,0.45078 -3.023809,0 -0.441857,-0.22092 -5.950215,-3.4953 -6.803572,-3.77975 -2.703759,-0.90125 -6.301169,-1.79258 -9.071428,-3.02382 -6.803572,-3.02382 1.511906,-0.37798 -2.267857,-2.26785 -1.172327,-0.58616 -1.529575,0.24019 -3.023809,-0.75597 -2.81241,-1.87494 -8.463063,-10.19632 -9.827382,-13.60712 -0.434237,-1.08561 -0.967311,-6.25898 -1.511903,-6.80358 -2.264757,-2.26475 -2.267858,-8.78019 -2.267858,-12.85121 0,-1.98135 -0.868659,-6.57815 0,-8.31545 0.954622,-1.90926 1.20731,-3.92653 2.267858,-6.04764 4.309663,-8.61933 18.62034,-17.54605 27.214284,-20.4107 3.724775,-1.24161 10.43631,0 14.363094,0 3.400245,0 8.348729,-0.73932 11.339288,0.75595 1.097976,0.54898 1.629666,1.16337 3.023806,1.5119 0.0973,0.0243 2.79795,-0.22584 3.02381,0 1.56409,1.56409 -2.39014,-0.0611 0.75595,1.51191 0.93133,0.46567 2.26786,0.34444 2.26786,1.51191"
       id="path5813"
       inkscape:connector-curvature="0" />
    <path
       style="fill:none;stroke:#000000;stroke-width:0.26458332px;stroke-linecap:butt;stroke-linejoin:miter;stroke-opacity:1"
       d="m 130.02381,-173.20239 c 4.31025,4.26654 7.44391,9.71177 11.33928,13.60715 0.73109,0.7311 1.30816,3.576 2.26786,4.53573 1.56409,1.56408 -0.0611,-2.39014 1.51191,0.75594 2.77057,5.54114 4.58154,10.31994 6.80357,15.875 0.76651,1.91627 0,5.46304 0,7.55951 0,5.57345 0.0341,11.27102 -2.26786,15.875 -0.63696,1.27392 -1.74761,1.46307 -2.26786,3.02382 -0.25198,0.75594 0.50397,1.51191 0,2.26785 -1.39106,2.08661 -5.69955,5.07958 -7.55952,7.55954 -2.99581,3.994392 -7.17737,7.808704 -11.33929,10.583337 -1.25992,0.755941 -2.51984,1.511882 -3.77976,2.267849 -0.50397,0 -1.07975,-0.259291 -1.5119,0 -3.73887,2.243323 -0.74634,2.012659 -3.77977,3.023817 -4.48452,1.494817 -8.83286,2.745344 -13.60714,4.5357 -1.62064,0.607747 -3.41645,1.892829 -5.29166,2.267849 -2.15253,0.43053 -17.162208,2.002234 -19.654765,0.755968 -2.155418,-1.077701 -4.466759,-1.855417 -6.803573,-3.023817 -0.456424,-0.228204 -1.918406,0.349461 -2.267857,0 -1.360276,-1.360276 -5.775939,-3.508084 -6.80357,-4.5357 -3.73707,-3.73708 -9.628891,-8.87296 -13.607145,-12.851209 -0.356359,-0.356341 0.225383,-1.061134 0,-1.511904 -2.786322,-5.57263 -0.102753,-0.10274 -3.023809,-3.02379 -1.489342,-1.48934 -0.112919,-1.73776 -0.755952,-3.02382 -1.020519,-2.04102 -2.87266,-3.02392 -3.77976,-5.29167 -1.687672,-4.21918 -2.65203,-9.08381 -4.535715,-12.85118 -0.800751,-1.6015 0.338777,-6.6216 0,-8.31548 -0.04942,-0.2471 -0.643263,0.22537 -0.755952,0 -1.042178,-2.08437 -0.0696,-12.64238 0.755952,-15.11906 0.529166,-1.5875 -0.529167,-3.70417 0,-5.29167 0.284895,-0.85468 7.370066,-16.44147 7.559524,-16.63094 0.811342,-0.81135 3.454135,-2.37255 3.779761,-3.02382 0.225382,-0.45074 -0.314826,-1.11837 0,-1.51191 2.266815,-2.8335 7.346153,-5.83424 9.827381,-8.31545 0.67387,-0.67387 2.220968,-0.35455 3.023809,-0.75597 1.885987,-0.94298 3.447973,-2.8579 5.291667,-3.77976 0.676145,-0.33806 1.550696,0.23905 2.267857,0 8.944946,-2.98164 14.971871,-3.77976 25.702382,-3.77976 3.030474,0 14.675275,-0.97784 16.630955,0 1.69331,0.84667 3.32698,1.61296 5.29166,2.26785 1.13393,0.37799 0.75595,-0.75594 2.26786,0 0.76655,0.38328 1.73357,2.48955 2.26786,3.02382 0.31677,0.31678 1.8097,0.52686 2.26785,0.75594 0.9004,0.45022 3.38395,3.38397 4.53572,4.53573"
       id="path5815"
       inkscape:connector-curvature="0" />
    <path
       style="fill:none;stroke:#000000;stroke-width:0.26458332px;stroke-linecap:butt;stroke-linejoin:miter;stroke-opacity:1"
       d="m 123.22024,-31.083331 c 9.49681,5.513546 8.31981,4.446085 15.11904,12.095242 0.33482,0.376661 -0.25929,1.079738 0,1.511908 0.64546,1.075743 3.28218,3.798888 3.77977,5.291667 1.72303,5.1691115 5.02294,15.1692501 3.02381,21.1666663 -0.63324,1.8997087 -1.83144,3.5459727 -2.26786,5.2916667 -0.76567,3.062658 -1.40493,5.184669 -3.02381,6.803549 -0.37798,0.377983 0.37797,1.889892 0,2.267876 -2.41224,2.412232 -6.54453,7.300462 -9.82738,10.583333 -1.25469,1.25468 -8.50828,4.461642 -10.58334,5.291666 -1.11536,0.446141 -4.15682,0.188516 -5.29166,0.755941 -4.33832,2.16916 -15.310638,1.038146 -18.898811,-0.755941 -2.075405,-1.037722 -6.724592,-0.716465 -8.315476,-1.511908 -4.920652,-2.460334 -10.782855,-7.958561 -13.607142,-13.60715 -1.129046,-2.258087 -1.490348,-4.514162 -3.023809,-6.047608 -0.423286,-0.42328 0.164139,-3.287342 0,-3.779758 -0.530458,-1.591389 -1.721647,-3.653049 -2.267858,-5.2916667 -0.453572,-1.3607256 0.45357,-3.175 0,-4.5357256 -1.186688,-3.56004807 -1.897853,-12.0792873 0,-15.8749997 5.432399,-10.864797 16.909571,-21.166666 30.994046,-21.166666 4.75889,0 9.33597,-1.423723 13.60714,0 3.55686,1.185624 12.09581,6.803575 15.11905,6.803575"
       id="path5817"
       inkscape:connector-curvature="0" />
    <path
       style="fill:none;stroke:#000000;stroke-width:0.26458332px;stroke-linecap:butt;stroke-linejoin:miter;stroke-opacity:1"
       d="m 125.48809,87.601184 c -4.95117,18.832516 5.04871,1.268941 6.80357,3.023817 0.35636,0.356367 -0.32797,1.129268 0,1.511908 2.76352,3.224107 5.07547,5.615199 6.80358,9.071421 0.60476,1.20952 -0.60477,3.32619 0,4.5357 1.93441,3.86885 2.18385,15.37108 0.75595,19.65479 -0.59706,1.79115 -2.74918,4.46775 -3.02381,5.29166 -0.23905,0.71716 0.14825,1.52657 0,2.26785 -0.39715,1.98575 -2.21028,2.90865 -3.02381,4.5357 -0.65951,1.31903 -4.39796,7.86863 -5.29167,8.31549 -0.45076,0.22539 -1.15554,-0.35637 -1.5119,0 -1.24877,1.24878 -3.37976,4.1357 -4.53572,5.29166 -1.85897,1.85899 -10.57926,3.77976 -13.60714,3.77976 -0.95014,0 -6.1575,0.64609 -6.80357,0 -1.08945,-1.08945 -4.476857,-1.45304 -6.04762,-3.02379 -0.178178,-0.1782 0,-0.50398 0,-0.75597 -0.503967,-0.50395 -0.918887,-1.11657 -1.511903,-1.51191 -0.453572,-0.30236 -1.889881,0.37799 -2.267857,0 -0.35636,-0.35634 0.356359,-1.15554 0,-1.5119 -0.699326,-0.69932 -7.911539,-4.5184 -9.07143,-5.29167 -0.503968,-0.50395 -1.007936,-1.00793 -1.511904,-1.51188 0,-0.25199 0.178179,-0.57777 0,-0.75597 -0.754893,-0.75488 -3.494669,-1.74733 -4.535714,-2.26785 -3.146092,-1.57305 0.80814,0.0522 -0.755952,-1.51191 -2.461956,-2.46195 -4.412189,-4.41219 -6.803573,-6.80357 -0.949714,-0.94973 -0.215246,-2.69836 -0.755951,-3.77976 -0.112692,-0.22537 -0.503968,0 -0.755952,0 -0.251984,-0.25199 -0.596585,-0.43723 -0.755954,-0.75594 -0.579387,-1.1588 -0.896776,-2.54953 -1.511903,-3.77979 -1.024959,-2.04991 -0.755952,-11.96652 -0.755952,-15.11903 0,-8.832796 3.378073,-15.071618 6.80357,-21.922633 0.626446,-1.252882 2.167054,-1.411103 3.023809,-2.26785 0.356359,-0.356367 -0.22538,-1.061138 0,-1.511908 0.279183,-0.558351 3.554148,-3.554148 3.779763,-3.779758 0.580298,-0.580285 2.379798,-0.433944 3.023809,-0.755941 0.901894,-0.450956 2.980643,-3.002227 4.535715,-3.779759 2.251509,-1.125775 12.45565,-2.267876 15.874999,-2.267876 2.26039,0 10.87596,-0.463311 12.09524,0.755968 2.93213,2.932112 6.67622,5.920264 9.82738,9.071425"
       id="path5819"
       inkscape:connector-curvature="0" />
    <path
       style="fill:none;stroke:#000000;stroke-width:0.26458332px;stroke-linecap:butt;stroke-linejoin:miter;stroke-opacity:1"
       d="m 41.577381,185.11903 c 0.724641,3.60471 -2.816931,5.427 -3.779763,8.31549 -2.838953,8.51685 -1.186185,26.02809 4.535715,31.75 0.584488,0.58449 0.281609,3.30541 0.755951,3.77975 1.147993,1.148 3.736983,2.74331 5.291667,3.77976 0.755954,0.50398 0.699281,1.86156 1.511906,2.26788 0.604761,0.30236 1.663094,-0.30239 2.267857,0 1.113184,0.55658 1.002988,1.00298 1.511904,1.51191 0.660699,0.66069 3.031466,0.38179 3.779763,0.75594 7.124803,3.5624 18.257012,3.77976 27.214285,3.77976 11.029513,0 22.454534,-0.64392 31.750004,-5.29167 1.42743,-0.71371 1.66366,-2.41962 2.26785,-3.02382 0.17818,-0.17817 0.50397,0 0.75595,0 0.50397,-0.50395 1.11656,-0.91887 1.51191,-1.51188 7.30342,-10.95513 10.58333,-21.73367 10.58333,-35.52978 0,-1.83717 0.57682,-5.07313 0,-6.80355 -1.90022,-5.70066 -5.48698,-12.29056 -9.82738,-16.63097 -0.25198,-0.25199 -0.50397,-2.01586 -0.75595,-2.26785 -0.17818,-0.17817 -0.50397,0 -0.75595,0 -0.50397,-0.25199 -1.11348,-0.35753 -1.51191,-0.75597 -0.64381,-0.64381 -1.03535,-2.40755 -2.26785,-3.02379 -1.89423,-0.94713 -2.88354,-1.37162 -4.53572,-3.02382 -0.74234,-0.74234 -3.24172,-0.21791 -3.77976,-0.75594 -0.17818,-0.17819 0,-0.50397 0,-0.75596 -1.00794,-0.50396 -1.98802,-1.06799 -3.02381,-1.51191 -3.34599,-1.43399 -7.542506,-1.49487 -9.827381,-3.77976 -1.438172,-1.43817 -8.809969,0.13073 -10.583333,-0.75594 -2.379615,-1.18981 -5.467525,-0.75597 -8.315476,-0.75597 -1.992709,0 -6.619894,-0.84778 -8.315476,0 -0.786503,0.39325 -11.874463,4.31496 -12.095239,4.53573 -1.843431,1.84343 -3.920863,2.33841 -6.80357,3.77975 -0.552106,0.27604 -0.505976,1.76491 -1.511906,2.26785 -6.118256,3.05914 -12.85119,10.13863 -12.85119,18.89882"
       id="path5821"
       inkscape:connector-curvature="0" />
    <path
       style="fill:none;stroke:#000000;stroke-width:0.26458332px;stroke-linecap:butt;stroke-linejoin:miter;stroke-opacity:1"
       d="m 168.57738,246.35118 c -2.53848,11.70633 -0.21471,21.49322 4.53571,30.99406 1.57305,3.14608 -0.0522,-0.80814 1.51191,0.75594 2.95028,2.95029 -0.17499,0.40598 0.75595,2.26785 0.71097,1.42195 3.05129,1.56686 3.77976,3.02382 0.22538,0.45077 -0.35636,1.15554 0,1.51191 0.25387,0.25386 2.34514,0.83322 3.02381,1.51191 2.399,2.399 10.91406,2.33399 14.3631,3.02381 4.85711,0.97142 10.19729,1.32694 14.36309,-0.75597 1.16661,-0.5833 5.0014,0.20926 6.04762,0 1.21185,-0.24235 5.09134,-2.20106 5.29167,-2.26784 1.35422,-0.45141 3.25544,-0.11581 4.53571,-0.75597 10.39693,-5.19846 18.32983,-13.98109 23.43453,-24.19046 0.30238,-0.60476 -0.30239,-1.66309 0,-2.26788 1.51944,-3.03887 2.42761,-5.01496 3.77976,-9.07142 0.73164,-2.19493 -1.02257,-5.51439 0,-7.55952 1.37009,-2.74018 1.72341,-13.18413 0,-16.63094 -1.50369,-3.00738 -3.56788,-5.83573 -5.29167,-7.55954 -0.5803,-0.58028 -0.43395,-2.37979 -0.75595,-3.02379 -0.35636,-0.71273 -1.60484,-0.31395 -2.26786,-0.75597 -1.88766,-1.25844 -3.55612,-4.0459 -6.04762,-5.29166 -8.92416,-4.46207 -20.90736,-6.04761 -32.50595,-6.04761 -4.70928,0 -11.8601,-1.25151 -15.875,0.75594 -1.81429,0.90715 -4.98929,-0.90715 -6.80357,0 -1.48329,0.74165 -3.66535,2.48171 -5.29167,3.02382 -0.71716,0.23905 -1.73332,-0.53454 -2.26785,0 -3.36852,3.36851 -12.23113,12.50288 -13.60715,16.63094 -0.73649,2.20951 -0.79409,4.65013 -1.5119,6.80357 -0.99558,2.98672 0.75595,13.20795 0.75595,17.38691"
       id="path5823"
       inkscape:connector-curvature="0" />
    <path
       style="fill:none;stroke:#000000;stroke-width:0.26458332px;stroke-linecap:butt;stroke-linejoin:miter;stroke-opacity:1"
       d="m 182.94047,134.47024 c -8.67709,0.51337 -1.81009,5.1321 -3.02381,7.55952 -0.11269,0.22537 -0.71087,-0.24792 -0.75595,0 -0.63871,3.51292 -3.03098,19.64042 -0.75595,24.19048 1.61851,3.23702 4.495,6.00689 6.80357,8.31546 0.35636,0.35637 1.15555,-0.35634 1.51191,0 4.23683,4.23685 11.42734,4.20177 16.63095,6.80357 2.53715,1.26858 15.86549,0 19.65476,0 6.19247,0 16.33647,1.80639 20.41071,-2.26785 1.04343,-1.04341 5.86158,-2.08182 7.55953,-3.77975 0.23983,-0.23985 4.27182,-4.00794 4.53571,-4.53573 1.01959,-2.03917 2.11019,-5.88994 3.77976,-7.55952 0.79822,-0.79822 2.59846,-2.92904 3.02381,-3.77975 0.30238,-0.60476 -0.30238,-1.66309 0,-2.26785 1.4469,-2.8938 2.54834,-5.09672 3.77977,-7.55955 1.13387,-2.26774 0,-8.64354 0,-11.33927 0,-3.8054 -0.0439,-7.60346 -2.26786,-9.82739 -0.34945,-0.34944 0.22821,-1.81142 0,-2.26785 -0.33823,-0.67646 -4.22164,-6.48949 -4.53572,-6.80358 -0.25198,-0.25199 -2.01587,-0.50395 -2.26785,-0.75594 -0.72547,-0.72546 -1.65044,-3.09308 -3.02381,-3.77976 -4.3754,-2.1877 -8.78309,-3.25763 -12.85119,-5.29166 -0.74191,-0.37097 -4.73673,-0.20103 -5.29167,-0.75597 -0.17818,-0.17817 0.23905,-0.67627 0,-0.75594 -2.84657,-0.94888 -7.16747,1.32995 -9.82738,0 -1.18915,-0.59457 -0.85707,-0.75597 -2.26786,-0.75597 -2.91145,0 -10.21852,-1.31633 -12.85119,0 -4.08108,2.04055 -6.71287,3.68906 -9.07143,6.04764 -0.63986,0.63984 -5.17923,2.15542 -6.80357,3.77975 -0.56925,0.56925 -1.19228,2.70418 -1.5119,3.02382 -0.63619,0.63617 -9.17945,6.04761 -9.82738,6.04761"
       id="path5825"
       inkscape:connector-curvature="0" />
    <path
       style="fill:none;stroke:#000000;stroke-width:0.26458332px;stroke-linecap:butt;stroke-linejoin:miter;stroke-opacity:1"
       d="m 249.46428,8.9821523 c 0.11989,2.4059357 4.96069,2.6928237 6.04762,3.7797577 0.77064,0.770626 -0.8324,1.473677 0.75595,2.26785 0.45816,0.229076 1.95108,0.439182 2.26786,0.755941 0.43815,0.43815 1.07376,2.585667 1.51191,3.023817 0.35635,0.356367 1.06114,-0.225372 1.5119,0 0.58269,0.291359 3.16507,3.165078 3.77975,3.779758 1.29585,1.29585 2.65872,4.926568 3.77979,6.047634 0.62994,0.629947 -0.62998,3.149785 0,3.779758 1.96365,1.963658 1.51188,7.067259 1.51188,10.583333 0,1.457669 -0.21781,10.045198 -0.75594,10.583334 -0.97248,0.972449 -3.2951,4.322339 -3.77976,5.291666 -0.33809,0.676143 0.33806,1.591707 0,2.26785 -1.57305,3.146107 0.0522,-0.808144 -1.51191,0.755967 -0.80565,0.80563 -0.93168,3.006117 -1.51191,3.779758 -3.6734,4.897861 -13.15057,16.024675 -18.8988,18.898791 -2.64953,1.324768 -5.6136,3.184789 -8.31548,4.535725 -0.60476,0.302393 -1.66309,-0.302392 -2.26786,0 -3.69149,1.84576 -19.24001,5.121064 -23.43452,3.023817 -1.14943,-0.574728 -8.18453,-2.892874 -8.31548,-3.023817 -0.79759,-0.797586 -0.73562,-1.501748 -2.26786,-2.267849 -0.63529,-0.317659 -2.58446,-0.316627 -3.0238,-0.755968 -0.43815,-0.43815 -1.07376,-2.58564 -1.51191,-3.02379 -0.25199,-0.252016 -1.25991,0.251989 -1.5119,0 -0.17818,-0.178197 0,-0.503979 0,-0.755968 -0.25199,-0.503952 -0.35753,-1.113472 -0.75595,-1.511908 -1.76923,-1.769216 -4.93347,-5.689415 -6.80358,-7.559516 -0.75082,-0.750835 -1.82493,-10.140395 -3.02381,-11.339275 -1.30902,-1.309026 -0.8035,-3.922421 -1.5119,-6.047634 -2.47416,-7.422462 -4.92734,-16.212052 -2.26786,-24.190483 0.68036,-2.041049 -0.68035,-4.7625 0,-6.803549 1.62864,-4.885928 3.69855,-8.711168 6.80357,-12.851209 0.28662,-0.382138 0.55088,-2.8187122 0.75596,-3.0237907 2.37836,-2.378366 5.85595,-6.659827 9.07142,-9.07145116 2.62977,-1.97230994 5.02122,-2.51060474 7.55953,-3.77975804 8.58225,-4.2911183 6.38315,-3.7797581 16.63095,-3.7797581 1.27979,0 4.17171,-0.5599642 5.29167,0 3.00099,1.500505 6.45133,4.1834858 8.31547,6.0476341 1.99944,1.99942975 9.07143,5.8074453 9.07143,8.3154572"
       id="path5829"
       inkscape:connector-curvature="0" />
    <path
       style="fill:none;stroke:#000000;stroke-width:0.26458332px;stroke-linecap:butt;stroke-linejoin:miter;stroke-opacity:1"
       d="m 179.91666,-90.047631 c 8.88051,-10.993989 19.27867,-15.119029 33.26191,-15.119029 1.84763,0 4.88482,-0.47969 6.80357,0 5.02929,1.25732 9.95104,3.56899 15.11905,5.291663 0.94719,0.315728 7.07794,4.466643 8.31547,5.291667 0.75596,0.503952 0.69928,1.861529 1.51191,2.267849 0.67614,0.338085 1.66309,-0.453575 2.26785,0 6.47945,4.859602 0.45049,0.145019 2.26786,3.779758 0.22538,0.450771 1.09258,-0.279532 1.51191,0 0.59302,0.395341 1.09764,0.931942 1.5119,1.511909 6.4868,9.081532 9.82738,19.71884 9.82738,30.994059 0,0.922099 0.43656,3.6626 0,4.535699 -3.68325,7.366502 -4.56091,10.608548 -10.58333,16.630967 -1.01437,1.01436 -4.01828,1.631156 -5.29167,2.26785 -2.76465,1.382315 -6.20681,2.347462 -9.07142,3.779758 -3.11318,1.556596 -32.51912,3.017229 -35.52977,1.511908 -0.22538,-0.112686 0.22539,-0.643255 0,-0.755941 -2.3383,-1.169167 -7.19947,0.375417 -9.82738,0 -6.03231,-0.861774 -13.611,-2.275602 -15.875,-6.803575 -0.69586,-1.391735 -1.57199,-0.1202 -2.26785,-1.511909 -0.22822,-0.456432 0.34944,-1.918414 0,-2.267849 -4.34282,-4.342818 -5.38104,-11.607403 -7.55953,-18.142876 -1.27808,-3.834236 -2.71727,-13.464275 -0.75595,-17.386908 2.92207,-5.844143 7.83181,-12.972203 14.36309,-15.875 4.55313,-2.023586 4.73203,-0.821373 9.07143,-2.26785 2.5824,-0.860795 4.51236,-2.267849 7.55953,-2.267849"
       id="path5831"
       inkscape:connector-curvature="0" />
    <path
       style="fill:none;stroke:#000000;stroke-width:0.26458332px;stroke-linecap:butt;stroke-linejoin:miter;stroke-opacity:1"
       d="m 198.81547,-224.60715 c 12.54444,-2.15701 17.70909,-2.16045 30.99405,2.26785 1.4541,0.48472 3.26038,-0.0942 4.53572,0.75597 1.30819,0.87212 2.36862,2.31823 3.77976,3.02382 0.45815,0.22907 1.95108,0.43915 2.26785,0.75594 3.20641,3.20641 5.51328,10.60302 6.80357,15.11906 0.9922,3.47265 -0.59662,7.75951 0,11.33927 0.27354,1.64119 1.53363,16.60925 0.75596,17.38691 -2.15311,2.1531 -2.41367,8.15621 -4.53572,11.33928 -5.59975,8.39964 -11.24402,15.25119 -21.92261,17.3869 -5.76888,1.15377 -11.42056,-1.28701 -16.63096,-3.02381 -17.09071,-5.69691 -23.43452,-24.26804 -23.43452,-42.33334 0,-3.5076 -0.70638,-8.41462 0.75595,-11.33927 0.89589,-1.79179 -0.6371,-4.89225 0,-6.80358 1.03063,-3.09189 5.77096,-11.95691 7.55953,-12.85118 1.27553,-0.63778 2.43829,-1.59713 3.77976,-2.26785 0.64974,-0.32488 18.76491,-0.88984 18.89881,-0.75597 0.44677,0.44678 1.77223,1.51191 3.0238,1.51191"
       id="path5833"
       inkscape:connector-curvature="0" />
    <path
       style="fill:none;stroke:#000000;stroke-width:0.26458332px;stroke-linecap:butt;stroke-linejoin:miter;stroke-opacity:1"
       d="m 184.45238,-297.93451 c -1.25992,-1.51191 -2.63585,-2.93426 -3.77976,-4.53573 -0.46963,-0.65749 -1.12792,-20.79468 -0.75596,-21.16666 0.99572,-0.99571 2.05726,-3.35854 3.02381,-5.29167 0.72718,-1.45436 5.29228,-4.28413 6.80358,-5.29167 6.09469,-4.06312 13.43916,-5.29166 21.16666,-5.29166 2.36687,0 6.15146,-0.72134 8.31548,0 2.43911,0.81304 5.59433,2.34352 8.31547,3.02381 0.48892,0.12222 1.09258,-0.27955 1.51191,0 0.92615,0.61744 0.35068,1.88077 1.5119,2.26785 2.48998,0.83 1.43282,-0.0791 3.02381,1.51191 0.70002,0.70001 2.98735,1.63391 3.77977,2.26785 6.90909,5.52728 0.82974,2.34167 3.0238,4.53573 0.37874,0.37872 1.77227,1.01632 2.26786,1.51191 2.22328,2.22326 3.02381,10.05115 3.02381,13.60712 0,9.14326 -1.69279,15.48082 -5.29167,22.67858 -0.59039,1.18078 -2.31448,0.8492 -3.0238,2.26784 -0.22908,0.45816 -0.43918,1.9511 -0.75596,2.26788 -0.77064,0.77063 -1.47368,-0.8324 -2.26785,0.75594 -0.22539,0.45077 0.35636,1.15554 0,1.51191 -0.49559,0.49559 -2.64508,0.37722 -3.02382,0.75594 -0.70611,0.70612 -1.56173,2.3177 -2.26785,3.02382 -0.25805,0.25805 -7.09509,2.41361 -8.31548,3.02382 -0.94384,0.47191 -5.5481,0 -6.04762,0 -1.08277,0 -6.11444,0.68913 -6.80357,0 -1.22397,-1.22397 -2.72328,-1.36166 -4.53571,-2.26785 -1.12526,-0.56264 -2.01577,-2.35181 -3.02381,-3.02382 -0.41933,-0.27956 -1.15555,0.35637 -1.51191,0 -6.04348,-6.04348 -12.09523,-12.35901 -12.09523,-24.19048"
       id="path5835"
       inkscape:connector-curvature="0" />
    <path
       style="fill:none;stroke:#000000;stroke-width:0.26458332px;stroke-linecap:butt;stroke-linejoin:miter;stroke-opacity:1"
       d="m 182.94047,-403.0119 c 0.19788,-1.78324 -0.61743,-10.72184 0.75596,-12.09524 1.78032,-1.78033 3.48188,-4.99378 5.29166,-6.80358 0.35636,-0.35634 1.15555,0.35637 1.51191,0 5.51908,-5.51907 21.03428,-8.75964 29.48214,-4.5357 1.91266,0.95634 4.28345,0.50369 6.04762,2.26785 1.86213,1.86214 5.45338,6.37106 6.80357,9.07143 0.40318,0.80634 -0.40317,2.21747 0,3.02381 1.30519,2.61038 1.29324,2.0492 2.26786,3.02382 1.24802,1.24801 2.67026,19.60589 1.5119,21.92261 -0.59142,1.18284 0.8867,4.40497 0,5.29166 -1.11835,1.11837 -2.0804,3.40485 -3.02381,5.29167 -1.138,2.276 1.50435,0.51403 -1.5119,4.53573 -0.76929,1.02571 -3.28512,3.15444 -4.53572,3.77976 -3.14609,1.57302 0.80814,-0.0522 -0.75595,1.5119 -1.38468,1.38467 -5.08904,3.507 -6.80357,4.5357 -0.64822,0.38894 -1.5507,-0.23905 -2.26786,0 -6.13326,2.04444 -13.36957,-1.27434 -17.3869,-5.29166 -0.35636,-0.35637 -1.06114,0.22539 -1.51191,0 -2.18352,-1.09175 -3.91547,-3.91547 -5.29166,-5.29167 -0.73486,-0.73485 -3.23167,-1.17168 -3.77976,-2.26785 -0.25871,-0.51742 -0.6244,-1.82409 -1.51191,-2.26785 -1.77663,-0.88834 -7.57522,-5.32307 -8.31548,-6.80357 -0.80691,-1.61386 -1.63427,-3.90213 -3.0238,-5.29167 -0.31802,-0.31803 0.13844,-2.74693 0,-3.02382 -1.00794,-2.01586 -0.75596,2.26785 -0.75596,-0.75594 0,-4.69167 -1.7468,-10.11354 0.75596,-15.11906 0.55535,-1.11072 -0.0695,-2.26785 1.5119,-2.26785"
       id="path5837"
       inkscape:connector-curvature="0" />
    <path
       style="fill:none;stroke:#000000;stroke-width:0.26458332px;stroke-linecap:butt;stroke-linejoin:miter;stroke-opacity:1"
       d="m 191.25595,-530.0119 c 7.97327,-2.52733 17.39233,-5.03787 25.70238,-2.26786 2.94209,0.9807 13.77218,8.64555 15.11905,11.33929 0.22538,0.45076 -0.35636,1.15554 0,1.5119 0.46443,0.46444 1.76161,0.49942 2.26786,1.51191 2.38339,4.76679 4.99172,9.98344 7.55952,15.11905 0.62651,1.25302 -1.05377,6.50575 0,7.55952 1.56653,1.56654 0.75595,6.85526 0.75595,9.82738 0,18.86494 -13.2287,32.50595 -31.75,32.50595 -5.74916,0 -11.74565,2.06468 -17.3869,-0.75595 -1.83275,-0.91637 -4.02219,0.25676 -6.04762,-0.75595 -4.2104,-2.1052 -12.64219,-5.35615 -15.11905,-9.07143 -0.9345,-1.40175 -2.30525,-3.09859 -3.02381,-4.53571 -0.22538,-0.45077 0.35636,-1.15555 0,-1.51191 -0.82608,-0.82608 -2.2927,-1.56158 -3.02381,-3.02381 -6.99977,-13.99955 -10.66761,-34.60526 -3.02381,-49.89286 1.21967,-2.43933 4.41092,-2.68862 6.04762,-3.77976 2.41367,-1.60911 16.863,-8.14143 19.65476,-6.04762 0.85526,0.64145 1.51191,1.51191 2.26786,2.26786 z"
       id="path5839"
       inkscape:connector-curvature="0" />
    <path
       style="fill:none;stroke:#000000;stroke-width:0.26458332px;stroke-linecap:butt;stroke-linejoin:miter;stroke-opacity:1"
       d="m 252.48809,-630.55357 c 12.03486,-1.23731 20.56188,-0.80197 32.50597,0.75596 14.50549,1.89202 29.80967,12.32195 34.01784,24.94643 1.11657,3.34968 0.75595,7.71778 0.75595,11.33928 0,3.90841 0.0937,7.37217 -1.51191,10.58333 -0.97571,1.95144 -0.57119,4.92215 -1.51189,6.80358 -0.76612,1.53223 -1.47026,1.47026 -2.26787,2.26785 -0.8736,0.87362 -1.23807,5.01782 -2.26785,6.04762 -1.69238,1.69239 -4.24225,4.99819 -6.04761,6.80357 -0.35637,0.35636 0.22537,1.06115 0,1.51191 -0.27974,0.55945 -5.97694,5.97693 -6.80357,6.80357 -1.30289,1.30288 -4.37312,2.18655 -6.04764,3.02381 -0.31871,0.15937 -0.50395,0.50397 -0.75594,0.75595 -0.75597,0.50397 -1.45523,1.10559 -2.26785,1.51191 -11.61195,5.80596 -25.72281,6.04762 -39.30953,6.04762 -8.3125,0 -14.50909,-0.90195 -20.41072,-6.80358 -0.35636,-0.35636 -1.15554,0.35636 -1.5119,0 -0.28728,-0.28727 -4.50814,-4.48056 -4.53572,-4.53571 -2.46789,-4.9358 -5.3519,-11.51999 -7.55952,-18.14286 -0.72814,-2.18441 0,-5.98145 0,-8.31547 0,-15.51685 -0.0464,-19.56197 6.04762,-31.75 0.18554,-0.37108 4.42843,-5.94033 5.29167,-6.80357 0.25492,-0.25493 1.25698,0.25492 1.5119,0 0.31678,-0.31678 0.52688,-1.80971 0.75595,-2.26786 0.79418,-1.58836 1.49722,0.0147 2.26786,-0.75595 0.35636,-0.35636 -0.35636,-1.15555 0,-1.51191 0.83091,-0.83091 4.2735,-2.51473 5.29167,-3.02381 0.96632,-0.48316 1.5119,0.8149 1.5119,-0.75595"
       id="path5841"
       inkscape:connector-curvature="0" />
    <path
       style="fill:none;stroke:#000000;stroke-width:0.26458332px;stroke-linecap:butt;stroke-linejoin:miter;stroke-opacity:1"
       d="m 291.7976,-471.04761 c -3.42704,11.47826 -9.47533,27.16237 -3.77975,38.55356 0.22539,0.45077 -0.35634,1.15554 0,1.51191 1.39644,1.39644 4.08606,5.14831 5.29166,7.55951 0.53398,1.06797 0.0243,1.53633 0.75597,2.26788 0.62688,0.62688 3.51644,3.10025 4.5357,3.77976 0.41934,0.27956 1.15554,-0.35637 1.51191,0 4.66132,4.66129 12.84142,6.04435 19.65476,8.31548 2.11195,0.70398 24.68207,0.82203 27.97024,0 4.09921,-1.02481 10.12378,-2.21348 13.60715,-4.53572 1.21285,-0.80857 0.34777,-1.39476 1.51191,-2.26785 5.34032,-4.00527 6.57362,-8.61158 9.07142,-13.60715 1.14509,-2.29021 2.81636,-3.3649 3.77976,-5.29167 0.33808,-0.67614 -0.23905,-1.5507 0,-2.26785 0.78126,-2.34379 1.22346,-3.20287 2.26785,-5.29168 1.27307,-2.5461 -0.10343,-5.73728 0.75597,-8.31547 0.7943,-2.38292 1.91502,-18.09254 0.75594,-20.41071 -3.33627,-6.67252 -8.43405,-11.16636 -14.36309,-15.11905 -1.81055,-1.20703 -7.72044,-2.34831 -10.58334,-3.77976 -0.92353,-0.46177 -3.727,0.16174 -4.53572,0 -3.75915,-0.75184 -7.58188,-1.77135 -11.33928,-3.02381 -1.11897,-0.37299 -2.62083,0.23178 -3.77976,0 -10.43357,-2.08672 -23.00594,-1.18453 -28.72618,4.53571 -0.72207,0.72206 -3.67215,0.64834 -4.53572,1.51191 -0.85233,0.85233 -2.76061,1.24871 -3.77976,2.26785 -0.25199,0.25199 -0.50398,2.01588 -0.75597,2.26786 -0.50395,0.50397 -1.76387,0.25198 -2.26785,0.75595 -0.35637,0.35636 0.22537,1.06114 0,1.51191 -0.93533,1.87066 -2.26785,2.66471 -2.26785,4.53571"
       id="path5843"
       inkscape:connector-curvature="0" />
    <path
       style="fill:none;stroke:#000000;stroke-width:0.26458332px;stroke-linecap:butt;stroke-linejoin:miter;stroke-opacity:1"
       d="m 275.16666,-326.66072 c 0.15563,4.52702 -0.56258,10.21411 1.51191,14.36309 0.45358,0.90715 1.81428,1.36073 2.26785,2.26788 4.05855,8.11707 12.53337,11.90453 20.41073,16.63094 0.61113,0.36668 0.83576,1.28654 1.51191,1.51191 10.19005,3.39669 39.50842,10.48387 49.89284,5.29166 0.63746,-0.31874 0.83577,-1.28651 1.51191,-1.5119 2.79035,-0.93012 3.7007,-0.19929 6.80358,-2.26785 12.1572,-8.10483 18.42521,-23.52567 22.67855,-36.28573 0.76723,-2.30172 0.92868,-12.44065 1.5119,-13.60712 1.24212,-2.4842 1.28519,-13.30466 0,-15.875 -1.73511,-3.47025 -5.05637,-7.32425 -6.80357,-9.07145 -0.84495,-0.84495 -2.80035,-1.0222 -3.77976,-1.51189 -0.29501,-0.14753 -1.44124,-1.85457 -2.26785,-2.26787 -1.00793,-0.50395 -2.77183,0.50398 -3.77976,0 -8.86801,-4.434 -19.41451,-3.77976 -30.23809,-3.77976 -2.71375,0 -6.4657,-0.65143 -9.07142,0 -3.73655,0.93414 1.58199,0.75597 -1.51191,0.75597 -6.21699,0 -18.21857,5.36736 -21.92263,9.07142 -0.35635,0.35634 -1.09257,-0.27956 -1.51191,0 -2.02073,1.34715 -1.93016,2.09902 -3.77976,3.02379 -2.57889,1.28948 -6.7215,5.80142 -7.55952,8.31549 -0.23905,0.71715 0.53454,1.73331 0,2.26785 -1.04957,1.04957 -2.12098,1.97413 -3.02381,3.77978 -0.55465,1.10932 -0.0552,1.56707 -0.75595,2.26785 -0.62997,0.62995 0.62995,3.14978 0,3.77976 -1.28211,1.28212 -1.93622,3.44813 -3.02381,4.53572 -0.62003,0.62003 0.1937,2.07415 -0.75594,3.02379"
       id="path5845"
       inkscape:connector-curvature="0" />
    <path
       style="fill:none;stroke:#000000;stroke-width:0.26458332px;stroke-linecap:butt;stroke-linejoin:miter;stroke-opacity:1"
       d="m 287.2619,-220.07142 c -7.33194,14.9906 -6.26139,20.52537 -1.5119,34.77379 0.90305,2.70912 4.81073,5.08579 6.0476,7.55954 0.54899,1.09792 2.37493,0.86302 3.02382,1.51191 0.46445,0.46442 0.49943,1.7616 1.51191,2.26785 3.37114,1.68556 6.66446,3.98537 10.58333,5.29167 1.13393,0.37798 2.64584,-0.37799 3.77976,0 8.10781,2.70258 19.12205,2.11902 25.70239,-2.26785 1.26474,-0.84318 3.30396,-0.89604 4.5357,-1.51191 8.00058,-4.00029 16.94416,-10.14058 23.43454,-16.63097 1.78589,-1.78588 6.59271,-7.89374 7.55952,-9.82736 1.17427,-2.34858 1.53686,-6.07259 3.02382,-7.55955 0.43249,-0.43248 0,-3.20405 0,-3.77975 0,-1.63841 0.18888,-17.198 0,-17.38691 -1.1711,-1.17107 -1.32752,-3.41096 -2.26788,-5.29167 -2.08566,-4.17134 -6.53208,-7.28803 -9.07142,-9.82736 -1.96848,-1.96848 -13.58366,-3.51997 -16.63094,-4.53573 -1.13393,-0.37796 -2.64584,0.37798 -3.77976,0 -5.83711,-1.94569 -31.13201,-1.37396 -34.77382,2.26788 -0.62997,0.62994 -3.14981,-0.62998 -3.77976,0 -1.66153,1.6615 -2.60919,2.06052 -4.53572,3.02379 -1.06712,0.53358 -1.12202,1.48812 -1.51191,2.26787 -0.61624,1.23248 -2.37998,1.62404 -3.02379,2.26785 -3.24697,3.24697 -4.65016,8.42992 -7.55954,11.33928 -0.47684,0.47683 -0.75595,6.0131 -0.75595,6.04763 z"
       id="path5847"
       inkscape:connector-curvature="0" />
    <path
       style="fill:none;stroke:#000000;stroke-width:0.26458332px;stroke-linecap:butt;stroke-linejoin:miter;stroke-opacity:1"
       d="m 343.20239,-115.75 c -4.90649,4.8514 -4.08898,7.42196 -6.80358,12.85119 -1.20353,2.40704 -1.39649,25.061832 0.75594,27.214297 1.14591,1.14591 1.76591,3.951102 3.02382,6.047607 0.77454,1.290929 1.59343,0.163063 2.26785,1.511909 0.33809,0.676143 -0.23905,1.550696 0,2.267849 0.49347,1.480397 2.30346,1.187345 3.02382,2.26785 3.72028,5.580433 7.72017,9.232106 12.09524,13.60715 1.47346,1.473491 2.39196,0.06207 3.77976,0.755968 1.14861,0.574304 1.82168,1.867138 3.02381,2.267849 2.20012,0.733372 4.70371,1.21793 6.80355,2.26785 1.78761,0.893815 13.27666,0.866113 15.875,0 2.4782,-0.826056 4.65717,-3.064299 6.80358,-3.779758 0.71718,-0.239051 1.59173,0.338084 2.26787,0 1.63431,-0.817166 2.9014,-2.962593 4.5357,-3.779758 0.77521,-0.387615 2.24862,-0.368353 3.02382,-0.755968 4.35507,-2.177521 16.17747,-10.885805 19.65476,-14.363091 0.66516,-0.665163 1.01637,-3.28422 1.51191,-3.779758 1.0623,-1.062302 3.12864,-1.826419 3.77975,-3.779758 3.29216,-9.876499 6.80358,-16.07865 6.80358,-27.214278 0,-1.56657 0.48461,-3.83783 0,-5.29166 -2.03388,-6.10161 -4.14562,-9.80316 -6.80358,-15.11906 -1.19128,-2.38255 -8.80797,-6.27666 -9.07142,-6.80358 -0.22537,-0.45077 0.22537,-1.06113 0,-1.51191 -0.0308,-0.0616 -3.44943,-0.4256 -3.77976,-0.75594 -6.34658,-6.34658 -19.32371,-6.04763 -28.72621,-6.04763 -3.20021,0 -17.87951,-1.01928 -19.65476,0.75597 -1.70187,1.70188 -4.96956,2.70168 -6.80357,4.5357 -0.86458,0.8646 -4.00368,0.65325 -5.29167,1.5119 -1.66528,1.1102 -7.30202,5.29167 -8.31545,5.29167"
       id="path5849"
       inkscape:connector-curvature="0" />
    <path
       style="fill:none;stroke:#000000;stroke-width:0.26458332px;stroke-linecap:butt;stroke-linejoin:miter;stroke-opacity:1"
       d="m 315.23215,28.63691 c -0.17614,10.094119 1.39607,13.811382 6.80357,21.922608 0.41511,0.62267 0.39158,2.295075 0.75594,3.023817 0.79418,1.588346 1.49723,-0.01455 2.26785,0.755941 0.35637,0.356367 -0.22537,1.061138 0,1.511908 0.80651,1.61298 2.49127,1.408854 3.77976,2.26785 0.20968,0.139779 0,0.503978 0,0.755967 0.25199,0.251989 0.43722,0.596583 0.75597,0.755941 2.39297,1.196499 5.15165,2.127859 6.80357,3.779758 0.53454,0.534565 1.5507,-0.239051 2.26785,0 0.80444,0.268156 2.10892,1.432428 2.26785,1.511909 1.97456,0.987293 12.07908,0.755967 15.11906,0.755967 13.66957,0 25.27543,-2.487215 36.2857,-9.827392 0.66302,-0.442013 1.70442,-0.192484 2.26788,-0.755941 1.86832,-1.868329 2.81736,-4.329271 4.53569,-6.047634 0.94097,-0.940964 3.44028,-2.892531 4.53573,-4.535699 0.44201,-0.663019 0.19248,-1.704419 0.75594,-2.267876 1.19332,-1.193297 0.46321,1.865815 1.51191,-0.755941 1.02325,-2.558098 1.80155,-4.35901 3.02382,-6.803575 1.17792,-2.355877 0.39706,-6.085814 1.51191,-8.315484 3.13216,-6.264301 4.90958,-18.1510513 1.5119,-24.9464243 -4.09717,-8.194331 -10.91972,-13.3973617 -18.89881,-17.3869087 -2.25804,-1.129003 -4.40894,-0.629152 -6.04764,-2.267849 -1.19353,-1.193536 -10.90115,-1.829726 -11.33927,-2.26785 -1.48117,-1.481164 -14.5977,-3.023817 -17.38691,-3.023817 -14.41707,0 -24.74772,2.825115 -34.01785,12.095242 -0.35637,0.356367 -1.09257,-0.279559 -1.51191,0 -1.23094,0.820632 -3.90284,3.9028422 -4.53572,4.5357255 -0.35634,0.3563408 0.2254,1.0611379 0,1.511882 -0.66503,1.3300869 -2.35876,2.4496977 -3.02379,3.7797846 -0.16357,0.3270779 -2.26788,15.3083949 -2.26788,16.6309409"
       id="path5851"
       inkscape:connector-curvature="0" />
    <path
       style="fill:none;stroke:#000000;stroke-width:0.26458332px;stroke-linecap:butt;stroke-linejoin:miter;stroke-opacity:1"
       d="m 367.39284,106.5 c -1.49799,15.48114 11.15709,2.8416 15.11906,6.80358 5.61999,5.61996 13.19419,10.17037 18.89882,15.875 0.2994,0.2994 4.00772,4.23568 4.5357,5.29166 0.64304,1.28606 -0.7334,1.53445 0.75597,3.02379 6.18463,6.18466 6.80355,15.23384 6.80355,24.19049 0,1.84867 1.09693,9.48642 0,10.58333 -0.91004,0.91003 -2.15437,3.55282 -3.02379,5.29167 -0.3024,0.60475 0.30236,1.66309 0,2.26785 -0.52152,1.04304 -1.83502,1.94169 -2.26788,3.02381 -1.61578,4.03953 -2.98852,5.22113 -4.5357,8.31549 -0.70932,1.41867 -2.43343,1.08706 -3.02382,2.26785 -0.49419,0.9884 0.70237,1.53871 -0.75594,2.26785 -1.3386,0.66931 -2.38032,2.3241 -3.77976,3.02381 -0.92929,0.46464 -2.28917,0.0214 -3.02381,0.75597 -0.74409,0.74406 -0.92112,1.72916 -2.26785,2.26785 -12.7748,5.10992 -30.48466,5.608 -43.84524,2.26785 -1.8973,-0.47432 -4.15034,0.47432 -6.04764,0 -3.27207,-0.81801 -6.25993,-2.8426 -9.07142,-3.77976 -1.5603,-0.52009 -3.74118,-0.13576 -5.29167,-0.75594 -2.5232,-1.00928 -5.07074,-3.70612 -7.55952,-4.53573 -0.71715,-0.23905 -1.5917,0.33809 -2.26785,0 -2.33089,-1.16543 -4.85436,-3.23625 -6.80357,-4.53572 -1.11956,-0.74636 -7.33989,-8.36398 -8.31548,-9.82737 -0.41934,-0.62899 0.23905,-1.55069 0,-2.26785 -0.50044,-1.5013 -2.29307,-3.04903 -3.02382,-3.77978 -1.12914,-1.12914 -0.32684,-6.59903 -0.75594,-8.31546 -1.16136,-4.64539 -1.09763,-17.45951 0.75594,-21.16666 1.80522,-3.61043 3.28554,-7.58878 4.53572,-11.33931 0.18601,-0.558 5.60258,-7.42539 6.04761,-8.31545 2.96233,-5.92468 16.36321,-12.16875 21.92264,-15.875 0.52451,-0.34968 1.69931,0.28427 2.26785,0 2.41715,-1.20859 8.54109,-1.73755 9.82739,-3.02382 0.50591,-0.50594 13.60712,-0.0926 13.60712,0.75594"
       id="path5853"
       inkscape:connector-curvature="0" />
    <path
       style="fill:none;stroke:#000000;stroke-width:0.26458332px;stroke-linecap:butt;stroke-linejoin:miter;stroke-opacity:1"
       d="m 473.22618,214.60118 c -4.60648,6.75209 -7.71269,13.77014 -9.07143,21.92264 -1.23976,7.43862 -0.0275,15.82004 3.02382,21.9226 0.53332,1.06664 -0.10382,3.67594 0.75594,4.53573 2.14408,2.14405 5.41028,6.92216 7.55954,9.07142 1.05434,1.05434 6.14072,3.21223 7.55952,3.77976 1.44058,0.57624 3.95208,0.0862 5.29167,0.75594 5.04486,2.52246 22.15784,3.28417 27.21427,0.75597 1.40449,-0.70226 5.73201,1.07156 6.80357,0 1.18359,-1.18359 6.01367,-2.62887 8.31549,-3.77976 0.45643,-0.22823 1.91841,0.34944 2.26785,0 0.72205,-0.72207 2.91621,-1.4043 3.77976,-2.26787 1.56411,-1.56409 -2.39014,0.0611 0.75596,-1.51191 0.45075,-0.22537 1.09257,0.27956 1.51191,0 1.42039,-0.94692 1.48461,-2.24055 2.26785,-3.02379 0.35637,-0.35637 1.15554,0.35634 1.51191,0 0.73152,-0.73155 0.22196,-1.19991 0.75594,-2.26788 0.73208,-1.46412 2.29174,-0.80372 3.02382,-2.26785 0.2282,-0.45643 -0.34946,-1.91841 0,-2.26785 1.06114,-1.06114 2.33476,-0.95668 3.02382,-3.02382 1.30955,-3.92871 3.18838,-7.95572 3.77975,-12.09524 0.3863,-2.70414 1.65256,-19.37345 0.75594,-21.16666 -1.174,-2.34802 -1.6452,-3.15712 -3.02381,-4.5357 -0.53454,-0.53454 0.33808,-1.59171 0,-2.26788 -0.0737,-0.14737 -1.34787,-0.59192 -1.51188,-0.75594 -1.58959,-1.58959 -3.06541,-4.56343 -5.29167,-6.04761 -7.96526,-5.31016 -17.61956,-6.80357 -28.72621,-6.80357 -6.65668,0 -12.851,1.0078 -18.14285,4.5357 -1.72133,1.14755 -4.3842,0.68021 -6.04761,1.51191 -2.47229,1.23613 -3.62415,3.02381 -6.04763,3.02381"
       id="path5855"
       inkscape:connector-curvature="0" />
    <path
       style="fill:none;stroke:#000000;stroke-width:0.26458332px;stroke-linecap:butt;stroke-linejoin:miter;stroke-opacity:1"
       d="m 462.64284,92.136909 c 1.04574,2.029063 -4.28802,7.858813 -4.5357,10.583331 -0.004,0.0431 -0.79999,18.05477 0,19.65476 1.16293,2.32587 2.62123,4.48651 3.77976,6.80358 -0.28255,1.64684 1.25992,0.25198 1.51191,0.75594 0.322,0.64402 0.17566,2.4435 0.75594,3.02381 0.35637,0.35637 1.06114,-0.22537 1.51191,0 1.26291,0.63146 1.29929,3.20493 3.02382,3.77976 0.4781,0.15936 1.06114,-0.22537 1.51191,0 0.45074,0.22537 -0.35637,1.15554 0,1.51191 0.67064,0.67064 2.83186,0.87998 3.77975,1.51191 1.59076,1.0605 1.18489,0.89892 3.0238,1.51191 1.64687,-0.28258 0.25198,1.25992 0.75596,1.51188 3.91197,1.95598 8.81671,2.51849 12.85119,4.53572 1.2148,0.60741 3.23122,-0.43484 4.53572,0 15.24378,5.08127 26.18875,1.43966 38.55358,-6.80357 3.08636,-2.05759 5.04925,-6.56116 7.55951,-9.07142 1.96623,-1.96623 4.51906,-4.50242 6.04761,-7.55952 1.86161,-3.72319 3.44781,-7.65154 5.29167,-11.3393 0.50397,-1.00793 -0.50396,-2.77183 0,-3.77976 3.04292,-6.08584 3.92977,-18.598779 0.75596,-24.946424 -0.83801,-1.67603 -2.02766,-2.783602 -3.02381,-3.779758 -0.49559,-0.495591 -0.37722,-2.645093 -0.75594,-3.023817 -0.42715,-0.427144 -2.46068,-0.94877 -3.02382,-1.511909 -0.77065,-0.770625 0.8324,-1.473676 -0.75597,-2.267849 -5.3621,-2.68105 -8.98422,-4.114139 -14.36309,-6.803576 -1.20952,-0.604758 -3.32618,0.604759 -4.5357,0 -5.48738,-2.743676 -11.82732,-3.023817 -18.14288,-3.023817 -3.04794,0 -9.457,-1.319106 -12.09521,0 -5.86235,2.931187 -12.59684,4.030583 -18.14288,6.803575 -0.75856,0.379281 -8.83748,8.603562 -9.07142,9.071425 -0.22908,0.458153 -0.43918,1.951091 -0.75594,2.267876 -0.37875,0.378725 -1.77229,1.016318 -2.26788,1.511909 -0.39126,0.391266 -0.36467,2.632524 -0.75594,3.02379 -2.16194,2.161937 -3.02382,2.069941 -3.02382,6.047634 z"
       id="path5857"
       inkscape:connector-curvature="0" />
    <path
       style="fill:none;stroke:#000000;stroke-width:0.26458332px;stroke-linecap:butt;stroke-linejoin:miter;stroke-opacity:1"
       d="m 469.44642,-15.208331 c -1.76398,14.2067224 -1.39081,22.0437071 6.80357,30.238091 10.41162,10.411619 22.52046,15.119059 37.79761,15.119059 1.83158,0 5.95686,0.801317 7.55954,0 3.71272,-1.85637 8.64421,-4.864471 11.33928,-7.559543 1.05068,-1.050687 3.35846,-1.679231 4.53572,-2.267849 2.91542,-1.457696 7.32174,-5.690976 9.07143,-8.315484 0.80129,-1.201923 1.61983,-0.215821 2.26785,-1.511909 1.68042,-3.36079 4.42899,-6.6968419 6.80357,-9.0714243 1.4328,-1.43279814 0.30144,-1.96172667 0.75594,-3.7797581 0.22109,-0.884264 1.83605,-2.1601641 2.26788,-3.0238171 0.7475,-1.4950281 0.76438,-3.796612 1.51191,-5.2916665 1.04426,-2.088515 2.23179,-4.427511 3.02379,-6.803549 0.4558,-1.367393 0.51498,-14.845082 0,-15.875 -0.72335,-1.446688 -1.54451,-3.089036 -2.26785,-4.535725 -0.3147,-0.629391 0.4795,-2.544286 0,-3.023817 -1.80004,-1.80004 -4.03323,-4.78917 -6.04761,-6.803575 -0.25199,-0.251963 -0.50398,-2.015861 -0.75597,-2.26785 -0.56313,-0.563139 -2.59667,-1.084765 -3.02381,-1.511908 -0.45376,-0.453761 -0.61855,-1.672273 -1.51188,-2.26785 -1.35822,-0.905457 -3.18337,-0.835739 -4.53573,-1.511908 -1.15316,-0.57658 -1.89637,-1.704129 -3.02382,-2.26785 -1.61213,-0.80608 -4.32443,-0.181557 -6.0476,-0.755967 -8.80783,-2.935923 -18.98627,-2.99466 -27.97025,0 -1.7617,0.587242 -4.41899,-0.814309 -6.0476,0 -1.65381,0.826902 -4.39926,2.131403 -5.29167,3.023817 -0.52377,0.523769 -3.25602,0.232198 -3.77979,0.755967 -3.30419,3.304196 -2.88427,1.67087 -6.0476,3.779758 -0.83394,0.555943 -1.3748,1.821312 -2.26785,2.26785 -0.45077,0.225372 -1.15554,-0.356368 -1.51191,0 -2.49579,2.495788 -5.8411,5.085159 -8.31548,7.559516 -0.3197,0.319722 -1.40931,5.189061 -1.51191,5.291666 -4.54369,4.543716 -2.00443,13.309442 -3.77976,20.410726 z"
       id="path5859"
       inkscape:connector-curvature="0" />
    <path
       style="fill:none;stroke:#000000;stroke-width:0.26458332px;stroke-linecap:butt;stroke-linejoin:miter;stroke-opacity:1"
       d="m 470.20239,-152.03572 c -2.07243,6.80974 -2.26788,10.83212 -2.26788,16.63097 0,5.03967 -1.59369,10.33798 0,15.11903 2.24766,6.74301 4.64264,9.98775 9.07143,16.63097 0.27955,0.41931 -0.35635,1.15554 0,1.5119 0.35636,0.35634 1.06116,-0.22539 1.5119,0 1.16401,0.58201 1.01293,2.774319 1.51191,3.023794 3.11499,1.557496 5.2832,2.832709 9.07143,3.779758 0.69143,0.172879 0.83576,1.286537 1.51191,1.511909 2.71163,0.903896 5.0171,0.996659 7.55951,2.267876 1.74617,0.873072 6.67123,-0.234897 8.31549,0 17.6785,2.525501 30.60779,-1.125643 43.0893,-13.607147 2.18839,-2.18843 2.29126,-4.57084 3.77975,-6.80358 2.0777,-3.11653 4.76354,-6.73105 6.04761,-10.58333 1.13898,-3.41696 1.29818,-6.37612 3.02382,-9.82739 1.00478,-2.00954 1.57869,-22.54496 0.75594,-24.19046 -2.66279,-5.32561 -3.78018,-9.82803 -6.80358,-14.36309 -0.11197,-0.16801 -2.09505,-0.58317 -2.26785,-0.75597 -2.47954,-2.47954 -4.05616,-5.0519 -7.55951,-6.80357 -0.80285,-0.4014 -2.34995,-0.0821 -3.02382,-0.75595 -0.68654,-0.68654 -2.4062,-2.33703 -3.77976,-3.02381 -1.70714,-0.85358 -3.06594,-0.0212 -4.53572,-0.75594 -1.29686,-0.64844 -2.23764,-1.75382 -3.77976,-2.26788 -1.96212,-0.65402 -19.0432,-1.81766 -21.16667,-0.75594 -1.94257,0.97128 -4.13535,2.06766 -6.0476,3.02382 -1.16465,0.58232 -3.25607,0.11612 -4.53573,0.75594 -1.45264,0.72633 -2.32709,2.29748 -3.77976,3.02381 -4.83211,2.41607 -7.53073,3.75098 -10.58333,6.80358 -0.35637,0.35634 -1.15554,-0.35637 -1.51191,0 -0.6854,0.6854 -0.98901,2.3844 -2.26785,3.02379 -1.86187,0.93094 0.68241,-2.19432 -2.26785,0.75597 -0.50398,0.50395 -0.25199,1.7639 -0.75597,2.26785 -0.64381,0.64381 -2.40755,1.03536 -3.02379,2.26785 -0.58536,1.1707 0.4231,1.08881 -0.75596,2.26787"
       id="path5861"
       inkscape:connector-curvature="0" />
    <path
       style="fill:none;stroke:#000000;stroke-width:0.26458332px;stroke-linecap:butt;stroke-linejoin:miter;stroke-opacity:1"
       d="m 438.45239,-232.16666 c -3.09695,-2.38509 -7.21262,-4.94475 -9.8274,-7.55952 -0.53453,-0.53454 0.33809,-1.59173 0,-2.26787 -0.22537,-0.45075 -1.15554,0.35636 -1.5119,0 -0.27017,-0.27017 -1.00942,-2.27008 -1.51191,-3.02379 -1.54009,-2.31016 -0.0636,-2.45862 -0.75594,-4.53573 -0.73949,-2.21843 -2.26785,-5.11273 -2.26785,-7.55952 0,-7.15835 -0.51367,-13.33579 2.26785,-18.89881 0.22537,-0.45077 -0.35637,-1.15554 0,-1.51191 0.91654,-0.91654 2.25044,-2.25044 3.02381,-3.02382 0.35634,-0.35634 -0.35636,-1.15554 0,-1.51188 2.53402,-2.53405 5.36311,-4.60716 7.55952,-6.80358 0.35637,-0.35636 1.15554,0.35634 1.51191,0 1.04592,-1.04595 1.15718,-2.0905 3.02379,-3.02381 0.97565,-0.48782 6.68599,-1.8311 7.55954,-2.26785 0.22537,-0.11269 -0.23905,-0.67628 0,-0.75597 1.90212,-0.63405 19.33199,-0.61156 21.16667,0 2.58111,0.86037 5.03335,2.18178 7.55951,3.02382 7.97253,2.6575 15.36309,7.30358 21.92261,10.58333 1.53966,0.76983 0.71017,2.22205 1.51191,3.02382 0.25503,0.25503 2.1246,0.54104 2.26788,0.75594 0.57628,0.86447 0.0214,2.28915 0.75594,3.02382 6.05247,6.05247 8.31548,17.20315 8.31548,27.21427 0,4.31557 0.16407,12.68714 -3.02382,15.875 -1.80686,1.80689 -4.37258,5.72138 -6.0476,9.07142 -1.34221,2.68441 -5.31546,4.92559 -7.55955,6.04764 -1.04177,0.52088 -1.01695,1.77289 -1.51191,2.26785 -0.50395,0.50398 -2.51983,-0.50395 -3.02379,0 -5.5998,5.5998 -20.60339,2.07518 -25.70239,-3.02382 -0.4795,-0.4795 -2.3944,0.31472 -3.02381,0 -1.39224,-0.69612 -2.43026,-1.59308 -3.77976,-2.26785 -2.93172,-1.46584 -14.36309,-4.12602 -14.36309,-7.55952"
       id="path5863"
       inkscape:connector-curvature="0" />
    <path
       style="fill:none;stroke:#000000;stroke-width:0.26458332px;stroke-linecap:butt;stroke-linejoin:miter;stroke-opacity:1"
       d="m 455.08333,-405.27975 c 9.0207,-2.19594 17.33253,-0.81034 23.43451,5.29167 1.69424,1.6942 5.80218,2.77836 7.55955,4.53569 0.35634,0.35637 -0.2254,1.06114 0,1.51191 1.34919,2.69841 5.84398,6.59995 7.55951,8.31549 0.73372,0.73371 1.65979,3.17169 2.26785,3.77975 0.69001,0.69001 3.83305,10.74315 4.53573,12.85119 0.0509,0.15256 -0.25152,2.7723 0,3.02381 2.23046,2.23047 0.7816,12.06958 -0.75597,13.60715 -0.26395,0.26395 -0.57317,4.92612 -0.75594,5.29167 -2.07735,4.15467 -3.52642,7.80876 -5.29167,11.33928 -0.0468,0.0936 -1.9522,0.88058 -2.26785,1.5119 -5.1286,10.25721 -39.99161,14.43697 -48.38096,6.04761 -0.50972,-0.50972 -2.41004,0.40921 -3.02382,0 -4.05572,-2.70383 -6.658,-4.39015 -9.82737,-7.55951 -0.94972,-0.94973 -0.21524,-2.69836 -0.75596,-3.77976 -0.26009,-0.5202 -2.47037,-2.6729 -3.02379,-3.77976 -0.20191,-0.40378 0.20187,-1.10813 0,-1.51191 -0.81818,-1.63631 -2.19033,-2.86874 -3.02382,-4.53572 -0.66236,-1.32472 0.43606,-4.09964 -0.75594,-5.29167 -1.67304,-1.67304 -0.99089,-5.00555 -2.26788,-7.55952 -4.10236,-8.20473 1.81621,-21.77526 5.29167,-28.72618 0.60476,-1.20952 2.41906,-1.8143 3.02381,-3.02382 0.22538,-0.45077 -0.35636,-1.15554 0,-1.51191 0.39127,-0.39126 1.87659,-1.12061 2.26785,-1.5119 0.43815,-0.43815 1.07376,-2.58564 1.51191,-3.02379 2.78689,-2.78691 10.28089,-9.07143 14.36309,-9.07143"
       id="path5865"
       inkscape:connector-curvature="0" />
    <path
       style="fill:none;stroke:#000000;stroke-width:0.26458332px;stroke-linecap:butt;stroke-linejoin:miter;stroke-opacity:1"
       d="m 421.06548,-476.33928 c -0.25448,-4.72134 0.0855,-9.32782 1.51191,-13.60714 0.32808,-0.98426 -0.46276,-2.85426 0,-3.77977 0.0737,-0.14738 1.34786,-0.59192 1.51188,-0.75595 0.20182,-0.20181 1.31011,-2.822 1.51191,-3.02381 0.35636,-0.35636 1.06114,0.22538 1.51191,0 3.1461,-1.57304 -0.80815,0.0522 0.75596,-1.5119 0.35634,-0.35636 1.06114,0.22538 1.51189,0 4.00981,-2.0049 8.08595,-3.02381 13.60715,-3.02381 3.22998,0 8.41084,-0.97615 11.3393,0 4.53715,1.51238 8.96138,1.47523 13.60712,3.02381 2.40771,0.80257 14.55923,6.43985 15.11906,7.55952 0.53536,1.07074 6.0316,4.5197 6.80357,5.29167 0.56346,0.56345 0.19249,1.7044 0.75595,2.26786 1.50037,1.50037 3.55462,4.8414 4.53572,6.80357 0.22537,0.45076 -0.35637,1.15554 0,1.5119 0.17817,0.17818 0.67625,-0.23905 0.75594,0 0.60325,1.80971 -0.0913,4.3531 0.75597,6.04762 1.77271,3.54544 3.02379,6.5589 3.02379,10.58333 0,4.62372 1.34766,14.85589 0,18.89881 -0.72414,2.17247 -1.83499,3.34693 -3.02379,4.53573 -0.20836,0.20833 -2.52434,5.54813 -3.77979,6.80355 -4.07199,4.07201 -10.72753,7.25365 -15.87499,9.82739 -2.12292,1.06145 -6.0583,-0.37264 -8.31546,0.75594 -3.03766,1.51884 -11.95049,1.30818 -15.875,0 -1.28797,-0.42931 -3.33179,0.60198 -4.53573,0 -1.18782,-0.59388 -2.45147,-0.93954 -3.02381,-1.51188 -0.50396,-0.50398 -2.51984,0.50395 -3.0238,0 -0.49286,-0.49287 -3.1933,-1.97464 -3.77975,-2.26788 -0.27689,-0.13843 -2.70582,0.31803 -3.02382,0 -3.43768,-3.43768 -5.80641,-6.56235 -9.07142,-9.82736 -0.89681,-0.89681 -0.12031,-2.50847 -0.75597,-3.77976 -0.56507,-1.13017 -3.19625,-2.61276 -3.77976,-3.77977 -0.11269,-0.22539 0,-0.50397 0,-0.75596 0,-0.50397 0.22537,-1.06114 0,-1.5119 -2.42493,-4.84988 -3.02382,-10.89539 -3.02382,-17.38691 0,-3.37374 -0.36073,-7.95472 1.51191,-9.82738 0.0499,-0.0499 1.51191,-5.19078 1.51191,-5.29166 0,-0.79685 -1.21909,-1.61944 -0.75594,-2.26786 8.27445,-11.58424 3.12311,-0.0993 6.04761,-3.02381 0.39843,-0.39842 0.35753,-1.11348 0.75596,-1.5119"
       id="path5867"
       inkscape:connector-curvature="0" />
    <path
       style="fill:none;stroke:#000000;stroke-width:0.26458332px;stroke-linecap:butt;stroke-linejoin:miter;stroke-opacity:1"
       d="m 414.2619,-528.49999 c -2.36979,-1.83555 -10.73615,2.11502 -12.85118,0 -0.37798,-0.37798 -0.37798,-1.13393 -0.75597,-1.51191 -0.1297,-0.1297 -3.99505,-1.72721 -4.5357,-2.26786 -2.25231,-2.2523 -5.81617,-5.81616 -8.31548,-8.31547 -0.52144,-0.52144 -0.84979,-2.89694 -1.51191,-3.77976 -2.3618,-3.14909 -4.35239,-9.09413 -5.29166,-12.85119 -0.33267,-1.33069 -0.99439,-20.68981 -0.75595,-21.16667 0.97952,-1.95904 2.41441,-5.58477 3.02379,-6.80357 0.82889,-1.65774 -0.096,-4.34368 0.75597,-6.04762 3.36958,-6.73914 7.7125,-12.24822 12.85119,-17.3869 0.37872,-0.37874 2.52822,-0.26037 3.02381,-0.75596 1.78488,-1.78487 -4.21648,0.39756 1.51191,-1.5119 5.80448,-1.93483 17.84916,-4.68256 24.19046,-1.51191 1.39909,0.69955 3.79436,-0.4991 5.29166,0 2.93532,0.97844 5.75406,2.75519 8.31549,3.77977 0.50038,0.20014 4.53705,0.37864 5.29166,0.75595 0.22538,0.11269 0,0.50396 0,0.75595 0.25199,0.25198 0.41789,0.64326 0.75595,0.75595 1.14659,0.3822 2.5233,1.26165 3.02381,1.51191 0.80635,0.40317 2.21748,-0.40318 3.02382,0 3.14608,1.57304 -0.80814,-0.0522 0.75594,1.5119 1.13797,1.13796 3.8335,1.93018 5.29167,3.02381 3.32613,2.49459 6.07951,7.5914 8.31548,9.82738 0.84984,0.84983 -0.24183,5.04985 0.75594,6.04762 1.48016,1.48014 2.0624,3.16334 3.02382,6.04762 0.56999,1.71 0.5338,25.83505 0,27.97024 -0.6958,2.78319 -1.7272,4.21038 -3.02382,6.80357 -0.30236,0.60476 0.30239,1.66309 0,2.26786 -3.29562,6.59124 -9.05952,12.08334 -13.60712,16.63095 -0.35637,0.35636 -1.15554,-0.35636 -1.51191,0 -5.07955,5.07955 -24.8099,-0.75595 -33.26191,-0.75595"
       id="path5869"
       inkscape:connector-curvature="0" />
    <path
       style="fill:none;stroke:#000000;stroke-width:0.26458332px;stroke-linecap:butt;stroke-linejoin:miter;stroke-opacity:1"
       d="m 588.8869,-663.81547 c 12.04098,4.44735 17.34963,18.10558 24.94643,25.70238 1.17893,1.17893 1.5119,13.11902 1.5119,15.11905 0,2.44769 0.30012,6.95927 -0.75596,9.07143 -0.65268,1.30538 -1.52779,3.03969 -2.26785,3.77976 -0.5851,0.58511 -0.33155,2.93096 -0.75594,3.77976 -1.02855,2.05707 -3.29737,3.57093 -3.77976,4.53572 -0.34594,0.69183 0.51289,2.51089 0,3.0238 -2.19753,2.19752 -4.61129,5.36724 -6.80358,7.55953 -0.43815,0.43815 -1.07376,2.58566 -1.51191,3.02381 -1.46777,1.46778 -3.82389,2.31198 -5.29166,3.77976 -0.35637,0.35636 0.35637,1.15554 0,1.5119 -0.49559,0.49559 -2.64509,0.37722 -3.02382,0.75596 -3.44408,3.44407 -9.1223,4.56116 -13.60715,6.80357 -1.66042,0.83021 -5.03473,-0.44221 -6.80355,0 -5.71473,1.42868 -16.10225,1.77626 -21.16666,-0.75595 -1.82907,-0.91454 -8.41481,-1.70282 -9.8274,-2.26786 -1.67121,-0.66848 -3.7093,-2.6106 -4.53572,-3.02381 -0.56806,-0.28403 -3.31433,-0.29052 -3.77976,-0.75595 -1.10397,-1.10399 -2.19871,-2.98925 -3.77976,-3.77976 -0.45815,-0.22908 -1.95106,-0.43918 -2.26785,-0.75596 -2.12857,-0.0469 -0.19251,-1.7044 -0.75597,-2.26785 -1.93603,-1.93606 -4.90392,-4.90393 -6.80354,-6.80358 -0.34947,-0.34945 0.2282,-1.81143 0,-2.26785 -0.78463,-1.56924 -2.27124,-3.03055 -3.02382,-4.53572 -0.40317,-0.80635 0.40317,-2.21746 0,-3.02381 -1.6323,-3.26458 -1.49916,-6.73983 -2.26785,-10.58333 -1.55183,-7.75917 -1.89357,-18.13548 1.51188,-24.94643 0.2985,-0.59697 -0.21249,-1.63032 0,-2.26786 0.88196,-2.64584 1.43576,-4.45957 3.02382,-6.04761 0.76123,-0.76123 1.09053,-5.62624 2.26785,-6.80357 1.38872,-1.38872 3.2226,-3.22261 4.53572,-4.53572 0.35637,-0.35636 -0.22537,-1.06114 0,-1.5119 0.79418,-1.58836 1.49723,0.0147 2.26785,-0.75596 0.37875,-0.37873 1.01632,-1.77227 1.51191,-2.26785 0.49559,-0.49559 2.64509,-0.37722 3.02382,-0.75596 1.16221,-1.1622 2.64221,-2.833 4.5357,-3.77976 0.59698,-0.29849 1.63033,0.21251 2.26787,0 2.25581,-0.75194 6.44552,-1.9098 7.55952,-3.02381 1.10241,-1.10242 20.2683,-0.60257 22.67857,0 0.0973,0.0243 2.79795,-0.22586 3.02382,0 1.55901,1.55901 9.15371,3.02381 12.09522,3.02381"
       id="path5871"
       inkscape:connector-curvature="0" />
    <path
       style="fill:none;stroke:#000000;stroke-width:0.26458332px;stroke-linecap:butt;stroke-linejoin:miter;stroke-opacity:1"
       d="m 591.91072,-531.5238 c 4.63309,4.94693 10.65017,8.03778 14.36309,13.60714 13.75016,20.62525 10.78227,38.35462 -4.53573,53.67262 -3.92025,3.92026 -8.15893,4.45744 -12.85118,6.80357 -1.27958,0.63978 -4.32861,-0.96306 -5.29167,0 -2.1936,2.1936 -17.05755,1.87367 -20.41072,0.75595 -2.87962,-0.95988 -6.2371,-2.74058 -8.31546,-3.77976 -1.71132,-0.85566 -4.55747,-5.30254 -6.04763,-6.04762 -0.45815,-0.22908 -1.95107,-0.43917 -2.26785,-0.75595 -0.37799,-0.37798 0.37798,-1.88988 0,-2.26786 -0.89585,-0.89585 -2.47055,-1.7146 -3.02382,-2.26786 -0.84484,-0.84485 -0.66704,-4.44681 -1.51191,-5.29166 -3.60375,-3.60377 -8.05553,-27.47423 -3.77976,-31.75 0.82042,-0.82043 0.19857,-4.17692 0.75597,-5.29167 3.90295,-7.80591 9.44714,-10.95905 15.11903,-16.63095 0.90657,-0.90656 2.50526,-0.1187 3.77976,-0.75595 0.63749,-0.31874 0.87445,-1.19317 1.51191,-1.51191 4.48337,-2.24168 15.76126,-0.0227 19.65476,0.75595 1.21073,0.24215 2.19824,1.51191 3.77976,1.51191"
       id="path5873"
       inkscape:connector-curvature="0" />
    <path
       style="fill:none;stroke:#000000;stroke-width:0.26458332px;stroke-linecap:butt;stroke-linejoin:miter;stroke-opacity:1"
       d="m 608.54166,-424.17857 c 4.99843,2.18766 8.12093,2.73643 12.85118,6.04761 0.90377,0.63264 1.05159,2.41567 2.26788,3.02382 3.01413,1.50706 7.3764,5.68139 9.07142,9.07142 1.41992,2.83985 4.01143,4.2431 5.29167,6.80358 0.52715,1.05433 0.22878,2.72544 0.75594,3.77975 2.86964,5.73932 3.02382,11.40193 3.02382,18.14288 0,7.35105 0.007,11.32618 -3.02382,17.38688 -2.19699,4.39399 -0.93385,4.71363 -3.77976,7.55954 -0.37798,0.37796 0.37799,1.88987 0,2.26785 -0.35637,0.35637 -1.15554,-0.35636 -1.51191,0 -0.66516,0.66517 -1.01637,3.28422 -1.51191,3.77976 -0.17817,0.1782 -0.50395,0 -0.75594,0 -0.75596,0.50398 -1.62541,0.86948 -2.26785,1.51191 -0.25169,0.25167 0.25168,1.26021 0,1.51191 -0.35636,0.35637 -1.15556,-0.35637 -1.5119,0 -1.23616,1.23613 -1.4995,2.76355 -3.02382,3.77976 -2.67385,1.78255 -5.1489,2.19649 -8.31548,3.77976 -0.96359,0.4818 -2.02454,1.93476 -3.0238,2.26785 -3.50316,1.16773 -9.09052,1.53101 -11.3393,3.77978 -0.38504,0.38505 -4.06423,0 -4.5357,0 -5.0166,0 -16.07314,1.44584 -20.41072,0 -3.3016,-1.10053 -6.20747,-1.81718 -9.82739,-3.02382 -4.02559,-1.34186 -12.5871,-9.29925 -14.36309,-12.85118 -0.53314,-1.06627 -0.61117,-2.87904 -1.51191,-3.77978 -1.56409,-1.56409 0.0611,2.39014 -1.51188,-0.75595 -0.4032,-0.80634 0.40317,-2.21747 0,-3.02381 -0.11272,-0.22537 -0.50398,0 -0.75597,0 -0.25199,-0.25199 -0.59658,-0.4372 -0.75594,-0.75594 -2.50508,-5.01013 -5.75249,-14.39932 -6.80358,-19.65476 -0.72379,-3.61897 -0.89014,-18.36206 0,-21.92264 2.17953,-8.7181 6.78656,-15.08503 9.82737,-21.16666 0.67421,-1.3484 11.5203,-9.94804 13.60715,-11.33928 0.52451,-0.34967 1.69931,0.28427 2.26785,0 3.60304,-1.80152 13.95719,-5.69756 17.38691,-2.26785 0.50397,0.50396 2.51983,-0.50397 3.02381,0 0.79367,0.79365 0.26538,0.8444 2.26785,1.51189 1.21841,0.40613 4.50453,-0.0312 5.29167,0.75596 0.75668,0.75669 2.22398,2.26785 3.77976,2.26785"
       id="path5875"
       inkscape:connector-curvature="0" />
    <path
       style="fill:none;stroke:#000000;stroke-width:0.26458332px;stroke-linecap:butt;stroke-linejoin:miter;stroke-opacity:1"
       d="m 608.54166,-293.39881 c 9.66642,2.04237 17.64628,9.33082 24.19048,15.875 0.83947,0.83947 2.68071,5.70455 3.02379,6.04763 0.98719,0.98716 2.03626,1.80462 3.02382,3.77976 1.53596,3.07192 2.35903,8.40663 3.77976,9.82737 0.71115,0.71114 0,8.29664 0,10.58333 0,2.33402 0.72813,6.13108 0,8.31548 -0.63085,1.89254 -1.37774,4.26741 -2.26785,6.04761 -0.3147,0.62942 0.4795,2.54431 0,3.02382 -1.6305,1.63049 -6.25933,9.70655 -6.80358,11.3393 -0.62531,1.87597 -3.04419,1.53228 -3.77975,2.26785 -0.77066,0.77062 0.8324,1.47367 -0.75595,2.26785 -2.23387,1.11694 -3.71702,2.20511 -5.29166,3.77976 -0.6739,0.67386 -2.22099,0.35454 -3.02382,0.75596 -1.45267,0.72634 -2.32712,2.29749 -3.77976,3.02379 -2.40802,1.20402 -4.56612,1.90508 -6.80357,3.02382 -2.4732,1.23658 -6.60845,-0.47553 -9.07143,0.75597 -5.89933,2.94965 -21.3007,0.6219 -24.94642,-3.02382 -0.35637,-0.35637 -1.0926,0.27956 -1.51191,0 -2.8271,-1.88473 -5.80898,-4.29707 -8.31548,-6.80357 -0.37799,-0.37799 0.37798,-1.8899 0,-2.26785 -7.89483,-7.89483 -10.58334,-19.19978 -10.58334,-32.50597 0,-3.05768 -1.25312,-8.83301 0,-11.33927 1.37896,-2.75792 2.43637,-4.11682 3.77976,-6.80358 0.51419,-1.02836 -0.13414,-2.88967 0.75597,-3.77976 2.56746,-2.56749 5.11146,-6.62337 7.55951,-9.07142 1.05802,-1.05802 4.19894,-1.93109 5.29167,-3.02382 1.56409,-1.56408 -2.39014,0.0611 0.75594,-1.51191 0.45077,-0.22537 1.06114,0.2254 1.51191,0 1.20952,-0.60476 1.8143,-2.41903 3.02382,-3.02382 2.6149,-1.30743 4.7625,-2.38125 7.55951,-3.77975 1.26037,-0.63019 3.3005,-0.13833 4.53573,-0.75594 0.73655,-0.36828 1.35678,-1.51191 3.02379,-1.51191"
       id="path5877"
       inkscape:connector-curvature="0" />
    <path
       style="fill:none;stroke:#000000;stroke-width:0.26458332px;stroke-linecap:butt;stroke-linejoin:miter;stroke-opacity:1"
       d="m 657.67857,-173.20239 c 0.57853,9.41589 5.82266,0.90816 8.31548,2.26788 9.70166,5.2918 18.96322,11.46812 23.43452,20.4107 0.45357,0.90715 1.81427,1.36072 2.26785,2.26785 0.4233,0.84664 0.35636,2.22464 0.75596,3.02381 0.45355,0.90715 1.81428,1.36073 2.26785,2.26785 0.66551,1.33102 0.11899,3.26179 0.75594,4.53573 1.93083,3.86165 2.26788,6.77174 2.26788,11.33927 0,3.40024 0.42855,8.64288 -1.51191,10.58334 -0.17277,0.17277 -0.72009,7.88371 -1.51191,9.07145 -1.50151,2.25226 -1.68965,4.04638 -3.02381,6.0476 -3.14608,4.719139 1.16451,-1.92045 -1.51191,0.75595 -0.31676,0.31678 -0.52687,1.809719 -0.75594,2.267872 -0.74449,1.488942 -2.93122,2.175245 -3.77976,3.02379 -0.35637,0.356368 0.22537,1.061165 0,1.511909 -0.13981,0.279612 -10.30386,10.649003 -11.3393,11.339301 -0.41931,0.279532 -1.15554,-0.356368 -1.51191,0 -2.86009,2.860092 -7.6917,2.711926 -11.33928,4.535699 -2.12732,1.063678 -5.34823,-0.3497 -7.55951,0.755967 -2.01589,1.00793 -5.54366,-1.007956 -7.55954,0 -4.41029,2.205143 -19.99816,-0.171714 -24.19046,-2.267876 -4.80999,-2.404983 -10.06499,-5.529262 -12.85121,-8.315457 -2.21083,-2.210858 -5.55879,-9.872848 -6.80355,-13.607155 -0.4818,-1.44539 -0.0898,-3.9593 -0.75597,-5.29166 -0.41219,-0.82439 -1.91778,-2.78538 -2.26785,-4.53573 -0.31244,-1.5622 0.72353,-4.60057 0,-6.04761 -1.20747,-2.41495 -0.0692,-4.81253 -0.75596,-7.55951 -2.13718,-8.54869 -0.25064,-17.64157 3.02381,-24.19048 0.3024,-0.60476 -0.30236,-1.6631 0,-2.26785 1.48273,-2.96545 2.31394,-6.89573 3.77976,-9.8274 1.25833,-2.51661 4.04456,-4.80049 6.04764,-6.80357 0.35634,-0.35634 -0.2254,-1.06114 0,-1.51191 0.81076,-1.6215 11.45071,-9.07142 12.09524,-9.07142 2.11664,0 3.55793,-0.53412 4.5357,-1.51191 0.318,-0.31801 2.74693,0.13845 3.02381,0 2.81091,-1.40544 8.1202,-0.85358 11.33928,0.75596 3.40616,1.70307 3.6114,-0.92432 6.80357,2.26785 0.85183,0.85183 2.26785,-1.15993 2.26785,0.75597"
       id="path5879"
       inkscape:connector-curvature="0" />
    <path
       style="fill:none;stroke:#000000;stroke-width:0.26458332px;stroke-linecap:butt;stroke-linejoin:miter;stroke-opacity:1"
       d="m 622.90475,-28.059514 c -3.12624,2.097193 -8.0395,3.750945 -10.58333,6.803549 -0.32264,0.387165 0.15938,1.033806 0,1.511908 -0.67406,2.022158 -2.88068,3.35034 -3.77976,6.047634 -1.99292,5.9787899 -4.54261,21.9157022 0,26.458333 0.61476,0.614733 -0.26419,3.74314 0,4.535699 0.50437,1.513126 3.16262,8.454311 3.77976,9.071425 2.38974,2.389743 5.52558,5.525585 8.31548,8.315484 0.46442,0.464449 0.4994,1.761622 1.51191,2.267849 2.08703,1.043543 4.76348,1.739689 6.04761,3.023817 0.01,0.01005 10.57545,1.88595 11.3393,2.26785 4.07297,2.036498 24.67721,1.025155 27.21427,-1.511882 0.50398,-0.503978 2.51984,0.503952 3.02382,0 1.84711,-1.847136 6.14529,-3.072659 9.07142,-4.535726 2.18766,-1.093814 5.83634,-5.564002 6.80358,-6.047607 1.36824,-0.684133 3.91176,-1.643909 5.29167,-3.023817 2.63839,-2.638399 9.07142,-16.575193 9.07142,-21.1666668 0,-3.988673 3.40262,-18.8971502 1.51191,-22.6785752 -1.21396,-2.427896 -2.82604,-4.896088 -4.53573,-8.315483 -0.45357,-0.907124 -1.81427,-1.360699 -2.26785,-2.26785 -1.42928,-2.858558 -4.89876,-6.985079 -7.55951,-8.315484 -4.82452,-2.412232 -10.08179,-6.489197 -14.36312,-7.559516 -4.15414,-1.038542 -9.76844,-0.348509 -13.60712,-2.267849 -4.3651,-2.182548 -21.26279,3.875881 -23.43455,6.047607 -1.14056,1.140593 -5.01224,5.291667 -5.29166,5.291667"
       id="path5881"
       inkscape:connector-curvature="0" />
    <path
       style="fill:none;stroke:#000000;stroke-width:0.26458332px;stroke-linecap:butt;stroke-linejoin:miter;stroke-opacity:1"
       d="m 594.17857,120.10715 c 6.53338,8.72887 -3.82236,5.37686 -5.29167,8.31546 -2.07491,4.14983 -1.51191,9.71833 -1.51191,14.36309 0,3.01191 -1.33276,10.18569 0,12.85121 0.67477,1.34951 1.57173,2.38752 2.26785,3.77976 0.22823,0.45643 -0.34943,1.91841 0,2.26785 0.80108,0.80108 6.37834,5.95307 6.80358,6.80357 0.22537,0.45077 -0.35637,1.15554 0,1.51191 3.66138,3.66138 9.16374,6.09378 13.60715,8.31548 0.69223,0.3461 3.38645,-0.0983 3.77976,0 5.88496,1.47125 10.51856,2.03745 16.63094,0 0.90715,-0.30239 2.11666,0.30237 3.02381,0 3.82315,-1.27439 7.3582,-2.54518 11.3393,-4.53572 1.83973,-0.91988 3.29917,-2.02756 5.29167,-3.02382 1.46413,-0.73205 0.80373,-2.29174 2.26785,-3.02379 0.45643,-0.22823 1.91841,0.34944 2.26785,0 0.35637,-0.35637 -0.22537,-1.06116 0,-1.51191 0.48554,-0.97105 4.64188,-4.64187 5.29167,-5.29166 0.67386,-0.67387 0.35454,-2.22097 0.75596,-3.02382 0.70557,-1.41113 2.15167,-2.47155 3.02379,-3.77976 0.95123,-1.42682 0.0707,-3.92112 0.75597,-5.29167 3.20358,-6.40715 2.45777,-14.35936 0.75594,-21.16666 -0.29128,-1.16518 -3.16084,-2.85139 -3.77975,-3.77976 -5.509,-8.26349 -22.05721,-11.93991 -31.75,-14.36309 -2.63144,-0.65786 -6.38115,0 -9.07143,0 -1.46404,0 -4.76649,-0.64059 -6.04763,0 -1.35036,0.67516 -4.56131,3.0494 -5.29167,3.77976 -1.72,1.72 -5.29167,2.14185 -5.29167,5.29166"
       id="path5883"
       inkscape:connector-curvature="0" />
    <path
       style="fill:none;stroke:#000000;stroke-width:0.26458332px;stroke-linecap:butt;stroke-linejoin:miter;stroke-opacity:1"
       d="m 618.36905,216.86903 c 6.77069,7.6612 -4.38314,4.07797 -5.29167,6.80358 -4.29664,12.88994 -5.19612,25.79793 4.5357,35.52975 0.35637,0.35637 -0.15935,1.03381 0,1.51191 0.0926,0.27787 3.43125,4.94316 3.77976,5.29167 0.35637,0.35637 1.06114,-0.22537 1.51191,0 3.34163,1.67082 6.55645,6.5528 10.58333,7.55954 3.7972,0.9493 8.43193,3.08203 11.3393,4.5357 1.35229,0.67614 3.06893,-0.36668 4.5357,0 0.24448,0.0611 -0.22537,0.64326 0,0.75597 3.1174,1.55869 7.95891,1.14104 11.3393,2.26785 4.70049,1.56683 19.54819,-0.35134 24.19046,-1.51191 2.89401,-0.7235 8.591,-4.0553 10.58333,-6.04761 6.01425,-6.01424 10.68486,-15.3221 15.11906,-24.19048 0.40318,-0.80635 -0.40317,-2.21747 0,-3.02382 3.87893,-7.75782 3.54256,-21.64106 0,-28.72618 -2.11195,-4.22391 -2.72343,-2.72344 -3.77976,-3.77976 -2.36444,-2.36445 -4.44891,-4.44891 -6.80357,-6.80357 -0.37798,-0.37799 -1.88989,0.37798 -2.26785,0 -3.84233,-3.84234 -1.96839,-1.66407 -6.04763,-3.02382 -1.87011,-0.62336 -3.23856,-2.33945 -5.29167,-3.02382 -1.69413,-0.5647 -3.55822,-0.17812 -5.29167,-0.75594 -8.04214,-2.6807 -14.15452,-3.77976 -22.67857,-3.77976 -1.68669,0 -9.50995,-1.07339 -10.58334,0 -1.20388,1.20388 -3.73041,1.68855 -6.0476,2.26785 -3.12653,0.78163 -7.21281,4.94496 -8.31549,6.04764 -0.49559,0.49556 -2.64506,0.37721 -3.02381,0.75594 -2.16419,2.16418 -7.55952,6.85964 -7.55952,9.82739"
       id="path5885"
       inkscape:connector-curvature="0" />
    <path
       style="fill:none;stroke:#000000;stroke-width:0.26458332px;stroke-linecap:butt;stroke-linejoin:miter;stroke-opacity:1"
       d="m 362.10118,235.01191 c -3.46094,2.85676 -4.89956,6.77529 -6.80358,10.58333 -0.30858,0.61719 -0.86452,16.52238 -0.75594,16.63094 0.66516,0.66516 1.75353,2.49394 2.26785,3.77976 5.72212,14.30531 14.74531,18.21931 29.48215,21.16667 2.95516,0.59105 12.00232,2.31433 15.11906,0.75596 2.96487,-1.48243 7.54216,-0.99636 10.58333,-3.02381 0.32756,-0.21836 0.6522,-1.08207 1.51189,-1.51191 0.60478,-0.30237 1.66311,0.30239 2.26787,0 3.14608,-1.57306 -0.80814,0.0522 0.75594,-1.51191 2.04682,-2.04682 6.40345,-3.95766 9.07143,-5.29167 0.19026,-0.0951 0.57708,-1.24359 0.75597,-1.51191 1.1562,-1.73431 3.24651,-1.9573 3.77975,-3.02379 1.68947,-3.37896 3.54111,-6.32629 5.29167,-9.82739 0.9725,-1.945 0.30348,-4.8392 1.51191,-6.04761 0.29453,-0.29456 0,-2.56249 0,-3.02381 0,-8.44736 -0.51213,-14.11925 -6.04764,-19.65476 -0.25241,-0.25244 0.25244,-1.2595 0,-1.51191 -2.72838,-2.72838 -8.54789,-6.28004 -11.33927,-9.07142 -0.53454,-0.53454 -1.59171,0.33805 -2.26785,0 -0.59735,-0.29867 -3.08954,-1.57764 -3.77978,-2.26785 -0.50396,-0.50398 -2.51984,0.50395 -3.02379,0 -1.2237,-1.2237 -19.92638,-2.21356 -23.43455,-1.51191 -0.55501,-0.98658 -3.72985,1.31043 -4.5357,1.51191 -0.72456,0.18113 -8.57437,1.7708 -9.07142,2.26785 -0.31964,0.31961 -0.94266,2.45456 -1.51191,3.02381 -0.35637,0.35634 -1.15554,-0.35636 -1.51191,0 -0.25241,0.25242 0.25241,1.25947 0,1.51188 -0.30673,0.30676 -3.00082,1.48895 -3.02382,1.51191 -1.74024,1.74027 -3.21593,3.27999 -5.29166,6.04764 z"
       id="path5887"
       inkscape:connector-curvature="0" />
    <path
       style="fill:none;stroke:#000000;stroke-width:0.26458332px;stroke-linecap:butt;stroke-linejoin:miter;stroke-opacity:1"
       d="m 715.13093,-654.74404 c -8.3013,4.94292 -8.44685,16.89372 -11.33927,22.67857 -0.5927,1.18536 0.42074,3.27349 0,4.53571 -4.16706,12.50115 -0.29477,25.40762 7.55951,33.26191 0.64381,0.64381 1.03537,2.40756 2.26788,3.02381 2.5545,1.27725 10.14061,7.11681 12.09522,9.07143 4.55019,4.55018 31.20183,4.67275 37.79763,3.02381 2.17744,-0.54436 4.02603,-2.97114 6.04761,-3.77977 1.19298,-0.47719 2.87123,0.15259 3.77975,-0.75595 2.0696,-2.06958 4.4899,-3.0009 7.55955,-4.53571 3.14608,-1.57305 -0.80815,0.0522 0.75594,-1.51191 1.70124,-1.70125 5.7277,-2.70389 7.55951,-4.53571 1.18962,-1.18962 6.25028,-5.89962 6.80358,-7.55952 0.69945,-2.09836 2.04666,-2.58138 3.02382,-4.53572 0.22537,-0.45076 -0.35637,-1.15554 0,-1.5119 1.12545,-1.12546 2.1496,-2.03137 3.02381,-3.77977 1.82394,-3.64788 3.24832,-8.23304 4.5357,-12.09523 0.42932,-1.28795 -0.60195,-3.3318 0,-4.53572 2.30384,-4.60766 2.71336,-22.23309 -1.51191,-26.45833 -1.87187,-1.87189 -4.32366,-4.32367 -6.0476,-6.04762 -0.97348,-0.97349 -2.67595,-0.20404 -3.77976,-0.75595 -3.14611,-1.57305 0.80814,0.0522 -0.75597,-1.51191 -0.46543,-0.46543 -3.2117,-0.47192 -3.77976,-0.75595 -9.2855,-4.64275 -30.61001,-6.42761 -40.82142,-3.02381 -3.38378,1.12793 -8.35729,0.0418 -10.58333,2.26786 -0.34944,0.34945 -1.81142,-0.22821 -2.26785,0 -2.36683,1.18341 -9.8274,4.48797 -9.8274,6.04762"
       id="path5889"
       inkscape:connector-curvature="0" />
    <path
       style="fill:none;stroke:#000000;stroke-width:0.26458332px;stroke-linecap:butt;stroke-linejoin:miter;stroke-opacity:1"
       d="m 662.21427,-517.16071 c -3.4412,11.70182 0.035,17.06147 5.29166,24.94643 0.0939,0.14083 0.67855,2.94639 0.75597,3.02381 1.35787,1.35788 2.73389,3.19992 3.77976,5.29167 0.54896,1.09792 2.37492,0.86301 3.02382,1.5119 0.70612,0.70612 1.56172,2.31769 2.26784,3.02381 1.94475,1.94474 4.65664,1.95034 6.80358,3.02381 1.27146,0.63573 3.94496,3.48439 4.5357,3.77976 0.83251,0.41625 2.13741,-0.29547 3.02382,0 3.75851,1.25284 5.55633,2.83064 9.82739,3.77976 4.3485,0.96634 18.69834,2.0827 22.67857,0.75596 2.58276,-0.86093 4.90371,-2.13854 7.55952,-3.02381 0.98425,-0.32809 2.85424,0.46275 3.77976,0 3.52703,-1.76353 10.36039,-7.33658 13.60715,-10.58334 0.31676,-0.31677 0.52686,-1.8097 0.75594,-2.26785 1.21044,-2.4209 4.49971,-6.01163 6.04763,-7.55953 0.34944,-0.34945 -0.22823,-1.81143 0,-2.26786 0.76055,-1.52109 2.26862,-3.78052 3.02379,-4.53571 0.96351,-0.96351 2.5363,-10.6327 3.02382,-12.09524 2.91177,-8.73532 2.31471,-21.07295 -1.51191,-28.72619 -0.57197,-1.14395 -2.46681,-2.46683 -3.02382,-3.02381 -0.79898,-0.799 -2.4761,-4.19625 -3.02379,-5.29166 -0.69122,-1.38245 -2.99688,-1.48497 -3.77975,-2.26786 -0.2517,-0.25168 0.25167,-1.26022 0,-1.51191 -0.68064,-0.68063 -12.24831,-6.50212 -14.36312,-7.55952 -2.83041,-1.41521 -7.30808,0.25144 -10.58333,-3.02381 -1.03,-1.03001 -5.46138,0.6711 -6.80355,0 -1.53379,-0.76689 -14.91218,-1.61534 -16.63097,-0.75595 -2.24234,1.12117 -3.80907,2.27762 -6.04761,3.02381 -1.21851,0.40616 -1.85764,2.44072 -3.02382,3.02381 -0.45077,0.22538 -1.15554,-0.35636 -1.5119,0 -1.3861,1.3861 -13.15715,12.70715 -13.60715,13.60714 -0.61921,1.23844 -0.1768,2.44468 -1.51189,3.77976 -0.96017,0.96016 -2.05467,2.81061 -2.26787,3.02381 -0.35634,0.35636 -1.15554,-0.35636 -1.51191,0 -1.46757,1.46758 -6.04761,11.8171 -6.04761,13.60714"
       id="path5891"
       inkscape:connector-curvature="0" />
    <path
       style="fill:none;stroke:#000000;stroke-width:0.26458332px;stroke-linecap:butt;stroke-linejoin:miter;stroke-opacity:1"
       d="m 709.83927,-407.54763 c -5.42671,8.26011 -17.62543,30.51696 -12.09522,41.57739 0.40317,0.80635 -0.4032,2.21748 0,3.02382 0.96038,1.92077 2.79334,3.31886 3.77976,5.29167 0.20164,0.40325 -0.20164,1.10863 0,1.51191 0.68773,1.37549 9.04105,8.55731 10.58333,9.07142 1.12493,0.37497 2.73571,0.23392 3.77976,0.75594 0.0814,0.0407 0.9122,1.21206 1.51191,1.51191 4.62521,2.31262 10.24556,2.56141 15.11903,3.77976 15.65608,3.91403 34.14093,4.85217 48.38097,-2.26785 2.86702,-1.43351 5.14135,-1.3616 7.55951,-3.77976 1.68122,-1.68121 5.00386,-1.98003 6.80358,-3.77976 0.35637,-0.35636 -0.22537,-1.06116 0,-1.51191 0.75594,-1.5119 3.02382,-2.26787 3.77976,-3.77975 0.22537,-0.45077 -0.35637,-1.15557 0,-1.51191 0.86357,-0.86358 2.30174,-2.30177 3.02381,-3.02382 0.53454,-0.53454 -0.33808,-1.59171 0,-2.26785 0.45358,-0.90715 1.81428,-1.36072 2.26785,-2.26787 0.99677,-1.99351 0.81942,-4.72607 1.51191,-6.80355 2.95201,-8.85603 4.16497,-16.97273 2.26785,-26.45834 -0.25786,-1.28939 -4.69236,-6.96023 -5.29167,-7.55954 -1.54611,-1.54612 -2.55772,-4.21457 -3.77975,-6.04761 -3.3817,-5.07256 -10.29068,-8.92511 -15.11906,-11.3393 -1.28606,-0.64301 -1.53445,0.7334 -3.02379,-0.75594 -0.92075,-0.92075 -0.35412,-1.68897 -1.51191,-2.26785 -1.40568,-0.70284 -18.1165,-3.77976 -20.41073,-3.77976 -8.62311,0 -14.64916,1.65492 -21.9226,5.29167 -0.80635,0.40317 -2.21748,-0.4032 -3.02382,0 -2.26023,1.13012 -3.44059,1.92868 -5.29167,3.77976 -0.34943,0.34943 -1.81141,-0.22823 -2.26785,0 -1.01248,0.50623 -1.04748,1.80343 -1.51191,2.26785 -0.49559,0.49559 -2.64506,0.37722 -3.02381,0.75594 -0.35634,0.35637 0.35636,1.15557 0,1.51191 -0.6631,0.6631 -3.11666,1.60475 -3.77976,2.26787 -1.25169,1.2517 -3.47536,3.47536 -4.5357,4.5357 -0.56346,0.56346 0.0172,2.0746 -0.75597,2.26785 -0.97784,0.24448 -2.01586,0 -3.02381,0 z"
       id="path5893"
       inkscape:connector-curvature="0" />
    <path
       style="fill:none;stroke:#000000;stroke-width:0.26458332px;stroke-linecap:butt;stroke-linejoin:miter;stroke-opacity:1"
       d="m 701.52381,-287.35118 c -1.25992,3.27578 -2.59932,6.52211 -3.77976,9.82737 -0.19936,0.55819 0,1.67013 0,2.26785 0,0.85574 -1.02552,21.38352 0,23.43454 0.88728,1.77456 1.41856,4.34904 2.26785,6.04761 1.90384,3.8077 5.06807,7.11234 6.80357,10.58333 1.10787,2.21575 4.75396,3.24207 6.04761,4.53573 0.64381,0.64381 1.03537,2.40755 2.26785,3.02379 0.45643,0.22823 1.91842,-0.34944 2.26788,0 5.96476,5.96479 24.05462,4.53572 33.26191,4.53572 5.8262,0 25.46519,-7.32234 29.48212,-11.33927 3.13931,-3.13934 5.27913,-6.79104 8.31548,-9.82739 1.72935,-1.72935 2.3181,-2.41859 3.02382,-4.53573 0.78653,-2.35955 0.50395,0.25199 1.51191,-0.75594 1.26812,-1.26815 5.46439,-8.83367 6.04761,-10.58333 0.36904,-1.1071 -0.28329,-2.64658 0,-3.77976 1.24195,-4.96787 1.51191,-9.02258 1.51191,-14.36309 0,-3.90131 0.36284,-10.2507 -0.75597,-13.60715 -4.76798,-14.30393 -19.91551,-23.26947 -34.01785,-27.97024 -1.81428,-0.60476 -4.23333,0.60475 -6.04761,0 -3.02448,-1.00815 -13.44197,-1.81896 -16.63097,-0.75595 -4.98263,1.66087 -10.19542,4.34176 -15.11903,6.80358 -0.80285,0.4014 -2.34995,0.0821 -3.02382,0.75594 -0.91982,0.91982 -6.64612,5.21295 -8.31548,6.04761 -1.2088,0.60441 -4.20944,1.94159 -5.29167,3.02382 -0.35634,0.35636 0.35637,1.15554 0,1.5119 -1.78876,1.7888 -4.5357,5.58885 -4.5357,8.31549"
       id="path5895"
       inkscape:connector-curvature="0" />
    <path
       style="fill:none;stroke:#000000;stroke-width:0.26458332px;stroke-linecap:butt;stroke-linejoin:miter;stroke-opacity:1"
       d="m 786.94641,-183.02975 c 8.94086,-1.46894 22.65135,0.72871 27.97025,6.0476 0.34946,0.34947 1.81144,-0.2282 2.26785,0 1.27235,0.63619 3.74324,2.98731 4.53572,3.77976 0.52631,0.52634 3.47684,3.17394 3.77976,3.77976 0.93094,1.86187 -2.19432,-0.68241 0.75594,2.26788 0.70961,0.70958 4.39161,4.24748 5.29167,6.0476 1.56432,3.12862 6.38963,11.68128 8.31548,13.60715 0.53454,0.53454 -0.18333,1.53448 0,2.26785 0.60156,2.40626 2.28963,4.60105 3.02382,6.80358 0.95805,2.87414 0.15118,5.59403 1.51191,8.31548 0.55194,1.1039 -0.32592,15.77086 -0.75597,16.63094 -0.34285,0.68572 -1.64518,2.53442 -2.26785,3.77976 -1.00738,2.01475 -0.84399,4.04392 -1.51191,6.04764 -0.56737,1.70211 -1.83049,2.74574 -3.02382,4.535694 -0.55901,0.838544 0.44583,2.888139 0,3.779758 -0.23817,0.476383 -2.51364,2.513648 -3.02379,3.023817 -2.22242,2.222421 -1.87116,4.894977 -3.77975,6.803576 -1.70278,1.702778 -5.124,5.683858 -6.80358,6.803575 -0.48789,0.325252 -2.69642,1.184513 -3.02382,1.511908 -0.25175,0.251751 0.25175,1.260158 0,1.511909 -0.73464,0.734642 -2.09454,0.291306 -3.02381,0.755941 -2.38726,1.193614 -4.46038,2.998708 -6.80358,3.779758 -1.06093,0.353642 -2.78421,-0.497761 -3.77976,0 -6.12574,3.062869 -13.40961,2.267849 -21.16666,2.267849 -11.62423,0 -24.69171,-0.501226 -32.50594,-8.315457 -0.66517,-0.665162 -3.28422,-1.01637 -3.77976,-1.511908 -5.37649,-5.376492 -7.9121,-9.776566 -11.3393,-16.630968 -0.25199,-0.503952 -1.25992,-0.251962 -1.51191,-0.755941 -0.89022,-1.78046 -1.38412,-4.280161 -2.26785,-6.047611 -0.31874,-0.63748 -1.28651,-0.83576 -1.51191,-1.5119 -1.72704,-5.18113 -2.38212,-10.81189 -4.5357,-15.11906 -1.17959,-2.35916 0,-10.5146 0,-12.85119 0,-14.21026 4.43278,-30.89111 12.85118,-39.30951 1.19158,-1.19161 3.7066,-6.01104 5.29167,-6.80358 0.45077,-0.2254 1.09257,0.27954 1.51191,0 1.55821,-1.0388 0.96906,-2.37442 2.26785,-3.02381 2.74788,-1.37393 5.34686,-3.80736 8.31548,-5.29167 2.72622,-1.36311 25.47308,0 30.23809,0"
       id="path5897"
       inkscape:connector-curvature="0" />
    <path
       style="fill:none;stroke:#000000;stroke-width:0.26458332px;stroke-linecap:butt;stroke-linejoin:miter;stroke-opacity:1"
       d="m 806.60117,-22.011906 c 13.08087,6.713564 16.63097,20.2384549 16.63097,34.017849 0,2.855621 0.43717,5.929259 -0.75597,8.315484 -0.72723,1.454467 -0.0876,3.954912 -0.75594,5.291666 -0.31874,0.637487 -1.19316,0.874422 -1.51191,1.511909 -1.03439,2.06875 -1.29066,6.58233 -3.02381,8.315483 -1.40928,1.409277 -1.50556,0.736918 -2.26785,3.023791 -0.67683,2.030545 -13.64062,10.59172 -16.63094,11.339301 -1.30448,0.326099 -3.22607,-0.436563 -4.53573,0 -4.22468,1.408218 -12.05836,1.908307 -15.875,0 -2.93209,-1.466057 -5.05949,-3.547587 -6.80357,-5.291667 -0.4956,-0.495591 -2.64507,-0.377216 -3.02382,-0.755968 -4.12562,-4.125647 -9.08299,-9.083013 -13.60713,-13.607123 -0.35636,-0.356368 0.22538,-1.061165 0,-1.511909 -0.99991,-1.9998 -2.02393,-1.779984 -3.02381,-3.779758 -0.52716,-1.054338 -0.22879,-2.725446 -0.75594,-3.779784 -1.17634,-2.352623 -1.95281,-4.661562 -3.02382,-6.803549 -0.73448,-1.46894 -0.085,-17.2168343 0.75594,-18.898817 0.65204,-1.3040518 1.92519,-3.1649722 2.26788,-4.5357255 0.18333,-0.7333721 -0.18336,-1.5344775 0,-2.2678495 0.33043,-1.321779 2.40061,-2.533412 3.02379,-3.779758 0.2254,-0.450771 -0.35634,-1.155541 0,-1.511909 3.29004,-3.29004 6.39606,-7.152005 9.82739,-10.583333 0.37798,-0.377984 1.88986,0.377984 2.26785,0 0.93583,-0.935831 3.64797,-2.892002 4.53572,-3.779758 0.11938,-0.119406 21.79188,-3.154548 22.67858,-2.26785 0.75808,0.758085 2.34532,1.511883 3.77976,1.511883"
       id="path5899"
       inkscape:connector-curvature="0" />
    <path
       style="fill:none;stroke:#000000;stroke-width:0.26458332px;stroke-linecap:butt;stroke-linejoin:miter;stroke-opacity:1"
       d="m 749.90475,116.32737 c 7.00876,-1.55488 13.74899,-0.68501 19.65476,2.26787 0.92927,0.46464 2.28917,0.0214 3.02381,0.75594 0.46702,0.46702 3.12923,3.45451 3.77976,3.77976 0.67614,0.33809 1.5507,-0.23905 2.26785,0 1.09382,0.3646 0.98298,2.38138 2.26788,3.02382 0.40325,0.20164 1.10863,-0.20164 1.51191,0 1.98818,0.99409 3.84484,5.35675 5.29166,6.80357 1.73943,1.73943 4.03291,3.5301 5.29167,6.04761 4.59719,9.19438 5.25783,20.47838 0.75594,29.48215 -0.40053,0.80105 0.28551,2.16726 0,3.02382 -1.90947,5.72839 0.27297,-0.27297 -1.51191,1.51191 -0.82021,0.82021 -1.16067,3.48202 -1.51191,4.5357 -0.57047,1.7114 -2.65774,3.41368 -3.77976,4.53572 -0.53453,0.53454 0.33809,1.59171 0,2.26785 -0.2368,0.47361 -2.58669,1.83073 -3.02381,2.26785 -0.55092,0.55092 -0.76629,2.2782 -1.51188,3.02382 -0.35637,0.35636 -1.06117,-0.22537 -1.51191,0 -1.33168,0.66582 -4.25593,4.7738 -6.80358,6.04761 -1.0896,0.5448 -2.74354,0.23786 -3.77976,0.75596 -1.13125,0.56563 -3.57195,2.16395 -5.29166,3.02382 -0.80106,0.40053 -2.16728,-0.28554 -3.02382,0 -4.87455,1.62483 -13.99373,3.20847 -18.89882,0.75594 -1.27481,-0.63741 -5.07859,0.96901 -6.0476,0 -0.98671,-0.98671 -4.32877,-2.45086 -6.04764,-3.02382 -0.71715,-0.23905 -1.59171,0.33809 -2.26785,0 -2.49068,-1.24534 -6.79945,-4.53159 -8.31548,-6.0476 -0.25196,-0.25199 -0.50395,-2.01589 -0.75594,-2.26785 -0.68541,-0.68543 -2.3844,-0.98904 -3.02382,-2.26788 -0.30237,-0.60476 0.30239,-1.66309 0,-2.26785 -1.57303,-3.14608 0.0522,0.80814 -1.51191,-0.75594 -0.51972,-0.51975 -0.6663,-2.17824 -1.51188,-3.02382 -0.25151,-0.25151 0.0508,-2.87126 0,-3.02381 -0.63103,-1.89304 -2.09375,-4.18751 -3.02382,-6.04761 -1.08942,-2.17885 -2.39736,-19.2663 -1.51191,-21.92264 1.21005,-3.63013 2.06947,-6.40678 3.77976,-9.82736 0.29851,-0.59698 -0.21251,-1.63034 0,-2.26788 0.70022,-2.10066 2.63917,-3.58076 3.77976,-5.29166 1.29114,-1.9367 1.98948,-4.73491 3.02382,-6.80355 0.35636,-0.71274 1.70439,-0.19251 2.26785,-0.75597 0.43815,-0.43815 1.07376,-2.58567 1.51191,-3.02382 1.41713,-1.41711 9.1386,-3.09097 9.82739,-3.77976 2.59561,-2.59561 12.36334,-4.35697 16.63094,-1.5119 z"
       id="path5901"
       inkscape:connector-curvature="0" />
    <path
       style="fill:none;stroke:#000000;stroke-width:0.26458332px;stroke-linecap:butt;stroke-linejoin:miter;stroke-opacity:1"
       d="m 807.35714,210.06548 c -1.36811,8.68445 -1.84134,1.08538 -3.77976,3.02379 -1.68635,1.68635 -4.06283,10.48679 -4.53572,12.85121 -0.27059,1.35298 -0.98515,1.97028 -1.51191,3.02379 -0.50221,1.00444 0.27882,2.66454 0,3.77976 -3.83596,15.34388 5.21552,27.8941 13.60715,36.28573 0.8845,0.88453 4.05746,1.01822 5.29166,1.51191 1.75171,0.70066 3.71997,1.45208 4.5357,2.26784 0.28922,0.28922 3.51465,0 3.77979,0 4.53427,0 14.19217,1.31692 18.14285,0 2.51238,-0.83745 5.58988,-2.11526 8.31548,-3.02381 1.13393,-0.37796 2.64583,0.37798 3.77976,0 0.23905,-0.0797 -0.1782,-0.57777 0,-0.75594 0.47434,-0.47435 3.19527,-0.17145 3.77976,-0.75594 2.50446,-2.5045 11.87577,-3.56032 15.11903,-6.80358 4.32676,-4.32676 10.42051,-9.50172 13.60715,-15.875 0.36277,-0.72554 -0.24199,-2.29785 0,-3.02382 0.3592,-1.07759 1.08855,-1.08855 1.51191,-1.5119 0.10626,-0.10626 2.03946,-5.36239 2.26785,-6.04761 0.54216,-1.62648 2.22575,-18.94094 1.51191,-19.65476 -0.64336,-0.64336 -3.73269,-9.73325 -4.5357,-11.3393 -0.57891,-1.15779 -1.34713,-0.59116 -2.26788,-1.51191 -0.94649,-0.94649 -0.5933,-2.94248 -2.26785,-3.77976 -1.47119,-0.73559 -2.97264,-2.21668 -3.77976,-3.02381 -0.25204,-0.25205 -1.25986,0.25204 -1.5119,0 -4.05633,-4.05631 -17.29312,-6.80355 -24.19049,-6.80355 -3.21736,0 -7.28226,1.75125 -9.82736,3.02379 -2.01589,1.00795 -5.54366,-1.00793 -7.55955,0 -2.95142,1.47571 -6.26774,1.62197 -9.07142,3.02381 -0.79309,0.39656 -3.17638,-0.60338 -3.77976,0 -0.37872,0.37873 -1.77226,1.01632 -2.26785,1.51191 -0.25492,0.25493 0.25493,1.25699 0,1.51191 -0.31962,0.31962 -2.45456,0.94266 -3.02382,1.51191 -0.37798,0.37796 0.37799,1.88987 0,2.26785 -0.35636,0.35637 -1.06113,-0.22537 -1.5119,0 -1.48299,0.74149 0.0579,1.51191 -1.51191,1.51191"
       id="path5905"
       inkscape:connector-curvature="0" />
    <path
       style="fill:none;stroke:#000000;stroke-width:0.26458332px;stroke-linecap:butt;stroke-linejoin:miter;stroke-opacity:1"
       d="m 822.47617,100.45237 c -6.41122,14.61116 -3.29459,25.12131 7.55955,33.2619 0.40317,0.3024 1.06113,-0.22537 1.51188,0 1.74561,0.87281 3.45583,3.16783 5.29166,3.77976 2.86494,0.95499 7.06784,2.02203 9.07145,3.02382 1.55978,0.77991 4.52822,-0.004 6.04761,0.75597 7.83437,3.91718 25.08478,-0.89432 29.48215,-5.29167 0.45477,-0.45477 3.08838,-0.99338 3.77976,-1.51191 5.55167,-4.16375 9.43991,-7.17206 14.36309,-12.09524 0.25199,-0.25199 2.01586,-0.50398 2.26785,-0.75597 0.30478,-0.30477 0.49464,-1.87587 0.75597,-2.26785 0.5815,-0.87225 1.68635,-1.39559 2.26785,-2.26785 1.74334,-2.61501 2.86419,-6.64395 4.53572,-8.31548 0.39418,-0.39418 -0.14427,-2.44671 0,-3.02382 1.96308,-7.852301 4.52665,-19.672852 0.75595,-27.214271 -0.40318,-0.806344 0.40317,-2.217473 0,-3.023817 -0.74703,-1.494049 -2.30273,-3.058663 -3.02382,-3.779758 -0.73464,-0.734642 -0.29131,-2.094521 -0.75594,-3.023817 -0.0861,-0.172085 -6.54918,-6.676364 -6.80358,-6.803549 -0.60476,-0.302392 -1.66309,0.302366 -2.26785,0 -1.92505,-0.962527 -4.32739,-2.95439 -6.80357,-3.779784 -2.18303,-0.727657 -5.55295,-1.017217 -6.80358,-2.26785 -0.73027,-0.730276 -8.33376,-0.755941 -9.82739,-0.755941 -8.27765,0 -16.74873,-0.697071 -22.67855,2.26785 -1.20954,0.604758 -3.32621,-0.604758 -4.53572,0 -1.51252,0.756258 -4.60449,2.680229 -6.80358,3.779758 -0.60476,0.302392 -1.66309,-0.302366 -2.26785,0 -1.32567,0.662834 -2.41591,2.34188 -3.77976,3.023817 -0.90138,0.450691 -3.09856,0.830712 -3.77975,1.511908 -2.62388,2.623847 -4.6817,6.193579 -6.80358,8.315458 -0.90255,0.902573 -1.10098,8.6605 -2.26788,9.827392 -1.11297,1.112996 0.75597,4.946623 0.75597,6.047607"
       id="path5907"
       inkscape:connector-curvature="0" />
    <path
       style="fill:none;stroke:#000000;stroke-width:0.26458332px;stroke-linecap:butt;stroke-linejoin:miter;stroke-opacity:1"
       d="m 947.96426,141.27382 c 10.71026,-2.94127 16.11662,7.04516 21.92264,12.85118 0.35636,0.35637 -0.22538,1.06114 0,1.51191 0.75594,1.51191 3.02381,2.26785 3.77975,3.77976 0.22538,0.45077 -0.35636,1.15554 0,1.51191 1.70003,1.70002 6.31725,8.1517 6.80358,10.58333 0.47432,2.37167 5.35585,21.10248 3.02382,23.43451 -1.2945,1.29448 -1.15967,5.69537 -2.26788,6.80358 -1.23322,1.23322 -2.22835,3.70073 -3.02379,5.29167 -0.50625,1.01248 -1.80343,1.04745 -2.26788,1.5119 -1.18948,1.18949 -3.56817,5.83605 -4.5357,6.80358 -0.28022,0.28019 -2.55677,0.52242 -3.02381,0.75594 -6.18956,3.09478 -11.12473,6.80358 -18.89882,6.80358 -2.6734,0 -11.17603,2.43109 -13.60712,0 -0.72967,-0.72967 -4.23484,0.30194 -5.29167,0 -1.7626,-0.50361 -13.06256,-3.99114 -13.60715,-4.53573 -1.4052,-1.40518 -5.1253,-3.61339 -6.80357,-5.29167 -1.00899,-1.00898 -2.90336,-5.1712 -3.02382,-5.29166 -9.60808,-9.60808 -14.52237,-27.17374 -11.33928,-43.08928 0.38169,-1.90849 2.58945,-3.66699 3.02382,-4.53572 0.322,-0.644 0.17563,-2.44351 0.75594,-3.02379 0.50398,-0.50398 1.7639,-0.25199 2.26785,-0.75597 0.30298,-0.30297 2.97061,-4.48249 3.77976,-5.29167 0.99949,-0.99946 2.76606,-1.00504 3.77978,-1.51191 0.53843,-0.26921 2.55239,-2.55238 3.02379,-3.02379 1.59565,-1.59565 11.41847,-5.70923 13.60715,-6.80357 2.50773,-1.25386 15.37304,0 18.89882,0"
       id="path5909"
       inkscape:connector-curvature="0" />
    <path
       style="fill:none;stroke:#000000;stroke-width:0.26458332px;stroke-linecap:butt;stroke-linejoin:miter;stroke-opacity:1"
       d="m 920.74999,-65.857148 c 1.51191,0 3.05316,-0.296492 4.53572,0 5.67341,1.134692 18.74917,14.819789 21.16667,19.654758 0.43781,0.875665 0.33181,2.175537 0.75594,3.023817 1.21899,2.438003 3.02382,3.004212 3.02382,6.047608 0,2.056342 1.26704,4.801976 2.26785,6.803575 1.85769,3.715411 -3.018,24.9348093 -4.53573,27.9702416 -1.51365,3.02736245 -4.3225,5.0784653 -6.80355,7.5595161 -2.2656,2.2656006 -4.51003,5.2659753 -6.80357,7.5595423 -0.34526,0.345229 -7.19667,3.406828 -8.31549,3.779758 -1.95982,0.653283 -3.95081,2.731347 -6.0476,3.779759 -0.60479,0.302392 -1.66312,-0.302393 -2.26788,0 -3.02535,1.512675 -7.13063,2.916581 -10.58333,3.779758 -1.27273,0.318188 -30.71487,1.100984 -31.75,0.755967 -1.91458,-0.638201 -4.2535,-1.985645 -5.29167,-3.023817 -0.53454,-0.534538 -1.55069,0.239051 -2.26785,0 -1.52484,-0.508291 -9.74198,-14.1068687 -10.58333,-16.6309673 -0.3705,-1.1114351 -0.23368,-2.735236 -0.75594,-3.779758 -4.17412,-8.3482126 -5.05997,-30.7015357 -0.75597,-39.3095157 0.75406,-1.508125 -0.50186,-4.789805 0.75597,-6.047608 0.99806,-0.998061 1.77175,-2.527723 3.02379,-3.779784 0.30363,-0.30361 -0.14251,-1.84031 0,-2.26785 0.53356,-1.600623 1.60568,-2.361618 2.26787,-3.023817 0.58029,-0.580284 0.43395,-2.379795 0.75595,-3.02379 0.19759,-0.395209 8.03703,-8.17626 8.31548,-8.315484 0.45074,-0.225372 1.06114,0.225372 1.51191,0 1.20695,-0.603488 3.04668,-3.802645 3.77976,-4.535726 0.72993,-0.729932 8.75294,-5.779002 9.82736,-6.047607 2.125,-0.531257 5.39607,-0.860346 6.80358,-2.26785 0.95514,-0.955146 14.58891,0.755941 15.875,0.755941"
       id="path5911"
       inkscape:connector-curvature="0" />
    <path
       style="fill:none;stroke:#000000;stroke-width:0.26458332px;stroke-linecap:butt;stroke-linejoin:miter;stroke-opacity:1"
       d="m 914.70238,-207.97618 c 4.43804,1.80234 12.98009,8.57327 15.11903,12.85118 0.46464,0.92927 0.29134,2.09455 0.75597,3.02382 0.25196,0.50395 1.25992,0.25196 1.51188,0.75594 0.9057,1.81139 1.20264,3.91719 2.26788,6.04761 0.78007,1.56014 2.47597,2.89227 3.02379,4.53573 0.31874,0.9562 -0.31872,2.06758 0,3.02381 0.93628,2.80885 2.37762,5.08455 3.02382,8.31546 0.1864,0.93197 -0.29919,2.12622 0,3.02382 0.55689,1.67066 1.65616,5.75913 0.75596,7.55951 -0.67101,1.342 -1.59689,2.43779 -2.26787,3.77979 -0.30237,0.60476 0.30239,1.66309 0,2.26785 -0.4781,0.9562 -1.67484,1.37832 -2.26785,2.26785 -0.74181,1.11273 -1.17959,3.44746 -2.26785,4.53572 -2.31931,2.31931 -6.75323,5.99726 -9.07143,8.31546 -0.35636,0.35637 -1.06116,-0.22537 -1.5119,0 -1.86458,0.93229 -4.21651,2.7046 -5.29167,3.77978 -0.10385,0.10383 -10.32544,1.34292 -11.3393,1.51189 -14.94274,2.49047 -27.30402,-2.31273 -39.30952,-8.31546 -5.87348,-2.93674 -8.50402,-9.44851 -11.33927,-15.11906 -0.57431,-1.14861 -1.86717,-1.82168 -2.26788,-3.02382 -0.3085,-0.92551 0.23638,-2.07827 0,-3.02379 -0.54118,-2.16477 -1.63131,-4.138 -2.26785,-6.04763 -2.11606,-6.34815 1.23225,-20.60734 3.77976,-25.70237 0.3637,-0.72739 0.37203,-3.39582 0.75597,-3.77976 3.41066,-3.41069 12.76186,-12.31746 16.63094,-13.60715 0.68035,-0.2268 1.5875,0.22678 2.26785,0 3.55364,-1.18453 4.98255,-3.02381 9.07142,-3.02381 1.62857,0 25.7024,-2.09847 25.7024,0"
       id="path5913"
       inkscape:connector-curvature="0" />
    <path
       style="fill:none;stroke:#000000;stroke-width:0.26458332px;stroke-linecap:butt;stroke-linejoin:miter;stroke-opacity:1"
       d="m 848.93451,-291.8869 c -4.0281,4.66473 -15.20862,29.39256 -9.82737,34.77381 0.28617,0.28618 0.17137,4.70707 2.26785,6.80358 1.26026,1.26024 0.66564,2.93349 1.51191,3.77976 1.82102,1.82102 3.76838,3.76838 6.04761,6.0476 0.34946,0.34947 1.81144,-0.2282 2.26787,0 1.87016,0.93509 3.48676,2.87732 5.29167,3.77976 1.851,0.92552 4.95149,-0.17007 6.80355,0.75597 8.16787,4.08392 24.78061,3.48469 33.2619,-0.75597 1.85312,-0.92654 10.82837,-1.75691 12.85121,-3.77976 1.52178,-1.52177 5.91074,-4.08929 8.31546,-5.29166 0.90321,-0.45159 8.02182,-8.02182 9.07143,-9.07143 0.35636,-0.35636 -0.22538,-1.06113 0,-1.51191 0.99578,-1.99154 2.98881,-4.07019 3.77978,-6.0476 0.47718,-1.19298 0.18132,-2.63054 0.75594,-3.77976 1.13879,-2.27761 2.48931,-4.88704 3.02382,-7.55954 0.33922,-1.69619 0.29818,-16.33276 -0.75597,-17.38691 -1.81382,-1.81383 -0.36084,-0.72165 -1.51191,-3.02379 -0.81491,-1.62986 -5.27896,-4.52303 -6.80355,-6.04764 -1.56411,-1.56408 2.39014,0.0611 -0.75596,-1.51191 -2.74659,-1.37329 -2.60938,0.41445 -6.04761,-3.02379 -1.01664,-1.01663 -5.67336,0.37428 -6.80358,-0.75596 -1.12876,-1.12877 -4.77612,-2.51696 -6.80357,-3.02379 -1.2223,-0.3056 -2.88885,0.89087 -3.77976,0 -1.29339,-1.29339 -6.00347,-1.86783 -8.31548,-3.02382 -2.75995,-1.37999 -15.14094,0 -18.89882,0 -0.5919,0 -3.40254,-0.37722 -3.77976,0 -0.67156,0.67156 -2.41154,1.58374 -3.77976,2.26785 -0.80634,0.40317 -2.21744,-0.40317 -3.02381,0 -1.46222,0.73112 -2.19771,2.19773 -3.02379,3.02382 -0.25199,0.25198 -2.01589,0.50395 -2.26788,0.75594 -0.49556,0.49559 -0.37722,2.64509 -0.75594,3.02381 -0.88995,0.88996 -1.51191,0.32086 -1.51191,2.26785"
       id="path5915"
       inkscape:connector-curvature="0" />
    <path
       style="fill:none;stroke:#000000;stroke-width:0.26458332px;stroke-linecap:butt;stroke-linejoin:miter;stroke-opacity:1"
       d="m 867.07738,-412.08333 c -4.53178,5.54721 -8.32593,9.85875 -10.58333,16.63094 -2.26349,6.79043 -4.07152,29.42252 0,35.52976 1.66219,2.4933 4.29225,5.68246 6.04761,8.31549 7.72527,11.5879 22.68968,13.60715 35.52975,13.60715 14.38299,0 19.09988,2.92327 32.50597,-3.77976 0.22537,-0.11269 0.50395,0 0.75594,0 0.50398,0 1.06114,0.22537 1.51191,0 8.32345,-4.16174 17.82342,-13.72426 21.92261,-21.92264 0.57462,-1.14921 -0.15259,-2.8712 0.75597,-3.77975 1.49674,-1.49675 2.51706,-5.79009 3.77975,-8.31549 0.89501,-1.79001 0.75594,-13.23324 0.75594,-15.875 0,-5.13664 0.77322,-12.06071 -1.5119,-16.63094 -0.425,-0.85005 -1.96935,-1.37239 -2.26785,-2.26785 -0.23905,-0.71718 0.33808,-1.5917 0,-2.26787 -0.59823,-1.19642 -2.51627,-2.51627 -3.02382,-3.02379 -0.70797,-0.70798 0.10316,-2.21629 -1.51188,-3.02382 -0.45077,-0.22537 -1.15557,0.35637 -1.51191,0 -0.25199,-0.25199 -0.50398,-2.01586 -0.75597,-2.26785 0.65085,-4.52475 -2.22694,-0.71506 -3.02379,-1.51191 -0.94017,-0.94017 -1.11546,-2.44761 -2.26788,-3.02382 -0.45074,-0.22537 -1.15554,0.35637 -1.5119,0 -0.76126,-0.76126 -1.57959,-2.44612 -3.02379,-3.02381 -2.81149,-1.12459 -6.62284,-2.84306 -8.31549,-4.5357 -0.50398,-0.50398 -2.51984,0.50395 -3.02382,0 -1.79712,-1.79713 -5.40866,-2.32635 -8.31545,-3.77976 -1.40896,-0.70448 -12.39584,-0.75597 -15.11906,-0.75597 -3.29393,0 -10.69083,-1.45814 -13.60715,0 -2.80321,1.40163 -6.32629,2.40721 -9.07143,3.77976 -1.20951,0.60478 -1.81427,2.41906 -3.02381,3.02382 -0.45075,0.2254 -1.15554,-0.35637 -1.51189,0 -1.77474,1.77474 -4.7666,4.7666 -6.04763,6.04763 -3.21194,3.21194 -10.58333,10.07777 -10.58333,15.11903"
       id="path5917"
       inkscape:connector-curvature="0" />
    <path
       style="fill:none;stroke:#000000;stroke-width:0.26458332px;stroke-linecap:butt;stroke-linejoin:miter;stroke-opacity:1"
       d="m 819.45238,-528.49999 c -6.46795,12.04273 -10.81815,28.77768 -6.80357,40.82142 0.31871,0.95622 -0.31875,2.0676 0,3.02381 0.49268,1.47805 2.31589,3.11991 3.02379,4.53572 1.61364,3.22725 2.77873,6.61975 6.04763,9.07143 3.7048,2.77859 7.6132,4.55361 12.09524,6.04762 2.04695,0.68232 4.8115,0.0919 6.80358,0.75595 7.74078,2.58026 16.59369,1.33223 24.94642,-0.75595 1.36822,0.45563 1.40595,-1.2246 2.26785,-1.51191 1.73961,-0.57987 4.39912,0.0683 6.04761,-0.75595 1.79554,-0.89777 12.1381,-5.33452 12.85121,-6.04762 1.36371,-1.36373 3.25609,-3.00905 5.29167,-4.53572 0.40317,-0.30238 1.15554,0.35636 1.5119,0 3.12188,-3.12187 6.82662,-7.58257 9.82737,-10.58333 1.2672,-1.26719 2.21131,-5.93451 3.02382,-7.55952 0.31874,-0.63748 1.37213,-0.81303 1.51191,-1.51191 0.31054,-1.55279 0.76983,-6.0754 1.5119,-7.55952 4.29684,-8.59368 2.86597,-23.75019 -1.5119,-32.50595 -0.14764,-0.29527 -1.8323,-1.39673 -2.26788,-2.26786 -0.22537,-0.45076 0.35637,-1.15555 0,-1.5119 -2.53294,-2.53296 -5.39062,-6.14659 -7.55952,-8.31548 -1.09318,-1.09319 -3.40772,-1.89582 -5.29166,-3.77976 -1.10318,-1.1032 -3.07584,-0.052 -3.77976,-0.75596 -6.16347,-6.16347 -25.72126,-4.53571 -35.52976,-4.53571 -3.43366,0 -15.01942,5.94799 -16.63097,7.55952 -0.50752,0.50753 -1.82737,2.4256 -3.02379,3.02381 -0.45077,0.22539 -1.15554,-0.35636 -1.51191,0 -2.3831,2.3831 -3.51999,4.27594 -5.29166,6.04762 -0.35637,0.35636 -1.15554,-0.35636 -1.51191,0 -0.35637,0.35636 0.22537,1.06114 0,1.51191 -0.86151,1.72304 -2.25499,2.25498 -3.02382,3.02381 -0.67715,0.67716 -0.56189,4.53571 -2.26785,4.53571"
       id="path5919"
       inkscape:connector-curvature="0" />
    <path
       style="fill:none;stroke:#000000;stroke-width:0.26458332px;stroke-linecap:butt;stroke-linejoin:miter;stroke-opacity:1"
       d="m 877.66071,-656.25594 c -2.83032,8.45537 -3.51977,13.53506 -4.53572,22.67857 -0.2681,2.41301 0.47374,5.19084 0,7.55952 -2.81466,14.07336 2.83443,27.46574 10.58333,37.79762 0.9262,1.23494 1.57851,0.0666 2.26785,0.75595 1.94146,1.94145 3.92621,3.09703 6.80358,4.53571 0.29503,0.14752 1.44126,1.85456 2.26785,2.26786 0.80637,0.40318 2.21747,-0.40317 3.02381,0 11.92932,5.96466 28.13926,4.22739 40.82143,0 4.18896,-1.39632 9.28285,-1.72332 12.09524,-4.53571 0.34946,-0.34945 1.81144,0.22821 2.26785,0 1.23918,-0.61959 6.4761,-4.20824 7.55954,-5.29167 0.25167,-0.25168 -0.2517,-1.26022 0,-1.5119 0.99169,-0.9917 2.42872,-0.24129 3.77976,-2.26786 2.81025,-4.21538 8.23799,-8.91647 10.58333,-13.60714 0.22538,-0.45077 -0.35636,-1.15555 0,-1.51191 0.82608,-0.82608 2.2927,-1.56158 3.02382,-3.02381 1.01828,-2.03659 2.28542,-4.58841 3.02379,-6.80357 1.47497,-4.42488 4.69318,-28.41126 3.02382,-31.75 -0.77007,-1.54014 -0.96531,-1.5934 -1.51191,-3.77976 -1.24502,-4.9801 -1.60727,-5.48241 -3.77976,-9.82738 -0.22537,-0.45077 0.35637,-1.15555 0,-1.51191 -3.67043,-3.67044 -9.79067,-9.79066 -13.60715,-13.60714 -0.35634,-0.35636 -1.09257,0.27955 -1.51191,0 -3.22014,-2.14676 -6.64263,-5.2112 -9.82736,-6.80357 -0.67615,-0.33807 -1.5507,0.23905 -2.26785,0 -1.32699,-0.44232 -2.51606,-1.63599 -3.77979,-2.26786 -2.58879,-1.29439 -13.18247,-1.57816 -16.63094,-2.26785 -9.68833,-1.93767 -20.96923,-0.85467 -28.72618,3.02381 -1.10384,0.55191 -2.80628,-0.21754 -3.77976,0.75595 -0.60806,0.60806 -2.2901,2.29008 -3.02382,3.02381 -0.53453,0.53454 -1.5917,-0.33808 -2.26785,0 -0.85558,0.42778 -2.85006,2.55895 -3.77978,3.02381 -1.23889,0.61945 -6.96571,7.12788 -7.55952,8.31547 -0.53157,1.06314 -0.20984,5.29167 -1.5119,5.29167"
       id="path5921"
       inkscape:connector-curvature="0" />
  </g>
</svg>
