<?xml version="1.0" encoding="UTF-8" standalone="no"?>
<!-- Created with Inkscape (http://www.inkscape.org/) -->

<svg
   xmlns:dc="http://purl.org/dc/elements/1.1/"
   xmlns:cc="http://creativecommons.org/ns#"
   xmlns:rdf="http://www.w3.org/1999/02/22-rdf-syntax-ns#"
   xmlns:svg="http://www.w3.org/2000/svg"
   xmlns="http://www.w3.org/2000/svg"
   xmlns:sodipodi="http://sodipodi.sourceforge.net/DTD/sodipodi-0.dtd"
   xmlns:inkscape="http://www.inkscape.org/namespaces/inkscape"
   width="1000mm"
   height="1000mm"
   viewBox="0 0 1000 1000"
   version="1.1"
   id="svg8"
   inkscape:version="0.92.1 r15371"
   sodipodi:docname="circle0.svg">
  <defs
     id="defs2" />
  <sodipodi:namedview
     id="base"
     pagecolor="#ffffff"
     bordercolor="#666666"
     borderopacity="1.0"
     inkscape:pageopacity="0.0"
     inkscape:pageshadow="2"
     inkscape:zoom="0.35"
     inkscape:cx="2891.1877"
     inkscape:cy="331.42857"
     inkscape:document-units="mm"
     inkscape:current-layer="layer1"
     showgrid="false"
     inkscape:window-width="1366"
     inkscape:window-height="706"
     inkscape:window-x="-8"
     inkscape:window-y="-8"
     inkscape:window-maximized="1" />
  <metadata
     id="metadata5">
    <rdf:RDF>
      <cc:Work
         rdf:about="">
        <dc:format>image/svg+xml</dc:format>
        <dc:type
           rdf:resource="http://purl.org/dc/dcmitype/StillImage" />
        <dc:title></dc:title>
      </cc:Work>
    </rdf:RDF>
  </metadata>
  <g
     inkscape:label="Layer 1"
     inkscape:groupmode="layer"
     id="layer1"
     transform="translate(0,703)">
    <path
       style="fill:none;stroke:#000000;stroke-width:0.26458332px;stroke-linecap:butt;stroke-linejoin:miter;stroke-opacity:1"
       d="m 102.80952,-653.98809 c -2.49907,0.10819 -5.122513,0.5868 -6.80357,2.26786 -1.564092,1.56409 2.39014,-0.0611 -0.755951,1.5119 -0.848278,0.42414 -2.148152,0.31813 -3.023809,0.75596 -1.289217,0.6446 -12.473562,8.69449 -12.851191,9.82738 -0.159369,0.4781 0.225383,1.06114 0,1.5119 -0.397264,0.79453 -2.626545,1.47333 -3.023809,2.26786 -0.676593,1.35318 -0.257487,2.02688 -0.755952,3.02381 -3.967271,7.93454 -2.477145,18.58488 2.267855,25.70238 0.996156,1.49423 0.169791,1.85148 0.755954,3.02381 0.812411,1.62482 2.864869,2.86487 3.779761,3.77976 0.908542,0.90854 0.04323,2.71068 0.755952,3.77976 1.356616,2.03492 5.886553,8.61292 8.315478,9.82738 2.124107,1.06206 3.44043,2.09819 5.291667,3.02381 1.45411,0.72706 3.724795,0.72847 5.291665,1.51191 4.15234,2.07617 29.12683,0.55563 33.2619,-1.51191 1.20953,-0.60476 3.32619,0.60476 4.53572,0 2.32808,-1.16404 5.27815,-1.88312 7.55952,-3.02381 2.38579,-1.19289 6.48079,-8.10309 7.55953,-11.33928 1.72111,-5.16333 -3.18845,-37.20631 -5.29167,-39.30953 -1.94186,-1.94186 -2.33961,-4.60746 -4.53571,-6.80357 -0.92818,-0.92817 -3.36708,-2.61112 -4.53572,-3.77976 -0.35636,-0.35636 -1.06114,0.22538 -1.5119,0 -1.90836,-0.95418 -4.35667,-2.0888 -5.29167,-3.02381 -0.95277,-0.95277 -26.85385,-0.75595 -30.99405,-0.75595"
       id="path10"
       inkscape:connector-curvature="0" />
    <path
       style="fill:none;stroke:#000000;stroke-width:0.26458332px;stroke-linecap:butt;stroke-linejoin:miter;stroke-opacity:1"
       d="m 101.29762,-522.45238 c -10.848409,2.78857 -18.624595,8.73052 -21.166669,18.89881 -0.25831,1.03325 -1.141871,1.14188 -1.511904,1.51191 -0.588933,0.58893 -0.800684,4.62517 -1.511905,6.04762 -0.720998,1.44199 0,5.15565 0,6.80357 0,14.72676 8.14285,27.88392 21.922618,34.77381 1.36647,0.68323 18.79929,2.10375 21.16667,1.5119 1.77874,-0.44468 3.5073,-1.11538 5.29166,-1.5119 4.81192,-1.06932 15.21726,-1.61012 18.89881,-5.29167 1.97283,-1.97283 3.61236,-3.61236 5.29167,-5.29166 1.56845,-1.56845 0.65653,-4.33687 1.5119,-6.04762 1.63372,-3.26745 4.05024,-13.28121 3.02381,-17.38691 -0.43692,-1.74768 -1.7657,-3.28304 -2.26785,-5.29167 -0.4083,-1.63318 0.5668,-1.79562 -0.75596,-3.77976 -0.39787,-0.59681 -1.73825,-0.9823 -2.26785,-1.5119 -0.34945,-0.34945 0.22821,-1.81143 0,-2.26786 -0.75596,-1.5119 -3.02381,-2.26786 -3.77976,-3.77976 -0.35636,-0.71272 -0.31395,-1.60484 -0.75596,-2.26786 -1.44784,-2.17176 -6.21625,-5.65607 -9.07143,-7.55952 -1.96379,-1.3092 -2.1564,-2.96809 -3.77976,-3.77976 -0.67614,-0.33808 -1.5507,0.23905 -2.26785,0 -1.45325,-0.48442 -3.14969,-2.39374 -3.77977,-3.02381 -0.97489,-0.9749 -21.18261,-0.75596 -24.19047,-0.75596 z"
       id="path12"
       inkscape:connector-curvature="0" />
    <path
       style="fill:none;stroke:#000000;stroke-width:0.26458332px;stroke-linecap:butt;stroke-linejoin:miter;stroke-opacity:1"
       d="m 80.130951,-417.37499 c -6.7168,1.85235 -12.189156,3.87368 -16.630952,8.31548 -0.252042,0.25204 0.252042,1.25984 0,1.51188 -2.079514,2.07952 -2.893277,4.0136 -3.779761,7.55955 -0.66549,2.66194 -2.422318,4.39761 -3.023811,6.80357 -0.481484,1.92593 0.876763,5.05005 0,6.80355 -1.111385,2.22279 -0.755952,4.87825 -0.755952,7.55954 0,9.58628 3.164382,16.77152 9.07143,22.67858 0.316775,0.31676 1.809702,0.52686 2.267855,0.75594 1.625849,0.81293 3.009903,2.26089 4.535715,3.02381 0.604763,0.30237 1.663097,-0.30239 2.267857,0 6.381795,3.19091 13.671709,3.0238 21.166667,3.0238 6.277201,0 11.461021,0.31713 16.630951,-2.26785 0.45642,-0.22821 1.91841,0.34946 2.26786,0 2.49822,-2.49823 3.7995,-6.06735 6.04762,-8.31549 0.47951,-0.4795 -0.3147,-2.3944 0,-3.02379 0.96625,-1.93249 0.95145,-3.04988 1.5119,-5.29166 0.52922,-2.11688 1.28138,-4.83063 2.26786,-6.80358 0.66046,-1.32093 0,-4.59489 0,-6.04763 0,-10.73822 -0.093,-17.47989 -6.04762,-23.43452 -2.43956,-2.43956 -5.00809,-6.80358 -9.07143,-6.80358 -2.21706,0 -14.197929,-2.94121 -15.874999,-3.77975 -2.015873,-1.00793 -5.54365,1.00793 -7.559524,0 -1.761215,-0.88062 -3.174489,-1.20925 -5.291666,-2.26785 z"
       id="path18"
       inkscape:connector-curvature="0" />
    <path
       style="fill:none;stroke:#000000;stroke-width:0.26458332px;stroke-linecap:butt;stroke-linejoin:miter;stroke-opacity:1"
       d="m 114.90476,-307.7619 c -10.8896,-0.0579 -25.574252,-0.88408 -31.75,5.29166 -1.282245,1.28225 -5.851425,3.19117 -6.80357,6.04761 -0.239054,0.71718 0.534538,1.73334 0,2.26788 -2.192578,2.19257 -6.655671,19.04669 -3.779763,21.9226 0.847484,0.84749 -0.557403,4.17688 0,5.29167 2.171194,4.3424 4.042724,8.08546 6.04762,12.09524 0.758264,1.51654 2.831322,2.3571 3.779761,3.77976 2.985622,4.47844 6.433712,7.75258 10.583333,9.82739 1.857743,0.92888 21.428159,1.75914 23.434529,0.75594 3.40143,-1.70071 7.52232,-2.50743 11.33928,-3.77975 2.41219,-0.80407 2.71663,-2.11426 4.53571,-3.02382 10.30888,-5.15443 14.24948,-8.84417 18.89881,-18.14285 0.69671,-1.3934 0,-5.24621 0,-6.80358 0,-1.32463 0.84301,-7.47246 0,-8.31548 -1.68364,-1.68362 -2.81387,-8.86148 -3.77976,-9.82736 -1.22397,-1.22397 -1.36164,-2.72328 -2.26785,-4.53573 -1.42984,-2.85967 -4.40906,-5.16498 -6.04762,-6.80358 -0.25199,-0.25196 -0.50397,-2.01586 -0.75596,-2.26784 -0.35636,-0.35637 -1.15554,0.35636 -1.5119,0 -0.88195,-0.88194 -1.38591,-2.14186 -2.26786,-3.02382 -0.7097,-0.70969 -4.45295,-0.67318 -5.29166,-1.51188 -0.83662,-0.83664 -3.38978,-2.26788 -4.53572,-2.26788"
       id="path20"
       inkscape:connector-curvature="0" />
    <path
       style="fill:none;stroke:#000000;stroke-width:0.26458332px;stroke-linecap:butt;stroke-linejoin:miter;stroke-opacity:1"
       d="m 111.125,-196.6369 c -11.403675,0.13692 -18.218,7.63465 -25.702383,15.11905 -3.348969,3.34897 -2.03505,8.60582 -3.779761,12.09522 -1.909593,3.81921 1.091785,13.52288 2.267858,15.875 0.28403,0.56806 0.29052,3.31436 0.755952,3.77978 1.089189,1.08919 1.192612,3.46046 2.267857,4.5357 1.522582,1.5226 3.768119,3.76812 5.291667,5.29167 1.045382,1.0454 1.596924,3.10883 2.267857,3.77976 1.123831,1.12384 7.121663,3.3419 7.559523,3.77976 2.65888,2.6589 8.29988,3.77198 11.33929,5.29166 1.38026,0.69014 23.01139,0.39304 24.19047,0 2.60615,-0.8687 6.22074,-1.59845 9.07143,-3.02379 4.92253,-2.46126 -1.50693,-0.75761 3.02381,-2.26787 0.47811,-0.15936 1.09258,0.27955 1.5119,0 1.46752,-0.97833 2.5329,-3.15632 3.77977,-3.77976 1.86187,-0.93094 -0.68243,2.19435 2.26785,-0.75594 0.56346,-0.56346 0.0432,-1.91151 0.75596,-2.26785 0.45076,-0.2254 1.06114,0.22537 1.5119,0 0.75148,-0.37576 3.26297,-6.28679 4.53571,-7.55955 1.34465,-1.34463 0.039,-3.8577 0.75596,-5.29166 1.84143,-3.68284 5.41413,-14.99658 2.26785,-18.14285 -0.50396,-0.50398 0.50397,-2.51984 0,-3.02382 -0.50891,-0.5089 -0.95531,-0.3987 -1.5119,-1.51191 -0.45214,-0.90426 0.23795,-2.82794 0,-3.77975 -0.41482,-1.65926 -1.61801,-1.72411 -2.26786,-3.0238 -1.94147,-3.88294 -2.84235,-8.13403 -6.04762,-11.3393 -2.16497,-2.16495 -6.11825,-5.36231 -8.31547,-7.55951 -0.35636,-0.35637 -1.06114,0.22537 -1.51191,0 -4.92632,-2.46317 -16.86777,-3.66136 -22.67857,-0.75597 -1.41111,0.70556 -3.88056,-0.70554 -5.29167,0 -3.2583,1.62917 -4.653,2.70449 -8.31547,4.53573 z"
       id="path22"
       inkscape:connector-curvature="0" />
    <path
       style="fill:none;stroke:#000000;stroke-width:0.26458332px;stroke-linecap:butt;stroke-linejoin:miter;stroke-opacity:1"
       d="m 79.374999,-65.10118 c -13.539372,10.209662 -21.922618,23.666185 -21.922618,41.577365 0,2.827047 -0.425947,5.95167 0.755952,8.315484 1.181724,2.363443 0.461825,6.4462287 1.511905,9.0714245 0.467921,1.1698023 1.704404,1.8969037 2.267855,3.0238171 2.334234,4.668467 4.316878,9.6085288 8.315479,13.6071234 0.251984,0.25199 2.015871,0.503979 2.267855,0.755968 1.411541,1.411525 2.037085,2.03708 3.023811,3.023817 0.01934,0.01931 9.600827,3.734435 9.827379,3.779758 2.172671,0.434525 5.415061,-0.714825 7.559524,0 3.22199,1.073997 7.140559,-0.104749 10.583329,0.755941 4.77279,1.193191 18.49242,1.162341 21.92262,-2.26785 2.39426,-2.394267 5.24139,-4.888547 9.07143,-6.8035747 2.06036,-1.0301816 6.60576,-9.4317607 7.55953,-11.3392742 1.17833,-2.3566967 0.3132,-6.6740351 1.5119,-9.0714511 2.21376,-4.427511 2.19435,-16.022002 0,-20.410699 -0.63047,-1.260951 -0.41414,-3.168465 -0.75595,-4.535726 -0.48757,-1.95027 -2.87612,-3.484377 -3.77976,-5.291666 -0.22539,-0.450744 0.22538,-1.061138 0,-1.511909 -0.47125,-0.942472 -5.26303,-4.507071 -6.04762,-5.291666 -0.25199,-0.251963 -0.50397,-2.015861 -0.75596,-2.26785 -1.6344,-1.634384 -4.57745,-3.821483 -6.04761,-5.291666 -0.60136,-0.601345 -3.23661,-0.968746 -3.77977,-1.511909 -4.58721,-4.587213 -11.64091,-6.576404 -18.14285,-9.827366 -3.04659,-1.523312 -10.88129,0 -14.363098,0 -1.203788,0 -6.79341,-0.766127 -7.559524,0 -0.178178,0.178171 0,0.503952 0,0.755941 -1.007935,0.25199 -2.015874,0.503979 -3.023809,0.755968 z"
       id="path24"
       inkscape:connector-curvature="0" />
    <path
       style="fill:none;stroke:#000000;stroke-width:0.26458332px;stroke-linecap:butt;stroke-linejoin:miter;stroke-opacity:1"
       d="m 88.446426,72.482151 c -5.26393,-0.41275 -7.80805,2.392098 -12.095236,4.5357 -0.907143,0.453575 -1.360715,1.8143 -2.267858,2.267849 -0.458152,0.229076 -1.951079,0.439182 -2.267857,0.755968 -0.356359,0.356367 0.225383,1.061138 0,1.511908 -0.58883,1.177661 -4.157369,3.401404 -5.291667,4.535699 -1.901356,1.901375 -2.805853,4.317762 -4.535715,6.047634 -0.349448,0.349436 0.228214,1.811417 0,2.26785 -0.796533,1.593056 -2.38988,3.267869 -3.023809,4.535725 -0.923057,1.846106 0.390991,1.876846 -0.755951,3.023796 -1.150126,1.15014 0,9.53198 0,11.3393 0,0.4613 -0.294548,2.72925 0,3.02379 1.1915,1.19152 1.654746,4.67857 3.023809,6.04763 0.426423,0.42643 -0.201383,2.41967 0,3.02382 0.661215,1.98363 2.171596,2.83128 3.023809,4.5357 0.225382,0.45077 -0.22538,1.06113 0,1.51191 1.793248,3.5865 4.991835,6.50374 6.803572,8.31548 0.35636,0.35634 -0.225382,1.06114 0,1.51191 0.6217,1.24338 2.402107,1.02444 3.023809,2.26785 0.927153,1.8543 3.531511,4.28746 4.535715,5.29166 0.377976,0.37799 1.889879,-0.37798 2.267858,0 5.16383,5.16382 15.215362,4.5357 23.434525,4.5357 1.83156,0 5.95685,0.80135 7.55952,0 2.40386,-1.20192 5.20357,-2.17974 6.80357,-3.77976 0.34945,-0.34943 1.81144,0.22823 2.26786,0 0.89345,-0.44672 1.82087,-2.57683 2.26786,-3.02379 0.35636,-0.35636 1.06114,0.22538 1.5119,0 1.4583,-0.72916 0.26176,-1.27947 0.75595,-2.26787 0.60477,-1.20952 2.41905,-1.81428 3.02381,-3.02379 0.22538,-0.45077 -0.35636,-1.15557 0,-1.51191 0.71089,-0.71088 2.98578,-2.22983 3.77976,-3.02382 0.35636,-0.35637 -0.22538,-1.06114 0,-1.51191 -0.41909,-1.87221 1.70441,-1.8969 2.26786,-3.02381 0.74537,-1.49072 0.0256,-3.83088 0.75595,-5.29167 3.00452,-6.00901 3.02381,-12.56207 3.02381,-19.65476 0,-1.20377 0.76612,-6.79339 0,-7.559514 -2.39376,-2.393765 -3.15498,-10.714514 -6.04761,-13.607151 -1.78383,-1.783821 -4.83063,-5.586571 -6.80358,-7.559516 -3.12319,-3.123194 -7.31592,-3.279987 -11.33928,-5.291666 -1.53829,-0.769144 -8.20827,0.107209 -9.07143,-0.755942 -1.62329,-1.623298 -10.131432,-1.963816 -12.095239,0"
       id="path26"
       inkscape:connector-curvature="0" />
    <path
       style="fill:none;stroke:#000000;stroke-width:0.26458332px;stroke-linecap:butt;stroke-linejoin:miter;stroke-opacity:1"
       d="m 86.178571,198.72618 c -4.945083,0.24122 -3.393167,1.88127 -5.291666,3.77976 -0.254924,0.25493 -1.256983,-0.25493 -1.511906,0 -0.356359,0.35637 0.225383,1.06114 0,1.51191 -0.556593,1.11318 -1.002988,1.00298 -1.511906,1.51191 -0.603372,0.60338 0.396552,2.98667 0,3.77976 -1.412843,2.82569 -3.360473,14.02643 -0.755951,16.63096 0.969009,0.96901 -0.637406,4.7728 0,6.04761 0.674756,1.34951 1.571736,2.38752 2.267857,3.77976 0.302382,0.60476 -0.302382,1.66309 0,2.26785 2.164577,4.32916 5.54659,8.90735 9.071427,13.60715 0.811099,1.08146 1.660144,0.29649 2.267858,1.51191 0.225382,0.45077 -0.22538,1.06113 0,1.51191 1.092716,2.18543 8.60866,4.07294 9.827386,5.29166 1.88519,1.88518 6.07459,2.78083 9.07142,3.77976 0.71716,0.23905 1.59172,-0.33808 2.26786,0 2.80514,1.40258 6.21021,0.55817 9.07143,1.51191 10.5969,3.53229 30.82803,-1.42891 40.06548,-6.04764 3.67066,-1.8353 7.49028,-5.97836 9.82738,-8.31545 1.06239,-1.06241 2.4247,-8.78602 3.02381,-10.58334 1.38737,-4.1621 1.17239,-15.04211 -0.75596,-18.89881 -0.40433,-0.80868 -1.34227,-2.17567 -1.5119,-3.02382 -0.24709,-1.23545 0.8909,-2.88885 0,-3.77976 -1.00733,-1.00732 -2.8153,-3.36272 -3.77976,-5.29166 -0.69345,-1.3869 -0.35006,-4.12983 -1.51191,-5.29167 -0.35636,-0.35637 -1.15554,0.35637 -1.5119,0 -0.74561,-0.7456 -0.20504,-3.22884 -0.75596,-3.77976 -0.35635,-0.35637 -1.15554,0.35637 -1.5119,0 -0.25199,-0.25199 -0.50397,-2.01586 -0.75595,-2.26785 -1.57711,-1.57713 -5.89944,-6.35151 -8.31548,-7.55954 -0.45642,-0.2282 -1.91841,0.34946 -2.26786,0 -5.1118,-5.1118 -24.72857,-4.5357 -33.2619,-4.5357 -2.5875,0 -21.213841,5.33884 -21.92262,6.04761 -0.377975,0.37798 -0.377975,1.13392 -0.755951,1.51191 -0.377976,0.37798 -1.889882,-0.37799 -2.267858,0 -0.620035,0.62005 -0.56226,1.3182 -1.511903,2.26785"
       id="path30"
       inkscape:connector-curvature="0" />
    <path
       style="fill:none;stroke:#000000;stroke-width:0.26458332px;stroke-linecap:butt;stroke-linejoin:miter;stroke-opacity:1"
       d="m 226.02976,-666.08333 c -3.63903,-0.38404 -14.40867,5.38282 -15.875,8.31548 -0.93094,1.86187 2.19433,-0.68242 -0.75595,2.26786 -0.25343,0.25342 -1.25848,-0.25343 -1.51191,0 -1.17895,1.17895 -1.58238,5.08987 -2.26785,6.80357 -3.12628,7.81569 -3.17477,19.35284 0.75595,27.21428 0.29848,0.59698 -0.21251,1.63033 0,2.26786 0.61266,1.83798 2.15892,3.67083 3.02381,4.53571 0.49558,0.49559 0.37722,2.64508 0.75595,3.02381 1.65441,1.65442 4.33137,2.81947 6.04762,4.53572 2.6764,2.6764 -3.96319,-1.63419 0.75595,1.5119 0.14083,0.0939 2.9464,0.67854 3.02381,0.75596 3.72692,3.72692 11.12503,2.5387 16.63095,5.29166 1.20392,0.60196 3.24777,-0.42931 4.53572,0 5.76139,1.92047 13.63746,0.72564 17.3869,-3.02381 0.49559,-0.49558 2.64508,-0.37722 3.02381,-0.75595 0.73661,-0.73661 4.76043,-4.22919 5.29166,-5.29166 0.2254,-0.45077 -0.35634,-1.15555 0,-1.51191 1.19078,-1.19077 2.98249,-2.22654 3.77976,-3.02381 0.37798,-0.37798 -0.37796,-1.88988 0,-2.26786 0.66659,-0.66658 2.64689,-3.78187 3.02381,-4.53571 0.90716,-1.81429 -0.90715,-4.98929 0,-6.80357 1.26318,-2.52632 0.75597,-6.05223 0.75597,-9.07143 0,-1.22266 0.69652,-6.10706 0,-6.80357 -2.43948,-2.43949 -3.04877,-7.58448 -6.04763,-10.58333 -6.69624,-6.69625 -15.34441,-10.58334 -26.45833,-10.58334 -1.0391,0 -12.13876,-0.47098 -12.85119,-0.75595 -1.04631,-0.41853 -1.8969,-1.51191 -3.02381,-1.51191 -3.14226,0 -3.46801,2.26786 -6.04762,2.26786"
       id="path32"
       inkscape:connector-curvature="0" />
    <path
       style="fill:none;stroke:#000000;stroke-width:0.26458332px;stroke-linecap:butt;stroke-linejoin:miter;stroke-opacity:1"
       d="m 243.41666,-548.15476 c -1.97998,1.78274 -12.58801,9.30103 -13.60714,11.33929 -0.79867,1.59734 -2.61034,4.12225 -3.77976,5.29167 -0.93349,0.93349 -3.17014,2.2557 -3.77976,3.77976 -0.91353,2.28383 -1.61639,5.39615 -3.02381,6.80357 -1.00794,1.00794 1.00793,5.03968 0,6.04762 -1.05948,1.05948 -0.75595,3.12513 -0.75595,5.29166 0,2.19853 -0.96188,7.14769 0,9.07143 3.93916,7.87833 4.27596,11.07953 10.58333,17.38691 0.84496,0.84496 2.80036,1.0222 3.77976,1.5119 1.03955,0.51978 4.51083,2.99893 5.29167,3.77976 0.8694,0.8694 4.81239,-0.41173 6.04762,0 5.14342,1.71448 23.87067,1.07576 27.21429,-2.26785 0.006,-0.006 7.6909,-0.88733 9.82736,-3.02381 0.57465,-0.57465 2.9867,-0.35942 3.77979,-0.75595 1.77961,-0.88981 2.42779,-3.10379 3.77975,-3.77977 0.45075,-0.22538 1.15554,0.35636 1.51191,0 5.28487,-5.28488 8.21703,-19.1941 5.29167,-27.97023 -0.34952,-1.04848 0.24535,-2.79832 0,-3.77977 -0.47175,-1.88701 -2.04174,-4.30957 -3.02382,-5.29166 -0.53454,-0.53454 0.23905,-1.5507 0,-2.26786 -0.9911,-2.97328 -4.77332,-6.28523 -6.80357,-8.31548 -0.35637,-0.35636 0.35636,-1.15554 0,-1.5119 -0.31361,-0.31361 -5.87304,-3.91536 -6.80358,-4.53571 -2.15881,-1.43922 -7.20182,-6.04762 -9.82736,-6.04762 -5.21526,0 -15.07546,-3.82337 -18.89882,0 -0.80784,0.80783 -1.51191,-1.07464 -1.51191,0.75595"
       id="path34"
       inkscape:connector-curvature="0" />
    <path
       style="fill:none;stroke:#000000;stroke-width:0.26458332px;stroke-linecap:butt;stroke-linejoin:miter;stroke-opacity:1"
       d="m 229.80952,-430.22618 c -1.00794,-0.25198 -1.98485,-0.75596 -3.02381,-0.75596 -1.71727,0 -10.36012,14.13989 -11.33929,15.11906 -0.25151,0.25151 0.0509,2.87125 0,3.02379 -1.37987,4.13964 -2.26785,6.00805 -2.26785,10.58333 0,8.07797 3.00297,16.61012 7.55952,21.16667 0.70612,0.70612 0.80579,3.07366 1.51191,3.77978 0.25198,0.25196 2.01587,0.50395 2.26785,0.75594 0.35636,0.35637 -0.35635,1.15554 0,1.51191 0.60136,0.60135 3.23661,0.96875 3.77977,1.51191 2.82479,2.82477 6.69187,4.49847 11.33928,6.04761 3.76423,1.25476 10.34033,0 14.3631,0 2.44433,0 14.68321,-0.32012 15.875,-1.51191 0.17817,-0.17817 -0.23905,-0.67625 0,-0.75594 0.9562,-0.31875 2.31108,0.7127 3.02381,0 1.8224,-1.8224 5.79845,-3.78823 6.80358,-6.80358 4.19439,-12.58321 6.80355,-14.38923 6.80355,-29.48215 0,-2.65028 0.34896,-5.34971 -0.75594,-7.55951 -1.07577,-2.15154 -0.60836,-7.41194 -2.26785,-9.07143 -2.3104,-2.31039 -5.78885,-6.54479 -7.55955,-8.31548 -0.85563,-0.85564 -3.40997,-0.94904 -4.53569,-1.51191 -4.96443,-2.48219 -9.31987,-2.26785 -15.11906,-2.26785 -3.12746,0 -22.67857,2.75198 -22.67857,4.53572"
       id="path36"
       inkscape:connector-curvature="0" />
    <path
       style="fill:none;stroke:#000000;stroke-width:0.26458332px;stroke-linecap:butt;stroke-linejoin:miter;stroke-opacity:1"
       d="m 217.71428,-313.80951 c -0.38343,1.83991 -5.03125,1.25148 -6.04762,2.26785 -0.35636,0.35637 0.35636,1.15554 0,1.51191 -0.68599,0.68598 -2.32785,0.46797 -3.02381,1.51191 -2.64678,3.97015 -4.4687,7.42547 -6.80357,12.09521 -0.47252,0.94507 -1.06421,16.60155 -0.75595,18.14288 0.0494,0.24709 0.57777,-0.1782 0.75595,0 0.34945,0.34943 -0.22821,1.81141 0,2.26785 1.72985,3.45969 -0.31332,-3.20781 1.51191,2.26785 0.32664,0.97993 0.1324,4.66812 0.75595,5.29166 1.54724,1.54726 2.35828,6.13805 3.02381,6.80358 0.80321,0.80322 2.97929,2.93478 3.77976,4.53572 0.8809,1.76178 2.03835,5.06214 3.77976,6.80358 3.00832,3.00831 6.63347,5.12154 9.82738,8.31546 1.96586,1.96588 17.10336,1.8584 20.41072,0.75596 1.60965,-0.53654 3.09256,-1.58064 3.77976,-2.26787 0.72745,-0.72745 5.34617,-1.53914 6.80357,-2.26785 5.05755,-2.52878 9.12855,-6.86067 12.85119,-10.58334 1.00248,-1.00247 1.6393,-3.27861 2.26785,-4.53569 0.78925,-1.57848 1.47862,-1.44534 2.26787,-3.02382 3.47806,-6.95611 3.02379,-16.24896 3.02379,-24.19048 0,-1.47593 0.63593,-4.77576 0,-6.04761 -0.78078,-1.56157 -1.66933,-3.49615 -2.26785,-5.29167 -0.1425,-0.42757 0.30364,-1.96424 0,-2.26788 -1.03957,-1.03957 -2.95396,-2.95396 -3.77975,-3.77975 -0.17817,-0.17817 0,-0.50396 0,-0.75594 -0.25199,-0.50398 -0.35753,-1.1135 -0.75594,-1.51191 -1.76779,-1.76776 -10.77502,-5.3875 -13.60716,-6.80358 -1.35782,-0.67889 -24.27562,-4.45055 -25.70238,-3.02381 -1.08767,1.08767 -1.63986,0.88392 -3.02381,2.26787 -0.50397,0.50395 -2.51984,-0.50398 -3.02381,0 -0.74846,0.74845 -1.61502,2.26785 -3.02381,2.26785"
       id="path38"
       inkscape:connector-curvature="0" />
    <path
       style="fill:none;stroke:#000000;stroke-width:0.26458332px;stroke-linecap:butt;stroke-linejoin:miter;stroke-opacity:1"
       d="m 219.98214,-149.0119 c -2.24241,7.93554 -2.14704,15.9958 3.02381,21.16666 0.43815,0.43815 1.07375,2.58567 1.5119,3.02382 0.42714,0.42714 2.46068,0.94877 3.02381,1.51191 0.49559,0.49556 1.13317,1.88912 1.51191,2.26785 0.37798,0.37798 1.88988,-0.37799 2.26785,0 0.49559,0.49559 1.13318,1.88912 1.51191,2.26785 0.67387,0.67386 2.22097,0.35454 3.02381,0.75596 4.99614,2.49807 9.23501,3.77976 15.875,3.77976 2.70243,0 16.9322,0.45471 17.38692,0 0.69156,-0.69157 2.33574,-1.54585 3.77975,-2.26787 0.45075,-0.22538 1.15554,0.35636 1.51191,0 3.04837,-3.04837 8.30136,-13.5789 11.33928,-19.65476 0.82947,-1.65891 1.5119,-11.12417 1.5119,-13.60713 0,-2.32156 0.28501,-12.5662 -0.75596,-13.60715 -1.93898,-1.93899 -2.83014,-6.6099 -5.29167,-9.07142 -0.92834,-0.92834 -3.31494,-3.31497 -4.5357,-4.53573 -0.35637,-0.35636 -1.15554,0.35637 -1.51191,0 -0.68429,-0.68429 -2.39032,-2.56066 -3.77975,-3.02381 -0.60415,-0.20138 -2.59739,0.42643 -3.02382,0 -1.27434,-1.27432 -19.60695,-6.09542 -21.92262,-3.77976 -2.1142,2.1142 -7.61316,4.18457 -11.33928,6.04763 -1.853,0.92649 -2.67499,2.67499 -3.77977,3.77976 -0.35635,0.35637 -1.15554,-0.35637 -1.5119,0 -0.98181,0.98182 -3.49785,2.7419 -4.53571,3.77976 -0.25343,0.25342 -1.25848,-0.25342 -1.51191,0 -0.25198,0.25199 -0.50397,2.01586 -0.75595,2.26785 -0.87021,0.87021 -2.81255,0.33345 -3.77976,2.26787 -0.74238,1.48474 -1.95237,4.22021 -3.02381,5.29167 -0.29455,0.29454 0,2.56249 0,3.02379 0,2.19853 -0.96187,7.14769 0,9.07143 0.58215,1.1643 1.5119,1.25677 1.5119,2.26787"
       id="path42"
       inkscape:connector-curvature="0" />
    <path
       style="fill:none;stroke:#000000;stroke-width:0.26458332px;stroke-linecap:butt;stroke-linejoin:miter;stroke-opacity:1"
       d="m 188.23214,-36.374998 c -1.08788,2.780824 -5.06245,18.601293 -3.77976,21.166667 1.03932,2.078646 1.07183,3.339676 2.26786,4.535699 0.60281,0.602827 0.21651,3.7265768 0.75595,4.5357255 2.27141,3.4071189 4.72287,7.7466824 7.55952,10.5833332 0.35636,0.3563673 1.15555,-0.3563673 1.51191,0 0.78324,0.783246 0.84746,2.0768733 2.26785,3.0238171 0.41933,0.2795322 1.15555,-0.3563673 1.51191,0 6.21675,6.2167562 16.68479,6.8035752 27.21428,6.8035752 1.97674,0 5.15391,0.824812 6.80358,0 2.38749,-1.193747 5.24373,-2.755847 8.31547,-3.779785 0.63753,-0.212487 1.67088,0.298503 2.26786,0 1.20952,-0.6047578 1.81428,-2.4190321 3.02381,-3.0237902 0.4028,-0.2014009 1.1091,0.2014008 1.5119,0 1.37227,-0.686144 5.31892,-6.85807933 6.04762,-8.31548369 0.22821,-0.45643271 -0.34945,-1.91841431 0,-2.26784951 2.46185,-2.4618686 2.47726,-5.9198933 3.77976,-9.8273926 0.7756,-2.326772 2.28702,-4.593193 3.02381,-6.803575 0.63481,-1.904418 -0.24904,-19.147842 -0.75595,-19.654758 -2.25627,-2.25626 -4.0788,-5.590698 -6.80357,-8.315483 -0.66404,-0.664025 -2.80853,-1.188138 -3.77976,-1.511882 -5.72839,-1.909472 0.27297,0.27297 -1.51191,-1.511909 -0.35636,-0.356367 -1.06114,0.225372 -1.5119,0 -1.37222,-0.686117 -3.10228,-1.790038 -4.53572,-2.267876 -0.49242,-0.164121 -3.35647,0.423307 -3.77976,0 -2.54958,-2.549551 -19.88873,-3.02379 -25.70238,-3.02379 -1.08277,0 -6.11444,-0.689134 -6.80357,0 -3.5919,3.591903 -8.48331,8.483308 -12.09524,12.095241 -0.35636,0.356341 0.35636,1.155542 0,1.511882 -1.605,1.605016 -3.82067,4.556178 -6.80357,6.047634 z"
       id="path44"
       inkscape:connector-curvature="0" />
    <path
       style="fill:none;stroke:#000000;stroke-width:0.26458332px;stroke-linecap:butt;stroke-linejoin:miter;stroke-opacity:1"
       d="m 239.6369,73.238093 c -1.00794,0.251989 -2.09454,0.291306 -3.02381,0.755941 -0.45076,0.225398 0.35636,1.155567 0,1.511908 -2.44731,2.447316 -5.34119,5.390727 -6.80357,8.315484 -0.13844,0.276886 0.31801,2.705788 0,3.023817 -1.65538,1.655365 -2.69701,10.91012 -0.75595,12.851183 0.62996,0.629974 -0.62996,3.149814 0,3.779754 3.74833,3.74833 5.01843,7.8009 10.58333,10.58334 1.3627,0.68135 4.9964,-0.29528 6.04762,0.75596 1.12531,1.1253 3.79594,1.51189 6.04762,1.51189 1.55453,0 1.75141,0.11977 3.02381,0.75596 4.85618,2.42809 24.16198,-2.63159 27.97023,-4.53572 3.90591,-1.95294 9.12738,-8.48334 10.58333,-12.851184 0.2553,-0.765837 -0.53959,-3.240167 0,-3.779759 1.10427,-1.104265 0.75597,-3.850666 0.75597,-6.047634 0,-4.829545 -0.90099,-7.093611 -3.02382,-11.339274 -0.32726,-0.6545 -2.34008,-0.900377 -3.02381,-2.267849 -0.22538,-0.450771 0.35636,-1.155542 0,-1.511909 -0.53515,-0.535173 -4.50922,-2.762991 -5.29167,-3.023817 -0.85654,-0.285512 -2.22274,0.400526 -3.02379,0 -8.28556,-4.142766 -18.20992,-3.779758 -28.7262,-3.779758 -1.46405,0 -4.76648,-0.640583 -6.04762,0 -2.8663,1.433142 -3.70708,2.122487 -5.29167,5.291667 z"
       id="path48"
       inkscape:connector-curvature="0" />
    <path
       style="fill:none;stroke:#000000;stroke-width:0.26458332px;stroke-linecap:butt;stroke-linejoin:miter;stroke-opacity:1"
       d="m 229.80952,195.70237 c -1.32258,3.0567 -3.51692,5.25912 -4.53571,8.31548 -0.78833,2.36498 0,6.59003 0,9.07142 0,1.2038 -0.76612,6.79342 0,7.55955 1.3118,1.3118 1.96881,4.69357 3.02381,6.80354 0.44582,0.89165 2.30165,1.94059 3.0238,3.02382 0.44201,0.66302 0.1925,1.70442 0.75596,2.26785 0.25198,0.25199 2.01587,0.50398 2.26786,0.75597 0.25198,0.25199 0.50396,2.01586 0.75595,2.26785 4.46056,4.46056 18.10382,8.7032 25.70238,6.80357 0.7236,-0.18089 4.9181,-1.13834 5.29167,-1.5119 1.78488,-1.78488 -4.21649,0.39756 1.51191,-1.51191 1.1407,-0.38024 2.67276,-0.20246 3.77976,-0.75594 1.15779,-0.57891 0.59115,-1.34713 1.5119,-2.26785 0.35634,-0.35637 1.09257,0.27953 1.51191,0 4.185,-2.79001 8.60843,-12.21814 10.58334,-18.14288 0.51323,-1.53974 0.0448,-3.8694 0.75594,-5.29167 1.99652,-3.99304 2.22236,-10.67432 0,-15.11903 -0.22538,-0.45077 0.35636,-1.15554 0,-1.51191 -2.19856,-2.19855 -4.34483,-6.61268 -6.80358,-9.07142 -0.87281,-0.87281 -3.84135,-2.32947 -5.29167,-3.77976 -1.19784,-1.19787 -5.83432,0.21328 -6.80357,-0.75597 -1.87595,-1.87595 -19.20425,-1.96239 -20.41071,-0.75594 -1.32798,1.32797 -6.80357,8.7113 -6.80357,9.82737"
       id="path50"
       inkscape:connector-curvature="0" />
    <path
       style="fill:none;stroke:#000000;stroke-width:0.26458332px;stroke-linecap:butt;stroke-linejoin:miter;stroke-opacity:1"
       d="m 359.83333,257.69048 c -1.5657,4.77179 -4.23212,4.5357 -8.31548,4.5357 -13.26971,0 -19.68704,-9.10373 -27.97025,-17.38691 -0.37872,-0.37872 -0.26035,-2.52822 -0.75594,-3.02379 -0.81857,-0.81857 -2.27573,-2.28362 -3.02381,-3.77978 -0.45075,-0.90152 0.31874,-2.06759 0,-3.02379 -0.0727,-0.2182 -2.18345,-2.77064 -2.26785,-3.02382 -0.81365,-2.44094 -2.81636,-22.33753 -1.51191,-24.94642 1.50683,-3.01366 3.46212,-4.97401 5.29166,-6.80358 1.48895,-1.48894 3.42631,-4.73697 4.53573,-5.29167 0.60476,-0.30239 1.66309,0.3024 2.26785,0 1.83219,-0.91609 2.97979,-1.86787 5.29167,-3.02381 2.19445,-1.09723 5.91163,-0.155 8.31548,-0.75594 3.58108,-0.89527 15.44145,-1.72869 18.89879,0 9.49206,4.74601 15.99877,10.83082 20.41073,19.65475 1.35866,2.71735 0.75594,7.33492 0.75594,10.58334 0,2.19853 0.96189,7.14769 0,9.07142 -1.99861,3.99727 -3.52166,8.05741 -6.04761,10.58334 -0.37873,0.37872 -0.26038,2.52822 -0.75594,3.02381 -0.1782,0.17817 -0.50398,0 -0.75597,0 -0.50395,0.50395 -1.11657,0.91887 -1.51191,1.51191 -0.41931,0.62899 0.33809,1.59171 0,2.26785 -0.52406,1.04812 -6.23551,5.47955 -6.80357,6.04761 -0.50007,0.50009 -2.06608,3.54033 -3.02379,3.77978 -0.97785,0.24445 -2.24949,-0.64526 -3.02382,0 -1.04246,0.86871 -0.81375,2.61615 -1.51191,3.77976 -0.084,0.13999 -2.11487,0.60296 -2.26785,0.75594 -0.75438,0.75438 -0.52006,2.26785 -2.26785,2.26785"
       id="path54"
       inkscape:connector-curvature="0" />
    <path
       style="fill:none;stroke:#000000;stroke-width:0.26458332px;stroke-linecap:butt;stroke-linejoin:miter;stroke-opacity:1"
       d="m 380.24405,139.00594 c -1.25992,1.00796 -2.43726,2.12881 -3.77978,3.02382 -3.25266,2.16844 -17.99233,-2.1926 -19.65476,-3.02382 -1.01248,-0.50623 -1.04746,-1.80343 -1.51191,-2.26785 -0.32737,-0.32739 -2.5359,-1.18665 -3.02379,-1.51191 -1.37535,-0.91688 -0.0185,-1.53035 -0.75596,-2.26785 -1.95274,-1.95273 -4.06649,-4.82242 -6.04761,-6.80357 -0.92295,-0.92295 -0.85093,-4.72564 -1.51191,-6.04761 -0.53943,-1.07886 -2.14672,-3.4164 -2.26785,-3.77978 -0.20831,-0.6249 0.40145,-2.97683 0,-3.77976 -1.70498,-3.40993 -2.61398,-9.89111 -0.75597,-13.607126 0.3147,-0.629417 -0.4795,-2.544312 0,-3.023817 0.71602,-0.716015 2.0343,-2.790242 3.02382,-3.779758 0.35637,-0.356367 -0.27956,-1.092597 0,-1.511908 1.13723,-1.705848 2.21226,-1.456293 3.02382,-2.26785 0.25199,-0.251989 0.50395,-2.015887 0.75594,-2.267876 1.40716,-1.40716 4.78382,-2.515976 6.04763,-3.779758 0.50395,-0.503952 2.51984,0.503979 3.02379,0 5.31037,-5.310372 25.58151,-2.298065 31.75,-0.755941 0.63426,0.158565 11.11996,7.876805 11.3393,8.315457 0.93094,1.861873 -2.19435,-0.682413 0.75594,2.267876 0.35637,0.356341 1.15554,-0.356367 1.51191,0 1.68119,1.681189 1.18478,4.637405 2.26785,6.803575 2.4588,4.917546 0.17603,12.675156 -2.26785,15.119036 -0.35637,0.35636 0.35637,1.15554 0,1.51191 -0.35637,0.35636 -1.15554,-0.35637 -1.51191,0 -0.37798,0.37798 0.37799,1.88989 0,2.26784 -0.88193,0.88197 -2.14185,1.38592 -3.02381,2.26788 -0.35634,0.35634 0.35636,1.15554 0,1.51188 -4.73218,4.73221 -9.62774,6.60395 -13.60713,10.58334 -0.34946,0.34946 -1.81144,-0.22821 -2.26787,0 -3.5945,1.79726 -6.35006,2.26787 -10.58334,2.26787"
       id="path56"
       inkscape:connector-curvature="0" />
    <path
       style="fill:none;stroke:#000000;stroke-width:0.26458332px;stroke-linecap:butt;stroke-linejoin:miter;stroke-opacity:1"
       d="m 364.36905,22.589276 c -3.29229,0.745225 -13.73489,3.652017 -16.63096,0.755968 -0.50395,-0.503979 -2.51984,0.503951 -3.02382,0 -0.39127,-0.391293 -1.12062,-1.876584 -1.51188,-2.267876 -0.34124,-0.341207 -3.64398,-1.376098 -4.53573,-2.26785 -0.50398,-0.503952 -0.25199,-1.763898 -0.75594,-2.26785 -0.50398,-0.503978 -1.7639,-0.251989 -2.26787,-0.755967 -0.25199,-0.251963 -0.50396,-2.01586 -0.75595,-2.26785 -0.46701,-0.466989 -3.4545,-3.1292 -3.77975,-3.7797577 -0.3024,-0.6047581 0.30236,-1.6630914 0,-2.2678495 -0.7206,-1.4411854 -2.3213,-2.3747413 -3.02382,-3.7797581 -1.27254,-2.5450535 -2.46446,-5.6848639 -3.77976,-8.3154837 -0.59732,-1.1946466 0.89252,-4.3991476 0,-5.2916666 -1.66947,-1.6694674 -2.3363,-16.4940714 -0.75597,-19.6547574 1.50278,-3.005561 7.47546,-9.806358 10.58334,-10.583334 3.06541,-0.766365 4.43383,-0.705008 7.55954,-2.267876 0.8001,-0.400023 19.65018,-0.0026 19.65476,0 3.56976,1.784879 -4.61404,-0.397536 3.02381,1.511909 14.49951,3.624897 24.19046,12.622556 24.19046,28.726209 0,2.1985286 0.96187,7.1476656 0,9.0714246 -1.27132,2.54267222 -1.80766,5.8831691 -3.02379,8.3154571 -1.64833,3.2966554 -4.17671,6.4445623 -6.04763,8.3154833 -0.35637,0.356368 0.22537,1.061138 0,1.511909 -0.79418,1.588347 -1.49723,-0.01455 -2.26785,0.755941 -0.62998,0.629973 -0.88194,1.637903 -1.51191,2.267876 -1.49215,1.492144 -4.8527,0.316997 -6.04761,1.511908 -1.30019,1.300163 -2.48965,1.622796 -5.29167,3.023791 z"
       id="path60"
       inkscape:connector-curvature="0" />
    <path
       style="fill:none;stroke:#000000;stroke-width:0.26458332px;stroke-linecap:butt;stroke-linejoin:miter;stroke-opacity:1"
       d="m 353.78572,-76.440481 c -5.33474,-0.04627 -9.09971,-3.052074 -12.09524,-6.047607 -0.25114,-0.251143 -1.26079,0.251116 -1.51191,0 -0.35637,-0.356368 0.35637,-1.155542 0,-1.511909 -1.03582,-1.035817 -1.63735,-1.637347 -3.02382,-3.023817 -1.52262,-1.522624 -2.72986,-5.459756 -3.77975,-7.559516 -0.50398,-1.00793 0.50397,-2.771828 0,-3.779758 -3.56368,-7.127342 -3.12063,-19.557952 1.5119,-24.190482 0.54314,-0.54316 0.91054,-3.17841 1.51191,-3.77976 0.25199,-0.25199 2.01586,-0.50398 2.26785,-0.75597 1.57163,-1.57162 3.91941,-4.33027 6.80358,-5.29166 0.72596,-0.24199 2.29827,0.36277 3.02381,0 2.86557,-1.43278 4.25009,-1.74705 6.80355,-3.02379 3.19633,-1.59817 17.95653,0.56959 19.65479,2.26785 0.53454,0.53453 1.5917,-0.33809 2.26785,0 0.53297,0.26648 1.88767,2.45573 3.02381,3.02381 0.45075,0.22537 1.06114,-0.2254 1.51189,0 1.27883,0.63942 1.58244,2.33839 2.26787,3.02379 0.77063,0.77065 1.47368,-0.83238 2.26785,0.75597 1.30008,2.60017 3.16831,4.06876 4.53573,6.80358 0.5693,1.13863 1.29743,5.83313 1.51188,6.0476 2.52148,2.52148 2.26788,7.76833 2.26788,12.09524 0,2.210149 -0.337,8.652488 -1.51191,9.827397 -0.54317,0.543137 -2.42245,1.666478 -3.02382,2.267849 -0.70797,0.707973 0.10316,2.216283 -1.51191,3.023817 -3.10893,1.554454 -6.49298,3.246491 -9.07142,4.5357 -1.96864,0.984329 -4.80148,0.265747 -6.04761,1.511908 -0.26408,0.264081 -21.8254,0 -24.19048,0"
       id="path62"
       inkscape:connector-curvature="0" />
    <path
       style="fill:none;stroke:#000000;stroke-width:0.26458332px;stroke-linecap:butt;stroke-linejoin:miter;stroke-opacity:1"
       d="m 361.34524,-197.39285 c -10.39725,0.31375 -14.58701,0.53206 -21.16667,-6.04763 -0.49554,-0.49554 -3.11459,-0.84675 -3.77976,-1.51191 -0.25114,-0.25111 0.25112,-1.26076 0,-1.51191 -0.35636,-0.35634 -1.09259,0.27956 -1.51191,0 -1.34212,-0.89471 -2.32288,-3.0513 -3.77975,-3.77975 -0.45077,-0.22538 -1.15554,0.35636 -1.51191,0 -0.55092,-0.55092 -0.76629,-2.2782 -1.51191,-3.02379 -0.35637,-0.35637 -1.15554,0.35634 -1.51191,0 -0.56346,-0.56346 -0.31393,-1.60486 -0.75594,-2.26788 -0.55597,-0.83394 -1.82134,-1.3748 -2.26788,-2.26785 -1.30026,-2.60056 -1.84401,-4.86786 -3.77975,-6.80358 -0.60336,-0.60335 0.39655,-2.98667 0,-3.77975 -2.34503,-4.69006 -5.63846,-17.0401 -1.51191,-21.16667 0.74562,-0.74562 0.20505,-3.22884 0.75596,-3.77976 2.36535,-2.36535 4.97978,-4.22383 7.55952,-6.80357 0.37798,-0.37799 1.88989,0.37798 2.26785,0 1.61732,-1.61732 5.32016,-2.28209 8.31548,-3.77976 0.10412,-0.052 20.9531,-0.96954 21.16667,-0.75597 1.27998,1.27998 5.4156,1.95186 7.55952,3.02382 1.74791,0.87394 3.82127,0.0206 5.29166,0.75597 3.14611,1.57302 -0.80811,-0.0522 0.75597,1.51188 0.42384,0.42386 6.17953,2.3998 6.80358,3.02381 0.35634,0.35637 -0.35637,1.15555 0,1.51191 7.71265,7.71266 9.82736,14.78688 9.82736,27.21428 0,1.08278 0.68914,6.11444 0,6.80357 -0.36346,0.36349 -2.04674,2.58159 -2.26785,3.02382 -0.33808,0.67614 0.33809,1.59171 0,2.26785 -0.50625,1.01251 -1.80342,1.04748 -2.26785,1.51191 -0.35637,0.35636 0.35634,1.15554 0,1.51191 -3.60087,3.60087 -6.10417,5.6979 -11.3393,8.31548 -1.04439,0.52218 -1.58856,2.30619 -3.02379,3.02379 -1.36967,0.68485 -6.00051,-0.3148 -6.80357,0.75597 -0.67615,0.90151 -0.39632,2.86443 -1.51191,3.02381 -1.45455,0.20778 -2.46558,-1.61078 -3.77976,-2.26787 -1.23791,-0.61894 -3.74653,0.75597 -5.29167,0.75597"
       id="path64"
       inkscape:connector-curvature="0" />
    <path
       style="fill:none;stroke:#000000;stroke-width:0.26458332px;stroke-linecap:butt;stroke-linejoin:miter;stroke-opacity:1"
       d="m 346.98215,-306.24999 c -5.21719,0.45937 -6.18178,-0.89012 -9.07143,-3.77976 -0.43815,-0.43815 -2.58567,-1.07376 -3.02382,-1.51191 -0.35636,-0.35637 0.35637,-1.15554 0,-1.51191 -0.56575,-0.56576 -2.41998,-0.30424 -3.02381,-1.51191 -1.00801,-2.01604 -2.37646,-3.1324 -3.77976,-4.5357 -0.46046,-0.46048 -2.6793,-4.60266 -3.02382,-5.29166 -0.2282,-0.45644 0.34946,-1.91842 0,-2.26788 -1.38792,-1.38792 -2.69642,-3.88096 -3.77976,-6.04761 -0.40317,-0.80634 0.40318,-2.21747 0,-3.02381 -1.65436,-3.30872 -1.52164,-5.31117 -3.02381,-8.31549 -1.26304,-2.52608 -0.33936,-11.41648 0.75596,-13.60712 0.37111,-0.74221 1.28167,-7.32928 1.51191,-7.55954 1.70448,-1.70448 3.2951,-3.56638 4.5357,-6.04761 0.69938,-1.39875 2.60565,-2.24105 3.77976,-3.02382 0.83394,-0.55594 1.3748,-1.82131 2.26788,-2.26785 5.51931,-2.75966 11.18092,-3.02382 17.3869,-3.02382 1.8913,0 6.58773,-0.86386 8.31546,0 3.35878,1.67939 7.84016,1.65222 10.58333,3.02382 1.02746,0.51374 1.99637,1.75414 3.02382,2.26785 0.45077,0.2254 1.15554,-0.35634 1.51191,0 1.30442,1.30442 2.69743,2.69743 3.77976,3.77976 0.37798,0.37798 1.88989,-0.37796 2.26785,0 0.62952,0.62952 1.77636,2.53233 2.26787,3.02382 0.35634,0.35636 1.15555,-0.35637 1.51189,0 0.35636,0.35636 -0.35634,1.15554 0,1.5119 0.74562,0.74563 2.4729,0.961 3.02381,1.51191 0.35637,0.35637 -0.35636,1.15554 0,1.51191 1.55006,1.55006 4.55282,4.55282 6.80358,6.80358 0.53454,0.53453 -0.33809,1.5917 0,2.26785 0.51353,1.02703 2.28888,3.06586 3.02382,4.5357 0.49776,0.99554 -0.35367,2.71883 0,3.77978 0.26101,0.78301 1.13691,1.51789 1.5119,2.26785 2.32635,4.6527 0.48067,19.93003 -2.26787,22.67857 -0.62995,0.62995 -0.126,2.39385 -0.75594,3.0238 -1.9661,1.96609 -3.91478,4.87769 -6.80358,6.80357 -1.10426,0.73618 -3.08874,0.8209 -3.77976,1.51191 -1.56408,1.56408 2.39014,-0.0611 -0.75596,1.51191 -3.26711,1.63356 -7.78291,1.73529 -9.82737,3.77976 -0.39336,0.39335 -2.38464,0 -3.02382,0 -1.32828,0 -13.45975,0.14739 -13.60715,0 -0.69572,-0.69575 -2.86803,-1.71196 -4.5357,-2.26785 -2.83482,-0.94494 3.77976,3.77975 -3.77975,0 -3.25171,-1.62587 -5.70561,-4.1937 -7.55955,-6.04764"
       id="path66"
       inkscape:connector-curvature="0" />
    <path
       style="fill:none;stroke:#000000;stroke-width:0.26458332px;stroke-linecap:butt;stroke-linejoin:miter;stroke-opacity:1"
       d="m 359.07739,-446.10119 c -1.72868,-0.1971 -5.44555,0.60209 -6.80358,-0.75595 -0.94879,-0.94878 -2.24385,-3.36576 -3.02381,-4.53571 -0.50398,-0.50397 -1.00793,-1.00794 -1.51191,-1.51191 -0.25199,0 -0.57777,0.17818 -0.75594,0 -4.68361,-4.68358 -9.3212,-11.33262 -11.3393,-17.3869 -6.79032,-20.37102 -6.00017,-37.06539 13.60715,-46.86905 3.58939,-1.7947 10.53287,-0.75595 14.36309,-0.75595 3.16566,0 16.18178,1.06273 18.14285,3.02381 1.2768,1.2768 3.92004,2.71596 6.04763,3.77976 2.52563,1.26282 3.2983,5.05094 5.29167,6.04762 0.45077,0.22538 1.15554,-0.35636 1.51191,0 0.67037,0.67037 0.30035,2.11266 0.75594,3.02381 0.5789,1.1578 1.34712,0.59117 2.26785,1.5119 1.1032,1.1032 0.80798,2.31988 1.5119,3.02381 0.43935,0.43934 0.43831,2.38852 0.75597,3.02381 0.6771,1.35423 1.55784,3.06975 2.26785,3.77976 1.54972,1.54972 -1.03809,6.99527 0,9.07143 2.27505,4.55007 1.3589,16.78396 -2.26785,20.41072 -0.95829,0.9583 -2.47544,4.74329 -3.77976,6.04762 -0.0469,2.12856 -1.70442,0.19249 -2.26787,0.75595 -1.74768,1.74768 -4.99105,3.47914 -6.80358,5.29166 -0.96485,0.96487 -3.04501,0.77716 -3.77976,1.51191 -2.7895,2.78951 -19.57318,1.5119 -24.19045,1.5119 z"
       id="path68"
       inkscape:connector-curvature="0" />
    <path
       style="fill:none;stroke:#000000;stroke-width:0.26458332px;stroke-linecap:butt;stroke-linejoin:miter;stroke-opacity:1"
       d="m 374.95239,-563.2738 c -4.07871,-1.91702 -11.08869,2.01519 -15.11906,0 -4.82486,-2.41243 -9.42459,-5.84623 -14.36309,-8.31548 -1.74874,-0.87437 -8.02426,-6.97708 -9.07143,-9.07143 -0.22907,-0.45815 -0.43918,-1.95108 -0.75596,-2.26786 -0.4956,-0.49558 -1.88913,-1.13317 -2.26785,-1.5119 -0.29443,-0.29444 -1.47305,-3.74091 -3.02382,-5.29167 -0.86918,-0.86919 -0.20971,-4.1992 -0.75594,-5.29166 -2.97355,-5.94709 -5.06201,-19.12848 0,-24.19048 0.34943,-0.34945 -0.22821,-1.81143 0,-2.26786 0.61624,-1.2325 2.38,-1.62404 3.02381,-2.26785 0.77063,-0.77064 -0.8324,-1.47368 0.75595,-2.26786 1.41851,-0.70926 2.37188,-2.08522 3.77975,-3.02381 2.47203,-1.64802 5.73773,-2.49089 8.31549,-3.77976 2.18662,-1.09332 8.04537,0 10.58333,0 3.08033,0 14.45588,-1.08754 16.63094,0 0.6726,0.3363 3.19982,1.68789 3.77976,2.26785 0.50398,0.50397 2.51986,-0.50396 3.02382,0 1.29632,1.29633 2.05835,2.81431 3.02381,3.77977 0.35637,0.35636 1.06114,-0.22538 1.51191,0 0.5292,0.2646 4.20381,4.03786 4.5357,4.53571 0.44201,0.66301 0.19251,1.7044 0.75597,2.26786 0.50395,0.50397 1.76387,0.25198 2.26785,0.75595 1.72675,1.72676 2.97796,5.24582 4.53572,6.80357 0.30361,0.30362 -0.14253,1.84031 0,2.26786 0.65723,1.97175 1.35057,2.86247 2.26785,3.77976 0.37799,0.37798 -0.37798,1.88988 0,2.26786 1.85682,1.85682 1.51191,6.45235 1.51191,9.82738 0,2.25204 0.13806,8.93337 -0.75597,9.82738 -0.42037,0.42037 -1.74402,1.22022 -2.26784,2.26786 -0.22821,0.45642 0.34946,1.9184 0,2.26785 -2.18774,2.18773 -4.68718,3.93122 -6.80358,6.04762 -0.58028,0.5803 -2.37979,0.43395 -3.02382,0.75596 -0.17076,0.0854 -1.2691,2.02506 -1.51188,2.26785 -1.33657,1.33656 -5.70505,1.92529 -7.55954,3.77976 -1.06908,1.06908 -3.02379,0 -4.5357,0 -1.19798,0 -1.66061,0.75596 -3.02382,0.75596"
       id="path70"
       inkscape:connector-curvature="0" />
    <path
       style="fill:none;stroke:#000000;stroke-width:0.26458332px;stroke-linecap:butt;stroke-linejoin:miter;stroke-opacity:1"
       d="m 464.91072,-616.19047 c -4.26847,2.78262 -11.89961,8.68016 -14.36312,13.60714 -5.02838,10.05677 -7.80706,24.95308 -0.75594,35.52976 3.14608,4.71914 -1.16451,-1.92045 1.51191,0.75596 1.05939,1.05938 1.15636,2.37918 3.02382,3.77976 0.89715,0.67288 2.84138,0.28677 3.77975,0.75595 8.51088,4.25545 26.17335,3.16629 34.01785,-0.75595 2.12794,-1.06396 4.69424,-3.93828 6.04761,-5.29167 1.56411,-1.56409 -0.0611,2.39014 1.51191,-0.75595 1.05796,-2.11591 1.87687,-4.90067 3.02382,-6.04762 0.553,-0.553 3.37211,-20.47003 2.26785,-22.67857 -0.77007,-1.54014 -0.96531,-1.5934 -1.51191,-3.77976 -0.35034,-1.4014 0.45532,-3.16979 0,-4.53572 -1.8827,-5.64814 -4.99113,-10.38298 -9.82737,-13.60714 -1.69082,-1.12721 -3.04763,-0.0119 -4.53572,-0.75595 -2.48034,-1.24018 -16.95503,-1.18782 -18.89879,0.75595 -0.1782,0.17818 0,0.50397 0,0.75595 -1.7639,0.75596 -3.5278,1.51191 -5.29167,2.26786 z"
       id="path72"
       inkscape:connector-curvature="0" />
    <path
       style="fill:none;stroke:#000000;stroke-width:0.26458332px;stroke-linecap:butt;stroke-linejoin:miter;stroke-opacity:1"
       d="m 473.98214,-480.87499 c -11.47654,-0.59757 -13.89234,12.38042 -20.41072,18.8988 -0.30361,0.30362 0.14253,1.84031 0,2.26786 -5.26783,15.80352 -0.71091,31.0391 9.82739,41.57737 0.35634,0.35637 1.06114,-0.22537 1.51191,0 1.20952,0.60478 1.81427,2.41906 3.02379,3.02382 1.06667,0.53332 3.67596,-0.10383 4.53573,0.75596 3.4454,3.44541 12.64282,2.75 16.63094,0.75595 1.4905,-0.74526 3.83474,-0.0275 5.29166,-0.75595 1.37409,-0.68704 6.41358,-2.63382 7.55955,-3.77978 0.56343,-0.56343 0.19248,-1.70439 0.75594,-2.26785 1.07743,-1.07744 2.67192,-1.56408 3.77976,-3.77976 0.45069,-0.90138 0.83071,-3.09856 1.5119,-3.77976 1.00793,-1.00793 0.72539,1.60362 1.51191,-0.75596 0.23905,-0.71716 -0.53454,-1.73332 0,-2.26785 1.40645,-1.40645 2.97098,-3.56841 3.77976,-6.80358 0.66619,-2.66474 0.75594,-12.84616 0.75594,-15.87499 0,-0.61941 0.6481,-6.91145 0,-7.55952 -1.55289,-1.5529 -2.5781,-5.15625 -3.77976,-7.55953 -0.98075,-1.96152 -4.42457,-4.42457 -5.29166,-5.29166 -0.82646,-0.82647 -3.91732,-0.13756 -4.5357,-0.75596 -3.16812,-3.16812 -19.99364,-2.26785 -26.45834,-2.26785"
       id="path74"
       inkscape:connector-curvature="0" />
    <path
       style="fill:none;stroke:#000000;stroke-width:0.26458332px;stroke-linecap:butt;stroke-linejoin:miter;stroke-opacity:1"
       d="m 455.83927,-366.72618 c -6.40199,6.5618 -12.85118,12.58978 -12.85118,21.16667 0,5.30299 -0.0945,10.29986 1.5119,15.11903 0.63196,1.8959 2.3404,3.99735 3.02382,6.04764 0.16799,0.50395 0.44458,1.95646 0.75594,2.26785 0.50753,0.50752 2.4256,1.82737 3.02382,3.02381 0.25477,0.50956 1.2755,2.14966 1.51191,2.26785 0.45074,0.22537 1.06114,-0.22537 1.51191,0 0.75615,0.37809 3.09631,3.09634 3.77975,3.77976 0.49972,0.49972 7.2802,0.75594 9.07143,0.75594 2.01586,0 -0.25199,-0.25196 0.75594,0.75597 0.66887,0.66887 14.92541,-1.03711 15.875,-1.51191 2.10714,-1.05357 2.82133,-2.06536 3.77976,-3.02382 0.56345,-0.56345 1.60485,-0.31392 2.26787,-0.75594 2.17551,-1.45036 3.49084,-3.9579 4.5357,-6.04763 1.01608,-2.03211 3.06711,-2.39768 3.77976,-4.5357 0.16415,-0.49242 -0.42328,-3.35648 0,-3.77976 1.43108,-1.43105 1.51191,-5.54402 1.51191,-8.31548 0,-3.06591 0.26564,-11.56396 -0.75594,-13.60715 -3.63514,-7.27028 -6.71351,-13.18414 -13.60715,-16.63094 -2.72582,-1.36293 -9.73595,0 -12.85118,0 -2.99316,0 -10.2271,-1.31205 -12.85119,0 -1.44317,0.72157 -2.48899,2.0557 -3.77978,3.02381 z"
       id="path76"
       inkscape:connector-curvature="0" />
    <path
       style="fill:none;stroke:#000000;stroke-width:0.26458332px;stroke-linecap:butt;stroke-linejoin:miter;stroke-opacity:1"
       d="m 446.76784,-237.45833 c -5.66962,6.46203 -11.95638,27.35313 -5.29166,34.01785 0.4795,0.47951 -0.3147,2.39443 0,3.02382 0.70257,1.40515 2.30264,2.33743 3.02381,3.77976 0.33809,0.67614 -0.23905,1.55069 0,2.26785 0.90779,2.72335 4.02276,5.53466 6.04761,7.55954 0.49559,0.49556 0.37724,2.64506 0.75597,3.02379 5.12559,5.12561 7.68715,7.96941 15.11903,9.82739 1.36824,-0.45564 1.40594,1.2246 2.26788,1.51191 2.47213,0.82404 8.47047,1.47315 11.33927,0.75594 3.65046,-0.9126 -0.0375,-0.35925 2.26785,-1.51191 0.60479,-0.30236 1.66312,0.30239 2.26788,0 4.69236,-2.34616 9.56032,-5.26904 12.09524,-9.07142 0.31253,-0.46882 1.25992,-0.25199 1.51188,-0.75594 5.5544,-11.1088 9.82739,-22.37941 9.82739,-35.52976 0,-0.94149 0.79463,-6.76492 0,-7.55954 -1.30447,-1.30448 -1.92267,-3.84535 -3.02381,-6.04761 -3.9529,-7.90583 -16.41044,-8.44934 -24.94643,-10.58333 -3.51266,-0.87818 -7.91736,1.14061 -11.33927,0 -0.97325,-0.32441 -7.85239,-1.97501 -9.07143,-0.75597 -1.82007,1.82007 -6.17161,4.02775 -7.55954,6.80357 -0.74808,1.49622 -3.77976,2.60289 -3.77976,3.77976"
       id="path78"
       inkscape:connector-curvature="0" />
    <path
       style="fill:none;stroke:#000000;stroke-width:0.26458332px;stroke-linecap:butt;stroke-linejoin:miter;stroke-opacity:1"
       d="m 468.69048,-121.79763 c -3.99698,3.74552 -6.84324,9.15075 -9.07143,13.60715 -1.26314,2.52627 1.99975,19.386682 3.02379,20.410725 1.98541,1.98538 3.87475,5.386626 6.04764,7.559516 0.25199,0.251989 0.50395,2.015861 0.75594,2.26785 0.62254,0.622564 6.01729,6.41043 6.80357,6.803575 0.90152,0.45077 2.06759,-0.318744 3.02382,0 0.0249,0.0082 0.66712,1.423088 0.75594,1.511908 0.7076,0.707602 3.16463,0.896753 3.77976,1.511909 0.37722,0.37719 3.18786,0 3.77976,0 3.43196,0 14.14864,1.24116 16.63097,0 3.95311,-1.97657 7.28331,-2.507747 11.33927,-4.535726 3.14611,-1.573027 -0.80814,0.0522 0.75597,-1.511908 0.35634,-0.356341 1.09257,0.279558 1.51191,0 2.65295,-1.768634 6.00384,-5.247905 7.55951,-6.803549 0.94179,-0.941811 3.17585,-5.595726 3.77976,-6.803575 0.40317,-0.806344 -0.40317,-2.217473 0,-3.023817 4.8628,-9.725608 2.03107,-22.915348 -5.29167,-30.238088 -0.49233,-0.49234 -0.57369,-2.39835 -1.51191,-3.02382 -0.41931,-0.27956 -1.06113,0.2254 -1.5119,0 -0.60974,-0.30485 -1.04553,-2.20893 -2.26785,-3.02382 -0.41934,-0.27953 -1.15554,0.35637 -1.51191,0 -1.10797,-1.10797 -2.78683,-3.19677 -4.5357,-3.77976 -1.0954,-0.36512 -3.76415,0.0156 -4.53573,-0.75594 -1.1853,-1.18533 -4.65042,-2.26785 -6.80357,-2.26785 -4.28234,0 -8.43574,0.81608 -11.33928,2.26785 -2.05761,1.02881 -4.18541,-0.17515 -6.04763,0.75594 -1.43677,0.7184 -3.47607,2.26788 -4.5357,2.26788"
       id="path84"
       inkscape:connector-curvature="0" />
    <path
       style="fill:none;stroke:#000000;stroke-width:0.26458332px;stroke-linecap:butt;stroke-linejoin:miter;stroke-opacity:1"
       d="m 455.83927,-22.767847 c -4.43725,6.508961 -7.55952,11.543744 -7.55952,20.4106986 0,15.7209334 8.21129,27.1100814 18.14285,37.0416664 0.54227,0.542263 3.23752,0.213704 3.77979,0.755967 3.04622,3.046228 14.04485,2.633874 19.65475,1.511882 3.36045,-0.672068 5.28974,-0.377004 7.55952,-1.511882 0.96515,-0.482573 2.70624,0.268367 3.77976,0 3.02604,-0.756523 15.51778,-7.243868 16.63097,-10.583333 1.08286,-3.248633 1.33442,-1.912964 3.02379,-5.291667 1.4488,-2.897637 5.54561,-20.6588247 3.77975,-24.190483 -1.73132,-3.4626549 -4.25899,-10.306632 -7.55951,-13.60715 -0.92808,-0.928079 -4.82595,-3.314039 -5.29167,-3.779758 -0.25051,-0.250508 0.25051,-1.261401 0,-1.511909 -3.1424,-3.142403 -7.87331,-4.093554 -10.58333,-6.803575 -1.06783,-1.067832 -6.87824,-1.549241 -8.31549,-2.267849 -2.63694,-1.318472 -4.17771,-2.26785 -6.80354,-2.26785 -3.29854,0 -10.72095,-1.443117 -13.60715,0 -2.25896,1.12948 -11.68258,8.658754 -13.60715,10.583333 -0.35637,0.356341 0.48892,1.389671 0,1.511909 -0.97785,0.244448 -2.01586,0 -3.02382,0 z"
       id="path86"
       inkscape:connector-curvature="0" />
    <path
       style="fill:none;stroke:#000000;stroke-width:0.26458332px;stroke-linecap:butt;stroke-linejoin:miter;stroke-opacity:1"
       d="m 481.54166,104.23215 c -3.94938,4.3438 -6.02086,9.0179 -8.31548,13.60712 -0.80635,1.61272 0.80634,4.43492 0,6.04764 -5.57335,11.14671 5.37818,28.05676 10.58333,33.26191 0.35637,0.35634 1.15554,-0.35637 1.51191,0 5.94847,5.94847 8.18827,1.4483 14.36309,4.5357 6.67917,3.33957 19.20486,-0.531 25.70239,-3.77976 3.69946,-1.84973 5.62295,-7.13486 7.55952,-9.07143 0.50398,-0.50397 -0.50395,-2.51984 0,-3.02381 1.70119,-1.7012 1.45984,-4.32748 2.26785,-7.55952 0.73279,-2.93116 2.15712,-10.0489 0.75597,-12.85118 -2.97887,-5.95776 -7.05337,-12.34506 -12.09525,-17.38691 -0.35636,-0.35637 -1.09257,0.27953 -1.51191,0 -2.11261,-1.40843 -1.49994,-1.49995 -3.02381,-3.02382 -0.70393,-0.70392 -2.67655,0.34724 -3.77976,-0.75594 -0.5098,-0.50982 -2.37905,-1.9177 -3.77976,-2.26787 -1.114,-0.27851 -21.34981,-1.32877 -21.92261,-0.75595 -0.49265,0.49266 -1.69976,1.51191 -3.02381,1.51191"
       id="path88"
       inkscape:connector-curvature="0" />
    <path
       style="fill:none;stroke:#000000;stroke-width:0.26458332px;stroke-linecap:butt;stroke-linejoin:miter;stroke-opacity:1"
       d="m 432.40475,225.94048 c -5.33924,7.88255 -7.89223,28.39347 -0.75594,35.52976 0.88345,0.88344 1.31191,3.57976 2.26785,4.5357 0.25199,0.25199 2.01586,0.50398 2.26785,0.75597 2.87912,2.87909 4.67831,3.57531 9.82739,5.29166 2.77535,0.92512 25.31052,2.08582 27.97024,0.75594 3.72039,-1.86017 6.39959,-2.61982 9.82737,-6.0476 0.58449,-0.58449 2.54947,-1.03757 3.02382,-1.51191 0.35636,-0.35637 -0.22537,-1.06114 0,-1.51191 1.91973,-3.8395 4.11424,-7.47252 6.0476,-11.33927 0.91679,-1.83357 0.53288,-4.84548 1.51191,-6.80358 0.89234,-1.78467 -0.4904,-4.84187 0,-6.80357 1.15557,-4.62225 1.25794,-9.57938 -0.75594,-13.60715 -0.31469,-0.6294 0.47951,-2.54429 0,-3.02382 -0.47471,-0.47469 -2.40874,-2.54961 -3.02381,-3.77976 -0.22538,-0.45074 0.35636,-1.15554 0,-1.51191 -1.44056,-1.44055 -5.23973,-5.23973 -6.80358,-6.80355 -1.0323,-1.03232 -5.77125,0.27633 -6.80357,-0.75596 -1.39494,-1.39497 -6.39406,-0.75595 -9.07143,-0.75595 -3.20876,0 -11.24664,-0.42431 -13.60712,0.75595 -1.32205,0.661 -3.06052,2.30454 -3.77979,3.02381 -0.58449,0.58449 -3.30541,0.2816 -3.77976,0.75594 -2.58278,2.58281 -9.07142,8.13673 -9.07142,12.85121"
       id="path92"
       inkscape:connector-curvature="0" />
    <path
       style="fill:none;stroke:#000000;stroke-width:0.26458332px;stroke-linecap:butt;stroke-linejoin:miter;stroke-opacity:1"
       d="m 605.51784,245.59524 c -5.56596,7.8595 -16.91129,6.28542 -24.94642,2.26785 -0.45644,-0.2282 -1.91842,0.34946 -2.26785,0 -0.95126,-0.95126 -2.9518,-2.19586 -3.77976,-3.02382 -0.47435,-0.47434 -3.19527,-0.17145 -3.77976,-0.75594 -1.44534,-1.44534 -4.98604,-2.71817 -6.80357,-4.53572 -0.49496,-0.49493 -0.47014,-1.74697 -1.51191,-2.26785 -0.45815,-0.22908 -1.95109,-0.43918 -2.26785,-0.75594 -0.35637,-0.35637 0.35634,-1.15557 0,-1.51191 -1.97332,-1.97332 -5.128,-4.8006 -6.04764,-7.55955 -0.0508,-0.15253 0.25152,-2.77227 0,-3.02379 -2.21117,-2.2112 -5.87218,-16.22586 -3.77975,-20.41072 0.81526,-1.63052 2.45276,-5.47658 3.77975,-6.80358 0.35637,-0.35634 1.23235,0.41934 1.51191,0 1.09062,-1.63589 0.70427,-2.21615 1.51191,-3.02379 0.25204,-0.25204 1.25987,0.25205 1.51191,0 1.98718,-1.98718 5.57382,-5.63771 9.07142,-6.80357 1.68654,-0.56219 4.18159,0.35412 5.29167,-0.75597 0.69395,-0.69395 3.6345,-1.85356 5.29167,-2.26785 0.85058,-0.21264 2.24874,0.38754 3.02381,0 2.68455,-1.34228 19.61878,-1.5299 22.67855,0 0.95623,0.4781 1.37835,1.67484 2.26788,2.26785 0.41931,0.27956 1.06114,-0.22537 1.51191,0 0.44011,0.22008 5.95548,4.4436 6.04761,4.53573 2.95833,2.95833 7.43971,9.70756 10.58333,12.85118 0.83219,0.83219 1.10059,8.66013 1.51191,9.07142 1.32111,1.32115 0.75594,5.00375 0.75594,7.55955 0,9.39268 -5.50879,19.11593 -11.33928,24.94642 -1.02412,1.02412 -8.768,2.26785 -10.58333,2.26785"
       id="path94"
       inkscape:connector-curvature="0" />
    <path
       style="fill:none;stroke:#000000;stroke-width:0.26458332px;stroke-linecap:butt;stroke-linejoin:miter;stroke-opacity:1"
       d="m 585.86308,109.52382 c -9.58569,-1.86082 -12.81617,-8.26297 -17.3869,-15.119061 -1.85196,-2.77794 -2.04206,-6.126189 -3.02379,-9.071425 -2.25288,-6.758622 -3.50431,-20.686183 1.51188,-25.702392 0.77337,-0.773377 -0.16058,-4.375123 0.75596,-5.291666 1.46622,-1.466215 2.6646,-3.817276 3.77976,-6.047608 0.57891,-1.15779 1.34713,-0.591158 2.26785,-1.511908 0.35637,-0.356368 -0.22537,-1.061138 0,-1.511909 0.50626,-1.012481 1.80343,-1.047459 2.26788,-1.511909 0.43815,-0.43815 1.07373,-2.58564 1.51188,-3.02379 0.35637,-0.356367 1.06116,0.225372 1.51191,0 1.51191,-0.755968 2.26787,-3.023817 3.77976,-3.779785 8.51371,-4.256828 20.80604,-4.338029 29.48215,0 12.55993,6.279992 21.21744,15.169833 30.23809,24.190484 0.73467,0.734668 0.17965,2.159344 0.75597,3.023817 0.25487,0.382296 1.7848,1.301776 2.26785,2.267849 0.52548,1.051005 0.10379,2.475468 0.75594,3.779758 4.16073,8.321437 3.23376,21.712687 -2.26785,27.214301 -0.49559,0.495591 -0.37722,2.645064 -0.75594,3.023794 -2.3353,2.33529 -4.79613,5.21329 -8.31549,7.55954 -1.75966,1.17311 -3.91517,1.64732 -5.29166,3.02379 -1.166,1.16602 -15.12256,0.75597 -18.14285,0.75597 -8.85558,0 -14.82672,0.52414 -21.92264,-3.02382 -1.91108,-0.95554 -0.0325,3.87871 -3.77976,0.75597 -5.72971,-4.77478 0.73607,-4.53573 -2.26785,-4.53573"
       id="path102"
       inkscape:connector-curvature="0" />
    <path
       style="fill:none;stroke:#000000;stroke-width:0.26458332px;stroke-linecap:butt;stroke-linejoin:miter;stroke-opacity:1"
       d="m 597.20238,5.9583352 c -0.45259,-2.1588412 -3.5674,0.9683221 -4.53572,0 -6.32889,-6.32888614 -13.29616,-12.9851677 -17.38691,-21.1666662 -1.06516,-2.130346 -3.00873,-3.734541 -3.77976,-6.047634 -0.52916,-1.5875 0.52917,-3.704167 0,-5.291667 -2.44022,-7.32065 -0.0271,-21.139546 4.53573,-25.702365 0.60806,-0.608066 0.77816,-3.801983 1.51188,-4.535726 1.16099,-1.160992 1.98914,-1.710372 3.02382,-3.779758 1.32418,-2.648373 5.05534,-3.543432 6.80357,-5.291667 0.50398,-0.503951 0.25199,-1.763897 0.75594,-2.267849 0.37799,-0.377984 1.8899,0.377984 2.26788,0 0.7112,-0.711227 2.22737,-2.227368 3.02379,-3.023817 0.53454,-0.534538 1.5507,0.239051 2.26788,0 1.08841,-0.362797 1.8143,-1.05836 2.26785,-1.511909 0.52641,-0.526388 18.69138,0.326126 20.41072,0.755968 0.32584,0.08146 4.33454,2.545238 5.29167,3.02379 1.18845,0.594255 3.36952,0.345731 4.5357,1.511909 3.48943,3.489431 8.89942,7.215478 11.3393,12.095242 -0.19693,1.597157 1.19935,0.287125 1.51188,0.755967 0.57632,0.864447 0.0214,2.289149 0.75597,3.023791 3.75938,3.759385 6.0476,13.770874 6.0476,20.410725 0,4.554061 0.66244,9.920896 -2.26784,12.851183 -0.60339,0.603382 0.39655,2.986669 0,3.779758 -3.59,7.1799977 -8.31888,10.5867462 -13.60716,15.8749997 -1.11662,1.116621 -3.84632,0.5483754 -5.29166,1.5119085 -8.20645,5.4709747 -19.47553,1.0224823 -29.48213,3.023817 z"
       id="path104"
       inkscape:connector-curvature="0" />
    <path
       style="fill:none;stroke:#000000;stroke-width:0.26458332px;stroke-linecap:butt;stroke-linejoin:miter;stroke-opacity:1"
       d="m 591.15475,-136.16072 c -12.39777,0.75917 -18.07665,-4.4364 -24.19048,-13.60713 -0.5815,-0.87225 -1.68635,-1.39562 -2.26785,-2.26787 -0.87146,-1.30718 -2.73415,-6.98024 -3.77976,-9.07143 -0.50139,-1.00277 0.35753,-2.70713 0,-3.77975 -2.55468,-7.66406 -2.44996,-21.74053 3.02382,-27.21428 0.34943,-0.34946 -0.22823,-1.81144 0,-2.26787 0.87373,-1.7475 2.25295,-2.25296 3.02379,-3.0238 0.35636,-0.35636 -0.35634,-1.15556 0,-1.5119 1.7381,-1.7381 4.0345,-4.66307 6.80357,-6.04764 2.14122,-1.07058 5.22804,-2.20421 6.80358,-3.77976 0.39327,-0.39327 9.3541,-1.03862 9.82739,-1.5119 2.37117,-2.37117 14.52713,0.16406 16.63094,2.26787 4.53771,4.53771 6.38749,7.8994 10.58333,12.09522 0.47951,0.47953 -0.31469,2.39442 0,3.02381 3.02533,6.05065 8.38655,25.6313 3.77976,30.2381 -0.58682,0.58684 0.37891,3.02196 0,3.77975 -0.34118,0.68242 -2.28248,2.28248 -3.02379,3.02382 -0.53454,0.53454 0.23905,1.5507 0,2.26785 -0.36962,1.10887 -3.31742,2.56146 -3.77978,3.02382 -0.35634,0.35636 0.35636,1.15554 0,1.51191 -0.34944,0.34946 -1.81142,-0.22821 -2.26785,0 -1.29606,0.64804 -0.30999,1.46658 -1.51191,2.26784 -6.96095,4.64066 3.52216,-2.51703 -3.02379,0.75597 -0.13597,0.068 -1.58377,1.81179 -2.26788,2.26785 -3.1051,2.07008 -8.66015,2.61255 -10.58333,4.53573 -0.13862,0.13861 -11.59743,0 -12.85118,0"
       id="path106"
       inkscape:connector-curvature="0" />
    <path
       style="fill:none;stroke:#000000;stroke-width:0.26458332px;stroke-linecap:butt;stroke-linejoin:miter;stroke-opacity:1"
       d="m 567.72023,-271.47618 c -6.41289,1.71744 -6.4363,1.12321 -9.82739,-2.26787 -1.40882,-1.40883 -4.1629,-2.84258 -5.29166,-4.5357 -1.03617,-1.55427 -1.17616,-2.68806 -2.26785,-3.77976 -0.74814,-0.74816 -1.33268,-8.71299 -2.26785,-10.58333 -0.80635,-1.61272 0.80634,-4.43492 0,-6.04764 -0.88914,-1.77826 -1.78787,-7.76356 -0.75597,-9.82736 1.55533,-3.11066 0.40206,-8.71755 3.02382,-11.3393 0.89434,-0.89435 1.45986,-2.16377 2.26785,-3.77976 0.57446,-1.1489 2.48121,-1.72524 3.02381,-2.26785 0.35637,-0.35637 -0.35636,-1.15554 0,-1.51191 0.74885,-0.74885 2.43682,-1.09389 3.02382,-2.26785 1.15475,-2.30952 6.02319,-2.9994 6.80358,-3.77978 1.56408,-1.56409 -2.39014,0.0611 0.75594,-1.51189 0.7929,-0.39647 2.13293,0.17817 3.02381,0 1.00793,-0.25199 2.01586,-0.50398 3.02379,-0.75596 0,-0.25199 -0.17817,-0.57777 0,-0.75595 0.0704,-0.0704 4.57679,-0.57724 5.29167,-0.75596 5.14268,-1.28567 17.94835,3.58526 21.16667,6.80357 0.70612,0.70612 3.07366,0.80579 3.77978,1.51191 2.23017,2.2302 5.05365,5.05365 6.80355,6.80358 0.68964,0.68963 4.49593,10.46395 5.29167,12.85118 0.24836,0.74504 -0.55304,3.22672 0,3.77976 3.32695,3.32695 -0.53909,12.73971 -1.51189,16.63096 -0.18335,0.73338 0.33806,1.59171 0,2.26785 -1.41221,2.82438 -9.58929,11.97618 -12.8512,13.60715 -2.50138,1.25069 -5.94831,2.9245 -7.55952,4.5357 -0.75594,0.75597 -3.77976,-0.75594 -4.53573,0 -1.08757,1.0876 -2.0592,-0.10432 -3.77975,0.75597 -4.82656,2.41327 -13.00795,0.67757 -17.38691,-1.51191"
       id="path110"
       inkscape:connector-curvature="0" />
    <path
       style="fill:none;stroke:#000000;stroke-width:0.26458332px;stroke-linecap:butt;stroke-linejoin:miter;stroke-opacity:1"
       d="m 577.5476,-378.06548 c -1.31538,0.13788 -8.10458,3.23469 -9.82737,1.51191 -1.61446,-1.61446 -3.42624,-2.67028 -5.29166,-4.53572 -0.25199,-0.25199 -1.25992,0.25201 -1.51191,0 -0.56925,-0.56926 -1.19229,-2.70418 -1.51191,-3.02379 -2.83136,-2.83136 -4.21902,-4.65831 -6.04761,-8.31549 -1.26428,-2.52854 -0.0515,-6.15056 -1.51191,-9.07142 -0.72056,-1.44114 -0.76329,-9.81271 0,-11.3393 0.75036,-1.50072 1.25844,-1.67791 2.26785,-3.02379 4.23043,-5.64058 0.15902,0.27892 1.51191,-3.77976 0.35738,-1.07215 1.83531,-1.07937 2.26785,-1.51191 0.58031,-0.58031 0.43395,-2.3798 0.75597,-3.02382 0.22537,-0.45077 1.09257,0.27956 1.51191,0 1.72651,-1.15101 1.73688,-2.49282 3.02379,-3.77976 0.35637,-0.35636 1.06114,0.22538 1.51191,0 1.15543,-0.57771 1.62017,-1.56604 3.02381,-2.26785 2.33342,-1.1667 5.94506,0.0342 8.31549,-0.75596 9.86626,-3.28875 20.88134,-0.14264 28.72618,3.77976 0.45077,0.22539 1.15554,-0.35635 1.51191,0 2.50574,2.50573 7.9167,6.40479 10.58333,9.07142 0.32721,0.32724 2.16337,8.211 2.26785,8.31548 1.32379,1.32379 0.75594,4.97158 0.75594,7.55952 0,0.66011 0.58071,5.46693 0,6.04763 -1.24603,1.24606 -2.02819,5.80795 -2.26785,6.04761 -0.50752,0.50755 -2.42559,1.82737 -3.02381,3.02382 -0.22538,0.45077 0.35636,1.15554 0,1.51191 -3.20366,3.20365 -7.89784,8.17626 -12.85119,9.82736 -1.63922,0.54642 -2.9709,2.99736 -4.5357,3.77979 -2.66829,1.33413 -7.15909,-0.5782 -9.82739,0.75594 -2.09145,1.04574 -7.70501,1.36644 -9.07142,0 -0.78343,-0.78343 -4.12996,0.38724 -5.29167,0 -3.9356,-1.31186 -6.73259,-3.29531 -9.07142,-6.80358"
       id="path112"
       inkscape:connector-curvature="0" />
    <path
       style="fill:none;stroke:#000000;stroke-width:0.26458332px;stroke-linecap:butt;stroke-linejoin:miter;stroke-opacity:1"
       d="m 596.44642,-475.58333 c -1.65346,-0.0615 -9.76659,2.32865 -11.33928,0.75595 -0.88611,-0.88611 -3.53443,-2.02252 -4.53572,-3.02381 -3.30081,-3.3008 -7.91305,-8.84579 -10.58334,-12.85119 -0.40917,-0.61378 0.50972,-2.51408 0,-3.02381 -1.39726,-1.39726 -2.35886,-3.38788 -3.02381,-6.04761 -2.0555,-8.22202 0.98777,-21.39847 5.29166,-25.70238 0.76224,-0.76223 0.59677,-2.86463 1.51191,-3.77977 2.22086,-2.22085 5.73604,-6.26979 9.82739,-8.31547 9.2691,-4.63455 24.68338,-5.80118 34.77382,-0.75596 0.69183,0.34592 2.5109,-0.51291 3.02379,0 1.16491,1.16489 2.69642,2.86012 4.53573,3.77977 0.45077,0.22538 1.15554,-0.35636 1.51191,0 2.09804,2.09804 4.94744,4.94746 6.80357,6.80357 0.53454,0.53454 -0.23908,1.5507 0,2.26786 0.33308,0.99927 1.78604,2.06022 2.26785,3.0238 1.45235,2.90471 0.75594,7.31462 0.75594,10.58334 0,1.22984 0.94917,9.63417 0,10.58333 -1.88616,1.88617 -2.71028,7.24601 -5.29167,9.82738 -0.56345,0.56346 -0.19248,1.70441 -0.75594,2.26786 -0.50397,0.50397 -1.76389,0.25198 -2.26785,0.75595 -0.3048,0.30478 -0.49463,1.87588 -0.75596,2.26786 -0.79608,1.19412 -3.41622,3.41622 -4.5357,4.53571 -0.57362,0.57362 -2.98781,0.71993 -3.77979,1.51191 -5.03369,5.03369 -19.53413,5.6501 -28.72618,3.02381"
       id="path114"
       inkscape:connector-curvature="0" />
    <path
       style="fill:none;stroke:#000000;stroke-width:0.26458332px;stroke-linecap:butt;stroke-linejoin:miter;stroke-opacity:1"
       d="m 584.35118,-581.41666 c -10.76138,3.35732 -17.71579,-5.5224 -20.4107,-13.60714 -0.90535,-2.71604 -0.19979,-6.44718 -1.51191,-9.07143 -1.44653,-2.89306 -3.64924,-11.86137 -2.26785,-17.38691 0.84381,-3.37529 4.5851,-12.90058 6.80355,-15.11904 0.50607,-0.50606 2.57672,-1.37366 3.02381,-2.26786 0.93094,-1.86187 -2.19432,0.68242 0.75597,-2.26786 0.68469,-0.68468 1.38007,-0.16409 2.26785,-0.75595 0.88953,-0.59302 1.31165,-1.78975 2.26785,-2.26786 2.1472,-1.0736 4.59777,-1.16496 6.80358,-2.26786 1.00793,-0.50396 2.77182,0.50397 3.77975,0 3.75092,-1.87546 16.64383,-1.12749 20.41073,0.75596 1.59311,0.79656 2.74222,2.12707 4.5357,3.02381 0.80285,0.40142 2.34995,0.0821 3.02382,0.75595 1.43801,1.43802 3.6831,5.25945 6.0476,6.04762 0.47813,0.15937 1.06117,-0.22538 1.51191,0 0.38256,0.19127 0.90215,3.17 1.51191,3.77976 0.35637,0.35636 1.23235,-0.41933 1.51191,0 6.49311,9.73966 8.59285,21.09053 4.53572,33.2619 -1.9613,5.88391 -10.00958,12.27744 -13.60715,15.875 -1.1938,1.19381 -7.85619,2.79417 -9.82739,3.77977 -0.99002,0.49501 -21.15957,0.78429 -21.16666,0.75595 -0.24445,-0.97784 0,-2.01587 0,-3.02381 z"
       id="path116"
       inkscape:connector-curvature="0" />
    <path
       style="fill:none;stroke:#000000;stroke-width:0.26458332px;stroke-linecap:butt;stroke-linejoin:miter;stroke-opacity:1"
       d="m 721.17857,264.49403 c -5.11932,-1.92513 -9.11982,-2.28396 -13.60715,-3.77976 -1.5148,-0.50493 -2.96672,-1.8756 -4.5357,-2.26785 -3.53116,-0.88278 -7.61095,-1.79816 -10.58334,-3.77975 -1.82292,-1.21529 -1.20089,-1.80854 -3.02381,-3.02382 -0.39198,-0.2613 -1.96308,-0.45117 -2.26785,-0.75594 -3.86983,-3.86982 -4.87305,-8.99012 -6.80358,-12.85121 -1.06534,-2.13066 0,-7.34076 0,-9.82737 0,-3.38968 0.0509,-6.90533 1.51191,-9.82739 0.75986,-1.51971 2.33204,-2.39625 3.02379,-3.77976 0.23352,-0.46701 0.47575,-2.74359 0.75597,-3.02381 0.25236,-0.25234 1.25955,0.25235 1.51191,0 0.74559,-0.7456 0.96096,-2.47288 1.51188,-3.0238 0.25138,-0.25138 1.26055,0.25136 1.51191,0 1.22796,-1.22795 5.26079,-2.99294 5.29166,-3.02381 0.1782,-0.17817 -0.23905,-0.67628 0,-0.75594 3.40411,-1.1347 22.35775,-3.63474 26.45834,-2.26788 1.83861,0.61288 3.94364,1.56655 6.04763,2.26788 0.90713,0.30236 2.11667,-0.3024 3.02379,0 3.6354,1.21179 12.25376,7.41928 14.36312,10.58333 0.30237,0.45355 -0.37798,1.88987 0,2.26785 0.79796,0.79796 2.45184,3.57579 3.02379,5.29167 0.54126,1.62377 1.6497,17.86728 0.75597,19.65475 -0.80312,1.60624 -2.66012,6.43988 -4.53573,8.31549 -0.25204,0.25204 -1.25986,-0.25204 -1.51191,0 -4.24307,4.24307 -3.99645,2.75418 -9.07142,5.29166 -1.11318,0.55658 -1.00298,1.00299 -1.51191,1.51191 -0.35634,0.35634 -1.03378,-0.15938 -1.51191,0 -7.03339,2.34445 -11.08464,2.26785 -18.89879,2.26785"
       id="path118"
       inkscape:connector-curvature="0" />
    <path
       style="fill:none;stroke:#000000;stroke-width:0.26458332px;stroke-linecap:butt;stroke-linejoin:miter;stroke-opacity:1"
       d="m 682.62499,163.19642 c -4.37118,-1.12791 -4.72085,-6.9887 -6.80357,-9.07142 -0.86268,-0.86267 0.25619,-5.52259 0,-6.80358 -2.237,-11.18496 -0.81048,-27.15974 6.04763,-34.01784 0.84275,-0.84278 1.42507,-3.69295 2.26785,-4.53573 0.25204,-0.25204 1.25987,0.25204 1.51191,0 1.16522,-1.16522 2.86663,-2.86663 3.77976,-3.77976 0.50395,-0.50398 2.51984,0.50398 3.02381,0 3.374,-3.37402 12.94596,-2.97643 17.38689,-0.75594 1.39226,0.69612 3.74372,-0.018 5.29166,0.75594 3.32992,1.66495 7.94719,5.67285 11.3393,6.80358 1.21616,0.40539 1.19801,2.31058 2.26785,3.02381 1.33493,0.88993 8.51792,7.20842 9.07143,8.31546 2.48089,4.96176 4.52625,9.05251 6.80357,13.60715 0.60196,1.20391 -0.42931,3.24776 0,4.53573 0.88874,2.6662 2.9718,9.9314 1.51191,12.85118 -0.69853,1.39708 -0.10012,3.22405 -0.75594,4.5357 -2.1091,4.2182 -4.73181,9.26753 -7.55954,12.09524 -5.95265,5.95268 -31.83787,12.76334 -39.30952,5.29167 -0.34626,-0.34626 -2.72534,-0.15902 -3.02382,-0.75594 -0.22537,-0.45077 0.2254,-1.06114 0,-1.51191 -0.40624,-0.81251 -3.07115,-1.55927 -3.77975,-2.26785 -0.35637,-0.35637 0.27955,-1.0926 0,-1.51191 -3.57312,-5.35969 -7.02686,-8.76205 -9.82737,-14.36309"
       id="path120"
       inkscape:connector-curvature="0" />
    <path
       style="fill:none;stroke:#000000;stroke-width:0.26458332px;stroke-linecap:butt;stroke-linejoin:miter;stroke-opacity:1"
       d="m 730.24999,70.214275 c -7.99526,-2.201915 -14.50914,-3.852783 -21.92261,-7.559516 -2.72767,-1.363821 -3.782,-4.536837 -5.29166,-5.291666 -2.65277,-1.326383 -4.07543,-9.05465 -5.29167,-12.095242 -1.14726,-2.868136 -0.75597,-5.942912 -0.75597,-9.071425 0,-11.818699 4.9234,-16.824801 15.11906,-21.922607 2.73915,-1.369589 7.4182,-2.126562 9.07143,-3.779785 1.18062,-1.1806234 8.55281,0 10.58333,0 3.19122,0 7.52091,-0.765598 10.58333,0 5.3847,1.3462 11.9887,3.673237 15.11903,6.803575 0.34947,0.349462 1.81145,-0.228203 2.26788,0 1.39171,0.695881 0.12017,1.571996 1.51191,2.267876 0.79962,0.399812 2.52743,0.519139 3.02379,1.511883 0.44715,0.894291 3.33412,5.601969 3.77976,6.047634 0.469,0.469 1.76202,1.256135 2.26787,2.267849 1.03159,2.063195 1.29559,4.859073 2.26785,6.803575 0.60476,1.209517 -0.60475,3.326183 0,4.535726 0.70702,1.414039 1.41283,5.390726 0,6.803549 -0.68188,0.681884 -0.25693,4.293631 -0.75594,5.291666 -0.60478,1.209543 -2.41906,1.814301 -3.02381,3.023817 -0.22538,0.450771 0.35636,1.155541 0,1.511909 -1.39195,1.391946 -4.15476,3.398811 -6.04764,5.291666 -0.7112,0.711227 -3.73925,0.71546 -4.5357,1.511909 -1.13686,1.136861 -2.11373,2.190803 -3.77976,3.023817 -0.62941,0.314695 -2.54431,-0.479531 -3.02381,0 -2.3299,2.329894 -7.3719,3.02379 -11.33928,3.02379 -2.03732,0 -3.11761,-0.04688 -4.53572,-0.755941 -0.72234,-0.361156 -1.74437,-1.825995 -2.26785,-1.511908 -1.08038,0.648229 -1.89691,2.831306 -3.02382,2.267849 -1.42544,-0.712708 -0.79917,-3.110256 -1.51191,-4.535699 -0.21653,-0.43307 -7.16325,-4.535725 -7.55951,-4.535725"
       id="path122"
       inkscape:connector-curvature="0" />
    <path
       style="fill:none;stroke:#000000;stroke-width:0.26458332px;stroke-linecap:butt;stroke-linejoin:miter;stroke-opacity:1"
       d="m 693.96427,-36.374998 c -2.3431,0.152083 -4.21005,0.162825 -6.04761,-0.755967 -3.50309,-1.751542 -10.34193,-18.447729 -11.33928,-23.434516 -0.82841,-4.141946 0,-9.385644 0,-13.60715 0,-1.754849 -0.78046,-5.998607 0,-7.559516 1.12364,-2.247265 1.52456,-3.817753 2.26785,-6.047608 0.62072,-1.862138 8.67881,-10.009055 9.82737,-10.583333 3.10618,-1.553104 6.19829,-3.099142 9.07145,-4.535722 0.8731,-0.43654 3.6136,0 4.5357,0 10.64173,0 21.58685,3.443998 27.97024,9.827388 0.35637,0.356341 1.15554,-0.356367 1.51191,0 0.48892,0.488924 1.20364,3.317373 1.51191,3.779758 0.20135,0.302022 2.05449,1.298523 2.26785,1.511909 0.59081,0.590788 0.50654,2.275602 0.75594,3.023791 0.33644,1.009332 1.85544,1.855443 2.26787,2.267876 0.61109,0.611081 2.53286,6.842654 3.0238,8.315457 0.16221,0.486621 0.43513,4.214918 0.75596,4.535725 1.0894,1.089396 2.00253,13.381831 0.75594,15.875 -1.38226,2.764552 -3.19405,9.241658 -5.29166,11.339274 -13.22906,13.229087 -31.81829,16.070077 -48.38094,2.267876"
       id="path124"
       inkscape:connector-curvature="0" />
    <path
       style="fill:none;stroke:#000000;stroke-width:0.26458332px;stroke-linecap:butt;stroke-linejoin:miter;stroke-opacity:1"
       d="m 700.0119,-133.89285 c -6.9578,-1.28664 -12.77035,-4.45489 -17.38691,-9.07145 -2.06055,-2.06052 -0.31125,-7.42606 -1.51191,-9.82736 -1.68217,-3.36434 -0.93207,-9.12286 0,-12.85119 0.22151,-0.88603 -0.60364,-3.93207 0,-4.53572 1.70051,-1.7005 2.12035,-5.60509 3.02382,-8.31548 0.53353,-1.6006 1.60568,-2.36162 2.26785,-3.0238 1.08058,-1.08058 1.3466,-3.15383 2.26785,-4.53572 1.84287,-2.76431 8.65185,-5.94273 12.09524,-6.80358 5.65682,-1.41419 17.49639,0.81071 21.92263,3.02382 0.0814,0.0407 0.91221,1.21206 1.51191,1.51191 0.48954,0.24477 5.79882,1.26312 6.04761,1.51191 1.62192,1.62192 6.57035,2.79058 8.31548,4.5357 8.16486,8.16485 12.85119,12.33167 12.85119,26.45833 0,4.07696 -0.32348,11.66275 -3.02382,14.36309 -0.37872,0.37875 -1.77226,1.01632 -2.26785,1.51191 -0.74306,0.74306 -1.27183,3.44776 -2.26785,3.77976 -0.4781,0.15938 -1.06114,-0.22537 -1.51191,0 -0.45077,0.2254 0.35637,1.15554 0,1.51191 -0.50398,0.50397 -1.00793,1.00793 -1.51191,1.51191 -0.35636,0.35636 -1.15554,-0.35637 -1.5119,0 -5.90024,5.90023 -16.33329,8.84229 -24.94643,4.53572 -1.00793,-0.50398 -2.77183,0.50395 -3.77976,0 -2.40895,-1.20449 -4.00462,-2.75828 -6.04763,-3.77978 -2.36397,-1.18198 -0.49123,2.08319 -4.5357,-1.51189 -0.28916,-0.25704 -6.80358,-6.79204 -6.80358,-7.55954"
       id="path128"
       inkscape:connector-curvature="0" />
    <path
       style="fill:none;stroke:#000000;stroke-width:0.26458332px;stroke-linecap:butt;stroke-linejoin:miter;stroke-opacity:1"
       d="m 694.72023,-217.04763 c -1.87793,-1.20629 -5.56339,0.99809 -7.55951,0 -7.07972,-3.53983 -10.70888,-7.68503 -15.11906,-12.09521 -0.37799,-0.37799 0.37798,-1.8899 0,-2.26788 -6.21035,-6.21035 -6.779,-23.48365 -3.02382,-30.99403 3.70716,-7.41432 8.81449,-10.0769 15.875,-13.60715 1.33443,-0.6672 1.38319,0.12872 2.26788,-0.75594 0.39333,-0.39336 2.38461,0 3.02379,0 8.04582,0 12.02436,1.46465 18.89881,6.0476 1.49424,0.99616 1.85148,0.16979 3.02382,0.75594 2.12987,1.06495 3.874,2.69299 6.04761,3.77979 1.79401,0.89699 3.71202,5.22391 4.53572,6.04761 0.35635,0.35636 1.15555,-0.35637 1.51191,0 0.85916,0.85915 2.12389,6.65961 2.26785,6.80357 0.98253,0.98253 1.73956,3.17852 2.26785,5.29167 0.99357,3.97428 0,9.46933 0,13.60715 0,0.50395 0.35637,1.15554 0,1.51188 -0.56097,0.561 -1.78554,3.0888 -2.26785,4.53573 -0.55972,1.67912 -0.21158,3.99134 -1.51191,5.29166 -2.03909,2.03909 -3.92527,3.16931 -6.0476,5.29167 -1.46474,1.46471 -4.99518,1.36364 -6.80358,2.26785 -0.45508,0.22754 -16.18901,2.39583 -16.63097,1.51191 -0.46463,-0.92927 -0.50395,-2.01586 -0.75594,-3.02382 z"
       id="path140"
       inkscape:connector-curvature="0" />
    <path
       style="fill:none;stroke:#000000;stroke-width:0.26458332px;stroke-linecap:butt;stroke-linejoin:miter;stroke-opacity:1"
       d="m 714.37499,-322.88096 c -2.39001,-0.16656 -13.43133,0.17581 -14.36309,-0.75594 -1.46418,-1.46418 -3.75894,-2.63541 -6.04763,-3.77976 -1.83497,-0.9175 -3.29362,-3.15873 -4.5357,-3.77976 -1.60206,-0.80102 -5.30053,-6.81686 -6.80358,-9.07142 -0.84643,-1.26963 -0.15153,-3.32687 -0.75594,-4.53573 -4.79279,-9.58554 -1.182,-26.0323 5.29167,-32.50594 0.49556,-0.49559 0.37721,-2.64509 0.75594,-3.02382 0.35637,-0.35636 1.15554,0.35637 1.51191,0 0.55091,-0.55091 1.52225,-1.52225 2.26785,-2.26785 0.89061,-0.89061 2.96039,-3.74806 4.53572,-4.53572 1.16581,-0.58291 11.07019,-0.48686 11.33928,-0.75594 1.39155,-1.39158 6.15793,-1.07879 8.31548,0 2.68242,1.3412 7.15457,-0.58047 9.82737,0.75594 5.96082,2.9804 10.70131,6.16558 14.36311,9.82739 0.56343,0.56343 0.19249,1.70439 0.75594,2.26785 6.00411,6.00411 6.04761,14.29091 6.04761,24.19048 0,1.27979 0.55999,4.17169 0,5.29167 -0.84357,1.68714 -2.83387,7.36957 -3.77976,8.31546 -0.46442,0.46445 -1.76159,0.49942 -2.26785,1.51191 -0.22537,0.45077 0.35637,1.15554 0,1.5119 -0.42714,0.42715 -2.46067,0.94877 -3.02381,1.51191 -0.35634,0.35637 0.35636,1.15554 0,1.51191 -1.28024,1.28024 -2.49952,0.23164 -3.77976,1.51191 -5.18142,5.18139 -20.38035,3.77976 -29.48215,3.77976"
       id="path142"
       inkscape:connector-curvature="0" />
    <path
       style="fill:none;stroke:#000000;stroke-width:0.26458332px;stroke-linecap:butt;stroke-linejoin:miter;stroke-opacity:1"
       d="m 718.15475,-412.08333 c -7.03847,-2.19606 -14.27901,-2.9397 -18.89882,-7.55951 -0.87402,-0.87405 -1.03206,-2.82012 -1.51188,-3.77979 -0.51374,-1.02745 -1.75413,-1.99633 -2.26788,-3.02379 -2.26835,-4.53673 -4.71754,-20.80299 -2.26785,-25.70238 0.11269,-0.22539 0.67628,0.23905 0.75595,0 0.31874,-0.95622 -0.45075,-2.12229 0,-3.02381 0.16356,-0.32713 4.47518,-6.74304 4.53572,-6.80358 0.35637,-0.35636 1.15554,0.35636 1.51191,0 0.97023,-0.97022 1.29762,-2.80953 2.26785,-3.77976 0.35637,-0.35636 1.06114,0.22538 1.51191,0 1.50796,-0.75398 3.02773,-2.26982 4.53572,-3.02381 2.18604,-1.09302 8.87733,-1.4472 11.33928,-2.26785 4.1452,-1.38174 10.88107,-1.21416 13.60715,1.5119 0.50972,0.50973 2.41001,-0.40919 3.02379,0 3.26482,2.17654 7.13608,5.62415 9.82739,8.31548 0.10086,0.10086 3.69414,9.57049 3.77976,9.82738 0.24556,0.7367 1.19734,19.21339 0.75597,19.65477 -1.22484,1.22481 -1.82968,3.34155 -3.77979,5.29166 -0.37796,0.37796 0.37799,1.88987 0,2.26785 -0.47434,0.47435 -2.4393,0.92742 -3.02379,1.51191 -0.64381,0.64381 -1.03537,2.40755 -2.26787,3.02382 -8.87172,4.43584 -16.21499,2.26785 -25.70237,2.26785"
       id="path144"
       inkscape:connector-curvature="0" />
    <path
       style="fill:none;stroke:#000000;stroke-width:0.26458332px;stroke-linecap:butt;stroke-linejoin:miter;stroke-opacity:1"
       d="m 706.81547,-582.17261 c -6.6499,5.47756 -11.18637,11.10989 -15.87499,18.14285 -0.39535,0.59302 -1.28654,0.83576 -1.51191,1.51191 -0.8789,2.63664 -1.03558,6.60685 -2.26785,9.07143 -1.28392,2.56779 -1.28392,6.50364 0,9.07143 0.91564,1.83128 0.32197,4.10175 1.51188,5.29166 0.47953,0.47951 -0.3147,2.39442 0,3.02381 2.40861,4.8172 4.68056,9.97221 8.31548,13.60714 0.2517,0.25169 1.26024,-0.25168 1.51191,0 0.81431,0.81433 2.38059,3.13654 3.02382,3.77977 0.37796,0.37797 1.88986,-0.37798 2.26785,0 0.469,0.469 1.25613,1.76199 2.26785,2.26785 3.44461,1.7223 28.5647,4.58954 33.26191,3.02381 3.14999,-1.05 5.21784,-2.47063 8.31548,-4.53571 0.20965,-0.13978 0.50395,0 0.75594,0 0.75597,-0.25198 1.60486,-0.31394 2.26788,-0.75595 4.96842,-3.3123 4.78996,-12.34951 5.29166,-12.85119 1.69635,-1.69636 0.92308,-6.88324 1.51188,-9.82738 3.81302,-19.06503 -4.02881,-30.74061 -18.14284,-37.79762 -0.90152,-0.45077 -2.04597,0.24446 -3.02382,0 -1.48315,-0.37079 -3.58894,-2.26786 -4.5357,-2.26786 -1.45344,0 -4.96274,-0.21351 -6.04763,-0.75595 -3.0965,-1.54826 -9.28577,-5.07731 -12.09522,-2.26786 -0.80785,0.80783 -1.51191,-1.07464 -1.51191,0.75595"
       id="path146"
       inkscape:connector-curvature="0" />
    <path
       style="fill:none;stroke:#000000;stroke-width:0.26458332px;stroke-linecap:butt;stroke-linejoin:miter;stroke-opacity:1"
       d="m 765.02381,-621.48214 c -0.31517,4.11944 -3.98513,16.42559 -0.75597,19.65477 0.50398,0.50396 -0.50395,2.51984 0,3.0238 0.71501,0.71501 1.57604,1.64016 2.26788,3.02381 0.50696,1.01395 0.2794,2.82671 0.75594,3.77977 0.50654,1.0131 2.81588,2.60795 3.77976,4.53571 2.72256,5.44512 10.96703,8.6946 16.63096,9.82738 1.97734,0.39547 15.8169,3.83786 17.38688,2.26786 1.33602,-1.33599 5.3815,-2.35767 6.80358,-3.77976 0.25199,-0.25199 0.50398,-2.01588 0.75597,-2.26786 0.56549,-0.56551 2.37352,-1.72324 3.02379,-3.02381 0.34594,-0.69184 -0.5129,-2.51089 0,-3.02381 0.86489,-0.86488 2.41115,-2.69773 3.02381,-4.53571 0.50914,-1.52743 -0.71101,-3.86966 0,-5.29167 1.54866,-3.09729 3.22168,-14.92118 0.75597,-17.38691 -0.60364,-0.60364 0.22148,-3.64968 0,-4.53571 -0.37123,-1.48487 -3.22437,-10.02794 -3.77978,-10.58333 -0.49554,-0.49554 -2.35863,-1.6027 -3.02379,-2.26786 -0.2517,-0.25168 0.25167,-1.26022 0,-1.5119 -0.25199,-0.25199 -2.01589,-0.50397 -2.26788,-0.75596 -1.56408,-1.56409 2.39014,0.0611 -0.75594,-1.5119 -1.50675,-0.75338 -3.32798,-1.28601 -5.29167,-2.26786 -2.0842,-1.0421 -7.44545,0 -9.82739,0 -0.75594,0 -1.73331,-0.53454 -2.26785,0 -1.53418,1.53419 -5.56654,1.03084 -6.04761,1.51191 -1.02573,1.02573 -5.17199,2.96397 -6.80357,3.77976 -0.69183,0.34592 -2.5109,-0.51292 -3.02382,0 -2.26822,2.26823 -7.55951,5.71465 -7.55951,9.07143"
       id="path150"
       inkscape:connector-curvature="0" />
    <path
       style="fill:none;stroke:#000000;stroke-width:0.26458332px;stroke-linecap:butt;stroke-linejoin:miter;stroke-opacity:1"
       d="m 907.14284,-599.55952 c -5.19287,-0.11444 -11.00244,-1.17505 -14.36309,-4.53571 -0.37799,-0.37798 -1.88987,0.37797 -2.26785,0 -1.20515,-1.20515 -4.00077,-3.2448 -5.29167,-4.53571 -2.82255,-2.82254 -4.23672,-6.50457 -6.80357,-9.07143 -0.5207,-0.52072 -2.57104,-8.46905 -3.02382,-9.82739 -0.42725,-1.2818 0,-3.93242 0,-5.29166 0,-0.83968 -0.53454,-4.75713 0,-5.29167 0.81433,-0.81433 1.20396,-3.47182 2.26787,-4.53571 1.50583,-1.50583 4.20545,-3.44951 6.04761,-5.29167 1.56409,-1.56409 -2.39014,0.0611 0.75594,-1.5119 3.28682,-1.64341 5.25714,-3.7625 8.31549,-5.29167 0.60475,-0.30238 1.66309,0.30238 2.26785,0 6.72655,-3.36328 21.10462,-4.94471 27.97024,-1.5119 2.5273,1.26364 6.01871,-0.0289 8.31548,2.26785 0.37873,0.37874 1.01632,1.77227 1.51191,2.26786 0.71464,0.71465 3.14735,0.8795 3.77976,1.5119 0.35637,0.35636 -0.35637,1.15555 0,1.51191 1.19076,1.19076 2.98249,2.22654 3.77976,3.02381 0.35636,0.35636 -0.35637,1.15554 0,1.5119 0.73075,0.73074 2.52338,2.27849 3.02381,3.77977 1.05609,3.16823 4.27702,17.9043 2.26785,21.92261 -0.31874,0.63748 -1.19316,0.87443 -1.51191,1.51191 -0.44349,0.887 -0.0122,3.0361 -0.75594,3.77976 -3.13526,3.13525 -7.84381,7.84382 -11.3393,11.33929 -0.52374,0.52376 -3.25599,0.23218 -3.77976,0.75595 -2.27673,2.27674 -3.10253,1.1733 -5.29166,2.26785 -4.98904,2.49453 -15.33943,6.69338 -22.67858,3.02381"
       id="path158"
       inkscape:connector-curvature="0" />
    <path
       style="fill:none;stroke:#000000;stroke-width:0.26458332px;stroke-linecap:butt;stroke-linejoin:miter;stroke-opacity:1"
       d="m 825.49999,-500.52976 c -0.50398,-1.00793 -0.83577,-2.12228 -1.51191,-3.02381 -0.39208,-0.52279 -2.61363,-1.85767 -3.02382,-2.26785 -0.56562,-0.56563 -0.39856,-2.30907 -0.75594,-3.02381 -0.26649,-0.53299 -2.45573,-1.88767 -3.02381,-3.02381 -0.36277,-0.72554 0.24198,-2.29784 0,-3.02381 -0.56521,-1.69564 -5.36224,-13.53658 -3.02379,-15.875 0.50889,-0.50892 0.9553,-0.39872 1.51188,-1.51191 1.02272,-2.0454 0.85087,-3.87467 2.26787,-5.29166 0.34121,-0.34123 1.3761,-3.64397 2.26785,-4.53572 10.19038,-10.19037 33.01199,-11.46424 48.38094,-3.77976 2.88814,1.44407 5.74871,4.2368 7.55955,6.04762 0.35634,0.35636 1.06113,-0.22538 1.5119,0 0.98216,0.49108 7.72989,10.16814 8.31546,11.33929 0.54682,1.09362 0.97068,5.50639 1.51191,6.04761 0.97549,0.9755 2.84239,15.48192 1.51191,18.14286 -7.1559,14.31177 -16.36641,18.14286 -34.77382,18.14286 -1.56607,0 -8.83076,0.99662 -9.82736,0 -0.44284,-0.44282 -7.08779,-5.81175 -7.55955,-6.04762 -0.45074,-0.22538 -1.06113,0.22538 -1.51188,0 -0.88066,-0.44032 -0.94318,-2.36147 -2.26787,-3.02381 -0.8639,-0.43194 -2.54688,-1.314 -3.02379,-2.26786 -0.2254,-0.45076 0.35634,-1.15554 0,-1.5119 -0.50893,-0.50892 -0.95534,-0.39872 -1.51191,-1.51191 -0.11269,-0.22538 0.25199,-0.75595 0,-0.75595 -1.03897,0 -2.63795,1.7206 -3.02382,0.75595 -0.59187,-1.4797 1.07408,-3.00334 1.51191,-4.53571 0.33716,-1.18007 -0.75597,-3.2842 -0.75597,-5.29167"
       id="path160"
       inkscape:connector-curvature="0" />
    <path
       style="fill:none;stroke:#000000;stroke-width:0.26458332px;stroke-linecap:butt;stroke-linejoin:miter;stroke-opacity:1"
       d="m 848.17856,-366.72618 c -1.40276,-1.62708 -7.5819,-2.29023 -9.07142,-3.77978 -0.35637,-0.35634 0.22537,-1.06114 0,-1.51188 -0.57891,-1.15782 -1.34713,-0.59119 -2.26788,-1.51191 -0.49556,-0.49559 -0.37721,-2.64509 -0.75594,-3.02382 -2.64149,-2.64149 -4.89458,-5.25346 -6.80357,-9.07142 -0.73364,-1.46728 -0.78113,-3.83016 -1.51191,-5.29167 -2.43771,-4.87542 -3.02379,-10.34521 -3.02379,-15.875 0,-2.01509 -0.88162,-6.55225 0,-8.31548 5.90597,-11.81198 15.80089,-15.875 28.72618,-15.875 2.27073,0 6.15659,-0.71962 8.31548,0 0.33806,0.11268 0.50396,0.50398 0.75595,0.75596 1.00793,0.25197 2.00503,0.55219 3.02381,0.75595 5.40361,1.08071 9.17297,3.09149 13.60713,6.0476 0.41933,0.27956 1.15556,-0.35634 1.51191,0 2.1301,2.13011 5.78897,5.78898 8.31548,8.31549 0.58179,0.58179 3.10467,5.45338 3.77976,6.80357 0.2282,0.45643 -0.34944,1.91842 0,2.26785 0.50892,0.50893 0.9553,0.39873 1.51191,1.51191 1.09257,2.18514 0,8.0241 0,10.58333 0,0.96973 0.70567,6.85385 0,7.55952 -0.9266,0.92662 -1.90879,2.66475 -3.02382,3.77978 -0.56031,0.56031 0.18235,2.0855 -0.75594,3.02379 -3.52423,3.52423 -5.76152,5.76152 -9.07143,9.07143 -0.39129,0.39129 -2.63255,0.36467 -3.02381,0.75597 -0.79148,0.79147 -2.70661,1.1947 -3.77976,2.26785 -1.56409,1.56408 2.39014,-0.0611 -0.75597,1.5119 -0.60476,0.3024 -1.66309,-0.30239 -2.26785,0 -1.68754,0.84379 -5.9881,2.20835 -6.80357,3.02382 -1.98115,1.98115 -14.24819,-3.18407 -16.63095,-3.77976 z"
       id="path162"
       inkscape:connector-curvature="0" />
    <path
       style="fill:none;stroke:#000000;stroke-width:0.26458332px;stroke-linecap:butt;stroke-linejoin:miter;stroke-opacity:1"
       d="m 767.29166,-268.45239 c -6.85806,-4.65135 -12.09524,-12.50571 -12.09524,-21.16666 0,-12.77943 -2.25537,-14.38804 3.77975,-26.45834 0.98441,-1.96881 4.34933,-4.44251 6.04764,-5.29166 3.14608,-1.57303 -0.80815,0.0522 0.75594,-1.51191 1.57609,-1.57607 4.88116,-2.61329 6.04763,-3.77976 0.79642,-0.79642 3.8245,-0.80068 4.5357,-1.51191 0.45651,-0.45651 3.81884,0 4.53573,0 6.6893,0 11.15748,0.2871 16.63094,3.02382 0.67614,0.33808 1.55069,-0.23905 2.26785,0 1.3217,0.44056 2.50007,2.38397 3.77978,3.02382 1.86188,0.93093 -0.68244,-2.19433 2.26785,0.75594 0.46442,0.46445 0.4994,1.76162 1.51191,2.26787 0.45074,0.22538 1.15554,-0.35636 1.51191,0 0.44717,0.44718 6.70388,8.87204 6.80355,9.07143 0.2254,0.45074 -0.35634,1.15554 0,1.51191 3.29446,3.29443 4.62267,7.06442 6.04763,11.33927 0.34081,1.02246 -0.70689,3.82881 0,4.53573 2.23213,2.23213 -0.31483,16.18982 -2.26785,18.14285 -1.55921,1.55918 -4.49905,5.25496 -6.04763,6.80357 -3.08761,3.08761 -17.53939,4.5357 -22.67858,4.5357 -4.14536,0 -13.29274,-1.35469 -16.63094,-3.02379 -3.14611,-1.57305 0.80815,0.0522 -0.75597,-1.51191 -0.77477,-0.77481 -5.41504,-0.26397 -6.0476,-0.75597 -2.13598,-1.66132 -3.41458,-6.80357 -6.80358,-6.80357"
       id="path164"
       inkscape:connector-curvature="0" />
    <path
       style="fill:none;stroke:#000000;stroke-width:0.26458332px;stroke-linecap:butt;stroke-linejoin:miter;stroke-opacity:1"
       d="m 892.77975,-252.57739 c -7.20678,-5.57493 -12.93077,-13.01035 -16.63094,-20.4107 -0.99177,-1.98352 -0.0559,-5.4593 -0.75597,-7.55954 -0.0797,-0.23905 -0.57777,0.1782 -0.75594,0 -0.50626,-0.50623 0.13853,-3.08702 0,-3.77976 -1.44754,-7.23765 -1.77888,-17.60892 1.51191,-24.19045 0.31871,-0.63749 1.24719,-0.85019 1.5119,-1.51191 0.37574,-0.93938 0.66572,-4.44548 1.51189,-5.29167 0.68543,-0.68543 2.3844,-0.98904 3.02381,-2.26787 0.93094,-1.86188 -2.19432,0.68243 0.75597,-2.26785 0.31025,-0.31025 3.19503,-2.8289 3.77976,-3.02382 3.68424,-1.22806 22.36229,-5.07183 26.45833,-3.02379 4.44281,2.22141 9.8992,3.05972 14.36309,5.29166 1.84603,0.923 2.42507,2.42507 3.77976,3.77976 0.37873,0.37873 2.52823,0.26035 3.02382,0.75594 7.97994,7.97994 9.82736,16.31829 9.82736,28.72621 0,2.19853 0.96187,7.14767 0,9.07143 -1.72984,3.45969 0.31332,-3.20784 -1.5119,2.26785 -0.20138,0.60415 0.42642,2.59739 0,3.02381 -3.15714,3.15714 -4.71297,9.42597 -6.80355,13.60713 -2.16842,4.33684 -7.2802,6.52425 -9.8274,9.07145 -0.2001,0.2001 -1.95659,0 -2.26784,0 -3.19482,0 -8.34102,0.99941 -11.33931,0 -4.02984,-1.34329 -9.88134,-2.29486 -12.85118,-3.77979 -2.24303,-1.12151 -5.24049,1.82454 -6.80357,1.51191 -1.78179,-0.35634 -2.95804,-2.12227 -4.5357,-3.02379 -0.86154,-0.49231 -3.51375,0 -4.53573,0"
       id="path166"
       inkscape:connector-curvature="0" />
    <path
       style="fill:none;stroke:#000000;stroke-width:0.26458332px;stroke-linecap:butt;stroke-linejoin:miter;stroke-opacity:1"
       d="m 809.62499,-196.6369 c -0.381,2.86123 -1.80316,3.60632 -3.02382,6.0476 -2.85022,5.70045 -0.83463,16.4736 1.51191,21.16667 0.2282,0.45643 -0.34943,1.91841 0,2.26788 1.98729,1.98728 3.67173,4.58964 6.04764,7.55951 1.76884,2.21107 11.83274,8.98393 14.36309,9.82739 3.25143,1.08382 5.83668,1.40642 9.07142,3.02379 0.62624,0.31314 27.67097,0.52761 28.72618,0 3.20271,-1.60133 4.65278,-2.38492 6.80358,-4.53569 0.7057,-0.7057 0.13933,-3.91909 0.75594,-4.53573 2.73079,-2.73079 4.80256,-23.38999 3.02382,-28.72618 -1.12199,-3.36598 -1.93485,-6.56053 -3.02382,-9.82739 -0.51517,-1.54554 -2.07632,-2.35853 -3.02379,-3.77976 -2.47161,-3.70737 -4.4304,-5.18634 -7.55954,-8.31549 -0.16399,-0.16399 -4.03813,-1.77027 -5.29167,-3.02379 -0.71953,-0.71956 -8.9055,-2.94087 -10.58333,-3.77975 -2.18663,-1.09334 -8.04537,0 -10.58334,0 -2.38191,0 -7.74316,-1.04212 -9.82736,0 -1.52387,0.76192 -5.59364,2.56981 -6.80358,3.77975 -0.46442,0.46443 -0.49942,1.7616 -1.51191,2.26785 -1.61731,0.80865 -5.29166,3.73349 -5.29166,5.29167"
       id="path170"
       inkscape:connector-curvature="0" />
    <path
       style="fill:none;stroke:#000000;stroke-width:0.26458332px;stroke-linecap:butt;stroke-linejoin:miter;stroke-opacity:1"
       d="m 827.0119,-15.964299 c -2.1376,-1.207108 -5.54723,-0.255561 -6.80358,-1.511882 -0.46442,-0.464449 -0.49942,-1.761622 -1.51191,-2.267876 -0.45077,-0.225372 -1.15554,0.356368 -1.5119,0 -4.52475,0.650849 -0.71507,-2.226945 -1.51191,-3.02379 -1.53678,-1.536806 -4.10044,-2.909226 -5.29167,-5.291667 -0.11269,-0.225398 0,-0.503978 0,-0.755967 0,-0.503952 0.2254,-1.061138 0,-1.511909 -0.18071,-0.361421 -2.49949,-2.731161 -3.02379,-3.779758 -0.33808,-0.676143 0.23905,-1.550696 0,-2.26785 -1.15282,-3.458395 -2.06637,-7.91247 -3.77976,-11.3393 -1.00626,-2.012527 0.7185,-5.40393 0,-7.559516 -1.1439,-3.431673 -2.00919,-11.35933 -0.75597,-15.119033 0.67337,-2.02012 2.31728,-3.097953 3.77976,-5.291666 0.27956,-0.419338 -0.22537,-1.061165 0,-1.511909 1.06794,-2.135849 5.53583,-3.267974 6.04764,-3.779758 6.03168,-6.031706 16.51426,-6.047634 26.45833,-6.047634 3.89345,0 19.12848,1.741593 21.16667,3.779758 0.35634,0.356367 -0.35637,1.155541 0,1.511909 0.49559,0.495591 2.64506,0.377216 3.02379,0.755967 0.62002,0.619998 2.40382,2.403793 3.02381,3.023791 0.37873,0.378751 0.26038,2.528226 0.75597,3.023817 6.17085,6.17085 6.04761,12.77739 6.04761,21.922607 0,0.864341 0.56989,5.663777 0,6.803575 -0.76658,1.533155 -1.72434,3.661146 -2.26785,5.291667 -0.24199,0.72599 0.36277,2.298277 0,3.023817 -1.1987,2.397389 -2.80331,4.094718 -3.77976,6.047608 -0.40142,0.802851 -0.0821,2.349949 -0.75597,3.023817 -2.43699,2.436997 -6.2753,9.185274 -9.07142,10.583333 -4.02662,2.013294 -17.44975,5.522701 -22.67858,3.779758 -3.40561,-1.135195 -2.53079,-1.511909 -7.55951,-1.511909 z"
       id="path172"
       inkscape:connector-curvature="0" />
    <path
       style="fill:none;stroke:#000000;stroke-width:0.26458332px;stroke-linecap:butt;stroke-linejoin:miter;stroke-opacity:1"
       d="m 916.21426,-83.999997 c -8.13895,-2.821384 -12.27838,-5.841127 -15.11903,-14.363091 -0.30239,-0.907151 0.30237,-2.116662 0,-3.023822 -1.38819,-4.16454 -3.02382,-7.30136 -3.02382,-12.09524 0,-1.08278 -0.68913,-6.11444 0,-6.80357 0.91025,-0.91022 2.07584,-5.8556 2.26785,-6.04761 0.9294,-0.9294 2.67417,-2.67417 3.77979,-3.77976 3.31941,-3.31943 9.99283,-3.94523 12.85118,-6.80357 0.34142,-0.34145 10.8744,0 12.85118,0 9.30143,0 10.68068,0.0487 18.14285,3.77976 0.80637,0.40317 2.21748,-0.40318 3.02382,0 3.07705,1.53852 6.08161,4.56969 8.31548,6.80357 0.35637,0.35637 1.15554,-0.35637 1.51191,0 1.18324,1.18324 4.55623,4.59729 5.29167,6.80358 0.0509,0.15255 -0.25151,2.77227 0,3.02379 1.89449,1.89452 1.5598,4.72733 2.26785,7.55954 1.28336,5.13339 0.63534,8.55668 -1.51191,12.851181 -0.30237,0.604758 0.30239,1.663092 0,2.26785 -0.60455,1.209119 -4.90823,7.367825 -5.29167,7.559542 -0.45077,0.225373 -1.15554,-0.356367 -1.51191,0 -0.73747,0.737474 0.61942,1.350937 -0.75594,2.26785 -9.13976,6.093169 -14.69435,9.071425 -27.97024,9.071425 -1.87118,0 -8.48661,-0.171133 -9.07142,-0.755941 -0.99042,-0.990415 -2.2514,-2.259621 -3.77976,-3.023817 -0.45077,-0.225372 -1.06114,0.225372 -1.51191,0 -1.62475,-0.812377 -6.04763,-6.875013 -6.04763,-8.315484"
       id="path174"
       inkscape:connector-curvature="0" />
    <path
       style="fill:none;stroke:#000000;stroke-width:0.26458332px;stroke-linecap:butt;stroke-linejoin:miter;stroke-opacity:1"
       d="m 858.7619,99.696426 c -9.70616,2.804504 -17.20988,-2.090844 -22.67858,-7.559517 -0.25492,-0.254926 0.25493,-1.256982 0,-1.511908 -0.81155,-0.811557 -1.88658,-0.562002 -3.02381,-2.26785 -0.34891,-0.523372 0.3489,-1.744503 0,-2.267876 -1.15356,-1.730348 -3.37656,-4.031588 -3.77976,-6.047607 -0.47101,-2.355083 -1.90463,-16.601467 -0.75594,-18.898817 0.9094,-1.818825 3.16505,-4.062254 3.77975,-5.291667 0.22538,-0.45077 -0.22537,-1.061138 0,-1.511908 0.41783,-0.835634 2.55577,-1.043861 3.02382,-1.511909 0.55092,-0.550915 0.76629,-2.278195 1.51188,-3.02379 2.95799,-2.957989 8.99316,-5.252535 12.09525,-6.803576 1.98403,-0.992002 15.49892,0.126604 17.3869,0.755941 1.72985,0.576633 3.72184,1.875394 5.29167,2.267876 0.97785,0.244449 2.08796,-0.374358 3.02382,0 2.55201,1.020789 4.61444,2.685177 6.80357,3.779759 0.90152,0.450744 2.06759,-0.318744 3.02379,0 0.69411,0.231351 1.81237,2.56831 2.26788,3.02379 0.25199,0.251989 2.01586,0.503978 2.26785,0.755968 0.35637,0.356367 -0.22537,1.061138 0,1.511908 0.87709,1.754188 4.43931,6.28097 5.29167,7.559516 1.15162,1.727438 2.68422,19.577976 1.5119,21.922608 -0.40449,0.80899 -1.76874,1.526434 -2.26785,3.023817 -0.15938,0.478102 0.35635,1.155541 0,1.511908 -1.92045,1.920425 -5.291,4.535038 -7.55954,6.803575 -0.50395,0.503952 -2.51984,-0.503978 -3.02379,0 -3.81452,3.814525 -12.89481,5.269863 -18.89882,2.26785"
       id="path176"
       inkscape:connector-curvature="0" />
    <path
       style="fill:none;stroke:#000000;stroke-width:0.26458332px;stroke-linecap:butt;stroke-linejoin:miter;stroke-opacity:1"
       d="m 923.77381,28.63691 c -4.87524,-3.136768 -7.01001,-6.254035 -10.58334,-9.827392 -0.43934,-0.439341 -0.43831,-2.3885 -0.75597,-3.023817 -0.45357,-0.907124 -1.81427,-1.360699 -2.26784,-2.26785 -1.87791,-3.7558129 -8.28556,-17.4467567 -6.04761,-21.922607 3.57661,-7.153248 4.54453,-7.185977 11.33927,-10.583333 3.14608,-1.573054 -0.80814,0.05218 0.75594,-1.511909 1.70789,-1.707885 6.61467,-3.307344 9.07145,-4.535725 1.66198,-0.830977 11.17069,-0.755941 13.60713,-0.755941 1.3335,0 4.09972,-0.595974 5.29166,0 2.09222,1.046109 2.89658,1.82626 5.29167,3.023817 0.90072,0.450347 3.09711,0.82923 3.77976,1.511882 1.12313,1.12313 2.89155,2.891552 3.77978,3.779784 0.35634,0.356341 -0.35636,1.155542 0,1.511882 0.25197,0.25199 2.01586,0.503979 2.26785,0.755968 1.27201,1.272011 1.81026,4.83407 3.02382,6.0476075 1.56408,1.5641108 -0.0611,-2.3901405 1.51188,0.7559675 1.60369,3.2073849 2.16927,5.8504401 3.77979,9.07142463 0.57581,1.15165187 3.84849,14.29435237 2.26785,15.87499937 -1.39542,1.395413 -1.24257,5.778262 -3.02382,7.559517 -0.62995,0.629972 -1.6379,0.881935 -2.26785,1.511908 -0.37798,0.377984 0.37798,1.889892 0,2.26785 -2.12098,2.120979 -4.72059,3.964649 -6.80358,6.047634 -2.18442,2.184426 -6.59479,2.541428 -9.07142,3.779758 -2.01589,1.00793 -5.54366,-1.00793 -7.55952,0 -0.92207,0.46101 -6.48179,1.833695 -7.55954,0.755941 -0.99795,-0.997956 -5.9345,-2.910681 -6.04761,-3.023791 -1.01724,-1.017243 -2.87586,-2.875888 -3.77975,-3.779784 -0.35637,-0.356341 -1.06114,0.225398 -1.51191,0 -0.69102,-0.345493 -5.29167,-4.829863 -5.29167,-5.291667"
       id="path178"
       inkscape:connector-curvature="0" />
    <path
       style="fill:none;stroke:#000000;stroke-width:0.26458332px;stroke-linecap:butt;stroke-linejoin:miter;stroke-opacity:1"
       d="m 906.3869,185.11903 c -3.48134,-0.55292 -7.51383,-1.73342 -10.58334,-3.77976 -1.04394,-0.69593 -0.82592,-2.3378 -1.5119,-3.02379 -0.25205,-0.25204 -1.25987,0.25205 -1.51191,0 -1.70524,-1.70526 -2.65843,-3.80494 -3.77976,-6.04763 -1.07402,-2.14807 -2.08973,-3.4235 -3.02382,-5.29167 -1.20634,-2.41268 -0.83328,-7.63685 -2.26785,-9.07142 -0.59311,-0.59312 0,-6.30296 0,-6.80358 0,-8.8138 0.87159,-11.45489 6.04761,-16.63094 0.43934,-0.43934 2.38853,-0.43831 3.02382,-0.75597 2.63088,-1.31542 3.54663,-3.02379 6.80357,-3.02379 2.4915,0 3.85638,-1.28547 4.53573,-1.5119 2.57564,-0.85855 17.95856,0.69453 20.4107,1.5119 1.59792,0.53264 3.98086,1.61245 5.29166,2.26785 0.22538,0.11269 0,0.50396 0,0.75594 0.25199,0.25199 0.43723,0.59659 0.75597,0.75597 0.60476,0.30237 1.66309,-0.30239 2.26785,0 2.03692,1.01846 4.06654,3.31057 5.29167,4.5357 0.25199,0.25199 2.01586,0.50398 2.26785,0.75597 0.35636,0.35634 -0.35637,1.15554 0,1.51191 0.35636,0.35634 1.09257,-0.27956 1.5119,0 0.96372,0.64246 2.90386,2.90383 3.77976,3.77976 1.55192,1.55188 4.67191,9.61617 5.29167,12.09524 0.22238,0.8895 -0.40143,2.22091 0,3.02379 1.08066,2.16135 0.75597,4.9648 0.75597,7.55954 0,3.25229 0.1362,5.63893 -0.75597,8.31546 -0.61489,1.8447 -2.10532,2.10531 -3.02382,3.02381 -0.56343,0.56346 -0.19248,1.7044 -0.75594,2.26785 -4.28072,4.28072 -12.69833,6.04764 -18.89882,6.04764 -8.16998,0 -14.12044,-2.26788 -21.9226,-2.26788 z"
       id="path182"
       inkscape:connector-curvature="0" />
    <path
       style="fill:none;stroke:#000000;stroke-width:0.26458332px;stroke-linecap:butt;stroke-linejoin:miter;stroke-opacity:1"
       d="m 843.64284,249.375 c -0.50395,1.00793 -0.83577,2.12227 -1.51191,3.02382 -0.64849,0.86465 -9.3612,0.17639 -9.82737,-0.75597 -0.48048,-0.96094 -7.74258,-4.0408 -9.82739,-5.29167 -5.89174,-3.53504 -20.21062,-15.27474 -21.9226,-20.4107 -0.29851,-0.89548 -1.84285,-1.41782 -2.26785,-2.26787 -0.46464,-0.92927 -0.29134,-2.09452 -0.75597,-3.02379 -0.63984,-1.27971 -2.58323,-2.45809 -3.02382,-3.77979 -3.25874,-9.77625 -3.97539,-30.40713 -0.75594,-40.06546 0.41542,-1.24629 7.30753,-10.45733 7.55952,-10.58333 0.80285,-0.40142 2.34995,-0.0821 3.02381,-0.75597 0.25493,-0.25492 -0.25492,-1.25698 0,-1.5119 1.57459,-1.57459 4.25366,-0.61492 6.04761,-1.51189 7.62378,-3.8119 19.14427,-2.69002 27.2143,0 2.60422,0.86808 4.54091,0.003 6.80358,0.75594 0.72575,0.24191 1.37345,1.4427 1.5119,1.51191 1.84471,0.92237 6.18837,0.14074 7.55952,1.51191 2.68608,2.68608 7.06797,4.45998 10.58333,6.80358 0.66302,0.44198 0.19249,1.70439 0.75595,2.26785 0.61338,0.61338 5.67282,5.29801 6.04763,6.0476 0.81404,1.62814 1.34072,3.6086 2.26785,4.53573 0.88746,0.88747 0.92395,4.87169 1.51191,6.04761 0.54985,1.09976 2.21988,3.63587 2.26785,3.77976 0.31874,0.95623 -0.45077,2.1223 0,3.02381 2.09296,4.18592 4.88098,20.82141 1.51191,24.19049 -0.5845,0.58449 -0.2816,3.30541 -0.75595,3.77975 -1.50071,1.50072 -4.13183,4.13184 -6.04763,6.04761 -0.25241,0.25244 0.25244,1.2595 0,1.51191 -0.6812,0.6812 -2.87838,1.06122 -3.77976,1.51191 -1.90108,0.95054 -3.66442,2.90846 -4.53572,3.77976 -0.53454,0.53453 -1.59171,-0.33806 -2.26785,0 -1.14515,0.57258 -2.64295,2.55063 -4.5357,3.02381 -2.583,0.64575 -3.44437,0.96624 -6.04764,2.26785 -0.55856,0.2793 -9.50846,0.75597 -9.82736,0.75597"
       id="path184"
       inkscape:connector-curvature="0" />
  </g>
</svg>
