<?xml version="1.0" encoding="UTF-8" standalone="no"?>
<!-- Created with Inkscape (http://www.inkscape.org/) -->

<svg
   xmlns:dc="http://purl.org/dc/elements/1.1/"
   xmlns:cc="http://creativecommons.org/ns#"
   xmlns:rdf="http://www.w3.org/1999/02/22-rdf-syntax-ns#"
   xmlns:svg="http://www.w3.org/2000/svg"
   xmlns="http://www.w3.org/2000/svg"
   xmlns:sodipodi="http://sodipodi.sourceforge.net/DTD/sodipodi-0.dtd"
   xmlns:inkscape="http://www.inkscape.org/namespaces/inkscape"
   width="1000mm"
   height="1000mm"
   viewBox="0 0 1000 1000"
   version="1.1"
   id="svg8"
   inkscape:version="0.92.1 r15371"
   sodipodi:docname="morphism1.svg">
  <defs
     id="defs2" />
  <sodipodi:namedview
     id="base"
     pagecolor="#ffffff"
     bordercolor="#666666"
     borderopacity="1.0"
     inkscape:pageopacity="0.0"
     inkscape:pageshadow="2"
     inkscape:zoom="0.35"
     inkscape:cx="1144.8622"
     inkscape:cy="1245.7143"
     inkscape:document-units="mm"
     inkscape:current-layer="layer1"
     showgrid="false"
     inkscape:window-width="1366"
     inkscape:window-height="706"
     inkscape:window-x="-8"
     inkscape:window-y="-8"
     inkscape:window-maximized="1" />
  <metadata
     id="metadata5">
    <rdf:RDF>
      <cc:Work
         rdf:about="">
        <dc:format>image/svg+xml</dc:format>
        <dc:type
           rdf:resource="http://purl.org/dc/dcmitype/StillImage" />
        <dc:title></dc:title>
      </cc:Work>
    </rdf:RDF>
  </metadata>
  <g
     inkscape:label="Layer 1"
     inkscape:groupmode="layer"
     id="layer1"
     transform="translate(0,703)">
    <path
       style="fill:none;stroke:#000000;stroke-width:0.26458332px;stroke-linecap:butt;stroke-linejoin:miter;stroke-opacity:1"
       d="m 39.309524,-661.54761 c 0.05566,3.87323 2.472362,36.49022 3.023809,37.04167 0.53454,0.53453 4.451987,0 5.291666,0 1.847393,0 18.692585,-0.20623 18.898809,0 2.534873,2.53487 13.102241,2.26785 18.142858,2.26785 4.535715,0 9.071427,0 13.607142,0 2.015872,0 4.031752,0 6.047622,0 0.50397,0 1.5119,-0.50397 1.5119,0 0,0.0133 -5.29007,-4.91289 -6.047616,-5.29167 -1.892298,-0.94614 -12.15426,-9.94542 -13.607143,-12.85118 -1.509918,-3.01984 -5.487273,-7.75513 -8.315478,-10.58334 -0.945383,-0.94538 -1.670391,-5.45015 -3.023809,-6.80357 -1.221415,-1.22142 -29.914318,0.75595 -32.505951,0.75595"
       id="path10"
       inkscape:connector-curvature="0" />
    <path
       style="fill:none;stroke:#000000;stroke-width:0.26458332px;stroke-linecap:butt;stroke-linejoin:miter;stroke-opacity:1"
       d="m 40.821427,-585.95237 c 0.964335,3.96804 -2.914076,26.56806 -0.755952,28.72619 1.24478,1.24478 31.270223,-1.51191 35.529763,-1.51191 2.143252,0 21.683326,0.23929 21.922618,0 0.918991,-0.91899 -7.6195,-8.72344 -9.827381,-9.82738 -0.604761,-0.30238 -1.663094,0.30238 -2.267858,0 -0.09363,-0.0468 -0.880586,-1.9522 -1.511903,-2.26786 -1.485138,-0.74257 -13.45247,-11.94056 -15.119048,-13.60714 -1.928601,-1.9286 -23.695353,2.26786 -26.458333,2.26786"
       id="path12"
       inkscape:connector-curvature="0" />
    <path
       style="fill:none;stroke:#000000;stroke-width:0.26458332px;stroke-linecap:butt;stroke-linejoin:miter;stroke-opacity:1"
       d="m 31.75,-524.72023 c 0.549285,4.10524 -1.856219,31.40568 -0.755952,32.50595 1.150125,1.15013 9.531977,0 11.339285,0 14.912091,0 29.95078,0 44.60119,0 1.203785,0 6.793407,0.76611 7.559524,0 0.662869,-0.66287 -1.97554,-1.97554 -2.267857,-2.26786 -1.433423,-1.43342 -3.930002,-5.74476 -6.047619,-6.80357 -0.579228,-0.28961 -12.76574,-19.56931 -14.363096,-21.16667 -4.070538,-4.07053 -31.409981,-0.10398 -40.065475,-2.26785 z"
       id="path14"
       inkscape:connector-curvature="0" />
    <path
       style="fill:none;stroke:#000000;stroke-width:0.26458332px;stroke-linecap:butt;stroke-linejoin:miter;stroke-opacity:1"
       d="m 29.482142,-453.66071 c 18.211099,1.16981 37.263601,0.75595 55.940475,0.75595 1.971882,0 11.52398,-1.32721 12.851191,0 2.410612,2.41062 -3.061774,11.41522 -3.779761,12.85119 -1.203491,2.407 -4.827645,10.87528 -6.047621,12.09524 -0.38958,0.38958 -6.234215,0.28467 -6.80357,0 -6.535507,-3.26776 -18.336974,-2.26785 -25.702381,-2.26785 -1.038958,0 -2.289156,1.49059 -3.023809,0.75595 -8.053655,-8.05366 -12.784045,-18.86524 -23.434524,-24.19048 z"
       id="path16"
       inkscape:connector-curvature="0" />
    <path
       style="fill:none;stroke:#000000;stroke-width:0.26458332px;stroke-linecap:butt;stroke-linejoin:miter;stroke-opacity:1"
       d="m 33.261905,-381.84524 c 4.705245,2.03378 10.148793,1.51191 15.875,1.51191 7.511868,0 17.615858,1.39743 23.434522,-1.51191 1.209524,-0.60475 3.32619,0.60476 4.535715,0 0.26263,-0.13131 6.047618,-1.46978 6.047618,-0.75594 0,0.98613 1.150842,-0.75596 1.511906,-0.75596 2.35405,0 -4.86423,11.24037 -5.291667,12.09524 -0.957223,1.91444 -2.147163,7.43884 -3.023809,8.31548 -0.10868,0.10867 -23.477932,0.75594 -25.702381,0.75594 -1.565601,0 -10.93265,2.67449 -12.851191,0.75597 -1.307317,-1.30733 1.018357,-19.12996 -0.755952,-22.67857"
       id="path18"
       inkscape:connector-curvature="0" />
    <path
       style="fill:none;stroke:#000000;stroke-width:0.26458332px;stroke-linecap:butt;stroke-linejoin:miter;stroke-opacity:1"
       d="m 25.702381,-331.95239 c 1.039183,6.20223 0.06078,35.59056 2.267858,37.79764 0.288861,0.28884 23.871441,0 26.458333,0 10.662518,0 20.384825,0.75594 30.994045,0.75594 1.170681,0 4.270367,1.02132 4.535715,0.75597 1.574771,-1.57478 -1.77565,-5.81917 -2.267857,-6.80358 -2.812669,-5.62536 -7.289729,-11.82545 -11.339285,-15.875 -0.855083,-0.85508 -6.377562,-14.69305 -6.803573,-15.11906 -5.021117,-5.0211 -34.90351,0.72353 -43.845236,-1.51191 z"
       id="path20"
       inkscape:connector-curvature="0" />
    <path
       style="fill:none;stroke:#000000;stroke-width:0.26458332px;stroke-linecap:butt;stroke-linejoin:miter;stroke-opacity:1"
       d="m 43.089284,-261.64881 c 6.294919,5.10998 11.779015,6.48734 15.875,10.58333 1.007938,1.00793 3.52778,0.50398 4.535715,1.51191 0.503968,0.50398 0.251984,1.7639 0.755952,2.26785 1.200438,1.20044 -0.480499,19.17427 0.755954,20.41072 0.622065,0.62207 3.197188,11.1659 1.511903,12.85119 -2.141865,2.14188 -10.709325,-2.14186 -12.85119,0 -0.828781,0.82878 -8.96093,2.26785 -9.827379,2.26785 -1.259922,0 0.39842,-2.58448 0,-3.77976 -0.794523,-2.38355 -1.511906,-4.54303 -1.511906,-6.80358 0,-4.59131 -1.244685,-17.87562 -4.535715,-21.16666 -0.149559,-0.14954 0,-15.61359 0,-19.65476"
       id="path22"
       inkscape:connector-curvature="0" />
    <path
       style="fill:none;stroke:#000000;stroke-width:0.26458332px;stroke-linecap:butt;stroke-linejoin:miter;stroke-opacity:1"
       d="m 36.285715,-183.02975 c 2.93743,5.91521 14.298538,9.00686 17.386903,12.09524 1.179372,1.17935 -1.511904,21.02384 -1.511904,23.43451 0,2.28383 1.911811,10.18342 0.755952,11.33928 -0.395102,0.3951 -21.791538,-2.13678 -21.922618,-2.26785 -0.282736,-0.28274 -0.282736,-6.52084 0,-6.80358 1.035616,-1.0356 1.511903,-35.59124 1.511903,-39.30951"
       id="path24"
       inkscape:connector-curvature="0" />
    <path
       style="fill:none;stroke:#000000;stroke-width:0.26458332px;stroke-linecap:butt;stroke-linejoin:miter;stroke-opacity:1"
       d="m 33.261905,-111.2143 c 9.445123,3.22718 16.88043,2.26788 27.970237,2.26788 0.778187,0 0.948647,-1.31921 1.511906,-0.75597 1.638908,1.63891 -1.511906,10.721764 -1.511906,12.85121 0,7.811506 0,15.623011 0,23.434516 0,0.312103 1.84627,3.445404 0.755951,4.535699 -3.618174,3.618177 -10.067843,6.288088 -13.607142,9.827393 -2.848613,2.848609 -4.552008,5.307964 -6.80357,7.559516 -0.28634,0.286358 -2.18754,5.211365 -3.023809,6.047634 -0.98575,0.985731 -0.513868,-5.563447 -0.755954,-6.047634 -1.801731,-3.603467 -2.267858,-9.441498 -2.267858,-13.607124 0,-9.64983 -6.236647,-38.17554 -2.267855,-46.11312 z"
       id="path26"
       inkscape:connector-curvature="0" />
    <path
       style="fill:none;stroke:#000000;stroke-width:0.26458332px;stroke-linecap:butt;stroke-linejoin:miter;stroke-opacity:1"
       d="m 34.773809,3.6904857 c 2.143664,7.4019303 2.267857,13.3240193 2.267857,21.9226073 0,4.796711 -0.755951,10.719223 -0.755951,14.363091 0,2.143258 -0.239295,21.683319 0,21.922634 0.08555,0.08554 5.587515,-3.725016 6.803569,-4.535725 7.789686,-5.19311 15.857546,-10.565871 21.166667,-15.875 1.220245,-1.220232 1.138997,-30.621128 1.511906,-30.994059 0.346067,-0.346048 1.921192,-6.3942644 0.755951,-7.5595158 "
       id="path28"
       inkscape:connector-curvature="0" />
    <path
       style="fill:none;stroke:#000000;stroke-width:0.26458332px;stroke-linecap:butt;stroke-linejoin:miter;stroke-opacity:1"
       d="m 41.577381,100.45237 c 1.511028,12.49963 -5.851258,39.70226 -0.755954,49.89287 0.637408,1.27482 -0.96901,5.0786 0,6.04761 2.302526,2.30254 14.457823,-0.75594 16.630954,-0.75594 3.404756,0 11.731919,1.11927 13.607142,-0.75597 2.00619,-2.00618 -0.69157,-11.96647 -1.511906,-13.60712 -1.496287,-2.9926 -0.401624,-21.56831 -1.511903,-22.67858 -1.450409,-1.45042 -2.874076,-3.63003 -4.535715,-5.29166 -0.377976,-0.37799 -1.889881,0.37795 -2.267857,0 -0.503968,-0.50398 -0.251984,-1.7639 -0.755952,-2.26788 -1.468631,-1.46862 -4.241617,-1.97374 -6.047618,-3.77976 -0.945848,-0.94583 -7.848195,-3.31248 -8.315478,-3.77976 -1.63281,-1.63279 -0.721998,-2.07036 -4.535713,-3.02381 z"
       id="path30"
       inkscape:connector-curvature="0" />
    <path
       style="fill:none;stroke:#000000;stroke-width:0.26458332px;stroke-linecap:butt;stroke-linejoin:miter;stroke-opacity:1"
       d="m 40.821427,214.60118 c 4.308052,-3.96462 8.261257,-8.28836 12.851191,-10.58333 1.411411,-0.7057 10.470911,-11.4517 11.339287,-10.58333 1.001175,1.00118 0,7.48498 0,9.07142 0,6.92579 1.361641,50.79907 -0.755954,52.91667 -2.015871,2.01588 -9.323411,-1.25992 -11.339285,0.75596 -1.385914,1.38592 -6.17361,-0.62997 -7.559524,0.75594 -0.346067,0.34608 -5.937311,2.37819 -6.047618,2.26785 -0.305806,-0.3058 -0.755952,-6.34576 -0.755952,-6.80354 0,-4.70893 -1.337863,-32.09809 0,-34.77382 0.563451,-1.12691 1.568977,-1.97549 2.267855,-3.02382 z"
       id="path32"
       inkscape:connector-curvature="0" />
    <path
       style="fill:none;stroke:#000000;stroke-width:0.26458332px;stroke-linecap:butt;stroke-linejoin:miter;stroke-opacity:1"
       d="m 146.65476,-663.05952 c -2.54368,4.38036 0.58479,10.92567 -1.5119,15.11905 -0.61581,1.23162 -3.56928,20.6212 -2.26786,21.92262 1.22686,1.22686 10.16734,0 12.09524,0 17.07989,0 34.64099,2.26786 49.89285,2.26786 1.32464,0 7.47248,0.843 8.31548,0 1.28159,-1.28159 -12.46789,-13.9798 -12.85119,-14.3631 -7.74007,-7.74006 -12.4257,-20.74117 -20.41072,-28.72619 -1.41696,-1.41696 -7.42586,-0.75595 -9.82738,-0.75595 -2.84795,0 -5.93586,-0.43385 -8.31547,0.75595 -2.01933,1.00967 -6.06655,0.009 -7.55953,0.75595 -1.60812,0.80407 -2.55684,-0.37483 -4.53571,0.75596 -1.09392,0.62509 -1.78836,2.02076 -3.02381,2.26785 -3.02066,0.60413 -6.37803,-1.93745 -8.31548,0"
       id="path34"
       inkscape:connector-curvature="0" />
    <path
       style="fill:none;stroke:#000000;stroke-width:0.26458332px;stroke-linecap:butt;stroke-linejoin:miter;stroke-opacity:1"
       d="m 140.60714,-584.44047 c 0.59776,4.09273 -1.81116,29.93884 -0.75595,30.99405 0.43872,0.43871 35.54701,3.77976 39.30952,3.77976 3.33247,0 5.84749,0.75595 9.82738,0.75595 1.76389,0 3.52778,0 5.29167,0 0.50397,0 1.5119,-0.50397 1.5119,0 0,1.13842 -0.94938,-4.36005 -2.26785,-8.31547 -0.52966,-1.58897 -8.85555,-14.90317 -9.82738,-15.875 -1.37354,-1.37354 -2.58765,-4.09956 -3.77977,-5.29167 -3.67969,-3.6797 -30.30041,-1.51191 -34.7738,-1.51191"
       id="path36"
       inkscape:connector-curvature="0" />
    <path
       style="fill:none;stroke:#000000;stroke-width:0.26458332px;stroke-linecap:butt;stroke-linejoin:miter;stroke-opacity:1"
       d="m 147.41071,-517.16071 c -0.0474,4.62916 -1.90065,46.4803 -0.75595,47.625 0.41407,0.41407 39.77741,0 43.84524,0 4.45911,0 21.10448,0.81813 21.16666,0.75595 1.64739,-1.64738 -5.91017,-11.20184 -7.55952,-12.85119 -0.49559,-0.49558 -0.37722,-2.64507 -0.75595,-3.02381 -4.82122,-4.82121 -9.64905,-12.67285 -13.60714,-16.63095 -0.47435,-0.47434 -0.17147,-3.19527 -0.75596,-3.77976 -2.30686,-2.30686 -5.82965,-11.98625 -7.55952,-12.85119 -2.5174,-1.2587 -16.1144,-2.02846 -18.14286,0 -2.01587,2.01587 -8.56746,-0.50397 -10.58333,1.5119"
       id="path38"
       inkscape:connector-curvature="0" />
    <path
       style="fill:none;stroke:#000000;stroke-width:0.26458332px;stroke-linecap:butt;stroke-linejoin:miter;stroke-opacity:1"
       d="m 150.43452,-434.7619 c 2.64182,0.91054 -0.45454,4.83714 0.75595,6.04761 6.20617,6.20617 7.97831,23.09735 13.60715,28.72621 1.5119,1.5119 0,6.0476 1.5119,7.55951 0.23103,0.23104 19.09736,0 21.16667,0 2.16902,0 12.22684,1.38031 13.60714,0 0.77681,-0.77681 1.00856,-41.32477 0,-42.33333 -3.35951,-3.35952 -39.17293,1.37533 -40.06547,2.26785 -0.25582,0.25582 -21.14338,0 -23.43453,0"
       id="path40"
       inkscape:connector-curvature="0" />
    <path
       style="fill:none;stroke:#000000;stroke-width:0.26458332px;stroke-linecap:butt;stroke-linejoin:miter;stroke-opacity:1"
       d="m 147.41071,-357.65475 c 15.23937,3.24106 30.34713,3.77976 46.1131,3.77976 0.59191,0 3.40256,-0.37722 3.77976,0 0.24628,0.24627 1.94341,33.58634 1.5119,34.01785 -1.30358,1.30357 -10.80272,0 -12.85119,0 -3.43062,0 -20.79688,0.36978 -21.92262,-0.75595 -0.37797,-0.37798 0.37798,-1.88989 0,-2.26787 -2.80606,-2.80604 -3.30292,-7.83863 -6.04761,-10.58333 -6.14054,-6.14053 -13.60715,-14.1351 -13.60715,-23.43452"
       id="path42"
       inkscape:connector-curvature="0" />
    <path
       style="fill:none;stroke:#000000;stroke-width:0.26458332px;stroke-linecap:butt;stroke-linejoin:miter;stroke-opacity:1"
       d="m 134.55952,-279.79166 c 4.95719,5.78551 11.24342,5.83467 18.14286,7.55951 2.0923,0.52309 4.76331,-0.68008 6.80357,0 5.88935,1.96313 12.55952,2.26785 19.65476,2.26785 3.54209,0 5.62688,0 7.55953,0 0.50396,0 1.5119,-0.50395 1.5119,0 0,3.74391 2.34781,23.35459 0,25.7024 -0.68913,0.68913 -5.7208,0 -6.80357,0 -3.27593,0 -27.87808,0.80203 -27.97024,0.75594 -1.78248,-0.89122 -3.68195,-6.60794 -4.53571,-8.31546 -2.07002,-4.14004 -13.25563,-16.27944 -15.11905,-18.14288 -2.2665,-2.26647 -3.13147,-8.42311 -5.29167,-10.58333"
       id="path44"
       inkscape:connector-curvature="0" />
    <path
       style="fill:none;stroke:#000000;stroke-width:0.26458332px;stroke-linecap:butt;stroke-linejoin:miter;stroke-opacity:1"
       d="m 135.31547,-209.48809 c 6.07501,9.08437 51.2743,-3.91025 55.18453,0 0.50397,0.50396 -0.50397,2.51984 0,3.02379 1.65066,1.65069 2.12842,5.15223 3.77976,6.80358 3.34111,3.34113 7.76226,8.51823 11.33929,12.09524 3.03675,3.03676 8.49075,4.71099 11.33928,7.55952 0.35636,0.35636 1.51191,-0.50396 1.51191,0 0,2.01588 -4.03175,0 -6.04762,0 -6.29961,0 -12.59921,0 -18.89881,0 -1.92255,0 -24.02605,-0.16442 -24.19048,0 -1.23946,1.23946 -27.77687,3.97314 -30.23809,1.51191 -1.77938,-1.77938 -1.71819,-24.80932 -3.77977,-30.99404 z"
       id="path46"
       inkscape:connector-curvature="0" />
    <path
       style="fill:none;stroke:#000000;stroke-width:0.26458332px;stroke-linecap:butt;stroke-linejoin:miter;stroke-opacity:1"
       d="m 142.11905,-142.9643 c -0.83251,6.31169 -2.29133,30.97059 0.75595,34.01788 1.16007,1.16006 6.14777,-0.75597 6.80357,-0.75597 4.15444,0 11.04304,-2.26785 16.63095,-2.26785 5.15747,0 13.70759,1.46169 18.14286,-0.75594 4.48053,-2.24028 23.90039,2.55794 25.70238,0.75594 1.5227,-1.5227 -9.88865,-16.75349 -10.58334,-18.14285 -1.19395,-2.38792 -4.24038,-5.7523 -6.04761,-7.55954 -0.25343,-0.25342 -1.25848,0.25344 -1.51191,0 -0.35636,-0.35634 0.35636,-1.15554 0,-1.51188 -1.7323,-1.73231 -4.31531,-2.04748 -6.04762,-3.77979 -0.35636,-0.35634 0.35636,-1.15554 0,-1.51188 -1.94451,-1.94453 -33.68906,1.51188 -34.77381,1.51188"
       id="path48"
       inkscape:connector-curvature="0" />
    <path
       style="fill:none;stroke:#000000;stroke-width:0.26458332px;stroke-linecap:butt;stroke-linejoin:miter;stroke-opacity:1"
       d="m 130.02381,-74.172631 c 0.42758,4.540356 -0.76888,39.296604 0,40.065483 1.5182,1.518206 11.28673,-0.234447 12.85119,-0.755941 2.9596,-0.986552 19.94596,1.220708 21.16666,0 0.40378,-0.403781 -1.4358,-34.697723 -1.5119,-34.773817 -2.39385,-2.393844 -11.21329,1.637903 -13.60714,-0.755941 -1.33889,-1.338897 -3.98833,-1.994164 -6.04762,-3.023817 -2.76113,-1.380569 -9.11405,-6.846199 -10.58334,-8.315483 -0.35635,-0.356368 0.35636,-1.155542 0,-1.511909 -0.75595,-0.755941 -2.26785,-0.755941 -3.0238,-1.511908 -0.41011,-0.410105 -1.17254,-5.291667 -1.51191,-5.291667 -1.3487,0 -0.75595,9.336352 -0.75595,10.583333"
       id="path50"
       inkscape:connector-curvature="0" />
    <path
       style="fill:none;stroke:#000000;stroke-width:0.26458332px;stroke-linecap:butt;stroke-linejoin:miter;stroke-opacity:1"
       d="m 128.5119,-2.3571484 c 1.14198,7.0285768 0.4218,52.5825234 2.26786,54.4285744 1.60327,1.603269 21.23771,0.07104 23.43452,2.26785 0.91157,0.911569 17.79074,1.864042 18.14286,1.511908 2.55949,-2.559473 -5.43585,-11.627643 -6.04762,-12.851183 -3.72625,-7.452492 -4.12635,-16.914759 -6.80357,-24.946424 -0.54284,-1.62851 1.16214,-7.153328 0,-8.3154837 -1.13393,-1.1339248 -4.15774,-0.3779837 -5.29167,-1.5119085 -4.32189,-4.3218893 -25.08621,-21.9226078 -29.48214,-21.9226078"
       id="path52"
       inkscape:connector-curvature="0" />
    <path
       style="fill:none;stroke:#000000;stroke-width:0.26458332px;stroke-linecap:butt;stroke-linejoin:miter;stroke-opacity:1"
       d="m 130.02381,86.845243 c 4.71942,1.685131 10.18827,3.960204 14.36309,6.047607 3.13909,1.569562 19.81182,1.668966 21.16667,3.023817 1.61495,1.614964 -1.51191,25.507973 -1.51191,27.970243 0,0.96147 0.61199,5.43563 0,6.04761 -0.0707,0.0707 -13.87571,-0.12184 -17.3869,0.75596 -1.78099,0.44524 -9.76037,3.09081 -11.33929,1.51189 -2.30222,-2.30222 -2.26785,-39.331083 -2.26785,-46.113095"
       id="path54"
       inkscape:connector-curvature="0" />
    <path
       style="fill:none;stroke:#000000;stroke-width:0.26458332px;stroke-linecap:butt;stroke-linejoin:miter;stroke-opacity:1"
       d="m 134.55952,168.48809 c -1.2917,10.2707 -3.02381,20.3594 -3.02381,30.99406 0,2.43901 -0.27234,24.67409 0,24.94642 0.24764,0.24763 4.54808,-3.79214 5.29167,-4.53572 2.40471,-2.40472 7.65426,-3.87448 9.82738,-6.04761 2.89073,-2.89073 8.43224,-4.65249 10.58333,-6.80357 0.37798,-0.37799 1.88988,0.37798 2.26786,0 1.3342,-1.33422 -0.83733,-42.41472 -1.5119,-43.0893 -0.52031,-0.52031 -20.51951,3.80698 -23.43453,4.53572 z"
       id="path56"
       inkscape:connector-curvature="0" />
    <path
       style="fill:none;stroke:#000000;stroke-width:0.26458332px;stroke-linecap:butt;stroke-linejoin:miter;stroke-opacity:1"
       d="m 257.77976,-657.0119 c 0.0766,4.45147 1.64743,37.93314 2.26786,38.55357 0.84659,0.84659 35.68534,-0.75595 40.06547,-0.75595 1.49738,0 22.53469,0.14388 22.67857,0 1.31461,-1.31461 -8.10731,-13.19083 -9.07142,-15.11905 -2.25542,-4.51084 -11.85344,-15.63319 -15.11906,-18.8988 -1.81404,-1.81404 -1.53662,-4.56044 -3.02379,-6.04763 -1.31519,-1.31517 -16.85306,-0.75595 -20.41073,-0.75595 -6.71917,0 -12.22578,-0.84703 -17.3869,3.02381 z"
       id="path58"
       inkscape:connector-curvature="0" />
    <path
       style="fill:none;stroke:#000000;stroke-width:0.26458332px;stroke-linecap:butt;stroke-linejoin:miter;stroke-opacity:1"
       d="m 261.55952,-578.39285 c 0.72982,3.1305 -1.27573,22.15879 0,23.43452 0.90854,0.90855 2.04082,3.77976 0.75595,3.77976 -3.04892,0 8.09671,-1.2433 10.58334,0 6.96101,3.4805 16.74916,2.26786 24.94643,2.26786 2.77172,0 15.62309,1.76382 17.38691,0 1.16141,-1.16142 -5.78057,-9.0488 -6.80358,-10.58333 -3.39751,-5.09628 -4.10207,-11.66159 -9.07142,-16.63095 -1.16803,-1.16804 -0.61826,-3.64206 -1.51191,-4.53572 -1.46947,-1.46948 -18.50559,-0.75595 -21.92264,-0.75595 -5.40922,0 -11.02169,-1.43137 -14.36308,3.02381 z"
       id="path60"
       inkscape:connector-curvature="0" />
    <path
       style="fill:none;stroke:#000000;stroke-width:0.26458332px;stroke-linecap:butt;stroke-linejoin:miter;stroke-opacity:1"
       d="m 264.58333,-518.67261 c -1.01652,10.64892 -1.51191,21.43044 -1.51191,32.50595 0,6.80357 0,13.60714 0,20.41071 0,3.02381 0,6.04762 0,9.07143 0,0.75595 0.75596,2.26786 0,2.26786 -2.51984,0 5.03968,0 7.55952,0 5.52794,0 10.4563,-1.51191 16.63096,-1.51191 2.45391,0 14.99751,1.63344 16.63095,0 1.57294,-1.57293 0,-12.42148 0,-15.11904 0,-5.00734 2.63144,-23.07096 -0.75595,-26.45834 -0.90357,-0.90357 -4.84401,-1.8202 -5.29166,-2.26785 -0.35637,-0.35636 0.35637,-1.15555 0,-1.51191 -1.59846,-1.59845 -4.9579,-3.30526 -6.80358,-4.53571 -0.14083,-0.0939 -2.9464,-0.67854 -3.02381,-0.75596 -1.43193,-1.43193 -12.5511,-10.58333 -14.3631,-10.58333 -1.35559,0 -5.13815,-4.23449 -6.0476,-3.77976 -1.12692,0.56345 -2.01589,1.5119 -3.02382,2.26786 z"
       id="path62"
       inkscape:connector-curvature="0" />
    <path
       style="fill:none;stroke:#000000;stroke-width:0.26458332px;stroke-linecap:butt;stroke-linejoin:miter;stroke-opacity:1"
       d="m 263.07142,-418.8869 c 3.59188,2.35384 9.77228,3.02382 14.36309,3.02382 2.65118,0 14.94383,1.68711 16.63097,0 0.45881,-0.45884 6.20244,-1.81248 6.80358,-1.51191 0.64254,0.32128 3.02379,14.97756 3.02379,17.38691 0,2.0634 2.37257,9.72267 0.75596,11.33927 -1.68724,1.68725 -14.02014,3.98627 -16.63096,5.29167 -2.7717,1.38586 -14.10163,8.80999 -15.875,10.58333 -2.52466,2.52465 -5.80803,4.29614 -9.07143,7.55952 -0.48347,0.4835 -1.69608,2.83964 -2.26785,2.26787 -1.84369,-1.84369 1.21917,-8.90095 0,-11.3393 -3.33756,-6.67512 1.64845,-27.07772 -3.02381,-31.75 -1.6379,-1.63788 0.88194,-7.43352 -0.75595,-9.07142"
       id="path64"
       inkscape:connector-curvature="0" />
    <path
       style="fill:none;stroke:#000000;stroke-width:0.26458332px;stroke-linecap:butt;stroke-linejoin:miter;stroke-opacity:1"
       d="m 263.07142,-323.6369 c 3.72301,0.44952 31.5127,-4.01707 34.01785,-1.51191 0.14666,0.14663 0,19.32726 0,21.92263 0,2.16525 2.4021,9.69315 0.75597,11.33928 -0.0624,0.0624 -8.28964,2.63289 -9.07143,3.02381 -0.17079,0.0854 -1.26912,2.02507 -1.51191,2.26785 -0.54316,0.54317 -3.17841,0.91054 -3.77975,1.51191 -2.45491,2.45491 -4.91789,5.67386 -8.31549,9.07143 -0.35636,0.35636 -1.15554,-0.35637 -1.51191,0 -1.44399,1.44399 -10.36053,12.85118 -10.58333,12.85118 -0.50396,0 0,-1.00793 0,-1.51191 0,-2.01586 0,-4.03175 0,-6.04761 0,-3.45916 -1.5119,-7.88937 -1.5119,-11.33927 0,-12.20745 -2.26786,-22.26344 -2.26786,-34.01788"
       id="path66"
       inkscape:connector-curvature="0" />
    <path
       style="fill:none;stroke:#000000;stroke-width:0.26458332px;stroke-linecap:butt;stroke-linejoin:miter;stroke-opacity:1"
       d="m 262.31547,-214.77975 c 0.0659,4.2555 1.85215,41.99308 0.75595,43.08927 -0.41739,0.41741 -1.55038,14.32462 -1.5119,14.36309 0.72517,0.72517 11.04682,4.01151 13.60714,5.29167 0.80635,0.40317 2.21748,-0.40317 3.02382,0 5.54868,2.77434 13.144,9.36426 17.38691,13.60715 1.26767,1.2677 1.43954,5.21933 3.02379,6.80357 0.31332,0.31332 3.34806,3.02382 3.02382,3.02382 -1.23333,0 -0.75594,-6.77995 -0.75594,-8.31548 0,-5.21177 -1.51191,-11.22921 -1.51191,-15.11906 0,-10.35558 -5.69884,-48.43931 -9.07143,-55.18452 -1.03653,-2.07303 1.57554,-8.25182 0,-9.82739 -1.8864,-1.88637 -21.54946,1.51191 -23.43454,1.51191"
       id="path68"
       inkscape:connector-curvature="0" />
    <path
       style="fill:none;stroke:#000000;stroke-width:0.26458332px;stroke-linecap:butt;stroke-linejoin:miter;stroke-opacity:1"
       d="m 259.29166,-75.684513 c 1.76518,5.232849 21.97063,23.386494 24.19049,21.166666 0.7661,-0.766127 0,-6.355741 0,-7.559543 0,-6.634532 0.27429,-39.0352 -2.26788,-41.57736 -0.66238,-0.66242 -8.51871,-1.61354 -9.82736,-2.26788 -2.75344,-1.37671 -12.7232,-1.1979 -13.60715,-0.75594 -0.54013,0.27006 0.45979,3.31996 0,3.77976 -1.1198,1.11979 -2.26786,24.620772 -2.26786,24.946421"
       id="path70"
       inkscape:connector-curvature="0" />
    <path
       style="fill:none;stroke:#000000;stroke-width:0.26458332px;stroke-linecap:butt;stroke-linejoin:miter;stroke-opacity:1"
       d="m 238.125,-5.3809655 c 4.56308,-0.3863181 -0.15259,2.8712319 0.75595,3.7797846 5.39669,5.3966797 0.0563,36.3982789 3.02381,42.3333329 3.13112,6.262238 10.73137,10.731367 15.11905,15.119032 1.03401,1.034018 4.19443,1.170623 5.29166,2.26785 2.73175,2.73177 7.29,4.266194 10.58334,7.559542 0.79031,0.790311 5.21809,4.60928 5.29167,4.535699 0.22318,-0.223176 0,-24.087798 0,-25.702365 0,-10.921788 0.48173,-39.58373 -4.53573,-44.60120886 -0.77676,-0.77676374 -4.51744,0.01825625 -5.29166,-0.75594103 -4.88743,-4.88743621 -25.91188,-0.75594101 -34.01785,-0.75594101"
       id="path72"
       inkscape:connector-curvature="0" />
    <path
       style="fill:none;stroke:#000000;stroke-width:0.26458332px;stroke-linecap:butt;stroke-linejoin:miter;stroke-opacity:1"
       d="m 246.44047,104.98809 c 2.06601,4.86577 -1.88472,31.76032 -1.5119,32.50594 0.70933,1.41867 2.43342,1.0871 3.02381,2.26788 2.5323,5.0646 10.85159,13.11944 15.11904,17.38691 0.59867,0.59864 7.68361,8.94733 8.31549,8.31545 0.85079,-0.85079 -1.51191,-8.96278 -1.51191,-10.58333 0,-2.9873 -1.21478,-47.32787 -1.51191,-47.625 -3.30123,-3.30123 -17.90138,-0.25723 -21.92262,-2.26785 z"
       id="path74"
       inkscape:connector-curvature="0" />
    <path
       style="fill:none;stroke:#000000;stroke-width:0.26458332px;stroke-linecap:butt;stroke-linejoin:miter;stroke-opacity:1"
       d="m 242.66071,199.48215 c 5.37679,2.82138 11.66312,2.26785 18.89881,2.26785 2.99206,0 9.45702,-1.31911 12.09523,0 1.91458,0.95729 -0.28617,3.49358 0.75597,4.5357 2.19356,2.19358 6.09942,13.65895 6.80355,14.36312 0.93036,0.93032 2.46922,2.67054 3.02382,3.77975 1.8846,3.76918 5.64785,8.67167 7.55951,10.58334 0.72089,0.72085 3.83482,1.51191 3.02382,1.51191 -0.62304,0 -5.86224,-2.55315 -6.80357,-3.02382 -3.21964,-1.60983 -27.46993,-0.75597 -33.2619,-0.75597 -1.08277,0 -6.11444,0.68914 -6.80357,0 -0.22025,-0.22024 -1.32987,-23.07042 -3.77976,-27.97021"
       id="path76"
       inkscape:connector-curvature="0" />
    <path
       style="fill:none;stroke:#000000;stroke-width:0.26458332px;stroke-linecap:butt;stroke-linejoin:miter;stroke-opacity:1"
       d="m 429.38094,-647.94047 c -3.61493,3.39887 -2.62049,23.0312 -4.5357,24.94643 -0.25448,0.25447 -10.66406,-1.5119 -14.36309,-1.5119 -4.09136,0 -17.50042,-1.45516 -20.41073,0 -0.84442,0.4222 -10.81283,3.0238 -11.33927,3.0238 -2.10021,0 6.7139,-16.49648 6.80357,-16.63095 0.32319,-0.48482 2.017,-1.01023 2.26785,-1.5119 0.40317,-0.80635 -0.40317,-2.21746 0,-3.02381 1.33215,-2.66433 6.92661,-12.97424 7.55952,-13.60714 0.28061,-0.28061 23.18943,0 25.70239,0"
       id="path78"
       inkscape:connector-curvature="0" />
    <path
       style="fill:none;stroke:#000000;stroke-width:0.26458332px;stroke-linecap:butt;stroke-linejoin:miter;stroke-opacity:1"
       d="m 397.63094,-585.19642 c -5.86907,4.17149 -7.63755,8.3935 -12.09522,12.85119 -1.91595,1.91594 -15.94588,15.80413 -15.11906,16.63095 2.04886,2.04884 29.31795,0.0821 32.50594,-1.5119 4.45315,-2.22657 27.96165,1.5205 30.23812,-0.75596 0.12795,-0.12795 -1.72614,-31.96422 -2.26788,-32.50595 -0.25061,-0.25063 -7.52594,2.99023 -7.55951,3.02381 -1.18383,1.18382 -17.39056,2.26786 -20.41073,2.26786"
       id="path80"
       inkscape:connector-curvature="0" />
    <path
       style="fill:none;stroke:#000000;stroke-width:0.26458332px;stroke-linecap:butt;stroke-linejoin:miter;stroke-opacity:1"
       d="m 389.31548,-503.55357 c -0.61161,5.5149 -3.60646,9.30745 -5.29167,14.3631 -1.54755,4.64266 -9.07142,17.7712 -9.07142,21.16667 0,0.66735 -1.94831,1.83146 -1.51191,2.26785 0.35126,0.35126 20.00692,-6.04762 27.21427,-6.04762 1.16676,0 3.39889,-1.32147 3.77976,-1.5119 2.38252,-1.19126 8.60536,0 11.3393,0 2.01586,0 6.04761,-2.01587 6.04761,0 0,3.67842 0.61299,-9.21441 -0.75594,-10.58333 -2.39612,-2.39612 -4.59259,-28.0271 -5.29167,-28.72619 -1.04947,-1.04946 -20.27703,10.61675 -26.45833,9.07142 z"
       id="path82"
       inkscape:connector-curvature="0" />
    <path
       style="fill:none;stroke:#000000;stroke-width:0.26458332px;stroke-linecap:butt;stroke-linejoin:miter;stroke-opacity:1"
       d="m 377.22024,-419.64284 c -5.788,4.35755 -7.60008,8.35602 -12.09524,12.85118 -1.60018,1.60017 -14.93534,16.0587 -14.3631,16.63094 1.12102,1.12104 20.64735,-1.22171 22.67858,-1.51191 5.36432,-0.76631 26.5739,0.64037 29.48212,-2.26785 0.35661,-0.35658 22.53351,3.92486 23.43455,3.02382 1.21107,-1.21108 -1.51191,-10.83977 -1.51191,-12.85118 0,-3.16114 0.14684,-9.68055 -1.51191,-11.3393 -1.13393,-1.13393 1.13392,-5.66965 0,-6.80358 -1.15208,-1.15207 -5.11551,0.75597 -6.04761,0.75597 -2.45465,0 -11.59957,2.52815 -12.85121,3.77976 -1.93175,1.93175 -17.3229,1.51191 -21.16667,1.51191"
       id="path84"
       inkscape:connector-curvature="0" />
    <path
       style="fill:none;stroke:#000000;stroke-width:0.26458332px;stroke-linecap:butt;stroke-linejoin:miter;stroke-opacity:1"
       d="m 381,-334.22024 c -4.93578,3.69856 -5.80531,10.46218 -10.58334,12.85119 -1.83062,0.91532 -4.00534,4.76131 -5.29166,6.04763 -2.05314,2.05314 -3.42355,3.06737 -4.53573,5.29167 -1.6864,3.37283 -4.09369,4.84965 -6.04761,6.80357 -1.40509,1.4051 30.97789,0.73978 30.99406,0.75594 0.80523,0.80526 27.80416,1.67796 27.97022,1.51191 1.45658,-1.45658 0,-11.94922 0,-14.36309 0,-4.57372 1.61604,-15.01492 -1.51189,-18.14287 -3.61532,-3.6153 -28.13663,3.77978 -34.01787,3.77978"
       id="path86"
       inkscape:connector-curvature="0" />
    <path
       style="fill:none;stroke:#000000;stroke-width:0.26458332px;stroke-linecap:butt;stroke-linejoin:miter;stroke-opacity:1"
       d="m 372.68451,-248.79763 c -3.6704,2.65509 -6.69139,5.93545 -9.07142,8.31548 -2.58014,2.58014 -21.26756,18.04199 -18.89882,20.41073 1.63169,1.63166 29.71768,2.26785 34.77382,2.26785 2.29288,0 32.20714,0.29882 32.50596,0 1.22553,-1.22552 0,-10.96357 0,-12.85118 0,-2.53066 1.61042,-14.26459 0,-15.875 -1.06582,-1.06582 -31.45118,0.75594 -32.50596,0.75594"
       id="path88"
       inkscape:connector-curvature="0" />
    <path
       style="fill:none;stroke:#000000;stroke-width:0.26458332px;stroke-linecap:butt;stroke-linejoin:miter;stroke-opacity:1"
       d="m 359.83333,-176.98215 c -1.41462,5.62325 -20.47452,27.90645 -18.89882,29.48215 1.61512,1.61513 8.29935,0.75594 11.3393,0.75594 13.85419,0 29.77081,-1.5119 44.60119,-1.5119 1.20377,0 6.79341,0.76612 7.55951,0 0.43966,-0.43966 0,-27.52675 0,-30.99404 0,-3.5112 -37.96096,2.26785 -41.57736,2.26785"
       id="path90"
       inkscape:connector-curvature="0" />
    <path
       style="fill:none;stroke:#000000;stroke-width:0.26458332px;stroke-linecap:butt;stroke-linejoin:miter;stroke-opacity:1"
       d="m 354.54166,-108.94642 c -7.27403,3.03784 -11.14343,8.94085 -15.875,12.09524 -1.56437,1.042908 -15.57348,11.640794 -14.36309,12.851183 0.6114,0.611399 9.77093,-1.105694 10.58333,-1.511908 5.67309,-2.836545 28.48772,-0.755942 36.2857,-0.755942 1.08278,0 6.11444,-0.689133 6.80358,0 1.06921,1.069208 6.1695,2.26785 8.31548,2.26785 2.20311,0 13.63806,1.481005 15.11906,0 2.81588,-2.815907 -2.26788,-11.953028 -2.26788,-14.363091 0,-3.249532 0.0188,-12.832342 -2.26784,-15.119062 -0.29684,-0.29681 -37.5034,2.49873 -38.55358,3.02382"
       id="path92"
       inkscape:connector-curvature="0" />
    <path
       style="fill:none;stroke:#000000;stroke-width:0.26458332px;stroke-linecap:butt;stroke-linejoin:miter;stroke-opacity:1"
       d="m 353.02975,-50.738089 c -1.53389,4.351126 -3.72006,8.255767 -6.80357,11.339274 -3.28118,3.281204 -4.89593,7.919747 -7.55952,10.583334 -0.89588,0.895879 -7.79356,6.569551 -6.04761,8.315483 0.17926,0.179255 26.88924,-0.755967 30.2381,-0.755967 1.26616,0 30.13114,0.106944 30.23809,0 1.22684,-1.226847 0,-10.167329 0,-12.095216 0,-4.073948 -0.42974,-16.304736 -3.02382,-18.898816 -4.84582,-4.845818 -31.03412,-1.49188 -37.04167,1.511908 z"
       id="path94"
       inkscape:connector-curvature="0" />
    <path
       style="fill:none;stroke:#000000;stroke-width:0.26458332px;stroke-linecap:butt;stroke-linejoin:miter;stroke-opacity:1"
       d="m 337.91072,27.880943 c 7.67839,0.631507 53.05055,-1.378003 55.18452,0.755967 2.37577,2.375773 0.772,9.843426 3.77976,12.851183 2.36013,2.360136 4.24656,5.235945 6.80357,9.071425 2.19022,3.285331 9.82737,7.940304 9.82737,11.3393 0,0.68244 -8.11991,-0.658177 -8.31546,-0.755967 -5.36202,-2.680997 -19.02156,0 -24.94643,0 -3.19457,0 -34.38469,2.656999 -35.52978,1.511908 -0.53454,-0.534537 0,-4.451985 0,-5.291666 0,-9.356222 -3.02379,-18.821109 -3.02379,-27.214274"
       id="path96"
       inkscape:connector-curvature="0" />
    <path
       style="fill:none;stroke:#000000;stroke-width:0.26458332px;stroke-linecap:butt;stroke-linejoin:miter;stroke-opacity:1"
       d="m 364.36905,117.08333 c 0.63683,8.23497 -1.17887,17.20715 0.75595,24.94643 1.12098,4.48397 1.04124,42.33333 0,42.33333 -1.81708,0 1.73894,-3.25083 3.02381,-4.53572 3.0416,-3.0416 6.5868,-10.90576 9.07143,-15.875 1.2718,-2.54358 7.32996,-5.81806 9.07142,-7.55952 0.2571,-0.2571 -2.09246,-42.91388 -2.26785,-43.08927 -2.24647,-2.24648 -13.8897,0.89722 -15.11906,1.5119"
       id="path98"
       inkscape:connector-curvature="0" />
    <path
       style="fill:none;stroke:#000000;stroke-width:0.26458332px;stroke-linecap:butt;stroke-linejoin:miter;stroke-opacity:1"
       d="m 348.49405,224.42857 c -1.19679,4.64408 -0.75596,9.57528 -0.75596,14.3631 0,7.87566 -0.75594,15.32511 -0.75594,23.43451 0,3.52777 0,7.05557 0,10.58333 0,0.75597 0.75594,2.26785 0,2.26785 -3.93613,0 5.33728,-6.31481 9.07142,-7.55951 3.42511,-1.14171 9.10889,-7.59701 11.33927,-9.82737 1.79163,-1.79162 5.98488,-1.44915 8.31549,-3.77978 3.2331,-3.2331 -0.75594,-23.28029 -0.75594,-27.97022 0,-1.08278 0.6891,-6.11444 0,-6.80357 -1.03331,-1.03331 -10.13862,3.17942 -11.3393,3.77976 -5.60933,2.80466 -9.42592,-1.33467 -15.11904,1.5119 z"
       id="path100"
       inkscape:connector-curvature="0" />
    <path
       style="fill:none;stroke:#000000;stroke-width:0.26458332px;stroke-linecap:butt;stroke-linejoin:miter;stroke-opacity:1"
       d="m 514.80357,-648.69642 c 1.91667,3.99778 0,7.63751 0,11.33928 0,11.86778 -3.77976,22.10671 -3.77976,33.26191 0,2.9803 -0.75597,6.43197 -0.75597,9.82738 0,1.00793 1.00796,3.02381 0,3.02381 -0.61999,0 6.35426,-5.59829 11.3393,-10.58333 4.80346,-4.80346 13.22742,-10.20363 17.38691,-14.3631 1.68958,-1.68958 -1.51191,-8.46869 -1.51191,-10.58333 0,-28.69468 0.0425,-17.37841 -22.67857,-21.92262 z"
       id="path102"
       inkscape:connector-curvature="0" />
    <path
       style="fill:none;stroke:#000000;stroke-width:0.26458332px;stroke-linecap:butt;stroke-linejoin:miter;stroke-opacity:1"
       d="m 502.70833,-548.91071 c -0.20804,18.65252 -3.02382,38.18591 -3.02382,57.45238 0,3.84466 -0.75594,6.29973 -0.75594,10.58334 0,1.00793 1.00793,3.0238 0,3.0238 -0.2749,0 4.23061,-7.40018 4.5357,-8.31547 2.05914,-6.17737 28.73063,-27.20987 24.94645,-30.99405 -3.36352,-3.36351 -1.53675,-21.94746 -4.53573,-24.94643 -4.17687,-4.17688 -18.68302,0.64733 -21.16666,-6.80357 z"
       id="path104"
       inkscape:connector-curvature="0" />
    <path
       style="fill:none;stroke:#000000;stroke-width:0.26458332px;stroke-linecap:butt;stroke-linejoin:miter;stroke-opacity:1"
       d="m 493.6369,-415.10714 c -1.05878,5.13656 -1.05783,55.18451 -2.26785,55.18451 -1.99104,0 3.7333,-3.73327 6.80355,-6.80355 6.54241,-6.5424 14.47824,-9.94251 21.16667,-16.63096 0.56171,-0.56171 0,-5.24487 0,-6.04761 0,-5.69714 0.90164,-23.28884 -2.26785,-26.45833 -0.037,-0.037 -19.25294,1.80133 -23.43452,0.75594 z"
       id="path106"
       inkscape:connector-curvature="0" />
    <path
       style="fill:none;stroke:#000000;stroke-width:0.26458332px;stroke-linecap:butt;stroke-linejoin:miter;stroke-opacity:1"
       d="m 485.32142,-329.68451 c 6.38064,8.03868 -3.96039,50.46816 0.75597,55.18452 0.30014,0.30014 2.83945,-2.83946 3.02379,-3.02382 2.89703,-2.897 7.23823,-3.0616 10.58333,-5.29167 7.97364,-5.31574 18.72671,-5.11955 24.94642,-11.33927 1.15015,-1.15015 0,-9.53199 0,-11.3393 0,-2.17191 -0.89421,-23.43452 -1.51188,-23.43452 -12.3326,0 -20.23478,3.77976 -32.50596,3.77976"
       id="path108"
       inkscape:connector-curvature="0" />
    <path
       style="fill:none;stroke:#000000;stroke-width:0.26458332px;stroke-linecap:butt;stroke-linejoin:miter;stroke-opacity:1"
       d="m 483.80951,-237.45833 c 0,16.88293 0,33.76586 0,50.64882 0,3.52777 0,7.05554 0,10.58333 0,0.75594 -0.75594,2.26785 0,2.26785 0.13912,0 2.06912,-2.72568 2.26788,-3.02382 6.07287,-9.10934 15.50241,-17.77029 22.67854,-24.94642 1.23116,-1.23116 -0.75594,-5.77469 -0.75594,-6.80358 0,-6.39122 -0.75594,-14.46373 -0.75594,-21.9226 0,-0.59193 0.37719,-3.40257 0,-3.77976 -3.03141,-3.03141 -20.29224,0 -21.16666,0"
       id="path110"
       inkscape:connector-curvature="0" />
    <path
       style="fill:none;stroke:#000000;stroke-width:0.26458332px;stroke-linecap:butt;stroke-linejoin:miter;stroke-opacity:1"
       d="m 477.00594,-126.33333 c 2.99376,6.22075 -4.6871,24.79506 0,29.48215 5.35905,5.35903 14.06964,11.57052 21.16666,15.119033 1.10202,0.550994 10.39979,8.499025 11.3393,7.559516 0.99661,-0.996606 0,-8.261297 0,-9.827366 0,-3.57034 -2.02303,-39.064693 -2.26785,-39.309513 -4.63843,-4.63844 -23.22084,-3.02382 -30.23811,-3.02382 z"
       id="path112"
       inkscape:connector-curvature="0" />
    <path
       style="fill:none;stroke:#000000;stroke-width:0.26458332px;stroke-linecap:butt;stroke-linejoin:miter;stroke-opacity:1"
       d="m 460.37499,-56.785723 c 0.4549,5.626153 -0.75594,10.41736 -0.75594,15.875 0,4.947047 -6.49136,25.258659 -2.26787,29.48215 5.67531,5.6752859 16.70637,8.3908898 22.67857,14.3630912 0.96983,0.9698302 9.76294,9.1358768 10.58334,8.3154838 2.87051,-2.8705176 -1.1339,-15.8750529 0.75596,-19.654758 1.39187,-2.783787 1.89627,-14.350285 0,-18.142876 -2.6698,-5.339582 3.21707,-18.705539 -0.75596,-22.678548 -4.89154,-4.891564 -22.76081,-7.559543 -30.2381,-7.559543 z"
       id="path114"
       inkscape:connector-curvature="0" />
    <path
       style="fill:none;stroke:#000000;stroke-width:0.26458332px;stroke-linecap:butt;stroke-linejoin:miter;stroke-opacity:1"
       d="m 463.39881,42.244034 c 3.34124,6.636755 -4.18306,34.370539 -0.75597,37.797634 5.89913,5.899123 19.86055,12.6678 27.2143,15.119032 2.54868,0.849577 13.2655,6.38926 14.3631,5.29167 0.73464,-0.734646 -0.75597,-1.984855 -0.75597,-3.023794 0,-2.771828 0,-5.543656 0,-8.315484 0,-12.316698 -0.75594,-24.069965 -0.75594,-37.041666 0,-0.961469 0.61198,-5.435626 0,-6.047608 -0.53454,-0.534537 -4.45199,0 -5.29167,0 -10.12314,0 -19.41356,-0.755967 -28.72618,-0.755967"
       id="path116"
       inkscape:connector-curvature="0" />
    <path
       style="fill:none;stroke:#000000;stroke-width:0.26458332px;stroke-linecap:butt;stroke-linejoin:miter;stroke-opacity:1"
       d="m 460.37499,138.25 c 2.67412,8.09011 -2.64525,41.95593 -1.5119,43.08927 2.56458,2.56458 1.83266,5.83004 5.29166,7.55955 5.66005,2.83001 15.05762,13.60712 21.16667,13.60712 1.50482,0 8.80906,7.8219 9.07142,7.55954 1.15015,-1.15014 0,-9.53198 0,-11.3393 0,-15.58777 -3.77975,-30.07339 -3.77975,-46.11309 0,-1.41525 2.28573,-8.2976 0.75596,-9.82739 -2.58932,-2.58929 -23.14493,-1.65669 -26.45833,0"
       id="path118"
       inkscape:connector-curvature="0" />
    <path
       style="fill:none;stroke:#000000;stroke-width:0.26458332px;stroke-linecap:butt;stroke-linejoin:miter;stroke-opacity:1"
       d="m 606.27381,-647.18452 c 5.43399,1.172 11.08556,0.75595 16.63094,0.75595 4.19566,0 13.65123,1.86785 17.38691,0 0.95594,-0.47796 8.83555,-2.50373 9.07142,-2.26785 1.91855,1.91854 -0.75594,11.28559 -0.75594,12.85119 0,1.6867 1.07336,9.50995 0,10.58333 -2.43168,2.43167 -27.14993,-2.30004 -31.75,0 -3.50128,1.75064 -8.37766,0.27272 -12.09524,1.51191 -19.57636,6.52545 -7.16359,-3.41974 1.51191,-12.09524 2.01993,-2.01994 4.13808,-6.60476 6.04761,-7.55953"
       id="path120"
       inkscape:connector-curvature="0" />
    <path
       style="fill:none;stroke:#000000;stroke-width:0.26458332px;stroke-linecap:butt;stroke-linejoin:miter;stroke-opacity:1"
       d="m 613.07738,-578.39285 c -8.56403,8.02777 -18.01711,14.99329 -25.70239,22.67857 -3.48615,3.48615 -6.04761,7.12342 -6.04761,6.80357 0,-0.79684 1.51189,0.50397 2.26785,0.75595 3.62308,1.2077 9.83258,0 13.60715,0 9.4238,0 21.40816,0.67546 30.2381,-2.26785 4.05868,-1.3529 18.16854,2.99812 21.16666,0 1.62526,-1.62526 -2.26787,-10.31915 -2.26787,-12.09524 0,-4.75991 1.19155,-18.46323 -1.51189,-21.16667 -0.97086,-0.97086 -35.61545,6.58015 -36.28572,6.80357"
       id="path122"
       inkscape:connector-curvature="0" />
    <path
       style="fill:none;stroke:#000000;stroke-width:0.26458332px;stroke-linecap:butt;stroke-linejoin:miter;stroke-opacity:1"
       d="m 594.17857,-523.96428 c -9.54916,9.27317 -14.18032,20.98388 -23.43452,30.23809 -2.52071,2.5207 -3.77978,8.31965 -3.77978,7.55953 0,-0.56346 0.97737,0.57777 1.51191,0.75595 2.60313,0.86771 7.0722,0 9.82739,0 8.44042,0 48.57686,4.33979 52.91666,0 2.04978,-2.04979 1.51191,-11.5575 1.51191,-15.11905 0,-3.87575 -0.1152,-16.74614 -3.02381,-19.65476 -4.79203,-4.79204 -29.52044,0 -37.04167,0"
       id="path124"
       inkscape:connector-curvature="0" />
    <path
       style="fill:none;stroke:#000000;stroke-width:0.26458332px;stroke-linecap:butt;stroke-linejoin:miter;stroke-opacity:1"
       d="m 565.45239,-435.51784 c -2.35342,5.20488 -5.03098,8.55001 -7.55955,13.60712 -0.74115,1.4823 -8.80186,10.58333 -6.80357,10.58333 16.61255,0 33.42417,-1.5119 51.40478,-1.5119 1.22436,0 6.79056,0.013 7.55952,-0.75594 1.81517,-1.81518 0.75594,-9.2964 0.75594,-12.09525 0,-2.41011 1.53374,-13.58532 0,-15.11904 -2.00816,-2.00816 -31.87663,1.19724 -35.52976,3.0238"
       id="path126"
       inkscape:connector-curvature="0" />
    <path
       style="fill:none;stroke:#000000;stroke-width:0.26458332px;stroke-linecap:butt;stroke-linejoin:miter;stroke-opacity:1"
       d="m 579.81548,-371.2619 c -2.48254,5.62692 -6.97418,7.90072 -9.07143,12.09524 -1.13482,2.26962 -16.92719,14.06686 -15.11906,15.875 1.43296,1.43296 39.42697,-3.77976 44.60119,-3.77976 1.56606,0 8.83076,0.99661 9.82739,0 1.22684,-1.22687 0,-10.16735 0,-12.09524 0,-1.69079 0.40285,-13.96024 -0.75597,-15.11906 -5.26166,-5.26166 -24.49949,1.77816 -29.48212,3.02382 z"
       id="path128"
       inkscape:connector-curvature="0" />
    <path
       style="fill:none;stroke:#000000;stroke-width:0.26458332px;stroke-linecap:butt;stroke-linejoin:miter;stroke-opacity:1"
       d="m 577.5476,-299.44642 c -4.42375,1.29487 -20.09973,34.77379 -21.16667,34.77379 -1.07169,0 9.56861,-0.75594 18.14288,-0.75594 5.46965,0 24.63784,1.82049 27.97024,-1.51191 0.87609,-0.87609 -1.00809,-10.07949 -1.51191,-10.58333 -1.09508,-1.09506 0,-9.51026 0,-11.33928 0,-2.26787 -2.26787,-6.80357 0,-6.80357 1.83446,0 -3.55134,-0.93181 -5.29166,-1.51191 -5.85576,-1.95191 -11.96409,-0.72316 -18.14288,-2.26785 z"
       id="path130"
       inkscape:connector-curvature="0" />
    <path
       style="fill:none;stroke:#000000;stroke-width:0.26458332px;stroke-linecap:butt;stroke-linejoin:miter;stroke-opacity:1"
       d="m 571.49999,-229.14284 c -4.1239,4.98432 -25.70239,24.27507 -25.70239,27.97021 0,0.75597 1.51191,0 2.26788,0 3.02379,0 6.0476,0 9.07142,0 6.64485,0 13.60054,-2.26785 18.89882,-2.26785 2.68782,0 18.43765,1.97305 20.4107,0 0.14716,-0.14716 2.5509,-25.41934 2.26785,-25.70236 -2.56286,-2.56289 -22.50887,3.77975 -27.21428,3.77975"
       id="path132"
       inkscape:connector-curvature="0" />
    <path
       style="fill:none;stroke:#000000;stroke-width:0.26458332px;stroke-linecap:butt;stroke-linejoin:miter;stroke-opacity:1"
       d="m 574.52381,-138.42857 c 0.4467,3.41085 -3.00456,32.5252 -2.26788,33.26191 3.57304,3.57301 25.44429,-0.75597 30.23812,-0.75597 2.62771,0 15.63008,1.75683 17.38688,0 2.47836,-2.47833 -6.0476,-12.56787 -6.0476,-15.11903 0,-4.03379 -6.65166,-17.23499 -8.31549,-18.89882 -2.52055,-2.52055 -25.06974,-1.45023 -30.99403,1.51191 z"
       id="path136"
       inkscape:connector-curvature="0" />
    <path
       style="fill:none;stroke:#000000;stroke-width:0.26458332px;stroke-linecap:butt;stroke-linejoin:miter;stroke-opacity:1"
       d="m 566.96427,-62.07739 c -3.26898,1.923971 -7.10795,34.469414 -6.04761,35.529758 0.34076,0.340783 30.88783,-4.535699 34.77382,-4.535699 5.29166,0 10.58333,0 15.875,0 0.88767,0 4.43791,1.609699 4.5357,1.511909 1.29225,-1.292252 -7.50732,-13.554948 -8.31546,-14.363092 -3.88591,-3.885909 -9.15892,-9.914863 -12.85121,-13.60715 -0.80883,-0.808831 -23.67103,-2.26785 -26.45833,-2.26785"
       id="path138"
       inkscape:connector-curvature="0" />
    <path
       style="fill:none;stroke:#000000;stroke-width:0.26458332px;stroke-linecap:butt;stroke-linejoin:miter;stroke-opacity:1"
       d="m 554.86905,7.4702438 c 2.67645,4.9207732 -0.81984,34.7099202 1.51188,37.0416662 0.93327,0.933238 9.11416,-3.045169 10.58334,-3.779758 6.51557,-3.257788 16.46362,-2.267876 24.19048,-2.267876 5.12403,0 21.88988,2.300605 21.92263,2.267876 2.55495,-2.554976 -6.43122,-16.642186 -7.55954,-18.898817 -1.82329,-3.64662 -5.075,-14.2547708 -8.31546,-15.8749998 -5.48171,-2.7408451 -36.91667,0.1577446 -42.33333,1.5119086 z"
       id="path140"
       inkscape:connector-curvature="0" />
    <path
       style="fill:none;stroke:#000000;stroke-width:0.26458332px;stroke-linecap:butt;stroke-linejoin:miter;stroke-opacity:1"
       d="m 560.91666,85.333334 c 0.8472,3.882443 -0.75594,7.880244 -0.75594,11.339274 0,2.282296 -1.72011,16.422772 0,18.142872 1.55347,1.55348 35.18164,-2.8199 40.82142,0 1.67262,0.8363 16.20004,3.4547 16.63094,3.02379 2.31103,-2.31102 -6.41519,-13.40257 -7.55951,-15.11903 -4.08514,-6.127694 -7.1701,-16.241551 -11.3393,-20.410723 -3.70777,-3.707765 -33.18259,-0.437462 -37.79761,3.023817 z"
       id="path142"
       inkscape:connector-curvature="0" />
    <path
       style="fill:none;stroke:#000000;stroke-width:0.26458332px;stroke-linecap:butt;stroke-linejoin:miter;stroke-opacity:1"
       d="m 555.62499,159.41667 c 0,3.27578 0,6.55158 0,9.82736 0,31.40827 -2.28838,20.41073 25.70239,20.41073 1.80729,0 10.18916,-1.15012 11.33928,0 0.19293,0.19293 22.43757,3.2648 22.67857,3.02381 1.75673,-1.75675 -5.27494,-17.36182 -6.80357,-19.65475 -3.10057,-4.65088 -3.76105,-14.34439 -7.55952,-18.14288 -0.47585,-0.47583 -33.89831,0 -37.79763,0"
       id="path144"
       inkscape:connector-curvature="0" />
    <path
       style="fill:none;stroke:#000000;stroke-width:0.26458332px;stroke-linecap:butt;stroke-linejoin:miter;stroke-opacity:1"
       d="m 562.42857,235.76785 c -3.79045,5.42427 -7.89662,7.89662 -12.09524,12.09524 -3.63723,3.63723 -8.14652,5.87867 -12.09525,9.82739 -0.76284,0.76285 -5.20422,6.80355 -5.29166,6.80355 -2.01586,0 4.03175,0 6.04763,0 5.29167,0 10.58334,0 15.875,0 2.013,0 39.30267,-0.74909 39.30952,-0.75594 1.42518,-1.42518 -0.75597,-8.3389 -0.75597,-9.82739 0,-3.54907 1.22666,-13.8924 -0.75594,-15.875 -2.35588,-2.35588 -22.94477,0 -24.19048,0"
       id="path146"
       inkscape:connector-curvature="0" />
    <path
       style="fill:none;stroke:#000000;stroke-width:0.26458332px;stroke-linecap:butt;stroke-linejoin:miter;stroke-opacity:1"
       d="m 714.37499,-650.96428 c -3.36764,5.20969 -5.46592,9.41992 -8.31548,15.11905 -1.11292,2.22584 -10.45398,13.73648 -9.82737,14.36309 1.03272,1.03273 8.30527,0 9.82737,0 15.24696,0 30.64825,-0.75595 46.11309,-0.75595 1.02481,0 6.8091,0.75043 7.55954,0 1.1435,-1.14351 -2.26788,-5.73359 -2.26788,-7.55952 0,-4.17325 -2.03517,-7.85014 -3.77975,-11.33929 -0.40053,-0.80106 0.28551,-2.16726 0,-3.02381 -0.94134,-2.82402 -2.97061,-14.3099 -3.77976,-15.11905 -0.85074,-0.85073 -20.24631,3.32431 -23.43452,3.77977 -1.91767,0.27395 -10.51626,1.42245 -10.58333,1.5119 -0.67614,0.90153 -1.00793,2.01587 -1.51191,3.02381 z"
       id="path150"
       inkscape:connector-curvature="0" />
    <path
       style="fill:none;stroke:#000000;stroke-width:0.26458332px;stroke-linecap:butt;stroke-linejoin:miter;stroke-opacity:1"
       d="m 712.10714,-591.24404 c 0.52488,4.88808 -0.96462,5.50031 -3.02382,7.55952 -0.37798,0.37798 0.37799,1.88988 0,2.26786 -3.19288,3.19288 -6.29068,7.04662 -9.82739,10.58333 -0.35634,0.35636 0.2254,1.06114 0,1.51191 -0.85913,1.71826 -5.65692,4.90098 -6.80355,6.04762 -0.25199,0.25198 -0.50397,2.01587 -0.75596,2.26785 -0.77063,0.77064 -1.47368,-0.8324 -2.26785,0.75596 -0.34838,0.69672 -3.43797,5.87672 -3.77976,6.04761 -0.45077,0.22539 -1.06114,-0.22538 -1.51191,0 -0.50398,0.25199 -0.50398,1.00794 -0.75597,1.51191 -0.14536,0.29075 -1.06608,1.20177 -0.75594,1.5119 0.92652,0.92653 16.006,-0.75595 17.38691,-0.75595 4.46492,0 8.4977,-0.75595 12.85118,-0.75595 9.26944,0 19.63732,1.06182 28.72619,-0.75595 0.85772,-0.17154 3.96155,0.57416 4.53572,0 0.67495,-0.67495 -0.44622,-13.12412 -0.75594,-14.3631 -0.58259,-2.33028 -0.64114,-18.78398 -1.51191,-19.65476 -1.68614,-1.68613 -22.50067,-0.75595 -27.2143,-0.75595"
       id="path152"
       inkscape:connector-curvature="0" />
    <path
       style="fill:none;stroke:#000000;stroke-width:0.26458332px;stroke-linecap:butt;stroke-linejoin:miter;stroke-opacity:1"
       d="m 684.89284,-517.16071 c -4.71855,3.89829 -5.23277,10.52445 -9.07142,14.3631 -0.70393,0.70392 0.34724,2.67656 -0.75594,3.77976 -1.47162,1.47161 -12.37703,18.61703 -12.09525,18.89881 0.15275,0.15274 28.31095,0 30.23809,0 2.52606,0 29.10798,0.37416 29.48215,0 0.49382,-0.49383 -1.5119,-23.68864 -1.5119,-27.21429 0,-0.96148 0.61198,-5.43563 0,-6.04762 -0.50398,-0.50397 -2.51984,0.50397 -3.02382,0 -3.50819,-3.5082 -21.41982,-0.75595 -27.21427,-0.75595 -1.4395,0 -6.80358,0.50154 -6.80358,1.51191"
       id="path154"
       inkscape:connector-curvature="0" />
    <path
       style="fill:none;stroke:#000000;stroke-width:0.26458332px;stroke-linecap:butt;stroke-linejoin:miter;stroke-opacity:1"
       d="m 671.28572,-448.36904 c -2.54622,3.91228 -4.15584,6.04377 -6.04764,9.82738 -0.60476,1.20952 -2.41903,1.81428 -3.02381,3.02382 -0.22538,0.45074 0.22539,1.06114 0,1.51188 -0.69586,1.39173 -1.572,0.1202 -2.26785,1.51191 -0.22908,0.45815 -0.43919,1.95109 -0.75594,2.26787 -4.49176,4.49173 -7.28245,7.89983 -10.58334,12.85119 -0.25574,0.38362 -3.92956,2.87401 -3.02381,3.77976 2.34018,2.34018 31.80064,2.26784 37.04166,2.26784 2.13924,0 13.53556,-0.0716 13.60715,0 0.84728,0.84728 7.7732,1.51191 9.07143,1.51191 1.29987,0 5.2859,0.76171 5.29166,0.75597 0.38505,-0.38505 0,-4.06426 0,-4.53572 0,-6.22838 0.35473,-30.63933 -2.26785,-33.26191 -0.62997,-0.62996 -3.14981,0.62996 -3.77978,0 -2.77585,-2.77586 -15.33843,-2.19472 -19.65476,-0.75595 -1.23245,0.41082 -10.07634,0.75595 -9.07142,0.75595"
       id="path156"
       inkscape:connector-curvature="0" />
    <path
       style="fill:none;stroke:#000000;stroke-width:0.26458332px;stroke-linecap:butt;stroke-linejoin:miter;stroke-opacity:1"
       d="m 672.04166,-372.77381 c -3.75285,4.1978 -5.48217,6.23811 -9.07143,9.82739 -0.35636,0.35634 0.35637,1.15554 0,1.51191 -0.96829,0.96827 -2.45099,1.87817 -3.02381,3.02379 -1.39965,2.79935 -15.22251,19.55131 -13.60715,21.16667 0.98271,0.98271 9.31389,0 10.58333,0 3.69279,0 34.47563,0.90506 34.77382,0.75596 3.65312,-1.82655 8.45677,-1.5119 12.85118,-1.5119 3.77978,0 7.55954,0 11.3393,0 0.77819,0 0.94864,1.31921 1.51191,0.75594 2.02644,-2.02645 0,-23.13152 0,-27.21428 0,-0.71689 0.45651,-4.07921 0,-4.53572 -0.75597,-0.75594 -1.51191,-1.51191 -2.26788,-2.26785 -0.75594,-0.75594 -3.77976,0.75594 -4.5357,0 -3.22061,-3.22062 -32.05797,1.7359 -38.55357,-1.51191 z"
       id="path158"
       inkscape:connector-curvature="0" />
    <path
       style="fill:none;stroke:#000000;stroke-width:0.26458332px;stroke-linecap:butt;stroke-linejoin:miter;stroke-opacity:1"
       d="m 664.48214,-289.61905 c -3.27475,5.49664 -6.47348,6.89932 -9.07142,12.09524 -0.62767,1.25531 -2.98035,1.42496 -3.77979,3.02382 -0.22537,0.45077 0.35637,1.15554 0,1.5119 -0.77062,0.77063 -1.47367,-0.8324 -2.26785,0.75594 -1.58504,3.17011 -15.25772,18.00419 -14.36309,18.89882 0.89808,0.89808 31.56363,0.75594 34.01785,0.75594 12.27826,0 23.38382,-0.75594 34.77382,-0.75594 0.83968,0 4.75713,0.53454 5.29166,0 0.71581,-0.71583 -1.0982,-29.06845 -2.26785,-30.23809 -0.75596,-0.75597 0.75595,-3.77976 0,-4.53572 -1.31151,-1.31152 -4.47936,0.0282 -6.04763,-0.75595 -10.45705,-5.22853 -26.48826,6.59215 -36.2857,-0.75596 z"
       id="path160"
       inkscape:connector-curvature="0" />
    <path
       style="fill:none;stroke:#000000;stroke-width:0.26458332px;stroke-linecap:butt;stroke-linejoin:miter;stroke-opacity:1"
       d="m 662.21427,-195.125 c -1.06442,4.38513 -3.0547,8.34639 -5.29167,10.58334 -0.72205,0.72205 -0.64834,3.67215 -1.51188,4.5357 -2.67642,2.67642 1.63417,-3.96317 -1.51191,0.75596 -1.23444,1.85164 -1.81716,4.08501 -3.02382,5.29167 -0.76221,0.76221 -0.59677,2.86462 -1.51191,3.77976 -0.55697,0.55697 -2.45184,1.87986 -3.02381,3.02382 -0.38889,0.77782 -2.7917,7.03566 -2.26785,7.55951 1.52426,1.52427 8.61248,-2.41636 9.82739,-3.02381 5.22433,-2.61218 25.86437,-3.0238 33.26191,-3.0238 4.03174,0 8.06346,0 12.09521,0 0.41204,0 2.06089,1.71887 3.02382,0.75595 0.17817,-0.17817 -0.25199,-0.75595 0,-0.75595 0.25199,0 0,1.00793 0,0.75595 0,-2.26785 0,-4.53573 0,-6.80358 0,-2.84827 0.11705,-22.56152 -0.75594,-23.43452 -0.12063,-0.12062 -2.26052,-0.75596 -2.26788,-0.75596 -12.60419,0 -24.40262,0.75596 -37.04166,0.75596 z"
       id="path162"
       inkscape:connector-curvature="0" />
    <path
       style="fill:none;stroke:#000000;stroke-width:0.26458332px;stroke-linecap:butt;stroke-linejoin:miter;stroke-opacity:1"
       d="m 670.52975,-110.45833 c -0.81838,3.83172 -2.98815,6.73227 -4.5357,9.82737 -0.5566,1.113204 -1.00301,1.003005 -1.51191,1.511904 -0.34946,0.349462 0.22821,1.811444 0,2.267876 -0.49609,0.992161 -2.65268,1.525588 -3.02382,2.26785 -1.2165,2.433002 -2.05581,4.323662 -3.77975,6.047607 -0.37799,0.377984 0.37798,1.889893 0,2.267876 -0.62998,0.629947 -1.63791,0.881936 -2.26785,1.511883 -1.18999,1.18999 -1.64677,3.914616 -3.02382,5.291666 -1.15842,1.158425 -0.84727,3.115125 -1.51191,3.779785 -1.55546,1.555459 -1.92148,1.575091 -3.02382,3.779758 -0.2754,0.550809 -2.26784,3.252417 -2.26784,3.02379 0,-0.503952 1.06113,0.225399 1.5119,0 2.04142,-1.020709 3.02596,-1.512623 5.29167,-2.267849 2.04108,-0.68035 4.7625,0.680349 6.80358,0 3.04789,-1.015974 6.48914,-0.08829 9.82736,-0.755941 11.02757,-2.205514 23.44685,-0.755968 34.77382,-0.755968 2.08079,0 12.07548,0.01984 12.85118,-0.755941 0.61198,-0.611981 0,-5.086138 0,-6.047634 0,-3.60934 -3.59712,-32.323302 -4.5357,-33.261882 -1.74609,-1.74609 -18.53028,1.51188 -21.16666,1.51188 -3.59236,0 -5.21714,0.75597 -9.07143,0.75597 -0.49752,0 -4.19327,0 -2.26788,0"
       id="path164"
       inkscape:connector-curvature="0" />
    <path
       style="fill:none;stroke:#000000;stroke-width:0.26458332px;stroke-linecap:butt;stroke-linejoin:miter;stroke-opacity:1"
       d="m 676.57738,-22.011906 c -1.01285,0.98679 -9.07145,11.858281 -9.07145,12.0952414 0,1.241425 -16.35731,17.5955852 -18.14285,21.1666666 -0.52088,1.04177 -1.77289,1.016952 -2.26785,1.511908 -0.43815,0.43815 -1.07375,2.585641 -1.5119,3.023791 -0.39841,0.398436 -2.07537,0.755967 -1.51191,0.755967 9.12066,0 17.30811,-1.124082 26.45833,-2.267849 12.48971,-1.561227 27.27055,0 40.06548,0 1.4454,0 8.1516,0.919824 9.07143,0 0.62537,-0.625396 -0.32906,-13.8383962 -0.75594,-15.11905889 -0.76126,-2.28372451 -0.37227,-17.75915011 -1.51191,-18.89881711 -2.03729,-2.037291 -27.18369,-0.755941 -32.50597,-0.755941"
       id="path166"
       inkscape:connector-curvature="0" />
    <path
       style="fill:none;stroke:#000000;stroke-width:0.26458332px;stroke-linecap:butt;stroke-linejoin:miter;stroke-opacity:1"
       d="m 677.33332,72.482151 c -1.04311,4.571815 -3.11242,7.648126 -6.0476,10.583334 -0.37799,0.377957 0.37795,1.889865 0,2.267849 -1.47614,1.476111 -2.78384,2.78384 -3.77979,3.779758 -0.56031,0.560308 0.18235,2.085525 -0.75594,3.023817 -3.75579,3.755787 -6.45874,12.506381 -9.82739,15.875001 -0.16904,0.16904 -2.26785,5.7417 -2.26785,5.29167 0,-0.25199 0.50398,0 0.75597,0 1.51188,0 3.02379,0 4.5357,0 5.77529,0 10.16341,-1.88151 15.875,-3.02382 4.14557,-0.82913 7.98454,-1.24018 12.09524,-2.26785 5.82964,-1.45741 14.29887,0 20.41072,0 0.5919,0 3.40254,-0.37722 3.77976,0 1.18658,1.18658 4.73811,0.95835 5.29167,1.51191 0.41566,0.41566 3.95398,3.60553 4.5357,3.02379 0.56327,-0.56325 -0.75594,-0.73372 -0.75594,-1.51191 0,-3.67935 0.0549,-7.33978 -0.75597,-10.58333 -0.56571,-2.262905 1.04227,-6.230967 0,-8.315461 -1.99454,-3.989096 -0.70654,-9.728596 -3.02379,-14.363091 -0.34592,-0.691859 0.51289,-2.510896 0,-3.023817 -0.62997,-0.629973 -0.126,-2.393844 -0.75597,-3.023817 -2.09648,-2.096505 -5.27418,-3.023817 -9.82737,-3.023817 -4.461,0 -7.88762,-0.213916 -11.3393,1.511908 -3.27345,1.636739 -10.95417,-1.141042 -13.60712,1.511909"
       id="path168"
       inkscape:connector-curvature="0" />
    <path
       style="fill:none;stroke:#000000;stroke-width:0.26458332px;stroke-linecap:butt;stroke-linejoin:miter;stroke-opacity:1"
       d="m 667.50593,166.22024 c -0.23712,7.00993 -5.54257,13.18572 -9.82736,18.89879 -0.67398,0.89863 -1.4395,3.70737 -2.26785,4.53573 -1.56411,1.56408 0.0611,-2.39014 -1.51191,0.75594 -1.02275,2.04549 -2.60763,5.63144 -4.53573,7.55954 -1.43213,1.43214 -3.41407,4.17002 -4.5357,5.29167 -0.25198,0.25199 0.75595,0.39957 0.75595,0.75594 0,0.25199 -1.00793,0 -0.75595,0 2.31021,0 4.14774,0.19399 6.04761,-0.75594 2.0818,-1.0409 13.50476,0 15.875,0 12.34723,0 24.69444,0 37.04167,0 1.7453,0 8.35234,2.23099 9.82739,0.75594 1.07111,-1.07111 -0.75597,-6.17662 -0.75597,-7.55952 0,-3.52872 -1.86261,-14.71379 -3.77976,-16.63096 -0.22055,-0.22056 -0.65854,-14.26568 -1.5119,-15.11904 -3.83165,-3.83164 -23.88505,-0.75596 -29.48215,-0.75596"
       id="path170"
       inkscape:connector-curvature="0" />
    <path
       style="fill:none;stroke:#000000;stroke-width:0.26458332px;stroke-linecap:butt;stroke-linejoin:miter;stroke-opacity:1"
       d="m 792.99405,-636.60118 c 1.68696,-3.84439 4.72842,-6.99629 7.55952,-9.82739 1.05473,-1.05473 1.8601,-4.12797 3.02381,-5.29166 2.71751,-2.71752 6.24933,-6.52646 9.82737,-8.31548 1.01248,-0.50624 1.04748,-1.80342 1.51191,-2.26785 0.59081,-0.59081 2.2756,-0.50655 3.02381,-0.75596 0.53454,-0.17818 0.75594,-2.07535 0.75594,-1.5119 0,15.37103 0,30.74206 0,46.11309 0,2.9093 0.59802,13.76508 -0.75594,15.11905 -0.53453,0.53454 -4.45198,0 -5.29166,0 -3.51684,0 -9.07915,0.004 -12.09524,1.51191 -3.08777,1.54387 -8.62878,-0.11067 -12.09525,0.75595 -0.15846,0.0396 -3.85622,1.43545 -4.53572,0.75595 -0.25567,-0.25568 1.10852,-5.54262 1.51191,-7.55952 0.46288,-2.31444 1.34699,-5.71776 2.26787,-7.55953 0.25959,-0.51919 0.75594,-18.3141 0.75594,-20.41071"
       id="path172"
       inkscape:connector-curvature="0" />
    <path
       style="fill:none;stroke:#000000;stroke-width:0.26458332px;stroke-linecap:butt;stroke-linejoin:miter;stroke-opacity:1"
       d="m 781.65475,-561.00595 c 0.81835,7.43743 -1.51191,14.08124 -1.51191,21.16667 0,2.75649 -3.99746,23.97277 -2.26785,25.70238 0.53676,0.53677 2.48997,2.66791 3.02382,3.02381 2.47084,1.64724 2.68351,0.31174 5.29166,2.26786 1.70381,1.27786 11.13941,4.33583 12.09525,5.29166 0.39891,0.39892 5.16514,4.2827 5.29166,4.53572 0.22537,0.45076 -0.2254,1.06114 0,1.5119 0.25196,0.50397 2.07534,0.75596 1.51188,0.75596 -0.50395,0 0,-1.00794 0,-1.51191 0,-2.01587 0,-4.03174 0,-6.04762 0,-4.28373 0,-8.56746 0,-12.85119 0,-11.21543 -0.75594,-22.58862 -0.75594,-34.01786 0,-0.83968 0.53454,-4.75712 0,-5.29166 -0.59626,-0.59627 -16.26293,-0.75595 -18.89881,-0.75595"
       id="path174"
       inkscape:connector-curvature="0" />
    <path
       style="fill:none;stroke:#000000;stroke-width:0.26458332px;stroke-linecap:butt;stroke-linejoin:miter;stroke-opacity:1"
       d="m 764.26784,-455.92857 c 0,7.55953 0,15.11905 0,22.67858 0,0.19285 -1.9663,16.02785 -2.26785,16.63094 -1.23748,2.47494 1.20264,19.34548 1.51191,19.65476 1.01825,1.01827 15.74062,-0.75594 17.38691,-0.75594 1.68669,0 9.50994,1.07338 10.58333,0 0.0249,-0.0251 -0.75597,-9.28897 -0.75597,-12.09525 0,-3.30753 -0.34192,-31.40806 0,-31.74999 1.7525,-1.7525 1.93583,-21.4987 0,-23.43452 -1.13392,-1.13393 1.13393,-5.66965 0,-6.80358 -1.26613,-1.26615 -3.7402,2.75865 -4.5357,3.02381 -2.33264,0.77755 -1.247,2.13541 -3.02381,3.02381 -2.86414,1.43208 -12.09524,7.52365 -12.09524,9.82738"
       id="path176"
       inkscape:connector-curvature="0" />
    <path
       style="fill:none;stroke:#000000;stroke-width:0.26458332px;stroke-linecap:butt;stroke-linejoin:miter;stroke-opacity:1"
       d="m 759.73214,-341.77975 c -1.51596,1.17811 1.36014,6.95531 0,8.31546 -2.96553,2.96552 -0.92887,18.07855 -2.26788,23.43454 -1.0402,4.16086 0,10.04247 0,14.36309 0,0.4613 -0.29453,2.72926 0,3.02382 0.15545,0.15541 10.51791,-0.75597 13.60716,-0.75597 0.59192,0 3.40256,0.37722 3.77975,0 0.1782,-0.17817 -0.17817,-0.57777 0,-0.75594 1.63791,-1.63791 8.18949,1.63787 9.8274,0 0.7661,-0.76613 0,-6.35574 0,-7.55955 0,-15.37102 0,-30.74204 0,-46.11309 0,-1.56606 0.9966,-8.83076 0,-9.82736 -0.54661,-0.5466 -4.22783,2.81855 -4.53573,3.02379 -2.70772,1.80515 -14.36309,9.06719 -14.36309,11.3393"
       id="path178"
       inkscape:connector-curvature="0" />
    <path
       style="fill:none;stroke:#000000;stroke-width:0.26458332px;stroke-linecap:butt;stroke-linejoin:miter;stroke-opacity:1"
       d="m 752.1726,-220.07142 c -2.86404,7.35923 1.44685,21.36188 -0.75594,27.97024 -0.65281,1.95842 -2.33037,11.27675 -0.75594,12.85118 0.022,0.022 10.94464,0 12.09521,0 1.94863,0 16.8379,-0.20695 17.38691,-0.75596 0.11131,-0.11129 0,-11.93885 0,-12.85119 0,-17.28041 -2.26785,-32.66085 -2.26785,-49.89284 0,-1.10681 0.78325,-7.53224 0,-8.31549 -0.0856,-0.0856 -9.51881,9.96622 -10.58333,12.09524 -0.44673,0.89345 -2.57683,1.82087 -3.02382,2.26785 -0.35634,0.35637 0.35637,1.15554 0,1.51191 -0.77063,0.77065 -1.47368,-0.8324 -2.26785,0.75597 -0.84534,1.69069 -3.01681,3.01678 -4.53573,4.5357 -0.35634,0.35637 0.35637,1.15554 0,1.51191 -1.12048,1.12048 -3.77975,0.036 -3.77975,3.02381"
       id="path180"
       inkscape:connector-curvature="0" />
    <path
       style="fill:none;stroke:#000000;stroke-width:0.26458332px;stroke-linecap:butt;stroke-linejoin:miter;stroke-opacity:1"
       d="m 751.41666,-99.874997 c 1.11643,-3.441703 3.0666,-3.822543 5.29166,-6.047633 0.56314,-0.56311 1.08477,-2.59665 1.51191,-3.02379 0.35637,-0.35637 1.15554,0.35634 1.51191,0 0.35634,-0.35637 -0.35637,-1.15554 0,-1.51191 1.56409,-1.56408 -0.0611,2.39014 1.51191,-0.75597 0.58092,-1.16186 14.9932,-13.60712 15.11903,-13.60712 1.18121,0 0.93258,28.676731 1.51191,30.994031 1.51236,6.049433 -0.23619,12.378822 2.26785,17.386908 0.0775,0.155072 0.10663,2.161249 0,2.26785 -2.15355,2.153576 -24.07737,8.428566 -25.70237,6.803575 -0.30363,-0.30361 0.14251,-1.840309 0,-2.26785 -2.64633,-7.938981 -2.26787,-17.062926 -2.26787,-26.458333"
       id="path182"
       inkscape:connector-curvature="0" />
    <path
       style="fill:none;stroke:#000000;stroke-width:0.26458332px;stroke-linecap:butt;stroke-linejoin:miter;stroke-opacity:1"
       d="m 761.99999,-30.32739 c 4.17335,6.074251 8.81848,8.566997 15.875,12.095242 3.17013,1.585066 3.65038,-0.885349 7.55952,3.023817 0.37798,0.377984 1.88989,-0.377984 2.26787,0 0.50395,0.503952 1.00793,1.00793 1.51188,1.511908 0.29581,0.295805 0,23.5312215 0,25.702366 0,2.303357 2.8148,10.792354 2.26788,11.339301 -1.59803,1.598003 -11.81965,-1.992286 -12.09524,-2.267876 -2.26785,-2.26785 -11.3393,2.267876 -13.60715,0 -0.7661,-0.766101 0,-6.355715 0,-7.559517 0,-5.2213664 1.15554,-33.218701 0,-35.529757 -0.63619,-1.272382 -0.75594,-1.469284 -0.75594,-3.023817"
       id="path184"
       inkscape:connector-curvature="0" />
    <path
       style="fill:none;stroke:#000000;stroke-width:0.26458332px;stroke-linecap:butt;stroke-linejoin:miter;stroke-opacity:1"
       d="m 765.02381,58.119034 c 2.54285,4.669393 6.66445,6.734016 11.33927,9.071451 1.97004,0.985017 3.32163,2.794741 5.29167,3.779758 1.35543,0.677704 5.00401,-0.287655 6.04763,0.755941 2.72706,2.72706 8.44807,1.644518 10.58334,3.779758 1.00793,1.007957 -1.00796,5.039678 0,6.047634 1.35585,1.355857 2.26785,23.659304 2.26785,27.214274 0,1.97956 2.90705,13.72388 2.26784,14.36309 -0.35911,0.35912 -31.31859,-0.32454 -31.74999,-0.75594 -0.68244,-0.68247 -0.67877,-8.1611 -1.51191,-9.82739 -1.93416,-3.86832 -3.46567,-11.2808 -4.5357,-16.630943 -0.31544,-1.577207 -0.89223,-12.987443 -1.51191,-13.60715 -0.70382,-0.703791 -2.26785,-5.07992 -2.26785,-6.047607 0,-4.535726 0,-9.071425 0,-13.607151 0,-0.591926 -0.37722,-3.402568 0,-3.779758 0.0667,-0.0667 2.92005,0 0.75594,0"
       id="path186"
       inkscape:connector-curvature="0" />
    <path
       style="fill:none;stroke:#000000;stroke-width:0.26458332px;stroke-linecap:butt;stroke-linejoin:miter;stroke-opacity:1"
       d="m 771.82738,160.17261 c 1.72352,10.33581 3.02379,19.56006 3.02379,30.23809 0,13.41342 6.65113,28.27515 0.75597,40.06548 -0.81296,1.62592 0.34914,2.67467 -0.75597,3.77976 -2.18244,2.18244 7.11351,0 12.85121,0 5.5058,0 11.46564,-0.75594 17.38688,-0.75594 0.46133,0 2.72929,0.29453 3.02382,0 1.00793,-1.00793 -0.56943,-3.59325 -0.75594,-3.77976 -1.36993,-1.36993 -2.05584,-19.9867 -3.77976,-23.43454 -1.24701,-2.49399 -0.38182,-24.57225 -0.75597,-24.94643 -1.79908,-1.79908 -8.54445,-4.00872 -9.07142,-4.5357 -0.42037,-0.42037 -1.22023,-1.74405 -2.26785,-2.26787 -0.45643,-0.2282 -1.91841,0.34946 -2.26788,0 -3.13986,-3.13986 -7.33041,-5.81851 -9.82736,-8.31546 -0.88194,-0.88196 -0.62997,-2.89782 -1.51191,-3.77976 -1.03756,-1.03759 -2.26785,-0.8459 -2.26785,-3.02381"
       id="path188"
       inkscape:connector-curvature="0" />
    <path
       style="fill:none;stroke:#000000;stroke-width:0.26458332px;stroke-linecap:butt;stroke-linejoin:miter;stroke-opacity:1"
       d="m 870.85714,-641.1369 c 4.47442,3.52187 11.03043,2.26786 16.63094,2.26786 1.82901,0 10.24422,1.09507 11.3393,0 1.59292,-1.59292 18.00598,-3.77976 21.92261,-3.77976 0.83968,0 4.75713,-0.53454 5.29167,0 0.49762,0.49763 -4.14335,6.41121 -4.53573,6.80357 -1.0124,1.01241 -17.70309,17.26332 -18.14285,18.14286 -0.22537,0.45076 0.35637,1.15554 0,1.5119 -0.7456,0.74561 -2.4729,0.96099 -3.02382,1.5119 -0.37795,0.37798 0.37799,1.88989 0,2.26786 -0.14459,0.1446 -19.13673,-2.02993 -20.4107,-0.75595 -1.5119,1.5119 -6.80357,-0.75595 -8.31548,0.75595 -0.0756,0.0756 -0.57957,1.6883 -1.51191,0.75595 -0.29083,-0.29082 0.32734,-24.19047 -2.26785,-24.19047"
       id="path190"
       inkscape:connector-curvature="0" />
    <path
       style="fill:none;stroke:#000000;stroke-width:0.26458332px;stroke-linecap:butt;stroke-linejoin:miter;stroke-opacity:1"
       d="m 860.27381,-565.54166 c 0,11.0873 0,22.1746 0,33.2619 0,1.20379 -0.76613,6.79341 0,7.55953 0.25114,0.25114 16.20948,-2.26786 21.16666,-2.26786 2.21147,0 13.22785,1.13524 13.60713,0.75595 0.47953,-0.47951 -0.3147,-2.39441 0,-3.02381 2.1803,-4.36059 8.00026,-24.63121 9.07145,-25.70238 2.67933,-2.67933 3.93329,-8.01427 7.55951,-9.82738 0.80635,-0.40317 2.21745,0.40318 3.02382,0 1.02973,-0.51486 5.03637,-3.27909 4.5357,-3.77976 -1.07339,-1.07338 -8.89661,0 -10.58333,0 -1.86444,0 -23.97739,-0.21308 -24.19049,0 -1.89873,1.89873 -17.04321,3.77976 -20.4107,3.77976"
       id="path192"
       inkscape:connector-curvature="0" />
    <path
       style="fill:none;stroke:#000000;stroke-width:0.26458332px;stroke-linecap:butt;stroke-linejoin:miter;stroke-opacity:1"
       d="m 846.66666,-480.87499 c 2.24768,1.00706 0.38211,4.16186 1.5119,5.29166 2.0873,2.08731 4.33748,5.09342 6.04761,6.80357 0.91514,0.91514 0.7497,3.01754 1.51191,3.77977 4.36729,4.36729 7.39177,8.90366 11.3393,12.85119 0.6295,0.62951 1.02039,3.28825 1.51188,3.77976 0.77338,0.77337 2.10728,2.10727 3.02382,3.02381 0.35637,0.35636 -0.35637,1.15554 0,1.5119 0.45651,0.45651 3.81884,0 4.53573,0 2.34595,0 1.34403,0.16788 2.26785,-0.75595 0.56893,-0.56894 18.01032,0.29616 21.16666,-0.75595 2.13768,-0.71256 14.23988,0.87917 15.11906,0 0.25778,-0.2578 0,-25.46468 0,-27.97024 0,-0.83968 0.53454,-4.75713 0,-5.29167 -0.37798,-0.37797 -1.13395,-0.37797 -1.51191,-0.75595 -0.25151,-0.25151 -2.87126,0.0509 -3.02381,0 -6.12958,-2.04319 -36.82051,-0.22117 -40.06549,3.02381 -0.85188,0.8519 -8.76588,0.75595 -10.58333,0.75595 -1.3471,0 -6.43366,0 -5.29167,0"
       id="path194"
       inkscape:connector-curvature="0" />
    <path
       style="fill:none;stroke:#000000;stroke-width:0.26458332px;stroke-linecap:butt;stroke-linejoin:miter;stroke-opacity:1"
       d="m 854.98214,-390.91666 c 6.9999,-0.44339 13.42088,-1.51191 19.65476,-1.51191 2.98024,0 33.22664,-2.30312 34.01785,-1.51191 1.64658,1.64658 0.75596,20.49222 0.75596,24.19049 0,0.71689 0.45652,4.07918 0,4.5357 -0.0366,0.0366 -4.91738,-2.04179 -6.04763,-2.26785 -4.61767,-0.92353 -10.88393,0.98364 -14.36309,-0.75594 -3.93451,-1.96729 -15.62418,4.03058 -17.38691,2.26784 -1.14199,-1.14199 -2.06306,-3.85053 -3.02382,-5.29166 -1.07077,-1.60615 -4.61965,-4.61965 -6.80355,-6.80358 -0.35636,-0.35636 0.35635,-1.15554 0,-1.51191 -0.74562,-0.74559 -2.4729,-0.96096 -3.02381,-1.5119 -2.14752,-2.14749 -5.04082,-5.04082 -6.80358,-6.80355 -0.25199,-0.25199 -2.01586,-0.50398 -2.26785,-0.75597 -0.6042,-0.60418 -0.84042,-2.31008 -2.26787,-3.02382 -0.45641,-0.2282 -1.91839,0.34946 -2.26785,0 -0.83037,-0.83034 0.27765,-2.26785 -1.51191,-2.26785"
       id="path196"
       inkscape:connector-curvature="0" />
    <path
       style="fill:none;stroke:#000000;stroke-width:0.26458332px;stroke-linecap:butt;stroke-linejoin:miter;stroke-opacity:1"
       d="m 845.91071,-304.73809 c 7.30753,0 14.61509,0 21.92261,0 14.66218,0 27.37869,-1.5119 41.57739,-1.5119 1.13866,0 3.15947,-0.48464 3.77976,0.75594 0.77714,1.55432 -1.51191,20.09243 -1.51191,23.43454 0,0.83968 0.53454,4.75713 0,5.29167 -0.99152,0.99152 -24.59392,-1.31019 -27.2143,0 -2.56074,1.28037 -7.04326,0.49781 -9.07142,1.51188 -0.63027,0.31514 -2.8833,1.65243 -3.02379,1.51191 -2.29346,-2.29344 -3.16661,-6.19041 -6.04764,-9.07143 -0.35636,-0.35637 0.35637,-1.15554 0,-1.51191 -2.03787,-2.03787 -6.66964,-6.66964 -9.07142,-9.07142 -0.76221,-0.76221 -2.86462,-0.59677 -3.77976,-1.51191 -0.8196,-0.81957 -6.67808,-6.04761 -7.55952,-6.04761"
       id="path198"
       inkscape:connector-curvature="0" />
    <path
       style="fill:none;stroke:#000000;stroke-width:0.26458332px;stroke-linecap:butt;stroke-linejoin:miter;stroke-opacity:1"
       d="m 858.7619,-228.3869 c 0,5.29166 0,10.58333 0,15.875 0,4.29127 1.38274,18.40118 0,21.16666 -0.57462,1.14925 -1.51191,13.95463 -1.51191,15.11906 0,1.80269 -0.93305,3.77976 -0.75594,3.77976 2.0411,0 4.1379,-4.89387 5.29166,-6.04763 0.55436,-0.55436 3.22538,-1.7135 3.77976,-2.26785 0.35634,-0.35637 -0.35636,-1.15555 0,-1.51191 0.63119,-0.63119 3.76309,-1.49524 5.29167,-3.02382 1.17906,-1.17904 1.09715,-0.1706 2.26785,-0.75594 3.14608,-1.57305 -0.80814,0.0522 0.75594,-1.51191 0.77182,-0.77179 4.37105,-2.10317 4.53573,-2.26785 2.29613,-2.29613 5.3018,-4.54583 7.55951,-6.80357 0.84535,-0.84535 -0.75594,-18.75507 -0.75594,-20.41073 0,-1.25373 0.13862,-12.71257 0,-12.85118 -2.04211,-2.04208 -18.79161,2.16064 -19.65476,3.02381 -1.23819,1.2382 -6.38114,-1.30069 -6.80357,-1.5119 z"
       id="path200"
       inkscape:connector-curvature="0" />
    <path
       style="fill:none;stroke:#000000;stroke-width:0.26458332px;stroke-linecap:butt;stroke-linejoin:miter;stroke-opacity:1"
       d="m 859.51784,-128.60118 c 0.8305,-1.10982 4.71302,0.66728 6.04763,0 6.8775,-3.43876 25.42374,-0.61664 28.72619,-2.26788 0.31874,-0.15935 0.3996,-0.75594 0.75594,-0.75594 0.50397,0 0,1.00793 0,1.51191 0,1.76387 0,3.52777 0,5.29167 0,4.78769 0,9.57538 0,14.36309 0,5.55043 -0.35378,15.521199 2.26787,18.142849 0.13862,0.138616 0,11.597455 0,12.851183 0,1.203801 0.7661,6.793415 0,7.559543 -0.86138,0.861351 -7.85815,-8.842772 -9.82739,-9.827392 -1.75577,-0.877888 -2.93957,-2.225728 -4.5357,-3.023817 -1.27452,-0.637249 -2.87322,0.150627 -3.77978,-0.755941 -0.35634,-0.356368 0.35636,-1.155542 0,-1.511909 -0.57492,-0.57494 -4.94226,-1.1625 -5.29167,-1.511909 -0.98671,-0.986737 -2.07354,-2.170694 -3.77976,-3.02379 -1.2745,-0.637276 -2.87319,0.150601 -3.77976,-0.755968 -0.62994,-0.629946 -0.88193,-1.637903 -1.5119,-2.267849 -4.25982,-4.259818 -0.71782,-27.1571 -5.29167,-34.01785 z"
       id="path202"
       inkscape:connector-curvature="0" />
    <path
       style="fill:none;stroke:#000000;stroke-width:0.26458332px;stroke-linecap:butt;stroke-linejoin:miter;stroke-opacity:1"
       d="m 945.69641,-133.1369 c 1.40687,2.40045 20.17096,0.51617 21.16667,1.5119 2.42549,2.42547 2.35201,22.09091 4.53572,26.45834 0.76171,1.52341 -0.309,5.258511 0,6.803572 0.27062,1.353052 4.41008,16.630941 3.0238,16.630941 -0.50396,0 0.35636,-1.155542 0,-1.511909 -1.51321,-1.513205 -3.15339,-3.909351 -4.5357,-5.291667 -4.01524,-4.01521 -7.65673,-7.656724 -11.3393,-11.339274 -0.35635,-0.356363 0.22539,-1.061133 0,-1.511913 -0.90342,-1.80686 -6.53159,-5.01967 -7.55952,-6.0476 -1.69781,-1.69783 -2.26785,-19.704 -2.26785,-21.16667"
       id="path204"
       inkscape:connector-curvature="0" />
    <path
       style="fill:none;stroke:#000000;stroke-width:0.26458332px;stroke-linecap:butt;stroke-linejoin:miter;stroke-opacity:1"
       d="m 865.56547,-34.863089 c 1.00793,0.755941 2.03997,1.480793 3.02379,2.26785 4.77504,3.820027 9.57345,5.164693 14.36312,7.559516 1.94098,0.970518 10.2721,0.444738 12.09522,2.267876 0.75596,0.755941 3.77978,-0.755968 4.53572,0 0.90951,0.909478 0,8.541781 0,9.827365 0,4.6013691 0.24445,25.435348 1.51191,27.970242 0.46419,0.92837 2.47653,23.225839 1.51191,24.190483 -0.0222,0.02196 -9.4469,-3.023817 -12.85121,-3.023817 -6.2996,0 -12.59919,0 -18.89879,0 -0.77819,0 -0.94866,1.319213 -1.51191,0.755941 -1.2084,-1.208378 0,-10.220166 0,-12.095215 0,-4.230264 -2.68113,-41.990671 -3.77976,-43.0893 -1.00795,-1.00793 1.00793,-5.039678 0,-6.047608 -1.70566,-1.705663 -3.02381,-8.386709 -3.02381,-11.339301"
       id="path206"
       inkscape:connector-curvature="0" />
    <path
       style="fill:none;stroke:#000000;stroke-width:0.26458332px;stroke-linecap:butt;stroke-linejoin:miter;stroke-opacity:1"
       d="m 916.97023,2.9345182 c 5.67693,-0.2114285 19.00232,2.9720645 24.94642,0 1.61269,-0.8063442 4.43492,0.8063441 6.04761,0 1.25061,-0.6252898 10.04094,-2.05430436 11.3393,-0.755941 0.97348,0.9734814 0.20405,2.6759428 0.75594,3.779758 0.84331,1.68656 3.85766,9.9052588 4.53573,10.5833328 1.56408,1.564085 -0.0611,-2.39014 1.51191,0.755941 0.93093,1.861873 -2.19435,-0.682413 0.75594,2.267876 0.37515,0.375127 3.15555,3.467656 3.77976,3.779759 0.45815,0.229076 1.95109,0.439181 2.26787,0.755941 0.35634,0.356367 -0.35636,1.155541 0,1.511908 0.62871,0.628703 2.10008,2.100104 3.02379,3.023817 0.11782,0.117793 2.14024,0.883576 1.51191,1.511909 -0.75141,0.751416 -24.11574,-3.817144 -28.72618,-1.511909 -5.23555,2.617761 -14.44763,0.04225 -20.41073,3.023791 -0.64058,0.320304 -3.64339,1.648301 -4.53569,0.755967 -2.27256,-2.272559 -3.02382,-20.235756 -3.02382,-24.9464242"
       id="path208"
       inkscape:connector-curvature="0" />
    <path
       style="fill:none;stroke:#000000;stroke-width:0.26458332px;stroke-linecap:butt;stroke-linejoin:miter;stroke-opacity:1"
       d="m 873.88093,106.5 c 3.17079,3.81069 31.7849,3.05869 32.50597,3.77976 0.37719,0.37719 0,3.18783 0,3.77976 0,5.05346 -0.46022,9.6629 1.51191,13.60715 1.11167,2.22337 0.076,5.5196 0.75594,7.55951 0.54771,1.64317 1.57197,3.14397 2.26785,4.53573 0.7307,1.46135 0.64473,6.58111 1.5119,8.31546 0.0984,0.19682 1.34692,0.92096 0.75597,1.5119 -1.38591,1.38592 -6.92957,-1.38591 -8.31548,0 -3.47078,3.47078 -9.83118,4.53764 -14.36309,6.80358 -1.4691,0.73456 -1.88243,2.45314 -3.02382,3.02382 -1.86187,0.93093 0.68244,-2.19433 -2.26785,0.75594 -0.43815,0.43815 -1.07376,2.58566 -1.51191,3.02381 -0.57142,0.57143 -1.51191,0.32796 -1.51191,1.51191 0,3.97971 -2.26785,6.50201 -2.26785,10.58334 0,0.91908 -0.0509,7.50858 -0.75596,6.80357 -1.23561,-1.23563 -0.75594,-24.5328 -0.75594,-27.97024 0,-11.82164 -2.26785,-22.85947 -2.26785,-34.77382"
       id="path210"
       inkscape:connector-curvature="0" />
    <path
       style="fill:none;stroke:#000000;stroke-width:0.26458332px;stroke-linecap:butt;stroke-linejoin:miter;stroke-opacity:1"
       d="m 935.86905,111.79167 c 1.42372,1.13559 21.79121,0.62455 21.9226,0.75594 0.59982,0.59984 3.44091,12.6688 3.77976,14.36309 0.10634,0.53171 -0.47794,4.33578 0,5.29167 0.46212,0.92424 2.46944,5.84607 2.26785,6.04763 -0.68842,0.68842 -5.23356,1.48286 -6.80355,2.26785 -1.3961,0.69805 -2.34071,3.09666 -3.02381,3.77976 -0.35637,0.35637 -1.15554,-0.35634 -1.51191,0 -3.12312,3.12311 -5.64558,4.88963 -9.07143,8.31548 -2.40472,2.40472 -4.17615,5.68807 -6.80357,8.31549 -0.34071,0.34067 -0.1742,2.26784 -0.75594,2.26784 -0.25199,0 0,-0.50397 0,-0.75594 0,-3.3782 0.29416,-6.67705 -0.75597,-9.82739 -1.51191,-4.53572 1.51191,-10.58333 0,-15.11906 -1.91548,-5.7464 -0.75594,-13.48002 -0.75594,-19.65476"
       id="path212"
       inkscape:connector-curvature="0" />
    <path
       style="fill:none;stroke:#000000;stroke-width:0.26458332px;stroke-linecap:butt;stroke-linejoin:miter;stroke-opacity:1"
       d="m 886.73214,217.625 c 4.14258,1.38896 27.6915,-2.54659 28.72618,-1.51191 0.72964,0.72964 0.75594,16.45886 0.75594,18.89882 0,0.94088 2.03536,7.03606 1.51191,7.55951 -1.1838,1.18383 -4.91987,2.83792 -6.80357,3.77976 -1.04177,0.52089 -1.01696,1.77292 -1.51189,2.26785 -1.22901,1.22902 -5.21806,2.95018 -6.80357,4.53573 -1.82896,1.82893 -4.16057,4.91651 -6.04764,6.80357 -0.50395,0.50395 0.50398,2.51984 0,3.02382 -1.59943,1.59943 -2.83329,3.2082 -3.77975,6.04761 -0.74944,2.24832 -2.26785,4.34403 -2.26785,3.77975 0,-0.25198 0.75594,0.25199 0.75594,0 0,-1.43734 -2.39681,-4.66468 -3.02379,-5.29166 -0.47953,-0.47951 0.31469,-2.3944 0,-3.02382 -2.53564,-5.07121 -1.99337,-10.79026 -4.53573,-15.875 -1.6057,-3.21138 -1.51191,-27.38964 -1.51191,-33.26188"
       id="path214"
       inkscape:connector-curvature="0" />
  </g>
</svg>
