<?xml version="1.0" encoding="UTF-8" standalone="no"?>
<!-- Created with Inkscape (http://www.inkscape.org/) -->

<svg
   xmlns:dc="http://purl.org/dc/elements/1.1/"
   xmlns:cc="http://creativecommons.org/ns#"
   xmlns:rdf="http://www.w3.org/1999/02/22-rdf-syntax-ns#"
   xmlns:svg="http://www.w3.org/2000/svg"
   xmlns="http://www.w3.org/2000/svg"
   xmlns:sodipodi="http://sodipodi.sourceforge.net/DTD/sodipodi-0.dtd"
   xmlns:inkscape="http://www.inkscape.org/namespaces/inkscape"
   width="210mm"
   height="297mm"
   viewBox="0 0 210 297"
   version="1.1"
   id="svg8"
   sodipodi:docname="zx2.svg"
   inkscape:version="0.92.1 r15371">
  <defs
     id="defs2" />
  <sodipodi:namedview
     id="base"
     pagecolor="#ffffff"
     bordercolor="#666666"
     borderopacity="1.0"
     inkscape:pageopacity="0.0"
     inkscape:pageshadow="2"
     inkscape:zoom="0.7"
     inkscape:cx="286.0879"
     inkscape:cy="498.60502"
     inkscape:document-units="mm"
     inkscape:current-layer="layer1"
     showgrid="false"
     objecttolerance="1"
     inkscape:snap-path-clip="false"
     inkscape:window-width="1366"
     inkscape:window-height="706"
     inkscape:window-x="-8"
     inkscape:window-y="-8"
     inkscape:window-maximized="1" />
  <metadata
     id="metadata5">
    <rdf:RDF>
      <cc:Work
         rdf:about="">
        <dc:format>image/svg+xml</dc:format>
        <dc:type
           rdf:resource="http://purl.org/dc/dcmitype/StillImage" />
        <dc:title />
      </cc:Work>
    </rdf:RDF>
  </metadata>
  <g
     inkscape:label="Layer 1"
     inkscape:groupmode="layer"
     id="layer1">
    <path
       style="fill:none;stroke:#000000;stroke-width:0.26458332px;stroke-linecap:butt;stroke-linejoin:miter;stroke-opacity:1"
       d="m 69.925593,60.008928 c 12.473215,0 24.94643,0 37.419647,0"
       id="path4497"
       inkscape:connector-curvature="0" />
    <path
       style="fill:none;stroke:#000000;stroke-width:0.26458332px;stroke-linecap:butt;stroke-linejoin:miter;stroke-opacity:1"
       d="m 69.169642,64.166667 c 0.374523,1.589231 1.022186,3.668017 1.889881,4.535713 0.213212,0.213211 -0.100692,1.209831 0,1.511905 0.981395,2.944186 2.731633,13.143368 0.755952,15.119049 -0.188987,0.188986 0.188989,0.944938 0,1.133927 -0.440973,0.440973 0.063,1.826884 -0.377976,2.267857 -0.103164,0.103164 -1.820357,1.581428 -1.511906,1.889882 0.510339,0.510336 6.478929,-0.377978 7.181549,-0.377978 6.41025,0 13.038325,-0.377976 19.654763,-0.377976 1.398278,0 6.906765,-0.515366 7.937495,0 1.83224,0.916117 9.08416,0.755954 11.71727,0.755954 0.88767,0 5.45883,0.588785 6.04761,0 0.67371,-0.673703 2.86511,-0.377978 4.15774,-0.377978"
       id="path4499"
       inkscape:connector-curvature="0" />
    <path
       style="fill:none;stroke:#000000;stroke-width:0.26458332px;stroke-linecap:butt;stroke-linejoin:miter;stroke-opacity:1"
       d="m 109.23512,61.89881 c 1.10168,2.548458 2.65505,5.678863 4.91369,7.9375 0.59164,0.591634 1.11444,2.228876 1.5119,3.023809 0.5426,1.085186 2.99755,3.753498 3.40179,4.157736 0.26727,0.267272 -0.16904,0.795856 0,1.13393 0.13802,0.276051 0.88244,0.252987 1.13393,0.755952 0.36671,0.733417 1.01655,2.15048 1.5119,2.645833 0.95243,0.952429 3.77976,3.355094 3.77976,4.913691"
       id="path4501"
       inkscape:connector-curvature="0" />
    <path
       style="fill:none;stroke:#000000;stroke-width:0.26458332px;stroke-linecap:butt;stroke-linejoin:miter;stroke-opacity:1"
       d="m 91.470238,55.473213 c 0.397007,-5.640324 -0.05771,-12.357804 2.267855,-17.008927 0.251986,-0.503968 -0.251984,-1.385914 0,-1.889882 1.564476,-3.128946 3.156611,-5.424466 5.669645,-7.9375 0.488945,-0.488945 1.743752,-0.609822 2.267852,-1.133927 0.3092,-0.3092 0.7207,-1.098672 1.13393,-1.511906 0.0159,-0.01588 2.6423,-0.752414 2.64584,-0.755952 0.21168,-0.211681 0.21715,-0.576355 0.75595,-0.755953 0.50234,-0.167448 1.40997,0.239957 1.88988,0 0.82946,-0.414731 2.22647,-0.714562 2.64583,-1.133928 0.31498,-0.31498 1.5749,0.31498 1.88988,0 0.62245,-0.622447 8.89665,-1.318182 10.58334,-0.755953 2.37585,0.791952 4.21762,0.994716 6.80357,1.511905 1.04517,0.209034 1.46701,0.733505 2.26785,1.133929 0.57634,0.288168 3.51955,0.495738 3.77977,0.755952 0.85519,0.855191 1.80364,1.206862 3.02381,1.511906 0.18994,0.04748 4.07349,2.715662 4.53571,3.023809 0.46052,0.307012 1.94185,0.429948 2.26786,0.755952 0.31498,0.314981 0.44097,0.818948 0.75595,1.13393 0.18899,0.188986 0.94494,-0.18899 1.13393,0 0.3326,0.332602 0.49844,1.133927 1.13393,1.133927"
       id="path4503"
       inkscape:connector-curvature="0" />
    <path
       style="fill:none;stroke:#000000;stroke-width:0.26458332px;stroke-linecap:butt;stroke-linejoin:miter;stroke-opacity:1"
       d="m 95.249999,92.892855 c 0.103298,8.603325 0.377976,17.074995 0.377976,25.702385"
       id="path4505"
       inkscape:connector-curvature="0" />
    <path
       style="fill:none;stroke:#000000;stroke-width:0.26458332px;stroke-linecap:butt;stroke-linejoin:miter;stroke-opacity:1"
       d="m 85.800593,123.13095 c 0.377978,-0.50397 0.68848,-1.06645 1.13393,-1.5119 0.503968,-0.50397 2.141866,0.12599 2.645833,-0.37798 0.552548,-0.55255 1.076918,0.0285 1.889882,-0.37798 2.70228,-1.35114 8.513498,-0.70644 11.339282,0 0.012,0.003 2.10268,-0.16517 2.26786,0 1.09108,1.09108 2.92668,2.54871 4.15774,3.77976 0.28173,0.28173 0.0963,0.85221 0.37797,1.13393 0.56715,0.56715 1.42291,1.80088 2.26786,2.64584 0.40579,0.40578 1.05928,3.32713 1.88988,4.15773 0.38306,0.38306 0,3.17788 0,3.77977 0,0.48074 0.306,2.71781 0,3.02381 -0.92654,0.92653 -1.54069,3.08138 -2.26786,4.53571 -0.39934,0.7987 -2.00604,5.40783 -2.26785,5.66964 -0.86746,0.86746 -2.74232,2.36434 -3.40179,3.02381 -0.159,0.15901 -1.37346,-0.0692 -1.5119,0 -0.31119,0.1556 -1.60154,0.98976 -1.88988,1.13393 -0.9028,0.4514 -6.648543,0.45549 -7.559527,0 -0.440296,-0.22015 -0.693634,-0.5358 -1.13393,-0.75595 -0.503968,-0.25198 -1.385911,0.25198 -1.889879,0 -1.016389,-0.50819 -1.9948,-0.9974 -3.023809,-1.5119 -0.228214,-0.11411 -0.959205,0.17472 -1.13393,0 -0.365768,-0.36577 -0.110988,-0.59995 -0.377976,-1.13393 -0.296622,-0.59325 -1.257192,-0.36979 -1.511906,-1.13393 -0.07969,-0.23906 0.112691,-0.53057 0,-0.75596 -0.178178,-0.35636 -0.852202,-0.0962 -1.133927,-0.37797 -0.08909,-0.0891 0,-0.25199 0,-0.37798 -0.125992,-0.25198 -0.178766,-0.55674 -0.377976,-0.75595 -1.792928,-1.79293 -2.397414,-2.52697 -3.401785,-4.53571 -0.514834,-1.02967 0.13988,-2.74405 -0.377979,-3.77976 -0.68984,-1.37969 -1.133927,-2.24046 -1.133927,-3.77977 0,-3.73477 0.502727,-6.55034 2.267857,-8.31547 0.247793,-0.2478 0.188609,-1.32254 0.377976,-1.51191 0.315,-0.315 1.889882,-0.42028 1.889882,-1.13393"
       id="path4507"
       inkscape:connector-curvature="0" />
    <path
       style="fill:none;stroke:#000000;stroke-width:0.26458332px;stroke-linecap:butt;stroke-linejoin:miter;stroke-opacity:1"
       d="m 110.74702,152.23512 c 0.99211,2.18279 2.41972,2.04173 3.77976,3.40178 0.26728,0.26727 0.77535,-0.11952 1.13393,0 1.04689,0.34896 1.94957,1.15383 3.02381,1.51191 0.42828,0.14275 1.11138,-0.20027 1.51191,0 1.48437,0.74218 3.47511,0.79261 4.91369,1.5119 1.05121,0.52561 10.68257,0 12.47321,0 3.36171,0 5.87819,0.0847 8.31548,-1.13393 0.22821,-0.1141 0.9592,0.17473 1.13393,0 1.63978,-1.63978 4.29928,-3.54332 5.66964,-4.91369 1.59414,-1.59413 2.47827,-3.44464 3.40178,-5.29166 0.1127,-0.22539 0.57778,0.17818 0.75596,0 0.47674,-0.47675 0.53827,-1.6722 1.13393,-2.26786 0.24777,-0.24777 1.17932,-0.80135 1.5119,-1.13393 0.17473,-0.17472 -0.1141,-0.90571 0,-1.13393 0.31085,-0.62169 1.115,-0.7181 1.51191,-1.5119 0.29992,-0.59985 0.25286,-1.76477 0.75595,-2.26786 0.78204,-0.78205 -0.0306,1.19507 0.75595,-0.37797 2.36455,-4.7291 4.28827,-10.46643 6.4256,-14.74108 0.20072,-0.40144 -0.1112,-1.06714 0,-1.5119 0.44401,-1.77606 1.32648,-5.48422 2.26785,-6.4256 0.23244,-0.23244 -0.0285,-3.25932 0,-3.40178 0.29874,-1.49367 0.78614,-4.97406 1.51191,-6.4256 0.6028,-1.20561 -0.93685,-5.11077 0,-6.04762 0.57848,-0.578479 0.68551,-17.52779 0,-18.898806 -0.87641,-1.752819 0.51781,-6.145911 -0.37798,-7.9375 -0.472,-0.943993 -1.32855,-6.242245 -1.5119,-6.425594 -0.83639,-0.83639 -0.8219,-2.021765 -1.51191,-3.401787 -0.41296,-0.825915 -1.33656,-2.295147 -1.88988,-3.401785 -0.22679,-0.453573 -0.90714,-0.680358 -1.13393,-1.133927 -1.16923,-2.338459 -1.88443,-4.530265 -3.40178,-6.047621 -0.25199,-0.251984 0.25198,-1.25992 0,-1.511904 -1.96651,-1.966507 -1.49894,-6.790607 -3.40179,-8.693454 -0.10035,-0.100353 -0.55577,-4.335528 -1.5119,-5.291666 -0.18899,-0.188987 0.18898,-0.944938 0,-1.133928 -0.81895,-0.818949 -3.71677,0.440973 -4.53572,-0.377976 -0.48201,-0.482012 -0.98229,-1.511905 -1.88988,-1.511905"
       id="path4509"
       inkscape:connector-curvature="0" />
    <path
       style="fill:none;stroke:#000000;stroke-width:0.26458332px;stroke-linecap:butt;stroke-linejoin:miter;stroke-opacity:1"
       d="m 92.22619,155.6369 c 1.654281,7.80555 0.948647,19.26937 -2.267858,25.70238 -0.31778,0.63556 -0.06501,1.64194 -0.377976,2.26786 -0.539715,1.07943 -0.973068,2.32411 -1.511905,3.40179 -0.415671,0.83134 0.04911,2.16962 -0.377976,3.02381 -0.5451,1.0902 -0.950542,2.08446 -1.511904,2.64583 -0.377978,0.37797 0,1.5119 -0.377978,1.88988 -0.270153,0.27015 -1.133927,1.0844 -1.133927,1.5119"
       id="path4511"
       inkscape:connector-curvature="0" />
    <path
       style="fill:none;stroke:#000000;stroke-width:0.26458332px;stroke-linecap:butt;stroke-linejoin:miter;stroke-opacity:1"
       d="m 85.800593,199.10417 c 2.119556,0.94266 4.080883,2.41841 6.047621,3.40178 0.586163,0.29308 0.764786,-0.1201 1.511903,0.37798 0.234413,0.15627 0.125992,0.62996 0.377976,0.75595 1.478836,0.73942 3.028286,1.51414 4.535715,2.26786 0.807527,0.40376 0.401965,1.15792 0.755952,1.5119 0.329067,0.32907 1.13433,0.56757 1.51191,1.13393 2.9567,4.43505 3.0238,9.83708 3.0238,15.11905 0,3.8206 -0.34962,7.90915 -3.0238,10.58333 -0.126,0.12599 -1.00794,0.25198 -1.133932,0.37798 -2.772397,2.77239 -7.935661,2.64583 -12.095239,2.64583 -2.720552,0 -6.893497,0.28805 -8.315476,-1.13393 -0.178181,-0.17818 -0.577773,0.17818 -0.755951,0 -0.386599,-0.3866 -0.481129,-0.80753 -1.13393,-1.13393 -0.225381,-0.11269 -0.577774,0.17818 -0.755952,0 -0.188989,-0.18898 0.188986,-0.94494 0,-1.13393 -1.354892,-1.35489 -1.883198,-4.15105 -3.023809,-5.29166 -0.239755,-0.23976 0.157347,-1.19721 0,-1.51191 -0.624382,-1.24876 -1.426634,-2.39001 -1.889882,-3.77976 -0.151191,-0.45357 0.151191,-1.05833 0,-1.5119 -0.855403,-2.56621 -2.032468,-11.1967 -0.377976,-12.8512 0.239755,-0.23975 -0.15735,-1.1972 0,-1.5119 0.481695,-0.96339 1.317329,-1.50073 1.889882,-2.64583 0.112689,-0.22538 -0.178181,-0.57778 0,-0.75596 0.357322,-0.35732 1.1957,-0.81772 1.511903,-1.13392 0.127463,-0.12747 -0.12746,-0.6285 0,-0.75596 0.251984,-0.25198 0.881944,-0.12599 1.13393,-0.37797 0.503968,-0.50397 1.007936,-1.00794 1.511904,-1.51191 0.165068,-0.16507 1.816581,-0.30467 2.267857,-0.75595 0.60484,-0.60484 2.837606,0.37798 3.023809,0.37798"
       id="path4513"
       inkscape:connector-curvature="0" />
    <path
       style="fill:none;stroke:#000000;stroke-width:0.26458332px;stroke-linecap:butt;stroke-linejoin:miter;stroke-opacity:1"
       d="m 137.58333,202.88393 c 1.2955,7.51508 2.64583,15.86745 2.64583,24.19047 0,0.45892 -0.0326,6.39298 0,6.4256 0.51632,0.51631 3.10822,-0.75596 3.77977,-0.75596 3.17056,0 18.02167,-2.01106 19.27678,-0.75595 0.76234,0.76234 3.92449,-0.4946 4.91369,0 1.61357,0.80679 12.36833,0.27309 12.85119,0.75595 0.12546,0.12547 2.1105,0.91331 2.64584,0.37798 0.51948,-0.51948 -1.13393,-1.15523 -1.13393,-1.88988 0,-0.47206 -7.69617,-9.27639 -8.31548,-10.20536 -0.13977,-0.20966 0.15119,-0.55436 0,-0.75595 -1.00764,-1.34352 -1.15447,-0.0822 -1.5119,-1.5119 -0.19961,-0.79842 0.33585,-0.79808 -0.37798,-1.51191 -0.32122,-0.32122 -0.86137,-0.39254 -1.13393,-0.75595 -0.46143,-0.61525 -0.51846,-2.20319 -1.13393,-3.02381 -1.25807,-1.67743 -3.10598,-3.64832 -3.77976,-5.66964 -0.36754,-1.10263 -3.54517,-8.83685 -3.77976,-9.07143 -0.5483,-0.5483 -3.42423,0.25946 -3.77976,0.37798 -1.61673,0.5389 -4.16016,-0.75475 -5.66964,0 -0.94126,0.47062 -12.11498,1.5119 -13.98512,1.5119"
       id="path4529"
       inkscape:connector-curvature="0" />
    <path
       style="fill:none;stroke:#000000;stroke-width:0.26458332px;stroke-linecap:butt;stroke-linejoin:miter;stroke-opacity:1"
       d="m 103.56547,218.38095 c 0.5007,1.13998 2.96074,2.51967 3.40179,3.40179 0.11454,0.22907 0.21959,0.97554 0.37798,1.13393 0.24747,0.24747 0.87348,0.23506 1.13393,0.75595 3.74339,7.48678 5.5336,16.49491 11.71726,22.67857 1.737,1.737 2.04333,4.04547 4.53571,5.29166 6.18361,3.09181 10.25908,3.40179 18.14286,3.40179 7.13557,0 11.77405,-0.81274 15.875,-4.91369 0.17818,-0.17818 -0.17818,-0.57777 0,-0.75595 0.31498,-0.31498 0.81895,-0.44097 1.13393,-0.75596 0.7287,-0.7287 0.27236,-2.54022 0.75595,-3.02381 0.45373,-0.45373 0.62154,-6.56 0,-7.18154 -0.62996,-0.62996 -0.88195,-1.6379 -1.51191,-2.26786 -0.76422,-0.76422 0.48746,-2.64583 -1.5119,-2.64583"
       id="path4531"
       inkscape:connector-curvature="0" />
    <path
       style="fill:none;stroke:#000000;stroke-width:0.26458332px;stroke-linecap:butt;stroke-linejoin:miter;stroke-opacity:1"
       d="m 97.895832,203.2619 c 3.511858,-2.84101 4.974638,-6.21424 8.693448,-8.69345 0.60586,-0.4039 0.59011,-1.24 1.13393,-1.51191 0.93094,-0.46546 -0.34121,1.09717 1.13393,-0.37797 0.36759,-0.36759 3.07155,-3.23667 3.40179,-3.40179 0.22538,-0.11269 0.57777,0.17818 0.75595,0 0.32191,-0.3219 0.51768,-1.20378 1.13393,-1.5119 0.65697,-0.32849 1.59755,-0.46363 2.26786,-1.13393 0.12683,-0.12683 -0.12684,-0.62912 0,-0.75595 0.17818,-0.17818 0.53057,0.11269 0.75595,0 1.44867,-0.72434 2.08387,-1.7059 3.02381,-2.64583 0.50792,-0.50793 1.65352,-0.44879 2.26785,-0.75596 0.78087,-0.39043 1.35392,-1.20726 2.26786,-1.5119 0.34018,-0.11339 0.79375,0.11339 1.13393,0 1.32469,-0.44157 2.28292,-0.95248 3.40179,-1.51191 0.40317,-0.20158 1.10872,0.20159 1.5119,0 3.16643,-1.58321 7.48383,-1.88988 11.33929,-1.88988 1.47645,0 7.25011,-0.53268 8.31547,0 0.55536,0.27768 1.59434,0.46041 1.88988,0.75595 0.78205,0.78205 -1.19507,-0.0306 0.37798,0.75596 0.22821,0.1141 0.9592,-0.17473 1.13393,0 0.17818,0.17817 -0.17818,0.57777 0,0.75595 0.5361,0.5361 1.41169,1.03372 1.88988,1.5119 0.1102,0.1102 0.31246,1.31536 0.37797,1.51191 0.26013,0.78038 0.81546,0.87495 1.13393,1.5119 0.23996,0.47992 -0.16744,1.38754 0,1.88988 0.24602,0.73807 0.78156,1.56311 1.13393,2.26786 0.2031,0.4062 0.34008,4.95159 0,5.29167 -0.39683,0.39683 -0.4222,0.13268 -0.75595,1.13393 -0.15092,0.45274 -0.0404,1.17436 -0.37798,1.5119 -0.99806,0.99807 -1.8846,1.12865 -3.02381,2.26786"
       id="path4533"
       inkscape:connector-curvature="0" />
  </g>
</svg>
