<?xml version="1.0" encoding="UTF-8" standalone="no"?>
<!-- Created with Inkscape (http://www.inkscape.org/) -->

<svg
   xmlns:dc="http://purl.org/dc/elements/1.1/"
   xmlns:cc="http://creativecommons.org/ns#"
   xmlns:rdf="http://www.w3.org/1999/02/22-rdf-syntax-ns#"
   xmlns:svg="http://www.w3.org/2000/svg"
   xmlns="http://www.w3.org/2000/svg"
   xmlns:sodipodi="http://sodipodi.sourceforge.net/DTD/sodipodi-0.dtd"
   xmlns:inkscape="http://www.inkscape.org/namespaces/inkscape"
   width="1000mm"
   height="1000mm"
   viewBox="0 0 1000 1000"
   version="1.1"
   id="svg8"
   inkscape:version="0.92.1 r15371"
   sodipodi:docname="circle1.svg">
  <defs
     id="defs2" />
  <sodipodi:namedview
     id="base"
     pagecolor="#ffffff"
     bordercolor="#666666"
     borderopacity="1.0"
     inkscape:pageopacity="0.0"
     inkscape:pageshadow="2"
     inkscape:zoom="0.24748737"
     inkscape:cx="3099.889"
     inkscape:cy="1533.6188"
     inkscape:document-units="mm"
     inkscape:current-layer="layer1"
     showgrid="false"
     objecttolerance="1"
     inkscape:window-width="1366"
     inkscape:window-height="706"
     inkscape:window-x="-8"
     inkscape:window-y="-8"
     inkscape:window-maximized="1" />
  <metadata
     id="metadata5">
    <rdf:RDF>
      <cc:Work
         rdf:about="">
        <dc:format>image/svg+xml</dc:format>
        <dc:type
           rdf:resource="http://purl.org/dc/dcmitype/StillImage" />
        <dc:title></dc:title>
      </cc:Work>
    </rdf:RDF>
  </metadata>
  <g
     inkscape:label="Layer 1"
     inkscape:groupmode="layer"
     id="layer1"
     transform="translate(0,703)">
    <path
       style="fill:none;stroke:#000000;stroke-width:0.26458332px;stroke-linecap:butt;stroke-linejoin:miter;stroke-opacity:1"
       d="m 235.19718,-579.64404 c 6.23519,4.13111 15.3302,9.27883 18.17433,14.96709 1.12909,2.25818 5.43903,4.36995 7.48354,6.41447 0.53561,0.53561 0.36822,3.57544 1.06908,4.27631 0.69997,0.69996 2.47059,0.66486 3.20723,2.13816 0.58174,1.16347 0.14801,4.42431 1.06908,5.34539 2.12656,2.12655 3.00169,5.79786 4.27632,9.6217 1.99348,5.98045 0.51562,23.00409 -2.13815,25.65787 -1.16027,1.16026 -0.28085,5.90706 -1.0691,7.48355 -1.67185,3.34375 -5.33795,12.82151 -7.48353,14.9671 -2.91346,2.91345 -7.63009,7.63009 -9.62171,9.6217 -0.44799,0.44799 -2.5593,0.74511 -3.20723,1.06908 -3.40926,1.70462 -6.99918,3.79194 -8.55262,5.34539 -0.71272,0.71271 -3.5636,-0.71272 -4.27632,0 -5.25259,5.25259 -33.14462,6.41126 -38.48681,1.06907 -0.4942,-0.49419 -2.56175,0.32275 -3.20723,0 -1.4733,-0.73665 -1.4382,-2.50727 -2.13816,-3.20723 -1.70766,-1.70766 -7.17735,-5.19229 -9.6217,-6.41447 -1.28642,-0.64321 -2.70815,-4.02677 -3.20724,-4.27631 -0.63747,-0.31874 -1.46201,0.22538 -2.13815,0 -2.43883,-0.81294 -2.49029,-4.45238 -4.27631,-5.34539 -1.10273,-0.55136 -2.45266,-0.62901 -3.20724,-2.13816 -2.51398,-5.02797 -3.06218,-10.40067 -5.34539,-14.96709 -0.92413,-1.84827 -2.01815,-44.19222 -1.06908,-47.03944 1.26508,-3.79525 2.33062,-7.67601 4.27632,-9.6217 0.67813,-0.67813 -0.44505,-3.38621 0,-4.27631 2.36126,-4.72254 12.65957,-15.95149 17.10524,-18.17433 3.17669,-1.58834 24.97123,-4.0851 28.86511,-2.13816 4.87731,2.43866 11.2784,4.27632 17.10525,4.27632"
       id="path4487"
       inkscape:connector-curvature="0" />
    <path
       style="fill:none;stroke:#000000;stroke-width:0.26458332px;stroke-linecap:butt;stroke-linejoin:miter;stroke-opacity:1"
       d="m 184.95051,-376.5192 c 17.10448,-2.80053 28.32733,3.73854 38.48681,13.89801 15.12298,15.12297 20.69241,61.81656 -3.20723,73.76639 -0.71272,0.35636 -0.35636,1.78181 -1.06908,2.13815 -0.95621,0.4781 -2.25102,-0.47811 -3.20723,0 -2.6517,1.32585 -8.33636,4.06005 -9.62171,5.3454 -1.38351,1.38351 -39.96584,0.96658 -43.8322,0 -1.58791,-0.39698 -26.56224,-5.18067 -26.72695,-5.3454 -1.19481,-1.19481 -4.15059,-3.0815 -5.34539,-4.27631 -0.53454,-0.53453 -2.6727,0.53454 -3.20724,0 -3.52176,-3.52176 -7.3236,-9.46176 -10.69078,-12.82893 -0.74071,-0.74072 -0.32836,-4.60467 -1.06908,-5.3454 -3.99371,-3.99373 -3.20723,-11.55705 -3.20723,-18.17433 0,-10.47655 0.98084,-19.15515 7.48355,-25.65787 2.39506,-2.39506 2.97266,-7.24897 5.34539,-9.6217 6.79553,-6.79553 13.93433,-10.70893 22.45064,-14.96708 4.25593,-2.12797 26.08866,0 32.07234,0"
       id="path4489"
       inkscape:connector-curvature="0" />
    <path
       style="fill:none;stroke:#000000;stroke-width:0.26458332px;stroke-linecap:butt;stroke-linejoin:miter;stroke-opacity:1"
       d="m 158.22356,-236.46998 c 19.72284,1.03556 30.39407,13.7487 37.41773,27.79604 0.57018,1.14036 -0.57017,3.13595 0,4.2763 3.29594,6.59189 3.20724,14.70137 3.20724,23.51972 0,3.38854 -1.20008,17.23625 -2.13816,18.17433 -0.97548,0.97549 -3.2805,3.35378 -4.27631,5.3454 -0.31874,0.63746 0.50396,1.63418 0,2.13815 -0.93316,0.93316 -4.12937,3.06028 -5.34539,4.27631 -0.3544,0.35441 0.3544,1.78376 0,2.13815 -0.44799,0.44799 -2.55931,0.74512 -3.20724,1.0691 -1.48158,0.74078 -2.61274,2.61273 -3.20723,3.20723 -1.37672,1.3767 -3.78435,0.28855 -5.34539,1.06907 -7.83229,3.91615 -14.23228,4.2763 -23.51972,4.2763 -3.2275,0 -22.6982,-2.38572 -23.51972,-3.20722 -4.13599,-4.136 -8.58624,-8.58624 -11.75986,-11.75986 -1.70507,-1.70508 -1.50216,-4.7094 -3.20723,-6.41448 -1.42544,-1.42541 -1.02585,2.26788 -2.13816,-1.06907 -0.33807,-1.0142 0.47811,-2.25103 0,-3.20723 -0.96534,-1.93069 -3.75691,-4.3066 -4.27631,-5.3454 -0.57017,-1.14033 0.57017,-3.13595 0,-4.27631 -3.25548,-6.51094 -6.59482,-28.68474 -1.06908,-34.21049 0.79078,-0.79078 0.42122,-7.25691 1.06908,-8.55263 0.74079,-1.48158 2.61274,-2.61273 3.20723,-3.20722 0.39628,-0.3963 0.73884,-3.61585 1.06908,-4.27633 1.87308,-3.74616 5.47766,-5.47764 8.55263,-8.55263 0.79975,-0.79976 2.43702,-3.35666 4.27631,-4.2763 0.95258,-0.47631 20.73171,-1.71892 21.38156,-1.06908 1.46776,1.46775 5.02598,3.9569 6.41447,5.34538 1.3256,1.32561 5.34539,-0.56475 5.34539,2.13818"
       id="path4491"
       inkscape:connector-curvature="0" />
    <path
       style="fill:none;stroke:#000000;stroke-width:0.26458332px;stroke-linecap:butt;stroke-linejoin:miter;stroke-opacity:1"
       d="m 169.98342,-101.76613 c 11.08805,5.822286 25.28522,10.318139 33.14142,18.174332 0.35636,0.356341 2.85087,0.712708 3.20723,1.069076 0.71272,0.712708 0.35636,2.494518 1.06908,3.207226 1.02779,1.0278 2.90416,1.83507 4.27631,3.207226 0.53561,0.535623 0.36821,3.575447 1.06908,4.276328 6.55048,6.550475 7.42811,25.82418 4.27631,35.279568 -0.7492,2.247609 0.61059,6.872949 -1.06907,8.552629 -0.63825,0.638255 -2.4073,2.67642 -3.20724,4.276302 -0.47811,0.956231 0.33807,2.193025 0,3.207253 -1.11231,3.336925 -0.71272,-0.356368 -2.13816,1.069075 -0.37844,0.378434 -2.90261,6.796696 -4.27631,7.483528 -12.29524,6.1476465 -22.11329,7.4835542 -38.48681,7.4835542 -9.4195,0 -19.73695,0.5755482 -25.65787,-5.345377 -0.50397,-0.5039782 -1.63419,0.5039519 -2.13816,0 -1.63515,-1.6351512 -3.2269,-5.3650622 -5.34539,-7.4835542 -0.69996,-0.699955 -2.47058,-0.664845 -3.20723,-2.138151 -0.32275,-0.645477 0.49419,-2.713037 0,-3.207253 -6.77741,-6.777381 -7.91079,-29.294295 -5.34539,-39.555869 0.32073,-1.282964 -0.69561,-5.023273 0,-6.414479 1.43739,-2.874777 2.82107,-5.642133 4.27631,-8.552629 0.56078,-1.121569 0.2564,-4.53271 1.06908,-5.345377 3.79021,-3.79021 8.47102,-9.540108 12.82893,-13.898034 1.06908,-1.069075 4.27631,0 5.34539,-1.069075 3.08742,-3.087399 9.05943,-4.276299 13.89802,-4.276299"
       id="path4493"
       inkscape:connector-curvature="0" />
    <path
       style="fill:none;stroke:#000000;stroke-width:0.26458332px;stroke-linecap:butt;stroke-linejoin:miter;stroke-opacity:1"
       d="m 191.36498,76.76991 c 17.31656,2.576433 27.40875,11.372585 37.41773,21.381561 0.53454,0.534537 -0.53454,2.672689 0,3.207229 1.42967,1.42967 4.56815,5.15183 5.34539,7.48355 0.50564,1.51691 -0.70906,3.92726 0,5.34538 2.43033,4.86066 4.0558,16.47722 1.06908,22.45066 -0.57017,1.14033 0.57018,3.13595 0,4.2763 -1.77708,3.55418 -5.25915,8.46638 -7.48354,10.69078 -1.35192,1.35192 -1.95784,5.16507 -3.20724,6.41448 -0.50397,0.50395 -1.50068,-0.31874 -2.13816,0 -2.28403,1.142 -1.13693,3.27509 -2.13815,4.2763 -0.70443,0.70443 -14.24786,9.0256 -16.03617,9.62171 -0.79702,0.26567 -7.03282,0.61836 -7.48355,1.06907 -2.42456,2.42457 -23.70089,6.85843 -28.86511,4.27631 -6.36599,-3.18299 -9.21915,-2.80467 -14.96709,-8.55261 -0.35636,-0.35636 -2.85088,-0.71273 -3.20724,-1.06907 -0.35636,-0.35637 -0.71272,-2.85089 -1.06908,-3.20726 -0.50396,-0.50395 -1.63418,0.50398 -2.13815,0 -2.934,-2.93399 -5.95193,-8.69661 -7.48355,-11.75985 -2.72667,-5.45336 -6.89419,-9.51206 -9.6217,-14.96708 -1.0744,-2.14879 -0.28038,-6.18654 -1.06908,-8.55263 -4.72821,-14.18463 0.58746,-28.97095 6.41447,-40.624975 1.50699,-3.013974 13.9328,-8.570012 18.17433,-10.69078 0.7393,-0.369649 26.18656,-3.747638 27.79603,-2.138151 2.2003,2.200302 6.62555,2.424139 10.69078,1.069076 z"
       id="path4495"
       inkscape:connector-curvature="0" />
    <path
       style="fill:none;stroke:#000000;stroke-width:0.26458332px;stroke-linecap:butt;stroke-linejoin:miter;stroke-opacity:1"
       d="m 333.55237,38.283089 c 7.56891,-3.037946 15.52993,-2.925815 21.38156,0 2.35453,1.17729 6.13564,-0.139409 8.55263,1.069076 10.17908,5.089551 16.67875,10.264298 23.51971,17.105259 0.50396,0.503978 -0.22539,1.462008 0,2.138151 0.73576,2.207233 2.30643,2.474727 3.20723,4.276328 1.83653,3.673025 3.20723,11.678867 3.20723,17.105233 0,6.535182 0.61251,12.672986 -2.13815,18.174335 -8.55295,17.105889 -24.41858,29.934189 -45.97035,29.934189 -3.86636,0 -12.6668,1.68468 -16.03619,0 -1.31458,-0.6573 -4.88439,-2.55746 -7.48352,-3.20725 -1.93546,-0.48385 -5.72466,-0.18963 -7.48356,-1.06908 -2.43213,-1.21605 -9.24488,-7.10671 -11.75985,-9.6217 -1.87111,-1.87108 -1.05508,-5.31739 -2.13815,-7.48353 -2.14379,-4.28757 -2.96537,-6.757961 -4.27633,-10.69078 -0.50096,-1.50286 -1.80652,-28.459271 -1.06908,-29.934191 1.26508,-2.530131 3.08282,-8.179355 4.2763,-11.759856 0.33809,-1.014227 -0.4781,-2.251022 0,-3.207253 1.06014,-2.120212 3.51991,-5.214275 4.27633,-7.483527 1.93003,-5.790115 5.15263,-9.621705 11.75986,-9.621705"
       id="path4497"
       inkscape:connector-curvature="0" />
    <path
       style="fill:none;stroke:#000000;stroke-width:0.26458332px;stroke-linecap:butt;stroke-linejoin:miter;stroke-opacity:1"
       d="m 322.86159,-8.7563344 c -3.72295,-0.7519193 -24.85186,-6.6775276 -26.72696,-8.5526296 -0.59449,-0.594492 -1.72564,-2.466446 -3.20723,-3.207226 -0.63749,-0.318744 -1.6342,0.503952 -2.13815,0 -5.5005,-5.500502 -10.87739,-14.830981 -12.82896,-24.588814 -0.46307,-2.315448 0.74364,-5.252614 0,-7.483528 -1.99832,-5.995035 -1.50685,-16.66748 2.13818,-20.312485 1.09371,-1.093735 -0.22712,-6.187361 1.06908,-7.483555 2.91232,-2.912321 6.28067,-7.349781 8.55263,-9.621705 0.50395,-0.503978 -0.50398,-1.634199 0,-2.13815 0.90807,-0.908103 2.62368,-1.311858 4.2763,-2.138151 2.2942,-1.147101 0.0492,-1.167501 1.06907,-3.207253 0.2331,-0.466169 7.52372,-4.830919 8.55263,-5.345379 1.84071,-0.92035 3.30576,-0.55917 5.34538,-1.06907 3.1161,-0.77904 3.62244,-2.27656 6.41448,-3.20726 5.34752,-1.78249 12.16083,-1.06907 18.17433,-1.06907 10.08409,0 14.56693,-1.26915 23.51971,3.20725 1.14036,0.57018 3.13598,-0.57018 4.27631,0 6.52705,3.2635 10.25874,7.051491 14.9671,11.759857 0.60407,0.60407 3.47994,1.341755 4.27631,2.138151 9.58818,9.588182 10.69078,17.707689 10.69078,33.141417 0,8.630073 -1.14155,8.697542 -4.27631,14.967108 -0.4781,0.956205 0.75595,2.451259 0,3.207227 -3.86193,3.861937 -9.55066,10.619739 -13.898,14.967082 -0.50398,0.503978 -1.50069,-0.318744 -2.13818,0 -1.83242,0.916225 -6.63776,4.49961 -7.48353,5.345403 -1.72929,1.72929 -28.43056,3.207226 -33.14144,3.207226"
       id="path4499"
       inkscape:connector-curvature="0" />
    <path
       style="fill:none;stroke:#000000;stroke-width:0.26458332px;stroke-linecap:butt;stroke-linejoin:miter;stroke-opacity:1"
       d="m 311.10174,-252.50613 c 15.33884,-2.84753 45.50404,-6.27804 53.4539,9.62167 6.82299,13.64602 14.96708,24.69134 14.96708,42.76315 0,1.54821 0.67752,5.05944 0,6.41445 -1.34321,2.68645 -1.15837,4.45493 -2.13815,6.41448 -1.03394,2.06791 -3.10806,3.10806 -4.2763,4.27631 -0.55065,0.55065 -6.83612,10.46501 -7.48356,11.75985 -0.98409,1.96821 -2.22313,0.16997 -3.20722,2.13818 -4.43061,8.86119 -22.22881,15.9807 -31.00327,18.17431 -2.75973,0.68992 -2.1808,1.1117 -3.20725,2.13815 -1.90826,1.90828 -12.37642,2.13817 -16.03616,2.13817 -5.82086,0 -12.07209,0.75685 -14.96711,-2.13817 -0.50395,-0.50395 -1.63417,0.50398 -2.13815,0 -4.27691,-4.27691 -8.58948,-10.7645 -11.75985,-17.10524 -0.42762,-0.85526 0.42762,-2.35198 0,-3.20722 -1.38047,-2.76093 -2.88507,-5.02325 -4.27631,-6.41448 -0.8909,-0.89091 0.89088,-4.4545 0,-5.3454 -4.46862,-4.4686 -2.46538,-14.87967 -4.27632,-20.31249 -2.18284,-6.54849 -1.44439,-14.21646 1.06907,-19.24338 0.42765,-0.85527 -0.42762,-2.35199 0,-3.20726 1.15901,-2.31798 3.71301,-10.12745 4.27633,-10.69078 2.90557,-2.90557 5.44102,-6.51012 8.5526,-9.6217 0.50398,-0.50395 1.50069,0.31874 2.13818,0 2.00975,-1.00486 3.49385,-3.04194 5.34538,-4.2763 2.5868,-1.72456 3.019,0.0941 5.3454,-1.06908 0.62537,-0.31268 3.7623,-2.69322 4.2763,-3.20722 0.53938,-0.53941 13.5718,-1.06911 17.10526,-1.06911"
       id="path4503"
       inkscape:connector-curvature="0" />
    <path
       style="fill:none;stroke:#000000;stroke-width:0.26458332px;stroke-linecap:butt;stroke-linejoin:miter;stroke-opacity:1"
       d="m 319.65434,-402.17709 c -9.48587,1.50514 -16.86616,6.2551 -23.51971,10.69078 -0.59301,0.39537 -1.63417,-0.50395 -2.13815,0 -0.50398,0.50398 0.50398,1.6342 0,2.13818 -0.94068,0.94067 -3.57553,2.50642 -4.2763,3.20723 -0.71274,0.7127 0.7127,3.56359 0,4.2763 -1.97507,1.97506 -2.23809,7.58346 -4.27633,9.6217 -1.67032,1.67034 0,14.3964 0,17.10526 0,1.42544 -1.00793,3.26837 0,4.2763 2.01528,2.01528 2.89335,5.47283 4.27633,9.62171 2.70036,8.10117 -0.38606,-0.38603 2.13815,2.13815 0.85045,0.85045 1.37001,4.57726 2.13815,5.3454 3.85426,3.85427 6.65879,9.74387 12.82893,12.82893 1.96818,0.9841 0.16997,2.22314 2.13815,3.20723 17.41416,8.70709 30.64632,9.62171 52.38483,9.62171 8.72392,0 20.22205,1.64885 27.79604,-2.13816 0.27053,-0.13528 1.86761,-2.00286 2.13815,-2.13815 0.66048,-0.33025 3.88003,-0.67281 4.27632,-1.06907 2.41287,-2.4129 7.73793,-7.99235 9.62171,-11.75986 0.42762,-0.85526 -0.42765,-2.35198 0,-3.20725 1.4533,-2.90661 1.68272,-4.43455 3.20723,-7.48353 1.2234,-2.44684 -0.0327,-6.3491 1.06907,-8.55263 8.5598,-17.11962 -7.17362,-45.66044 -17.10526,-55.59205 -1.3721,-1.37213 -3.97327,-1.83515 -5.34538,-3.20725 -8.93982,-8.9398 -15.93254,-13.89801 -29.93419,-13.89801 -9.11061,0 -17.08004,-0.54716 -24.58878,3.20723 -2.01869,1.00935 -2.35278,3.42185 -3.20726,4.27632 -1.42785,1.42785 -3.20722,0.1165 -3.20722,3.20723"
       id="path4505"
       inkscape:connector-curvature="0" />
    <path
       style="fill:none;stroke:#000000;stroke-width:0.26458332px;stroke-linecap:butt;stroke-linejoin:miter;stroke-opacity:1"
       d="m 350.65761,-524.05198 c -2.30696,5.90503 -10.24732,21.825 -5.34538,26.72695 0.71271,0.71272 -0.71274,3.56359 0,4.27631 2.61178,2.61179 7.0099,7.00992 9.6217,9.62171 1.98269,1.98269 7.97063,2.62523 9.62171,4.27631 0.31845,0.31846 19.2101,2.13815 21.38156,2.13815 4.84444,0 23.82679,0.381 26.72694,-1.06907 5.31667,-2.65833 9.69131,-6.48408 12.82896,-9.62171 0.3589,-0.35893 1.77921,0.35893 2.13815,0 0.35745,-0.35746 -0.35748,-1.78069 0,-2.13815 0.94067,-0.94069 4.64457,-1.43736 5.34537,-2.13816 0.35637,-0.35636 0.71274,-2.85087 1.06908,-3.20723 1.94701,-1.94701 5.76786,-4.05219 7.48355,-7.48355 1.56128,-3.12256 3.22374,-6.43096 5.34541,-8.55263 0.67812,-0.67812 -0.44506,-3.38621 0,-4.27631 3.30501,-6.61003 5.34537,-12.33665 5.34537,-20.31248 0,-3.78406 0.98788,-17.18646 -1.06907,-19.24341 -1.13271,-1.13271 -2.03766,-4.17581 -3.20723,-5.34539 -2.63189,-2.63188 -8.74673,-7.58058 -12.82896,-9.6217 -0.9784,-0.4892 -3.55092,0.72537 -4.2763,0 -7.21405,-7.21406 -43.01686,-12.57521 -50.24667,-5.34539 -0.53454,0.53454 -2.67269,-0.53454 -3.20723,0 -3.08121,3.08119 -11.6614,10.49384 -13.89801,14.96709 -0.64428,1.28857 -0.12104,3.32826 -1.06907,4.27632 -0.35603,0.35599 -1.78218,-0.356 -2.13818,0 -1.43489,1.4349 -3.3378,11.89042 -5.34538,13.89801 -0.20846,0.20845 0,17.36492 0,19.2434"
       id="path4507"
       inkscape:connector-curvature="0" />
    <path
       style="fill:none;stroke:#000000;stroke-width:0.26458332px;stroke-linecap:butt;stroke-linejoin:miter;stroke-opacity:1"
       d="m 564.47324,-565.74603 c 13.01777,-5.81351 31.28076,-7.87934 42.76312,-2.13816 1.85566,0.92784 5.53694,0.0958 7.48356,1.06908 1.30543,0.65272 4.8913,4.04927 5.34537,4.27632 0.85527,0.42763 2.35197,-0.42764 3.20723,0 4.44926,2.22462 -1.14287,-0.0738 1.06908,2.13815 1.57503,1.57504 4.54239,2.27119 6.41448,3.20724 5.71484,2.85742 9.53822,18.09084 12.82893,21.38156 1.30786,1.30785 -0.64016,6.63213 0,8.55262 1.4891,4.46729 1.06907,9.0852 1.06907,13.89802 0,3.56472 1.56943,11.82823 0,14.96709 -2.25356,4.50715 -2.8716,9.28608 -5.34537,11.75986 -0.75597,0.75595 0.4781,2.25102 0,3.20724 -0.20879,0.41756 -2.59125,1.97527 -3.20723,3.20723 -3.24512,6.49019 -3.39005,7.66634 -8.55263,12.82894 -0.50398,0.50396 -1.50069,-0.31874 -2.13815,0 -1.86963,0.93481 -4.32821,3.25911 -5.34541,4.27631 -0.60303,0.60305 -3.4219,-0.2848 -4.2763,0 -10.30419,3.43473 -19.41975,5.34539 -31.00326,5.34539 -5.33371,0 -15.89297,1.82953 -21.38156,0 -16.96956,-5.65652 -32.10058,-7.1648 -42.76313,-21.38156 -1.75678,-2.34235 -2.59286,-5.80009 -4.27632,-7.48355 -0.71271,-0.71272 0.71273,-3.56359 0,-4.27631 -2.55241,-2.55242 -3.7315,-15.49137 -4.27631,-16.03617 -2.03697,-2.03698 -1.06907,-10.07118 -1.06907,-13.89802 0,-4.24156 1.19144,-5.83488 2.13815,-9.6217 0.47472,-1.89886 0.19267,-5.73075 1.06908,-7.48355 1.98749,-3.97498 7.95551,-15.20307 11.75985,-17.10525 3.25636,-1.62818 9.49457,-3.08011 11.75986,-5.34539 1.73005,-1.73006 14.06546,-0.16745 14.96711,-1.06907 0.9957,-0.99572 -0.0838,-1.06908 2.13815,-1.06908"
       id="path4509"
       inkscape:connector-curvature="0" />
    <path
       style="fill:none;stroke:#000000;stroke-width:0.26458332px;stroke-linecap:butt;stroke-linejoin:miter;stroke-opacity:1"
       d="m 485.36145,-403.24616 c -12.33995,12.69404 -16.68375,21.60767 -23.51971,35.27959 -0.67871,1.35739 0.4736,3.92454 0,5.34538 -5.40771,16.22311 -1.75866,38.86631 8.55263,49.1776 0.53454,0.53454 -0.53454,2.67269 0,3.20722 0.25199,0.25199 0.71271,0 1.06907,0 0.71271,0.71271 1.57906,1.29951 2.13815,2.13816 1.06162,1.59242 1.44545,3.58359 3.20723,5.3454 0.35637,0.35634 2.85089,0.71271 3.20725,1.06907 4.85093,4.85093 12.05717,8.29538 19.24341,10.69078 2.07495,0.69165 13.83229,1.00336 14.96709,2.13816 3.23387,3.23387 30.56384,0.43942 34.21049,-3.20723 0.25199,-0.25199 0,-0.71274 0,-1.06908 0.71273,-0.71273 1.2995,-1.57906 2.13815,-2.13817 0.59304,-0.39534 1.50069,0.31874 2.13818,0 1.15755,-0.57878 4.6719,-3.60283 5.34537,-4.2763 2.52363,-2.52363 3.11298,-5.15689 4.27633,-7.48356 0.71594,-1.43187 2.55043,-1.48132 3.20723,-2.13815 3.62889,-3.62889 7.0812,-11.3575 10.69078,-14.96708 0.72085,-0.72086 -0.57867,-3.40831 0,-4.27633 2.49925,-3.74888 3.86585,-7.32123 5.34537,-11.75986 0.72922,-2.18765 1.29985,-39.32512 1.06908,-39.55589 -2.43433,-2.43433 -4.36872,-9.80654 -6.41445,-13.89801 -0.71594,-1.43187 -2.55043,-1.48135 -3.20723,-2.13815 -0.35637,-0.35637 -0.71273,-2.85088 -1.0691,-3.20723 -0.35634,-0.35636 -2.85086,-0.71273 -3.20723,-1.06907 -0.79684,-0.79685 -0.27223,-2.41041 -1.06907,-3.20725 -0.70086,-0.70086 -3.74071,-0.53346 -4.2763,-1.06908 -9.75106,-9.75106 -44.8849,-16.04436 -59.86839,-8.55263 -0.85526,0.42765 -2.35196,-0.42762 -3.20722,0 -3.18884,1.59441 -16.03619,3.86855 -16.03619,5.3454 0,1.46932 0.71274,2.85086 1.06908,4.27631 z"
       id="path4511"
       inkscape:connector-curvature="0" />
    <path
       style="fill:none;stroke:#000000;stroke-width:0.26458332px;stroke-linecap:butt;stroke-linejoin:miter;stroke-opacity:1"
       d="m 494.98316,-251.43706 c 22.84055,2.84927 29.2976,10.05419 39.55589,20.31249 1.9395,1.9395 1.03243,4.23965 2.13815,5.34537 1.65047,1.65047 4.00587,3.73544 5.34541,6.41448 0.42761,0.85527 -0.42765,2.35196 0,3.20723 1.12461,2.24927 3.84944,5.77612 4.2763,7.48355 2.66422,10.65694 3.72004,25.74486 1.06907,36.34865 -0.32073,1.28296 0.69562,5.02324 0,6.41447 -2.73423,5.46844 -3.86813,10.94351 -6.41448,16.03616 -0.64143,1.28291 -2.56577,1.92434 -3.20722,3.20725 -0.31875,0.63747 0.50398,1.63418 0,2.13816 -11.23376,11.23375 -18.02308,19.24341 -35.27957,19.24341 -5.40277,0 -15.0554,-0.0883 -18.17434,-3.20726 -1.00793,-1.00793 -2.89343,0.34573 -4.2763,0 -1.91865,-0.47966 -22.00968,-4.90442 -22.45063,-5.34537 -1.60364,-1.60362 -3.74179,-2.67269 -5.34541,-4.27633 -0.53453,-0.53454 -2.67269,0.53456 -3.20722,0 -0.50398,-0.50395 0.50395,-1.63417 0,-2.13815 -1.33147,-1.33147 -3.99053,-3.99053 -5.34541,-5.34538 -0.53453,-0.53454 0.53454,-2.67271 0,-3.20725 -4.80668,-4.80669 -4.1348,-11.61833 -5.34537,-12.82893 -1.19481,-1.19481 -3.08153,-4.15058 -4.27633,-5.34538 -0.89088,-0.89091 0.8909,-4.4545 0,-5.3454 -2.75746,-2.75747 -1.98618,-12.67696 -3.20723,-13.89801 -2.34897,-2.34897 -1.06907,-11.75652 -1.06907,-16.03619 0,-6.20347 0.58436,-10.79039 3.20722,-16.03615 0.63749,-1.27495 -0.3457,-2.89343 0,-4.27633 0.4217,-1.68677 2.42375,-2.70931 3.20726,-4.2763 0.31871,-0.63749 -0.50398,-1.6342 0,-2.13815 2.21194,-2.21197 -0.0865,3.38015 2.13815,-1.06908 0.86296,-1.72598 1.88862,-5.09587 3.20722,-6.41448 2.66219,-2.66218 6.16421,-5.0951 8.55263,-7.48355 2.43634,-2.43634 15.95258,-4.19269 16.03616,-4.2763 3.09361,-3.09359 9.77736,-3.20723 14.96711,-3.20723"
       id="path4513"
       inkscape:connector-curvature="0" />
    <path
       style="fill:none;stroke:#000000;stroke-width:0.26458332px;stroke-linecap:butt;stroke-linejoin:miter;stroke-opacity:1"
       d="m 502.46671,-67.55564 c 1.69685,1.970008 13.13878,-1.828298 16.03616,1.069075 7.04961,7.049585 13.32529,11.435292 19.24341,20.312486 0.78623,1.17938 2.57574,1.944264 3.20722,3.207252 1.46556,2.931054 3.83231,5.526405 5.34541,8.552604 1.83396,3.667918 2.41543,8.038121 4.2763,11.759855 1.14035,2.280709 -1.14033,6.271948 0,8.55263 1.32106,2.642129 1.0691,-0.369014 1.0691,2.138151 0,4.1881424 1.48937,19.4718778 0,22.450663 -1.31662,2.633186 -3.44826,5.240417 -4.27633,8.552603 -1.14093,4.563745 -1.39478,6.740181 -4.2763,9.621705 -1.98911,1.989111 -3.10033,7.376636 -5.3454,9.621705 -2.8421,2.842101 -14.62371,10.576322 -18.17434,11.759856 -1.76966,0.589915 -9.89872,0.277045 -10.69078,1.069075 -1.86835,1.868382 -7.07633,1.069102 -10.69078,1.069102 -2.84975,0 -9.26626,1.246796 -11.75985,0 -13.07166,-6.535843 -24.22914,-13.538385 -34.2105,-23.519738 -0.19272,-0.192722 -8.63004,-18.406586 -9.6217,-21.3815609 -1.0418,-3.1253906 0,-8.4360542 0,-11.7598559 0,-3.5892051 -1.54617,-11.8747112 0,-14.9670822 1.62475,-3.24948 1.94151,-6.21784 4.27633,-8.55263 0.67812,-0.678127 -0.44506,-3.386216 0,-4.276301 0.67614,-1.352312 2.36857,-1.949265 3.20722,-3.207253 0.88331,-1.324954 1.39758,-3.864213 2.13815,-5.345377 0.71594,-1.431872 2.55043,-1.481349 3.20723,-2.138151 0.44799,-0.447992 0.74512,-2.559314 1.06907,-3.207252 0.73565,-1.471269 7.12359,-6.054487 8.55263,-7.483555 3.81522,-3.815185 10.51616,-2.050838 14.96711,-4.276301 3.02395,-1.511962 11.53589,-5.345377 14.96709,-5.345377"
       id="path4515"
       inkscape:connector-curvature="0" />
    <path
       style="fill:none;stroke:#000000;stroke-width:0.26458332px;stroke-linecap:butt;stroke-linejoin:miter;stroke-opacity:1"
       d="m 494.98316,106.7041 c 8.2351,0.27112 16.29383,1.32673 21.38156,6.41445 0.77919,0.7792 8.25219,3.59156 9.6217,4.27633 1.55025,0.77512 2.168,4.30615 3.20723,5.34538 5.40192,5.40192 9.56326,13.66425 11.75985,22.45063 1.4536,5.81438 0.32661,12.73961 2.13818,18.17434 0.74835,2.24507 -0.74837,5.23848 0,7.48355 1.21108,3.63326 -0.56658,10.62673 1.06908,13.89801 4.94845,9.8969 -0.48067,25.06948 -6.41448,31.00327 -0.50395,0.50397 0.50398,1.63419 0,2.13815 -0.35637,0.35636 -2.85086,0.71273 -3.20723,1.06907 -7.12748,7.12748 -18.37335,8.26262 -28.86511,11.75988 -2.08373,0.69456 -7.15383,-1.39879 -8.55263,0 -3.28555,3.28555 -32.27308,0.6458 -37.41772,-1.0691 -1.42087,-0.4736 -3.98799,0.67871 -5.34541,0 -5.17773,-2.58887 -7.92458,-5.78643 -11.75985,-9.62168 -0.35637,-0.35636 -2.85086,-0.71273 -3.20723,-1.0691 -1.75633,-1.75633 -2.29997,-5.50717 -4.27633,-7.48353 -1.9536,-1.95363 -4.09101,-4.09104 -6.41445,-6.41447 -0.95472,-0.95473 -0.64222,-2.99578 -1.06907,-4.27631 -0.96081,-2.88242 -3.02864,-4.98816 -4.27633,-7.48355 -0.57018,-1.14035 0.57018,-3.13597 0,-4.2763 -2.97548,-5.95101 -4.24754,-22.50816 -1.06908,-28.86512 1.28633,-2.57265 0.41984,-9.39231 2.13815,-12.82893 0.0576,-0.11512 1.71413,-1.29005 2.13818,-2.13818 0.90485,-1.80969 0.24556,-4.76742 1.06908,-6.41445 1.19237,-2.38477 2.58693,-3.88043 4.2763,-6.41448 0.13277,-0.19915 0.95959,-4.16681 1.06907,-4.2763 0.35476,-0.35475 1.78343,0.35475 2.13815,0 0.9407,-0.9407 1.43738,-4.6446 2.13818,-5.3454 0.50395,-0.50395 1.63417,0.50398 2.13815,0 0.61963,-0.61963 1.51853,-3.65668 2.13815,-4.2763 1.05929,-1.05929 3.78246,-3.78246 5.34541,-5.34541 0.53559,-0.53559 3.57542,-0.36819 4.2763,-1.06907 0.70085,-0.70086 1.60255,-2.67163 2.13815,-3.20723 0.53454,-0.53454 2.67269,0.53454 3.20722,0 10.23359,-10.233553 26.85265,0.77039 38.48683,-2.13815 z"
       id="path4517"
       inkscape:connector-curvature="0" />

    <path
       style="fill:none;stroke:#000000;stroke-width:0.26458332px;stroke-linecap:butt;stroke-linejoin:miter;stroke-opacity:1"
       d="m 635.03238,-117.80232 c -12.00285,-9.68211 -21.38156,-18.98031 -21.38156,-35.27956 0,-2.92362 -3.54531,-14.629 -1.06908,-17.10526 1.57689,-1.57687 2.9659,-4.03495 4.27633,-5.34538 0.49419,-0.49419 -0.32274,-2.56175 0,-3.20723 3.03884,-6.07769 14.81947,-17.56598 20.31248,-20.31248 0.64548,-0.32274 2.71304,0.49419 3.20723,0 3.14685,-3.14685 23.80247,-6.67658 31.00327,-4.27633 7.28559,2.42853 14.00746,3.79651 21.38156,7.48355 0.67905,0.33952 3.54634,3.91134 4.2763,4.27631 1.77062,0.88532 8.29858,3.76819 9.6217,6.41447 0.31875,0.63749 -0.50395,1.6342 0,2.13816 1.28741,1.2874 4.1093,3.94226 5.34541,6.41447 0.42762,0.85527 -0.42765,2.35196 0,3.20723 4.22754,8.4551 4.2763,15.93712 4.2763,25.65789 0,5.7045 1.34869,14.68747 -2.13815,18.17431 -2.11161,2.11161 0.64069,-0.85299 -1.06908,4.27633 -0.0116,0.035 -2.01255,0.94347 -2.13815,1.06907 -1.55265,1.55266 -2.3981,4.79621 -3.20725,6.41445 -0.87151,1.74303 -3.36582,2.29677 -4.2763,3.20726 -0.50398,0.50395 0.50398,1.63417 0,2.13815 -2.47928,2.47925 -10.32254,7.23804 -13.89801,9.6217 -0.19918,0.13277 -4.16684,0.95959 -4.27633,1.06908 -4.60433,4.604356 -22.81047,-0.35984 -25.65786,-3.20723 -0.71273,-0.71273 -3.56359,0.71271 -4.27633,0 -0.94072,-0.94075 -1.40978,-3.20725 -3.20722,-3.20725"
       id="path4523"
       inkscape:connector-curvature="0" />
    <path
       style="fill:none;stroke:#000000;stroke-width:0.26458332px;stroke-linecap:butt;stroke-linejoin:miter;stroke-opacity:1"
       d="m 874.50588,-70.762867 c -16.27106,8.529585 -32.31298,0.414206 -45.97035,-6.414478 -0.85527,-0.42762 -2.35199,0.427646 -3.20723,0 -1.8534,-0.926677 -7.90421,-4.696963 -8.55263,-5.345377 -0.50398,-0.503979 0.31875,-1.500691 0,-2.138151 -0.64145,-1.282912 -2.5658,-1.924341 -3.20725,-3.207253 -2.2456,-4.491223 -2.13815,-10.899986 -2.13815,-17.105234 0,-5.90079 0.71649,-11.40727 4.27633,-14.96711 0.7127,-0.71271 -0.71274,-3.56359 0,-4.2763 3.16582,-3.16584 5.98728,-8.98096 8.5526,-12.82893 0.28292,-0.42437 1.61922,-0.72311 2.13818,-1.0691 2.10034,-1.4002 2.96042,-4.0295 4.2763,-5.34538 0.50398,-0.50398 1.50069,0.31874 2.13815,0 2.14659,-1.07328 5.45393,-3.31578 6.41448,-4.2763 0.67813,-0.67815 3.38622,0.44503 4.2763,0 9.91473,-4.95737 27.02335,-3.66768 37.41774,-1.0691 0.34571,0.0864 -0.25198,0.81711 0,1.0691 0.5356,0.5356 3.57545,0.36819 4.27631,1.06907 0.34925,0.34923 0.70559,1.89582 1.06907,2.13816 1.22256,0.81502 3.61924,-0.24511 4.27633,1.06907 0.31874,0.63746 -0.31874,1.50069 0,2.13815 1.0727,2.14543 8.38203,6.9718 9.6217,10.69078 0.33806,1.01423 -0.4781,2.25102 0,3.20723 1.32099,2.642 2.75739,4.44574 4.27631,7.48355 1.88383,3.76764 0,13.7976 0,18.17434 0,4.417798 0.77663,10.20659 -1.06908,13.898004 -0.35637,0.712735 -1.78181,0.356367 -2.13815,1.069076 -0.31874,0.637487 0.31874,1.50069 0,2.138177 -1.96734,3.934645 -7.68728,8.756332 -9.6217,10.69078 -0.35637,0.356341 -2.85089,0.712708 -3.20723,1.069076 -2.51264,2.512615 -11.29326,7.483528 -14.96711,7.483528"
       id="path4525"
       inkscape:connector-curvature="0" />
    <path
       style="fill:none;stroke:#000000;stroke-width:0.26458332px;stroke-linecap:butt;stroke-linejoin:miter;stroke-opacity:1"
       d="m 649.99949,-261.05876 c -8.05606,-4.25477 -11.86606,-7.69594 -16.03619,-16.03619 -0.45074,-0.90151 -1.81941,-1.18195 -2.13815,-2.13815 -1.51381,-4.54147 -3.54626,-30.32522 -1.06907,-35.27957 0.85526,-1.71053 -0.85527,-4.70394 0,-6.41448 0.61108,-1.22213 4.0554,-9.40077 4.2763,-9.6217 6.12465,-6.12463 11.60893,-11.60891 17.10526,-17.10523 0.70088,-0.70089 3.7407,-0.53348 4.2763,-1.06911 4.18542,-4.18539 13.50023,-5.34537 21.38159,-5.34537 4.56226,0 20.37217,-1.57377 23.51971,0 5.03478,2.51738 10.1564,3.74195 13.898,7.48355 0.99862,0.99859 4.34679,1.13954 5.34541,2.13815 0.35634,0.35637 0.71271,2.85086 1.06907,3.20723 0.71271,0.71273 2.49452,0.35637 3.20723,1.06907 0.50398,0.50398 -0.50398,1.6342 0,2.13815 1.52268,1.52271 4.8029,4.2604 6.41448,7.48356 0.32395,0.64794 0.62108,2.75926 1.06907,3.20723 0.23196,0.23198 2.03393,0.86066 2.13815,1.0691 0.42762,0.85524 -0.42764,2.35196 0,3.20722 1.17968,2.35935 3.56807,3.58154 4.27631,6.41446 0.0344,0.13763 -0.31941,3.95692 0,4.27632 2.65641,2.65639 6.70991,25.36243 3.20725,28.86512 -0.71274,0.71271 0.71271,3.56359 0,4.2763 -0.71972,0.71972 -1.35102,0.56388 -2.13818,2.13815 -0.42762,0.85527 0.42765,2.35199 0,3.20725 -4.53303,9.06606 -12.16803,15.37526 -19.24338,22.45064 -0.71274,0.71271 -3.5636,-0.71273 -4.27633,0 -1.65526,1.65526 -2.3921,1.73059 -5.34538,3.20723 -3.85492,1.92746 -13.76873,0 -18.17433,0 -3.99709,0 -11.77555,1.05341 -13.89801,-1.06908 -2.00223,-2.00221 -17.3001,0.87424 -21.38156,-3.20722 -1.14244,-1.14248 -2.13818,1.51976 -2.13818,-1.06911"
       id="path4527"
       inkscape:connector-curvature="0" />
    <path
       style="fill:none;stroke:#000000;stroke-width:0.26458332px;stroke-linecap:butt;stroke-linejoin:miter;stroke-opacity:1"
       d="m 805.01582,-179.80885 c -14.96037,1.74636 -24.80795,0.84995 -33.14145,-7.48353 -3.22151,-3.22154 -8.0986,-3.98338 -9.62168,-8.55263 -1.0442,-3.13258 -4.97509,-8.51077 -6.41447,-12.82893 -2.01745,-6.05234 -1.34192,-13.37458 -4.27631,-19.24341 -2.69319,-5.38636 -1.33709,-20.84554 1.06908,-25.65789 0.57438,-1.14879 -0.4123,-3.0394 0,-4.2763 3.52181,-10.56547 10.05316,-16.46764 16.03616,-22.45063 0.50397,-0.50398 1.462,0.22537 2.13815,0 3.26107,-1.08702 5.24957,-3.1753 8.55263,-4.27631 1.79035,-0.59679 20.10735,-2.24073 22.45063,-1.0691 3.00668,1.50334 6.20652,3.13793 9.62171,4.27633 0.60465,0.20153 2.77786,-0.42939 3.20725,0 4.49308,4.49307 13.27113,4.71853 18.17431,9.6217 0.53454,0.53454 2.5658,-0.42764 3.20725,0 1.70704,1.13803 3.44541,3.44541 4.2763,4.27631 0.18788,0.18788 5.65383,2.4466 6.41448,3.20722 0.50395,0.50398 -0.50398,1.6342 0,2.13818 0.50395,0.50395 1.63417,-0.50398 2.13815,0 1.84473,1.84473 3.81474,3.81474 5.34538,5.34538 3.0975,3.0975 2.89848,9.31293 5.3454,11.75985 0.67813,0.67813 -0.44505,3.38622 0,4.27633 0.88429,1.76861 2.90523,14.2 1.06908,16.03616 -0.93676,0.93676 -2.29621,2.45425 -3.20723,4.27633 -0.44505,0.89008 0.67813,3.59817 0,4.2763 -3.04363,3.04363 -3.48718,7.76348 -6.41448,10.69078 -0.70085,0.70085 -2.67163,1.60255 -3.20722,2.13815 -0.50398,0.50398 0.31871,1.50069 0,2.13815 -0.4177,0.8354 -8.4795,8.47953 -9.62171,9.62171 -0.50398,0.50397 -1.6342,-0.50396 -2.13815,0 -3.53663,3.53663 -8.94154,6.80336 -11.75988,9.6217 -0.53454,0.53454 -2.67269,-0.53454 -3.20723,0 -0.80809,0.80809 -0.46376,2.13815 -2.13815,2.13815"
       id="path4529"
       inkscape:connector-curvature="0" />
    <path
       style="fill:none;stroke:#000000;stroke-width:0.26458332px;stroke-linecap:butt;stroke-linejoin:miter;stroke-opacity:1"
       d="m 830.67368,215.75006 c -3.62654,-2.44907 -6.68242,-4.54428 -8.55263,-6.41446 -1.02629,-1.02632 0.67487,-5.06476 0,-6.41448 -3.62543,-7.25088 -4.37751,-28.76391 1.06907,-34.21049 0.71274,-0.71273 -0.7127,-3.56359 0,-4.27633 0.53454,-0.53453 1.60364,-0.53453 2.13818,-1.06907 1.41841,-1.41841 1.74413,-6.02046 3.20723,-7.48356 1.02777,-1.02777 2.90414,-1.83507 4.2763,-3.20722 0.53454,-0.53454 -0.53454,-2.67269 0,-3.20723 1.03262,-1.03261 7.03493,-4.89675 7.48355,-5.3454 0.77912,-0.77912 1.08371,-3.22186 2.13815,-4.2763 0.50398,-0.50398 1.54514,0.39534 2.13816,0 1.67732,-1.11821 2.599,-3.15812 4.27632,-4.2763 0.59301,-0.39537 1.63418,0.50395 2.13815,0 5.99295,-5.99298 13.53238,-5.34541 22.45064,-5.34541 3.77407,0 11.6727,-1.64719 14.96711,0 4.7376,2.36882 11.3973,3.91377 14.96708,7.48356 1.05445,1.05444 4.56629,0.28995 5.3454,1.06907 1.34843,1.34842 2.59152,3.66062 4.27631,5.34538 2.07544,2.07544 5.40811,2.20088 7.48355,4.27633 1.59957,1.59956 1.93286,4.17364 4.2763,5.34537 0.63749,0.31875 1.6342,-0.50395 2.13815,0 0.79685,0.79685 0.444,2.2696 1.06908,3.20726 1.01108,1.51659 2.38921,1.32011 3.20725,2.13815 0.55335,0.55335 0.51573,3.72295 1.06908,4.2763 5.74982,5.74982 7.48352,20.40355 7.48352,29.93419 0,3.66043 -1.60345,19.77779 -3.20722,21.38156 -2.52386,2.52386 -2.39276,5.85459 -4.2763,9.62171 -2.63001,5.25999 -4.68379,10.02916 -8.55263,13.898 -0.76814,0.76814 -1.2877,4.49496 -2.13815,5.34541 -0.71274,0.7127 -2.49452,0.35634 -3.20726,1.06907 -0.35634,0.35637 -0.7127,2.85086 -1.06907,3.20723 -0.50395,0.50398 -1.50067,-0.31875 -2.13815,0 -1.71053,0.85526 -2.5658,3.42106 -4.2763,4.27633 -5.51842,2.7592 -11.21903,2.93679 -16.03619,5.34537 -3.73232,1.86616 -31.58574,-0.58248 -33.14142,-2.13815 -0.53453,-0.53454 -2.67268,0.53454 -3.20722,0 -0.71972,-0.71972 -0.56388,-1.35101 -2.13815,-2.13815 -1.14036,-0.57018 -3.13598,0.57018 -4.27633,0 -2.05436,-1.02719 -3.29102,-3.24914 -5.34538,-4.27633 -1.08714,-0.54356 -8.47566,-4.19933 -8.55263,-4.2763 -1.15165,-1.15165 -2.77175,-3.84082 -4.27633,-5.3454 -0.35634,-0.35634 -2.85085,-0.71271 -3.20722,-1.06908 -1.30633,-1.30632 -2.31812,-4.45627 -3.20723,-5.34537 -0.0236,-0.0236 -1.06907,-11.48157 -1.06907,-12.82894 0,-0.71273 -0.57018,-1.71053 0,-2.13817 1.27494,-0.95621 4.07863,-0.55677 4.2763,-2.13815 0.29652,-2.37207 -2.45129,-4.14661 -3.20723,-6.41446 -0.11268,-0.33808 0.81709,0.25197 1.06908,0 0.283,-0.28299 0,-2.76704 0,-3.20725"
       id="path4531"
       inkscape:connector-curvature="0" />
    <path
       style="fill:none;stroke:#000000;stroke-width:0.26458332px;stroke-linecap:butt;stroke-linejoin:miter;stroke-opacity:1"
       d="m 705.59154,100.28962 c 2.65581,1.70598 7.86781,-1.411471 10.69078,0 13.84647,6.92325 18.72805,13.38265 27.79604,22.45064 0.82066,0.82068 0.6137,3.36555 1.06907,4.27633 0.31875,0.63746 1.6342,-0.50398 2.13816,0 3.53996,3.53996 3.01778,10.50131 7.48355,14.96708 0.0605,0.0605 2.77648,12.60578 3.20723,13.898 0.15938,0.47813 0.71273,0.71274 1.06907,1.06911 0.35637,0.7127 0.81711,1.38218 1.06908,2.13815 0.9711,2.91327 2.15701,24.53219 1.06907,27.79601 -0.93533,2.80604 -2.81911,6.02636 -4.2763,7.48355 -1.05444,1.05445 -0.28996,4.56629 -1.06907,5.34541 -1.03765,1.03764 -3.41638,3.41638 -4.27631,4.2763 -0.53562,0.53562 -0.36822,3.57545 -1.0691,4.2763 -0.35682,0.35685 -1.78131,-0.35682 -2.13815,0 -0.44799,0.44799 -0.74512,2.55932 -1.06907,3.20725 -0.5006,1.00119 -9.03703,7.96793 -10.69079,9.62171 -1.78686,1.78686 -5.41117,1.10196 -7.48355,2.13815 -13.23896,6.61948 -26.32572,5.34538 -41.69405,5.34538 -11.04908,0 -20.19236,0.5946 -29.93416,-4.2763 -2.05393,-1.02696 -8.06939,-0.58584 -9.62171,-2.13816 -4.37594,-4.37594 -9.89994,-6.69268 -13.89803,-10.69078 -0.99859,-0.99861 -1.13953,-4.34678 -2.13815,-5.3454 -3.89742,-3.89742 -9.04121,-14.87522 -11.75986,-20.31248 -1.998,-3.99598 0.25178,-8.86635 -1.06907,-12.82894 -5.29892,-15.89669 0.65082,-53.03565 10.69078,-63.0756 0.5356,-0.5356 0.36822,-3.57545 1.06908,-4.27631 5.11376,-5.11376 9.04184,-10.935409 17.10525,-14.967104 4.44924,-2.224616 -1.14289,0.07382 1.06908,-2.138151 0.56584,-0.565837 10.4162,-3.207226 11.75986,-3.207226 2.60405,0 6.28721,-1.005469 8.55263,-2.138151 6.71904,-3.359546 28.64765,2.989766 32.07234,6.414453 2.00456,2.004563 6.41445,-0.01905 6.41445,3.207226"
       id="path4533"
       inkscape:connector-curvature="0" />
    <path
       style="fill:none;stroke:#000000;stroke-width:0.26458332px;stroke-linecap:butt;stroke-linejoin:miter;stroke-opacity:1"
       d="m 806.08489,3.0035215 c 8.90125,-7.2695063 24.80135,-11.5473161 33.14142,-3.20722619 0.75594,0.75594103 2.25102,-0.47812853 3.20722,0 1.44365,0.72180979 2.0686,2.80447749 4.27633,4.27630159 0.59301,0.3953404 1.63417,-0.5039783 2.13815,0 5.16568,5.165672 8.57187,10.7100161 12.82893,14.9670821 1.37602,1.376019 1.02251,5.252244 2.13816,7.483554 0.7489,1.497807 3.08271,5.096351 4.27632,7.483555 1.0427,2.085419 0,7.171028 0,9.621705 0,3.826589 0.94491,10.814923 -1.06907,12.828931 -0.37825,0.378248 -3.5891,13.210778 -4.27633,13.898007 -2.15424,2.154264 -4.90971,7.047891 -7.48355,9.621705 -1.35189,1.351915 -4.09599,3.026912 -5.34538,4.276328 -0.71271,0.712708 -3.56359,-0.712735 -4.2763,0 -3.12547,3.125443 -5.00743,1.434624 -8.55263,3.207226 -0.90154,0.450771 -1.23664,1.68738 -2.13818,2.138151 -2.24928,1.124664 -6.17366,-0.792983 -8.5526,0 -6.23827,2.079413 -15.71773,1.762839 -21.38156,-1.069076 -1.20216,-0.60108 -1.94088,-2.78511 -3.20726,-3.207226 -1.0142,-0.338084 -2.45128,0.755941 -3.20722,0 -0.50398,-0.503978 0.50398,-1.634199 0,-2.138151 -0.90811,-0.908102 -2.62369,-1.311857 -4.2763,-2.138177 -1.64495,-0.822457 -6.87557,-7.944643 -9.62171,-10.69078 -1.9975,-1.997472 -3.39667,-6.603894 -5.3454,-8.55263 -0.76542,-0.765387 -1.36486,-7.006008 -2.13815,-8.552603 -0.87839,-1.756807 -2.47923,-4.617376 -3.20723,-5.345404 -0.92012,-0.920115 -0.67239,-14.691386 0,-16.036157 2.40755,-4.815152 5.77366,-10.478267 8.5526,-16.036184 0.69953,-1.399064 13.57718,-12.5080713 16.03619,-14.96708228 0.50398,-0.50397833 1.50069,0.31871708 2.13815,0 2.18284,-1.0914327 3.865,-2.79593142 5.3454,-4.27632812"
       id="path4535"
       inkscape:connector-curvature="0" />
    <path
       style="fill:none;stroke:#000000;stroke-width:0.26458332px;stroke-linecap:butt;stroke-linejoin:miter;stroke-opacity:1"
       d="m 670.31197,-432.11128 c 0,-2.49449 -0.35279,-5.01409 0,-7.48353 0.0944,-0.66048 2.4833,-2.4833 3.20723,-3.20724 0.70088,-0.70086 0.53348,-3.7407 1.06907,-4.27631 5.52643,-5.52642 10.05171,-9.30217 17.10526,-12.82894 14.29219,-7.14609 40.85236,-9.39431 52.38483,2.13816 1.03896,1.03896 2.96212,0.41198 4.2763,1.06908 1.26354,0.63176 2.57511,3.64418 3.20725,4.27631 0.50396,0.50397 1.63418,-0.50397 2.13815,0 1.20539,1.20538 2.83504,2.83503 4.27631,4.27631 0.79639,0.79639 1.5341,3.67225 2.13815,4.27632 6.96251,6.9625 6.81622,12.56335 11.75985,22.45062 1.43476,2.86949 0,10.52544 0,13.89803 0,6.02843 -0.73826,11.09824 -3.20722,16.03616 -0.94904,1.89807 -3.7506,4.294 -4.27631,5.34541 -0.4554,0.91077 -0.24841,3.45564 -1.06907,4.2763 -0.71274,0.71273 -2.49452,0.35636 -3.20725,1.06907 -0.53454,0.53454 0.53453,2.67272 0,3.20726 -9.90688,9.90687 -19.32541,17.10523 -36.34865,17.10523 -5.03536,0 -10.79687,-0.053 -14.9671,-2.13815 -0.20842,-0.10422 -0.83709,-1.90619 -1.06908,-2.13815 -1.74305,-1.74305 -5.58805,-1.19042 -7.48353,-2.13815 -2.48777,-1.24389 -3.56989,-2.85404 -6.41448,-4.27633 -1.13538,-0.56769 -3.32332,-0.11607 -4.2763,-1.06908 -0.69998,-0.69995 -0.66487,-2.47057 -2.13818,-3.20722 -0.64791,-0.32396 -2.75923,-0.62109 -3.20722,-1.06908 -0.50395,-0.50398 0.50398,-1.6342 0,-2.13815 -0.45088,-0.45088 -3.92711,-2.15966 -4.2763,-3.20725 -0.33809,-1.0142 0.75594,-2.45129 0,-3.20723 -6.55365,-6.55365 -13.31146,-24.69287 -7.48356,-36.34867 0.60034,-1.20068 0.25207,-5.59744 1.06908,-6.41445 1.17549,-1.17549 3.84201,-3.84202 5.3454,-5.3454 0.50395,-0.50396 -0.50398,-1.63418 0,-2.13816 1.06667,-1.06666 3.48851,-1.63163 4.2763,-3.20722 0.31875,-0.63748 -0.50398,-1.63419 0,-2.13816 1.05445,-1.05445 3.49721,-1.35904 4.2763,-2.13816 1.14247,-1.14244 -1.51976,-2.13815 1.06911,-2.13815"
       id="path4537"
       inkscape:connector-curvature="0" />
    <path
       style="fill:none;stroke:#000000;stroke-width:0.26458332px;stroke-linecap:butt;stroke-linejoin:miter;stroke-opacity:1"
       d="m 876.64403,-419.28232 c 2.49451,-1.06908 4.98903,-2.13818 7.48355,-3.20725 0,-0.35634 -0.25199,-0.81709 0,-1.06908 0.86548,-0.86548 7.19288,0 8.55263,0 2.59022,0 8.42425,-1.13324 10.69078,0 2.2673,1.13366 2.84819,1.77914 4.2763,3.20725 0.77912,0.7791 4.29096,0.0146 5.34541,1.06908 5.76807,5.76807 12.8371,11.768 19.24341,18.17431 4.2809,4.28093 6.95052,9.0887 10.69078,12.82895 1.87812,1.87812 1.72606,4.93329 3.20722,6.41446 0.92835,0.92834 1.06908,11.88225 1.06908,14.96711 0,25.25937 -12.48638,52.86917 -31.00327,65.21375 -1.0595,0.70634 -4.34194,0.0657 -5.34537,1.06908 -4.4658,4.46577 -18.46104,4.2763 -25.65789,4.2763 -4.30628,0 -20.25912,1.63031 -23.51972,0 -2.00009,-1.00004 -11.33422,-3.85067 -12.82893,-5.34538 -1.15461,-1.15461 -9.10912,-8.59657 -9.6217,-9.6217 -2.24859,-4.4972 -6.11537,-9.32262 -9.62171,-12.82893 -0.49419,-0.49422 0.32274,-2.56175 0,-3.20725 -2.34365,-4.68731 -6.17844,-9.14961 -8.55263,-13.89801 -0.57017,-1.14036 0.57018,-3.13595 0,-4.2763 -6.38283,-12.76567 -7.737,-31.5654 -2.13815,-42.76313 0.9053,-1.81059 0.43069,-4.49931 1.06908,-6.41447 0.48855,-1.46564 3.67152,-4.6001 4.2763,-6.41448 0.33808,-1.0142 -0.75594,-2.45126 0,-3.20723 3.3365,-3.33647 7.00188,-7.00188 9.6217,-9.6217 0.53454,-0.53454 2.67272,0.53453 3.20726,0 1.2764,-1.27641 5.94757,-1.67127 6.41445,-2.13815 4.84748,-4.84749 24.8712,-0.45048 33.14142,-3.20723 z"
       id="path4539"
       inkscape:connector-curvature="0" />
    <path
       style="fill:none;stroke:#000000;stroke-width:0.26458332px;stroke-linecap:butt;stroke-linejoin:miter;stroke-opacity:1"
       d="m 679.93368,-583.92036 c 10.00035,2.25292 4.67944,-6.68323 7.48352,-8.55262 0.99166,-0.6611 9.09432,-5.79203 12.82896,-6.41447 6.84543,-1.14091 29.30194,-2.98881 35.27957,0 7.44506,3.72253 16.2969,5.47576 24.58879,9.6217 0.95623,0.47811 2.19302,-0.33807 3.20725,0 2.29904,0.76636 16.06598,9.68132 17.10523,11.75986 0.32398,0.64793 0.62109,2.75925 1.06908,3.20724 0.65683,0.65681 2.49131,0.70628 3.20725,2.13815 0.57383,1.14766 0.0678,6.48223 1.06908,7.48355 1.25978,1.25979 3.37272,5.84186 4.2763,8.55263 0.62341,1.87022 0.71257,29.57811 0,31.00326 -3.08748,6.17497 -3.76381,12.31643 -8.55263,17.10525 -2.14048,2.1405 -3.16564,7.44196 -5.34538,9.6217 -7.9103,7.91031 -17.66342,14.08407 -29.93419,18.17433 -1.5548,0.51826 -3.89869,-0.72335 -5.34538,0 -4.47153,2.23576 -13.26425,3.52413 -18.17433,1.06908 -1.71053,-0.85527 -4.70395,0.85526 -6.41448,0 -2.55355,-1.27678 -3.86107,-2.792 -5.34538,-4.27631 -1.16879,-1.16881 -4.47085,-1.26361 -5.3454,-2.13816 -0.50395,-0.50397 0.50398,-1.63419 0,-2.13816 -0.79637,-0.79638 -3.67223,-1.53409 -4.2763,-2.13815 -0.50398,-0.50397 0.31874,-1.50069 0,-2.13816 -0.91647,-1.83291 -2.07405,-0.43837 -3.20726,-2.13816 -0.62507,-0.93764 -0.27223,-2.41039 -1.06907,-3.20723 -0.0325,-0.0325 -3.84252,-1.70437 -4.2763,-2.13816 -0.35637,-0.35635 -0.71271,-2.85087 -1.06908,-3.20723 -2.55677,-2.55677 -7.16145,-7.90842 -9.6217,-12.82894 -0.31875,-0.63747 0.50398,-1.63419 0,-2.13815 -1.38441,-1.38442 -3.07705,-4.01593 -4.2763,-6.41447 -0.32277,-0.64548 0.49418,-2.71304 0,-3.20724 -1.27643,-1.2764 -1.6713,-5.94758 -2.13818,-6.41447 -4.42669,-4.4267 -2.97667,-24.81936 1.06907,-28.8651 0.67813,-0.67813 -0.44503,-3.38621 0,-4.27632 0.79722,-1.59442 2.39184,-2.64548 3.20726,-4.27631 1.93214,-3.86431 7.91091,-18.17433 13.898,-18.17433"
       id="path4541"
       inkscape:connector-curvature="0" />
    <path
       style="fill:none;stroke:#000000;stroke-width:0.26458332px;stroke-linecap:butt;stroke-linejoin:miter;stroke-opacity:1"
       d="m 924.75255,-629.89072 c 3.5519,0.039 9.18025,-3.9625 12.82893,-2.13815 6.72463,3.36231 13.08317,5.51488 19.24341,9.6217 2.41515,1.6101 3.94267,5.01174 6.41448,7.48355 1.05765,1.05764 3.89118,2.43695 4.2763,3.20723 0.31875,0.63748 -0.31874,1.50068 0,2.13816 0.42231,0.8446 2.69894,2.19064 3.20723,3.20723 0.78716,1.57429 1.41846,1.41844 2.13818,2.13816 0.71271,0.71272 -0.71274,3.56359 0,4.27631 5.37996,5.37998 2.56516,20.31559 1.06907,27.79603 -0.27956,1.39776 0.63746,3.00137 0,4.27631 -2.25867,4.51735 -5.27854,8.28526 -6.41448,12.82894 -0.51604,2.06423 -2.28073,2.4233 -3.20722,4.27632 -0.31875,0.63747 0.39534,1.54513 0,2.13815 -3.13719,4.70579 -8.12737,7.05828 -11.75986,10.69078 -3.15478,3.15479 -6.89665,6.93155 -11.75985,8.55263 -1.85833,0.61944 -4.68847,0.20607 -6.41448,1.06907 -9.27447,4.63723 -24.91576,5.01844 -32.07234,-2.13815 -0.96703,-0.96702 -7.50052,-2.15511 -8.55263,-3.20724 -2.5495,-2.54948 -7.51819,-4.31096 -9.62171,-6.41446 -2.21194,-2.21197 3.38019,0.0865 -1.06907,-2.13816 -1.13538,-0.5677 -3.32333,-0.11608 -4.27631,-1.06908 -5.4357,-5.4357 -9.19641,-10.26547 -13.89803,-14.96709 -0.81267,-0.81267 -0.50829,-4.22383 -1.06907,-5.34539 -1.16899,-2.338 -2.31686,-2.67426 -3.20723,-5.34539 -0.85527,-2.56579 0.85526,-5.98684 0,-8.55263 -0.76737,-2.30211 -3.20866,-14.96567 -1.06908,-17.10525 5.35628,-5.35629 6.30418,-16.99496 12.82894,-23.51971 1.80578,-1.80578 6.45877,-4.30585 9.6217,-6.41447 1.70492,-1.13663 3.44559,-2.37652 4.2763,-3.20724 0.0238,-0.0239 31.73148,-2.13816 34.21052,-2.13816"
       id="path4543"
       inkscape:connector-curvature="0" />
    <path
       style="fill:none;stroke:#000000;stroke-width:0.26458332px;stroke-linecap:butt;stroke-linejoin:miter;stroke-opacity:1"
       d="m 452.22003,-669.4466 c -6.85096,5.17051 -7.46328,11.7396 -12.82893,17.10525 -1.00793,1.00793 0,2.85087 0,4.27631 0,4.39216 -3.67773,14.0261 -1.06907,19.2434 1.50841,3.01683 9.12317,18.74489 10.69078,20.31249 1.83628,1.8363 3.18299,3.15878 4.2763,5.34539 1.08871,2.17741 3.14245,1.0043 4.27633,2.13815 0.50395,0.50397 -0.50398,1.63419 0,2.13816 2.31576,2.31578 6.83934,4.70119 9.62168,7.48355 0.49421,0.49419 2.56177,-0.32274 3.20725,0 2.87173,1.43586 5.41729,3.2312 8.55263,4.27631 0.60462,0.20155 2.77783,-0.42938 3.20722,0 3.77077,3.77077 12.9218,4.83407 19.24341,6.41447 4.26001,1.065 9.73993,-1.38603 13.89801,0 4.23722,1.4124 12.577,2.20114 17.10526,1.06908 5.30312,-1.32579 9.9478,-3.53335 12.82893,-6.41447 0.50398,-0.50397 1.63417,0.50397 2.13815,0 8.35401,-8.35399 10.90174,-15.38899 17.10526,-27.79603 1.55337,-3.10677 0.5869,-8.65736 2.13815,-11.75986 0.75028,-1.50056 1.87389,-23.78399 1.06908,-24.5888 -2.29614,-2.29613 -3.90112,-15.66099 -7.48356,-19.2434 -0.35568,-0.3557 0.0719,-4.06057 0,-4.27632 -0.66571,-1.99721 -2.96272,-4.03182 -4.2763,-5.34539 -0.53454,-0.53454 0.53454,-2.67269 0,-3.20723 -3.28456,-3.28457 -7.85513,-6.78606 -10.69078,-9.6217 -1.05444,-1.05446 -4.56628,-0.28997 -5.3454,-1.06908 -5.09604,-5.09604 -15.02439,-4.27631 -24.58879,-4.27631 -7.46493,0 -25.83431,-0.89264 -29.93419,3.20723 -1.42544,1.42544 -7.12719,-1.42544 -8.55263,0 -1.50019,1.5002 -4.91426,2.77611 -6.41445,4.27631 -0.49422,0.4942 -2.56175,-0.32274 -3.20725,0 -2.18615,1.09308 -3.00832,4.0774 -4.27631,5.34539 -0.35893,0.35893 -1.77921,-0.35893 -2.13815,0 -0.53453,0.53454 0.53454,2.6727 0,3.20724 -1.68812,1.68811 -4.27633,6.28662 -4.27633,8.55262"
       id="path4547"
       inkscape:connector-curvature="0" />
    <path
       style="fill:none;stroke:#000000;stroke-width:0.26458332px;stroke-linecap:butt;stroke-linejoin:miter;stroke-opacity:1"
       d="m 280.09847,271.34211 c -9.6089,-0.21849 -21.76747,-2.52405 -27.79604,-8.5526 -0.96629,-0.96632 -5.34539,-30.81478 -5.34539,-34.21052 0,-8.59666 -1.09122,-23.49757 4.27631,-28.86509 0.67813,-0.67813 -0.44505,-3.38622 0,-4.27633 1.29798,-2.59596 4.86622,-6.63591 5.34539,-8.55263 2.35626,-9.42501 8.91126,-17.46387 14.9671,-23.51971 0.50395,-0.50395 1.50069,0.31874 2.13815,0 2.47134,-1.23566 3.18617,-3.18617 4.2763,-4.2763 1.19208,-1.19208 4.90194,-0.31282 6.41448,-1.06908 2.51764,-1.25883 3.41376,-2.20699 6.41448,-3.20725 7.82063,-2.60686 22.08276,0.94647 28.86509,3.20725 1.56054,0.52017 3.90536,-0.72004 5.3454,0 2.18729,1.09363 5.02989,3.66289 7.48356,4.2763 1.38287,0.34573 3.00135,-0.63746 4.2763,0 6.18749,3.09375 12.97413,6.55969 17.10526,10.69078 0.53559,0.53563 3.57544,0.36822 4.2763,1.06908 7.60264,7.60264 14.4168,14.93557 19.24341,24.58881 0.42212,0.84424 -0.30054,2.30561 0,3.20723 0.87365,2.62096 4.94858,13.50121 5.34538,13.89801 1.76768,1.76768 -1.1116,20.39755 -2.13815,22.45063 -1.8242,3.64839 -0.54706,6.43951 -2.13815,9.62171 -0.64146,1.28291 -2.5658,1.92434 -3.20723,3.20725 -6.0316,12.06317 -11.79505,17.1404 -20.31249,25.65786 -0.49421,0.49419 -2.56175,-0.32274 -3.20725,0 -1.10209,0.55105 -4.34369,4.31001 -6.41445,5.34538 -0.89011,0.44506 -3.59818,-0.67813 -4.27633,0 -4.94617,4.9462 -15.66148,4.27633 -23.51971,4.27633 -2.59022,0 -8.42426,1.13326 -10.69078,0 -2.53521,-1.26762 -3.92544,-1.78729 -5.34538,-3.20723 -0.8909,-0.8909 -4.4545,0.89088 -5.3454,0 -2.4841,-2.48409 -5.59718,-2.38995 -8.55263,-5.3454 -0.53454,-0.53454 -2.67269,0.53454 -3.20723,0 -0.50398,-0.50398 0,-1.42544 0,-2.13815"
       id="path4549"
       inkscape:connector-curvature="0" />

    <path
       style="fill:none;stroke:#000000;stroke-width:0.26458332px;stroke-linecap:butt;stroke-linejoin:miter;stroke-opacity:1"
       d="m 66.282842,-661.96306 c 7.362817,2.95148 12.669694,7.37739 19.243405,11.75986 3.435051,2.29004 6.010833,3.67086 8.552627,7.48355 0.369556,0.55433 0.638056,2.77621 1.069078,3.20723 2.211959,2.21196 -0.08647,-3.38017 2.138156,1.06908 3.899042,7.79809 11.531222,39.78452 5.345392,45.97036 -0.67813,0.67813 0.44505,3.38621 0,4.27631 -5.664239,11.32848 -13.033266,21.58589 -20.312488,28.86511 -0.534537,0.53454 -2.672693,-0.53454 -3.207234,0 -4.364691,4.36469 -4.301249,1.08155 -8.552624,3.20724 -2.89101,1.4455 -14.785898,2.76329 -18.174327,1.06907 -4.508923,-2.25446 -10.542299,-2.06391 -14.967093,-4.27631 -1.79764,-0.89882 -4.383227,-2.72615 -5.34539,-3.20723 -1.140351,-0.57018 -3.135963,0.57017 -4.276315,0 -2.985682,-1.49285 -4.322781,-3.25371 -6.414467,-5.3454 -0.503968,-0.50396 -1.500681,0.31874 -2.138156,0 -2.686479,-1.34324 -5.955249,-10.84141 -7.483547,-13.89801 -0.467769,-0.93554 -2.7584505,-3.55026 -3.2072343,-5.34539 -0.7550203,-3.02008 0,-7.51198 0,-10.69078 0,-4.31801 -1.9367394,-14.30085 0,-18.17433 1.5362223,-3.07244 1.7324243,-4.53392 3.2072343,-7.48354 0.560807,-1.12162 -0.853296,-4.4921 0,-5.3454 2.083545,-2.08354 5.345391,-8.87968 5.345391,-11.75986 0,-2.91659 2.357263,-2.79547 3.207234,-5.34539 4.587915,-13.76374 16.779945,-13.89801 31.003265,-13.89801 1.305854,0 10.69078,1.1197 10.69078,2.13816"
       id="path4553"
       inkscape:connector-curvature="0" />
    <path
       style="fill:none;stroke:#000000;stroke-width:0.26458332px;stroke-linecap:butt;stroke-linejoin:miter;stroke-opacity:1"
       d="m 291.85833,-656.61767 c -4.47239,3.32882 -14.78487,15.30719 -16.03619,20.31249 -0.67289,2.69161 -6.58873,27.62176 -4.2763,29.93418 1.11652,1.11651 2.3726,4.97968 3.20723,7.48355 0.74588,2.23765 0.66153,4.19953 2.13815,6.41447 0.27956,0.41933 0.71273,0.71272 1.06907,1.06908 0.71274,0.71272 1.57906,1.2995 2.13818,2.13815 0.39534,0.59302 -0.31874,1.50069 0,2.13816 1.12062,2.24126 3.74168,5.87985 5.34538,7.48355 9.14013,9.14012 22.14356,10.53723 33.14141,16.03617 2.01192,1.00595 22.17841,1.06908 25.65789,1.06908 10.20572,0 13.61816,0.13992 22.45064,-4.27632 0.63746,-0.31873 1.63417,0.50397 2.13815,0 3.39251,-3.39251 9.89822,-9.10566 12.82893,-14.96709 0.56769,-1.13539 0.1161,-3.32332 1.06908,-4.27631 9.4412,-9.4412 8.55263,-28.15437 8.55263,-42.76313 0,-4.73416 1.49106,-12.63207 0,-17.10525 -3.04356,-9.13066 -6.05888,-17.81874 -10.69078,-22.45064 -0.79685,-0.79684 -2.41038,-0.27223 -3.20723,-1.06907 -1.11932,-1.11931 -2.75865,-2.75866 -4.2763,-4.27632 -0.35571,-0.35569 -4.06059,0.0719 -4.27633,0 -2.38977,-0.79658 -4.68691,-3.3441 -7.48355,-4.27631 -1.51689,-0.50563 -3.92727,0.70907 -5.34538,0 -3.77452,-1.88725 -7.57669,-1.09236 -11.75986,-2.13815 -7.3842,-1.84606 -17.16254,-2.10952 -23.51971,1.06907 -0.89011,0.44505 -3.5982,-0.67813 -4.27633,0 -1.2964,1.29641 -3.6984,2.91828 -6.41445,4.27632 -0.6455,0.32274 -2.71304,-0.4942 -3.20725,0 -2.5898,2.58979 -8.10099,4.89375 -10.69078,7.48354 -1.24725,1.24726 -4.09813,0.8909 -5.34538,2.13816 -0.74073,0.74072 -2.46652,2.46652 -3.20725,3.20723 -0.50395,0.50397 0.50398,1.63419 0,2.13816 -0.86217,0.86218 -3.20723,0.68884 -3.20723,3.20723"
       id="path4555"
       inkscape:connector-curvature="0" />
    <path
       style="fill:none;stroke:#000000;stroke-width:0.26458332px;stroke-linecap:butt;stroke-linejoin:miter;stroke-opacity:1"
       d="m 32.072344,-443.87112 c -1.442802,9.81288 -4.106103,25.99829 0,34.2105 0.815412,1.63082 2.410018,2.68187 3.207234,4.27631 0.478105,0.9562 -0.338074,2.19302 0,3.20722 0.424937,1.27482 7.544205,6.53579 8.552625,8.55263 2.105422,4.21085 10.360249,10.52552 14.967092,12.82893 2.01979,1.00992 5.654839,1.37853 7.483547,3.20726 2.211961,2.21194 -3.380169,-0.0865 1.069078,2.13815 2.020213,1.0101 4.402809,0.39851 6.414468,1.06907 3.769299,1.25643 7.98621,4.0875 11.759859,5.34538 1.319146,0.43974 20.272393,0.55459 21.381563,0 0.75707,-0.37851 14.31356,-8.96816 14.96709,-9.62168 0.44799,-0.44799 0.74512,-2.55931 1.06908,-3.20725 0.98409,-1.96819 2.22314,-0.16997 3.20724,-2.13815 1.31654,-2.63308 -3.10326,0.96509 1.06907,-3.20723 0.50397,-0.50398 1.63419,0.50395 2.13816,0 0.70087,-0.70088 0.53347,-3.74071 1.06908,-4.27633 3.70183,-3.70184 7.59637,-8.89111 9.6217,-14.96708 1.63493,-4.90477 0.58701,-14.58997 2.13816,-19.24341 1.89686,-5.69061 1.41005,-26.045 -1.06908,-31.00326 -2.44619,-4.89239 -4.7271,-9.00341 -8.55263,-12.82894 -0.95299,-0.953 -0.50138,-3.14092 -1.06907,-4.27631 -0.80339,-1.60677 -3.46201,-1.32385 -4.27632,-2.13816 -7.8569,-7.8569 -18.23046,-11.06585 -29.934182,-14.96709 -3.963085,-1.32103 -8.083653,1.06908 -11.759861,1.06908 -4.885307,0 -19.457522,10.47716 -24.588796,13.89801 -0.593018,0.39535 -1.500682,-0.31874 -2.138156,0 -2.828597,1.4143 -3.984987,4.13065 -6.414468,5.34539 -12.385511,6.19276 -13.825884,13.75376 -20.312483,26.72696 z"
       id="path4557"
       inkscape:connector-curvature="0" />
  </g>
</svg>
